<?xml version="1.0" encoding="utf-8" standalone="no"?>
<!DOCTYPE svg PUBLIC "-//W3C//DTD SVG 1.1//EN"
  "http://www.w3.org/Graphics/SVG/1.1/DTD/svg11.dtd">
<!-- Created with matplotlib (https://matplotlib.org/) -->
<svg height="360pt" version="1.1" viewBox="0 0 360 360" width="360pt" xmlns="http://www.w3.org/2000/svg" xmlns:xlink="http://www.w3.org/1999/xlink">
 <defs>
  <style type="text/css">
*{stroke-linecap:butt;stroke-linejoin:round;}
  </style>
 </defs>
 <g id="figure_1">
  <g id="patch_1">
   <path d="M 0 360 
L 360 360 
L 360 0 
L 0 0 
z
" style="fill:#ffffff;"/>
  </g>
  <g id="axes_1">
   <g id="patch_2">
    <path d="M 53.085 327.54 
L 347.04 327.54 
L 347.04 13.528932 
L 53.085 13.528932 
z
" style="fill:#ffffff;"/>
   </g>
   <g id="matplotlib.axis_1">
    <g id="xtick_1">
     <g id="line2d_1">
      <path clip-path="url(#p96a662d589)" d="M 69.222787 327.54 
L 69.222787 13.528932 
" style="fill:none;stroke:#cccccc;stroke-linecap:round;"/>
     </g>
     <g id="text_1">
      <!-- 0 -->
      <defs>
       <path d="M 4.15625 35.296875 
Q 4.15625 48 6.765625 55.734375 
Q 9.375 63.484375 14.515625 67.671875 
Q 19.671875 71.875 27.484375 71.875 
Q 33.25 71.875 37.59375 69.546875 
Q 41.9375 67.234375 44.765625 62.859375 
Q 47.609375 58.5 49.21875 52.21875 
Q 50.828125 45.953125 50.828125 35.296875 
Q 50.828125 22.703125 48.234375 14.96875 
Q 45.65625 7.234375 40.5 3 
Q 35.359375 -1.21875 27.484375 -1.21875 
Q 17.140625 -1.21875 11.234375 6.203125 
Q 4.15625 15.140625 4.15625 35.296875 
z
M 13.1875 35.296875 
Q 13.1875 17.671875 17.3125 11.828125 
Q 21.4375 6 27.484375 6 
Q 33.546875 6 37.671875 11.859375 
Q 41.796875 17.71875 41.796875 35.296875 
Q 41.796875 52.984375 37.671875 58.78125 
Q 33.546875 64.59375 27.390625 64.59375 
Q 21.34375 64.59375 17.71875 59.46875 
Q 13.1875 52.9375 13.1875 35.296875 
z
" id="ArialMT-48"/>
      </defs>
      <g style="fill:#262626;" transform="translate(66.164271 344.913594)scale(0.11 -0.11)">
       <use xlink:href="#ArialMT-48"/>
      </g>
     </g>
    </g>
    <g id="xtick_2">
     <g id="line2d_2">
      <path clip-path="url(#p96a662d589)" d="M 112.763457 327.54 
L 112.763457 13.528932 
" style="fill:none;stroke:#cccccc;stroke-linecap:round;"/>
     </g>
     <g id="text_2">
      <!-- 1000 -->
      <defs>
       <path d="M 37.25 0 
L 28.46875 0 
L 28.46875 56 
Q 25.296875 52.984375 20.140625 49.953125 
Q 14.984375 46.921875 10.890625 45.40625 
L 10.890625 53.90625 
Q 18.265625 57.375 23.78125 62.296875 
Q 29.296875 67.234375 31.59375 71.875 
L 37.25 71.875 
z
" id="ArialMT-49"/>
      </defs>
      <g style="fill:#262626;" transform="translate(100.529394 344.913594)scale(0.11 -0.11)">
       <use xlink:href="#ArialMT-49"/>
       <use x="55.615234" xlink:href="#ArialMT-48"/>
       <use x="111.230469" xlink:href="#ArialMT-48"/>
       <use x="166.845703" xlink:href="#ArialMT-48"/>
      </g>
     </g>
    </g>
    <g id="xtick_3">
     <g id="line2d_3">
      <path clip-path="url(#p96a662d589)" d="M 156.304127 327.54 
L 156.304127 13.528932 
" style="fill:none;stroke:#cccccc;stroke-linecap:round;"/>
     </g>
     <g id="text_3">
      <!-- 2000 -->
      <defs>
       <path d="M 50.34375 8.453125 
L 50.34375 0 
L 3.03125 0 
Q 2.9375 3.171875 4.046875 6.109375 
Q 5.859375 10.9375 9.828125 15.625 
Q 13.8125 20.3125 21.34375 26.46875 
Q 33.015625 36.03125 37.109375 41.625 
Q 41.21875 47.21875 41.21875 52.203125 
Q 41.21875 57.421875 37.46875 61 
Q 33.734375 64.59375 27.734375 64.59375 
Q 21.390625 64.59375 17.578125 60.78125 
Q 13.765625 56.984375 13.71875 50.25 
L 4.6875 51.171875 
Q 5.609375 61.28125 11.65625 66.578125 
Q 17.71875 71.875 27.9375 71.875 
Q 38.234375 71.875 44.234375 66.15625 
Q 50.25 60.453125 50.25 52 
Q 50.25 47.703125 48.484375 43.546875 
Q 46.734375 39.40625 42.65625 34.8125 
Q 38.578125 30.21875 29.109375 22.21875 
Q 21.1875 15.578125 18.9375 13.203125 
Q 16.703125 10.84375 15.234375 8.453125 
z
" id="ArialMT-50"/>
      </defs>
      <g style="fill:#262626;" transform="translate(144.070064 344.913594)scale(0.11 -0.11)">
       <use xlink:href="#ArialMT-50"/>
       <use x="55.615234" xlink:href="#ArialMT-48"/>
       <use x="111.230469" xlink:href="#ArialMT-48"/>
       <use x="166.845703" xlink:href="#ArialMT-48"/>
      </g>
     </g>
    </g>
    <g id="xtick_4">
     <g id="line2d_4">
      <path clip-path="url(#p96a662d589)" d="M 199.844797 327.54 
L 199.844797 13.528932 
" style="fill:none;stroke:#cccccc;stroke-linecap:round;"/>
     </g>
     <g id="text_4">
      <!-- 3000 -->
      <defs>
       <path d="M 4.203125 18.890625 
L 12.984375 20.0625 
Q 14.5 12.59375 18.140625 9.296875 
Q 21.78125 6 27 6 
Q 33.203125 6 37.46875 10.296875 
Q 41.75 14.59375 41.75 20.953125 
Q 41.75 27 37.796875 30.921875 
Q 33.84375 34.859375 27.734375 34.859375 
Q 25.25 34.859375 21.53125 33.890625 
L 22.515625 41.609375 
Q 23.390625 41.5 23.921875 41.5 
Q 29.546875 41.5 34.03125 44.421875 
Q 38.53125 47.359375 38.53125 53.46875 
Q 38.53125 58.296875 35.25 61.46875 
Q 31.984375 64.65625 26.8125 64.65625 
Q 21.6875 64.65625 18.265625 61.421875 
Q 14.84375 58.203125 13.875 51.765625 
L 5.078125 53.328125 
Q 6.6875 62.15625 12.390625 67.015625 
Q 18.109375 71.875 26.609375 71.875 
Q 32.46875 71.875 37.390625 69.359375 
Q 42.328125 66.84375 44.9375 62.5 
Q 47.5625 58.15625 47.5625 53.265625 
Q 47.5625 48.640625 45.0625 44.828125 
Q 42.578125 41.015625 37.703125 38.765625 
Q 44.046875 37.3125 47.5625 32.6875 
Q 51.078125 28.078125 51.078125 21.140625 
Q 51.078125 11.765625 44.234375 5.25 
Q 37.40625 -1.265625 26.953125 -1.265625 
Q 17.53125 -1.265625 11.296875 4.34375 
Q 5.078125 9.96875 4.203125 18.890625 
z
" id="ArialMT-51"/>
      </defs>
      <g style="fill:#262626;" transform="translate(187.610734 344.913594)scale(0.11 -0.11)">
       <use xlink:href="#ArialMT-51"/>
       <use x="55.615234" xlink:href="#ArialMT-48"/>
       <use x="111.230469" xlink:href="#ArialMT-48"/>
       <use x="166.845703" xlink:href="#ArialMT-48"/>
      </g>
     </g>
    </g>
    <g id="xtick_5">
     <g id="line2d_5">
      <path clip-path="url(#p96a662d589)" d="M 243.385467 327.54 
L 243.385467 13.528932 
" style="fill:none;stroke:#cccccc;stroke-linecap:round;"/>
     </g>
     <g id="text_5">
      <!-- 4000 -->
      <defs>
       <path d="M 32.328125 0 
L 32.328125 17.140625 
L 1.265625 17.140625 
L 1.265625 25.203125 
L 33.9375 71.578125 
L 41.109375 71.578125 
L 41.109375 25.203125 
L 50.78125 25.203125 
L 50.78125 17.140625 
L 41.109375 17.140625 
L 41.109375 0 
z
M 32.328125 25.203125 
L 32.328125 57.46875 
L 9.90625 25.203125 
z
" id="ArialMT-52"/>
      </defs>
      <g style="fill:#262626;" transform="translate(231.151404 344.913594)scale(0.11 -0.11)">
       <use xlink:href="#ArialMT-52"/>
       <use x="55.615234" xlink:href="#ArialMT-48"/>
       <use x="111.230469" xlink:href="#ArialMT-48"/>
       <use x="166.845703" xlink:href="#ArialMT-48"/>
      </g>
     </g>
    </g>
    <g id="xtick_6">
     <g id="line2d_6">
      <path clip-path="url(#p96a662d589)" d="M 286.926137 327.54 
L 286.926137 13.528932 
" style="fill:none;stroke:#cccccc;stroke-linecap:round;"/>
     </g>
     <g id="text_6">
      <!-- 5000 -->
      <defs>
       <path d="M 4.15625 18.75 
L 13.375 19.53125 
Q 14.40625 12.796875 18.140625 9.390625 
Q 21.875 6 27.15625 6 
Q 33.5 6 37.890625 10.78125 
Q 42.28125 15.578125 42.28125 23.484375 
Q 42.28125 31 38.0625 35.34375 
Q 33.84375 39.703125 27 39.703125 
Q 22.75 39.703125 19.328125 37.765625 
Q 15.921875 35.84375 13.96875 32.765625 
L 5.71875 33.84375 
L 12.640625 70.609375 
L 48.25 70.609375 
L 48.25 62.203125 
L 19.671875 62.203125 
L 15.828125 42.96875 
Q 22.265625 47.46875 29.34375 47.46875 
Q 38.71875 47.46875 45.15625 40.96875 
Q 51.609375 34.46875 51.609375 24.265625 
Q 51.609375 14.546875 45.953125 7.46875 
Q 39.0625 -1.21875 27.15625 -1.21875 
Q 17.390625 -1.21875 11.203125 4.25 
Q 5.03125 9.71875 4.15625 18.75 
z
" id="ArialMT-53"/>
      </defs>
      <g style="fill:#262626;" transform="translate(274.692074 344.913594)scale(0.11 -0.11)">
       <use xlink:href="#ArialMT-53"/>
       <use x="55.615234" xlink:href="#ArialMT-48"/>
       <use x="111.230469" xlink:href="#ArialMT-48"/>
       <use x="166.845703" xlink:href="#ArialMT-48"/>
      </g>
     </g>
    </g>
    <g id="xtick_7">
     <g id="line2d_7">
      <path clip-path="url(#p96a662d589)" d="M 330.466807 327.54 
L 330.466807 13.528932 
" style="fill:none;stroke:#cccccc;stroke-linecap:round;"/>
     </g>
     <g id="text_7">
      <!-- 6000 -->
      <defs>
       <path d="M 49.75 54.046875 
L 41.015625 53.375 
Q 39.84375 58.546875 37.703125 60.890625 
Q 34.125 64.65625 28.90625 64.65625 
Q 24.703125 64.65625 21.53125 62.3125 
Q 17.390625 59.28125 14.984375 53.46875 
Q 12.59375 47.65625 12.5 36.921875 
Q 15.671875 41.75 20.265625 44.09375 
Q 24.859375 46.4375 29.890625 46.4375 
Q 38.671875 46.4375 44.84375 39.96875 
Q 51.03125 33.5 51.03125 23.25 
Q 51.03125 16.5 48.125 10.71875 
Q 45.21875 4.9375 40.140625 1.859375 
Q 35.0625 -1.21875 28.609375 -1.21875 
Q 17.625 -1.21875 10.6875 6.859375 
Q 3.765625 14.9375 3.765625 33.5 
Q 3.765625 54.25 11.421875 63.671875 
Q 18.109375 71.875 29.4375 71.875 
Q 37.890625 71.875 43.28125 67.140625 
Q 48.6875 62.40625 49.75 54.046875 
z
M 13.875 23.1875 
Q 13.875 18.65625 15.796875 14.5 
Q 17.71875 10.359375 21.1875 8.171875 
Q 24.65625 6 28.46875 6 
Q 34.03125 6 38.03125 10.484375 
Q 42.046875 14.984375 42.046875 22.703125 
Q 42.046875 30.125 38.078125 34.390625 
Q 34.125 38.671875 28.125 38.671875 
Q 22.171875 38.671875 18.015625 34.390625 
Q 13.875 30.125 13.875 23.1875 
z
" id="ArialMT-54"/>
      </defs>
      <g style="fill:#262626;" transform="translate(318.232744 344.913594)scale(0.11 -0.11)">
       <use xlink:href="#ArialMT-54"/>
       <use x="55.615234" xlink:href="#ArialMT-48"/>
       <use x="111.230469" xlink:href="#ArialMT-48"/>
       <use x="166.845703" xlink:href="#ArialMT-48"/>
      </g>
     </g>
    </g>
    <g id="text_8">
     <!-- following_count -->
     <defs>
      <path d="M 8.6875 0 
L 8.6875 45.015625 
L 0.921875 45.015625 
L 0.921875 51.859375 
L 8.6875 51.859375 
L 8.6875 57.375 
Q 8.6875 62.59375 9.625 65.140625 
Q 10.890625 68.5625 14.078125 70.671875 
Q 17.28125 72.796875 23.046875 72.796875 
Q 26.765625 72.796875 31.25 71.921875 
L 29.9375 64.265625 
Q 27.203125 64.75 24.75 64.75 
Q 20.75 64.75 19.09375 63.03125 
Q 17.4375 61.328125 17.4375 56.640625 
L 17.4375 51.859375 
L 27.546875 51.859375 
L 27.546875 45.015625 
L 17.4375 45.015625 
L 17.4375 0 
z
" id="ArialMT-102"/>
      <path d="M 3.328125 25.921875 
Q 3.328125 40.328125 11.328125 47.265625 
Q 18.015625 53.03125 27.640625 53.03125 
Q 38.328125 53.03125 45.109375 46.015625 
Q 51.90625 39.015625 51.90625 26.65625 
Q 51.90625 16.65625 48.90625 10.90625 
Q 45.90625 5.171875 40.15625 2 
Q 34.421875 -1.171875 27.640625 -1.171875 
Q 16.75 -1.171875 10.03125 5.8125 
Q 3.328125 12.796875 3.328125 25.921875 
z
M 12.359375 25.921875 
Q 12.359375 15.96875 16.703125 11.015625 
Q 21.046875 6.0625 27.640625 6.0625 
Q 34.1875 6.0625 38.53125 11.03125 
Q 42.875 16.015625 42.875 26.21875 
Q 42.875 35.84375 38.5 40.796875 
Q 34.125 45.75 27.640625 45.75 
Q 21.046875 45.75 16.703125 40.8125 
Q 12.359375 35.890625 12.359375 25.921875 
z
" id="ArialMT-111"/>
      <path d="M 6.390625 0 
L 6.390625 71.578125 
L 15.1875 71.578125 
L 15.1875 0 
z
" id="ArialMT-108"/>
      <path d="M 16.15625 0 
L 0.296875 51.859375 
L 9.375 51.859375 
L 17.625 21.921875 
L 20.703125 10.796875 
Q 20.90625 11.625 23.390625 21.484375 
L 31.640625 51.859375 
L 40.671875 51.859375 
L 48.4375 21.78125 
L 51.03125 11.859375 
L 54 21.875 
L 62.890625 51.859375 
L 71.4375 51.859375 
L 55.21875 0 
L 46.09375 0 
L 37.84375 31.0625 
L 35.84375 39.890625 
L 25.34375 0 
z
" id="ArialMT-119"/>
      <path d="M 6.640625 61.46875 
L 6.640625 71.578125 
L 15.4375 71.578125 
L 15.4375 61.46875 
z
M 6.640625 0 
L 6.640625 51.859375 
L 15.4375 51.859375 
L 15.4375 0 
z
" id="ArialMT-105"/>
      <path d="M 6.59375 0 
L 6.59375 51.859375 
L 14.5 51.859375 
L 14.5 44.484375 
Q 20.21875 53.03125 31 53.03125 
Q 35.6875 53.03125 39.625 51.34375 
Q 43.5625 49.65625 45.515625 46.921875 
Q 47.46875 44.1875 48.25 40.4375 
Q 48.734375 37.984375 48.734375 31.890625 
L 48.734375 0 
L 39.9375 0 
L 39.9375 31.546875 
Q 39.9375 36.921875 38.90625 39.578125 
Q 37.890625 42.234375 35.28125 43.8125 
Q 32.671875 45.40625 29.15625 45.40625 
Q 23.53125 45.40625 19.453125 41.84375 
Q 15.375 38.28125 15.375 28.328125 
L 15.375 0 
z
" id="ArialMT-110"/>
      <path d="M 4.984375 -4.296875 
L 13.53125 -5.5625 
Q 14.0625 -9.515625 16.5 -11.328125 
Q 19.78125 -13.765625 25.4375 -13.765625 
Q 31.546875 -13.765625 34.859375 -11.328125 
Q 38.1875 -8.890625 39.359375 -4.5 
Q 40.046875 -1.8125 39.984375 6.78125 
Q 34.234375 0 25.640625 0 
Q 14.9375 0 9.078125 7.71875 
Q 3.21875 15.4375 3.21875 26.21875 
Q 3.21875 33.640625 5.90625 39.90625 
Q 8.59375 46.1875 13.6875 49.609375 
Q 18.796875 53.03125 25.6875 53.03125 
Q 34.859375 53.03125 40.828125 45.609375 
L 40.828125 51.859375 
L 48.921875 51.859375 
L 48.921875 7.03125 
Q 48.921875 -5.078125 46.453125 -10.125 
Q 44 -15.1875 38.640625 -18.109375 
Q 33.296875 -21.046875 25.484375 -21.046875 
Q 16.21875 -21.046875 10.5 -16.875 
Q 4.78125 -12.703125 4.984375 -4.296875 
z
M 12.25 26.859375 
Q 12.25 16.65625 16.296875 11.96875 
Q 20.359375 7.28125 26.46875 7.28125 
Q 32.515625 7.28125 36.609375 11.9375 
Q 40.71875 16.609375 40.71875 26.5625 
Q 40.71875 36.078125 36.5 40.90625 
Q 32.28125 45.75 26.3125 45.75 
Q 20.453125 45.75 16.34375 40.984375 
Q 12.25 36.234375 12.25 26.859375 
z
" id="ArialMT-103"/>
      <path d="M -1.515625 -19.875 
L -1.515625 -13.53125 
L 56.734375 -13.53125 
L 56.734375 -19.875 
z
" id="ArialMT-95"/>
      <path d="M 40.4375 19 
L 49.078125 17.875 
Q 47.65625 8.9375 41.8125 3.875 
Q 35.984375 -1.171875 27.484375 -1.171875 
Q 16.84375 -1.171875 10.375 5.78125 
Q 3.90625 12.75 3.90625 25.734375 
Q 3.90625 34.125 6.6875 40.421875 
Q 9.46875 46.734375 15.15625 49.875 
Q 20.84375 53.03125 27.546875 53.03125 
Q 35.984375 53.03125 41.359375 48.75 
Q 46.734375 44.484375 48.25 36.625 
L 39.703125 35.296875 
Q 38.484375 40.53125 35.375 43.15625 
Q 32.28125 45.796875 27.875 45.796875 
Q 21.234375 45.796875 17.078125 41.03125 
Q 12.9375 36.28125 12.9375 25.984375 
Q 12.9375 15.53125 16.9375 10.796875 
Q 20.953125 6.0625 27.390625 6.0625 
Q 32.5625 6.0625 36.03125 9.234375 
Q 39.5 12.40625 40.4375 19 
z
" id="ArialMT-99"/>
      <path d="M 40.578125 0 
L 40.578125 7.625 
Q 34.515625 -1.171875 24.125 -1.171875 
Q 19.53125 -1.171875 15.546875 0.578125 
Q 11.578125 2.34375 9.640625 5 
Q 7.71875 7.671875 6.9375 11.53125 
Q 6.390625 14.109375 6.390625 19.734375 
L 6.390625 51.859375 
L 15.1875 51.859375 
L 15.1875 23.09375 
Q 15.1875 16.21875 15.71875 13.8125 
Q 16.546875 10.359375 19.234375 8.375 
Q 21.921875 6.390625 25.875 6.390625 
Q 29.828125 6.390625 33.296875 8.421875 
Q 36.765625 10.453125 38.203125 13.9375 
Q 39.65625 17.4375 39.65625 24.078125 
L 39.65625 51.859375 
L 48.4375 51.859375 
L 48.4375 0 
z
" id="ArialMT-117"/>
      <path d="M 25.78125 7.859375 
L 27.046875 0.09375 
Q 23.34375 -0.6875 20.40625 -0.6875 
Q 15.625 -0.6875 12.984375 0.828125 
Q 10.359375 2.34375 9.28125 4.8125 
Q 8.203125 7.28125 8.203125 15.1875 
L 8.203125 45.015625 
L 1.765625 45.015625 
L 1.765625 51.859375 
L 8.203125 51.859375 
L 8.203125 64.703125 
L 16.9375 69.96875 
L 16.9375 51.859375 
L 25.78125 51.859375 
L 25.78125 45.015625 
L 16.9375 45.015625 
L 16.9375 14.703125 
Q 16.9375 10.9375 17.40625 9.859375 
Q 17.875 8.796875 18.921875 8.15625 
Q 19.96875 7.515625 21.921875 7.515625 
Q 23.390625 7.515625 25.78125 7.859375 
z
" id="ArialMT-116"/>
     </defs>
     <g style="fill:#262626;" transform="translate(158.70375 359.835469)scale(0.12 -0.12)">
      <use xlink:href="#ArialMT-102"/>
      <use x="27.783203" xlink:href="#ArialMT-111"/>
      <use x="83.398438" xlink:href="#ArialMT-108"/>
      <use x="105.615234" xlink:href="#ArialMT-108"/>
      <use x="127.832031" xlink:href="#ArialMT-111"/>
      <use x="183.447266" xlink:href="#ArialMT-119"/>
      <use x="255.664062" xlink:href="#ArialMT-105"/>
      <use x="277.880859" xlink:href="#ArialMT-110"/>
      <use x="333.496094" xlink:href="#ArialMT-103"/>
      <use x="389.111328" xlink:href="#ArialMT-95"/>
      <use x="444.726562" xlink:href="#ArialMT-99"/>
      <use x="494.726562" xlink:href="#ArialMT-111"/>
      <use x="550.341797" xlink:href="#ArialMT-117"/>
      <use x="605.957031" xlink:href="#ArialMT-110"/>
      <use x="661.572266" xlink:href="#ArialMT-116"/>
     </g>
    </g>
   </g>
   <g id="matplotlib.axis_2">
    <g id="ytick_1">
     <g id="line2d_8">
      <path clip-path="url(#p96a662d589)" d="M 53.085 307.408648 
L 347.04 307.408648 
" style="fill:none;stroke:#cccccc;stroke-linecap:round;"/>
     </g>
     <g id="text_9">
      <!-- 0 -->
      <g style="fill:#262626;" transform="translate(37.467969 311.345445)scale(0.11 -0.11)">
       <use xlink:href="#ArialMT-48"/>
      </g>
     </g>
    </g>
    <g id="ytick_2">
     <g id="line2d_9">
      <path clip-path="url(#p96a662d589)" d="M 53.085 265.921399 
L 347.04 265.921399 
" style="fill:none;stroke:#cccccc;stroke-linecap:round;"/>
     </g>
     <g id="text_10">
      <!-- 5000 -->
      <g style="fill:#262626;" transform="translate(19.116875 269.858195)scale(0.11 -0.11)">
       <use xlink:href="#ArialMT-53"/>
       <use x="55.615234" xlink:href="#ArialMT-48"/>
       <use x="111.230469" xlink:href="#ArialMT-48"/>
       <use x="166.845703" xlink:href="#ArialMT-48"/>
      </g>
     </g>
    </g>
    <g id="ytick_3">
     <g id="line2d_10">
      <path clip-path="url(#p96a662d589)" d="M 53.085 224.434149 
L 347.04 224.434149 
" style="fill:none;stroke:#cccccc;stroke-linecap:round;"/>
     </g>
     <g id="text_11">
      <!-- 10000 -->
      <g style="fill:#262626;" transform="translate(12.999844 228.370946)scale(0.11 -0.11)">
       <use xlink:href="#ArialMT-49"/>
       <use x="55.615234" xlink:href="#ArialMT-48"/>
       <use x="111.230469" xlink:href="#ArialMT-48"/>
       <use x="166.845703" xlink:href="#ArialMT-48"/>
       <use x="222.460938" xlink:href="#ArialMT-48"/>
      </g>
     </g>
    </g>
    <g id="ytick_4">
     <g id="line2d_11">
      <path clip-path="url(#p96a662d589)" d="M 53.085 182.9469 
L 347.04 182.9469 
" style="fill:none;stroke:#cccccc;stroke-linecap:round;"/>
     </g>
     <g id="text_12">
      <!-- 15000 -->
      <g style="fill:#262626;" transform="translate(12.999844 186.883697)scale(0.11 -0.11)">
       <use xlink:href="#ArialMT-49"/>
       <use x="55.615234" xlink:href="#ArialMT-53"/>
       <use x="111.230469" xlink:href="#ArialMT-48"/>
       <use x="166.845703" xlink:href="#ArialMT-48"/>
       <use x="222.460938" xlink:href="#ArialMT-48"/>
      </g>
     </g>
    </g>
    <g id="ytick_5">
     <g id="line2d_12">
      <path clip-path="url(#p96a662d589)" d="M 53.085 141.459651 
L 347.04 141.459651 
" style="fill:none;stroke:#cccccc;stroke-linecap:round;"/>
     </g>
     <g id="text_13">
      <!-- 20000 -->
      <g style="fill:#262626;" transform="translate(12.999844 145.396448)scale(0.11 -0.11)">
       <use xlink:href="#ArialMT-50"/>
       <use x="55.615234" xlink:href="#ArialMT-48"/>
       <use x="111.230469" xlink:href="#ArialMT-48"/>
       <use x="166.845703" xlink:href="#ArialMT-48"/>
       <use x="222.460938" xlink:href="#ArialMT-48"/>
      </g>
     </g>
    </g>
    <g id="ytick_6">
     <g id="line2d_13">
      <path clip-path="url(#p96a662d589)" d="M 53.085 99.972402 
L 347.04 99.972402 
" style="fill:none;stroke:#cccccc;stroke-linecap:round;"/>
     </g>
     <g id="text_14">
      <!-- 25000 -->
      <g style="fill:#262626;" transform="translate(12.999844 103.909199)scale(0.11 -0.11)">
       <use xlink:href="#ArialMT-50"/>
       <use x="55.615234" xlink:href="#ArialMT-53"/>
       <use x="111.230469" xlink:href="#ArialMT-48"/>
       <use x="166.845703" xlink:href="#ArialMT-48"/>
       <use x="222.460938" xlink:href="#ArialMT-48"/>
      </g>
     </g>
    </g>
    <g id="ytick_7">
     <g id="line2d_14">
      <path clip-path="url(#p96a662d589)" d="M 53.085 58.485153 
L 347.04 58.485153 
" style="fill:none;stroke:#cccccc;stroke-linecap:round;"/>
     </g>
     <g id="text_15">
      <!-- 30000 -->
      <g style="fill:#262626;" transform="translate(12.999844 62.42195)scale(0.11 -0.11)">
       <use xlink:href="#ArialMT-51"/>
       <use x="55.615234" xlink:href="#ArialMT-48"/>
       <use x="111.230469" xlink:href="#ArialMT-48"/>
       <use x="166.845703" xlink:href="#ArialMT-48"/>
       <use x="222.460938" xlink:href="#ArialMT-48"/>
      </g>
     </g>
    </g>
    <g id="ytick_8">
     <g id="line2d_15">
      <path clip-path="url(#p96a662d589)" d="M 53.085 16.997904 
L 347.04 16.997904 
" style="fill:none;stroke:#cccccc;stroke-linecap:round;"/>
     </g>
     <g id="text_16">
      <!-- 35000 -->
      <g style="fill:#262626;" transform="translate(12.999844 20.934701)scale(0.11 -0.11)">
       <use xlink:href="#ArialMT-51"/>
       <use x="55.615234" xlink:href="#ArialMT-53"/>
       <use x="111.230469" xlink:href="#ArialMT-48"/>
       <use x="166.845703" xlink:href="#ArialMT-48"/>
       <use x="222.460938" xlink:href="#ArialMT-48"/>
      </g>
     </g>
    </g>
    <g id="text_17">
     <!-- followers_count -->
     <defs>
      <path d="M 42.09375 16.703125 
L 51.171875 15.578125 
Q 49.03125 7.625 43.21875 3.21875 
Q 37.40625 -1.171875 28.375 -1.171875 
Q 17 -1.171875 10.328125 5.828125 
Q 3.65625 12.84375 3.65625 25.484375 
Q 3.65625 38.578125 10.390625 45.796875 
Q 17.140625 53.03125 27.875 53.03125 
Q 38.28125 53.03125 44.875 45.953125 
Q 51.46875 38.875 51.46875 26.03125 
Q 51.46875 25.25 51.421875 23.6875 
L 12.75 23.6875 
Q 13.234375 15.140625 17.578125 10.59375 
Q 21.921875 6.0625 28.421875 6.0625 
Q 33.25 6.0625 36.671875 8.59375 
Q 40.09375 11.140625 42.09375 16.703125 
z
M 13.234375 30.90625 
L 42.1875 30.90625 
Q 41.609375 37.453125 38.875 40.71875 
Q 34.671875 45.796875 27.984375 45.796875 
Q 21.921875 45.796875 17.796875 41.75 
Q 13.671875 37.703125 13.234375 30.90625 
z
" id="ArialMT-101"/>
      <path d="M 6.5 0 
L 6.5 51.859375 
L 14.40625 51.859375 
L 14.40625 44 
Q 17.4375 49.515625 20 51.265625 
Q 22.5625 53.03125 25.640625 53.03125 
Q 30.078125 53.03125 34.671875 50.203125 
L 31.640625 42.046875 
Q 28.421875 43.953125 25.203125 43.953125 
Q 22.3125 43.953125 20.015625 42.21875 
Q 17.71875 40.484375 16.75 37.40625 
Q 15.28125 32.71875 15.28125 27.15625 
L 15.28125 0 
z
" id="ArialMT-114"/>
      <path d="M 3.078125 15.484375 
L 11.765625 16.84375 
Q 12.5 11.625 15.84375 8.84375 
Q 19.1875 6.0625 25.203125 6.0625 
Q 31.25 6.0625 34.171875 8.515625 
Q 37.109375 10.984375 37.109375 14.3125 
Q 37.109375 17.28125 34.515625 19 
Q 32.71875 20.171875 25.53125 21.96875 
Q 15.875 24.421875 12.140625 26.203125 
Q 8.40625 27.984375 6.46875 31.125 
Q 4.546875 34.28125 4.546875 38.09375 
Q 4.546875 41.546875 6.125 44.5 
Q 7.71875 47.46875 10.453125 49.421875 
Q 12.5 50.921875 16.03125 51.96875 
Q 19.578125 53.03125 23.640625 53.03125 
Q 29.734375 53.03125 34.34375 51.265625 
Q 38.96875 49.515625 41.15625 46.5 
Q 43.359375 43.5 44.1875 38.484375 
L 35.59375 37.3125 
Q 35.015625 41.3125 32.203125 43.546875 
Q 29.390625 45.796875 24.265625 45.796875 
Q 18.21875 45.796875 15.625 43.796875 
Q 13.03125 41.796875 13.03125 39.109375 
Q 13.03125 37.40625 14.109375 36.03125 
Q 15.1875 34.625 17.484375 33.6875 
Q 18.796875 33.203125 25.25 31.453125 
Q 34.578125 28.953125 38.25 27.359375 
Q 41.9375 25.78125 44.03125 22.75 
Q 46.140625 19.734375 46.140625 15.234375 
Q 46.140625 10.84375 43.578125 6.953125 
Q 41.015625 3.078125 36.171875 0.953125 
Q 31.34375 -1.171875 25.25 -1.171875 
Q 15.140625 -1.171875 9.84375 3.03125 
Q 4.546875 7.234375 3.078125 15.484375 
z
" id="ArialMT-115"/>
     </defs>
     <g style="fill:#262626;" transform="translate(6.614844 212.221341)rotate(-90)scale(0.12 -0.12)">
      <use xlink:href="#ArialMT-102"/>
      <use x="27.783203" xlink:href="#ArialMT-111"/>
      <use x="83.398438" xlink:href="#ArialMT-108"/>
      <use x="105.615234" xlink:href="#ArialMT-108"/>
      <use x="127.832031" xlink:href="#ArialMT-111"/>
      <use x="183.447266" xlink:href="#ArialMT-119"/>
      <use x="255.664062" xlink:href="#ArialMT-101"/>
      <use x="311.279297" xlink:href="#ArialMT-114"/>
      <use x="344.580078" xlink:href="#ArialMT-115"/>
      <use x="394.580078" xlink:href="#ArialMT-95"/>
      <use x="450.195312" xlink:href="#ArialMT-99"/>
      <use x="500.195312" xlink:href="#ArialMT-111"/>
      <use x="555.810547" xlink:href="#ArialMT-117"/>
      <use x="611.425781" xlink:href="#ArialMT-110"/>
      <use x="667.041016" xlink:href="#ArialMT-116"/>
     </g>
    </g>
   </g>
   <g id="PathCollection_1">
    <defs>
     <path d="M 0 3 
C 0.795609 3 1.55874 2.683901 2.12132 2.12132 
C 2.683901 1.55874 3 0.795609 3 0 
C 3 -0.795609 2.683901 -1.55874 2.12132 -2.12132 
C 1.55874 -2.683901 0.795609 -3 0 -3 
C -0.795609 -3 -1.55874 -2.683901 -2.12132 -2.12132 
C -2.683901 -1.55874 -3 -0.795609 -3 0 
C -3 0.795609 -2.683901 1.55874 -2.12132 2.12132 
C -1.55874 2.683901 -0.795609 3 0 3 
z
" id="m2d4d9b824f" style="stroke:#dd8452;stroke-opacity:0.8;"/>
    </defs>
    <g clip-path="url(#p96a662d589)">
     <use style="fill:#dd8452;fill-opacity:0.8;stroke:#dd8452;stroke-opacity:0.8;" x="69.44049" xlink:href="#m2d4d9b824f" y="307.350565"/>
     <use style="fill:#dd8452;fill-opacity:0.8;stroke:#dd8452;stroke-opacity:0.8;" x="75.92805" xlink:href="#m2d4d9b824f" y="306.927396"/>
     <use style="fill:#dd8452;fill-opacity:0.8;stroke:#dd8452;stroke-opacity:0.8;" x="83.678289" xlink:href="#m2d4d9b824f" y="305.267906"/>
     <use style="fill:#dd8452;fill-opacity:0.8;stroke:#dd8452;stroke-opacity:0.8;" x="77.669677" xlink:href="#m2d4d9b824f" y="306.52082"/>
     <use style="fill:#dd8452;fill-opacity:0.8;stroke:#dd8452;stroke-opacity:0.8;" x="75.231399" xlink:href="#m2d4d9b824f" y="306.678472"/>
     <use style="fill:#dd8452;fill-opacity:0.8;stroke:#dd8452;stroke-opacity:0.8;" x="79.367763" xlink:href="#m2d4d9b824f" y="304.670489"/>
     <use style="fill:#dd8452;fill-opacity:0.8;stroke:#dd8452;stroke-opacity:0.8;" x="85.724701" xlink:href="#m2d4d9b824f" y="306.056163"/>
     <use style="fill:#dd8452;fill-opacity:0.8;stroke:#dd8452;stroke-opacity:0.8;" x="103.88116" xlink:href="#m2d4d9b824f" y="306.097651"/>
     <use style="fill:#dd8452;fill-opacity:0.8;stroke:#dd8452;stroke-opacity:0.8;" x="89.512739" xlink:href="#m2d4d9b824f" y="306.13084"/>
     <use style="fill:#dd8452;fill-opacity:0.8;stroke:#dd8452;stroke-opacity:0.8;" x="116.24671" xlink:href="#m2d4d9b824f" y="304.197535"/>
     <use style="fill:#dd8452;fill-opacity:0.8;stroke:#dd8452;stroke-opacity:0.8;" x="100.702691" xlink:href="#m2d4d9b824f" y="305.483639"/>
     <use style="fill:#dd8452;fill-opacity:0.8;stroke:#dd8452;stroke-opacity:0.8;" x="88.206519" xlink:href="#m2d4d9b824f" y="306.802934"/>
     <use style="fill:#dd8452;fill-opacity:0.8;stroke:#dd8452;stroke-opacity:0.8;" x="78.627571" xlink:href="#m2d4d9b824f" y="305.923404"/>
     <use style="fill:#dd8452;fill-opacity:0.8;stroke:#dd8452;stroke-opacity:0.8;" x="92.604126" xlink:href="#m2d4d9b824f" y="305.276203"/>
     <use style="fill:#dd8452;fill-opacity:0.8;stroke:#dd8452;stroke-opacity:0.8;" x="175.984509" xlink:href="#m2d4d9b824f" y="305.682778"/>
     <use style="fill:#dd8452;fill-opacity:0.8;stroke:#dd8452;stroke-opacity:0.8;" x="122.995514" xlink:href="#m2d4d9b824f" y="305.101957"/>
     <use style="fill:#dd8452;fill-opacity:0.8;stroke:#dd8452;stroke-opacity:0.8;" x="116.986902" xlink:href="#m2d4d9b824f" y="303.409277"/>
     <use style="fill:#dd8452;fill-opacity:0.8;stroke:#dd8452;stroke-opacity:0.8;" x="90.775418" xlink:href="#m2d4d9b824f" y="302.645911"/>
     <use style="fill:#dd8452;fill-opacity:0.8;stroke:#dd8452;stroke-opacity:0.8;" x="76.406997" xlink:href="#m2d4d9b824f" y="306.802934"/>
     <use style="fill:#dd8452;fill-opacity:0.8;stroke:#dd8452;stroke-opacity:0.8;" x="144.80939" xlink:href="#m2d4d9b824f" y="302.670804"/>
     <use style="fill:#dd8452;fill-opacity:0.8;stroke:#dd8452;stroke-opacity:0.8;" x="70.354844" xlink:href="#m2d4d9b824f" y="307.242699"/>
     <use style="fill:#dd8452;fill-opacity:0.8;stroke:#dd8452;stroke-opacity:0.8;" x="95.695514" xlink:href="#m2d4d9b824f" y="302.197849"/>
     <use style="fill:#dd8452;fill-opacity:0.8;stroke:#dd8452;stroke-opacity:0.8;" x="80.325657" xlink:href="#m2d4d9b824f" y="305.823835"/>
     <use style="fill:#dd8452;fill-opacity:0.8;stroke:#dd8452;stroke-opacity:0.8;" x="91.994557" xlink:href="#m2d4d9b824f" y="304.321996"/>
     <use style="fill:#dd8452;fill-opacity:0.8;stroke:#dd8452;stroke-opacity:0.8;" x="84.897428" xlink:href="#m2d4d9b824f" y="302.148064"/>
     <use style="fill:#dd8452;fill-opacity:0.8;stroke:#dd8452;stroke-opacity:0.8;" x="114.679246" xlink:href="#m2d4d9b824f" y="288.764278"/>
     <use style="fill:#dd8452;fill-opacity:0.8;stroke:#dd8452;stroke-opacity:0.8;" x="80.543361" xlink:href="#m2d4d9b824f" y="306.52082"/>
     <use style="fill:#dd8452;fill-opacity:0.8;stroke:#dd8452;stroke-opacity:0.8;" x="152.298385" xlink:href="#m2d4d9b824f" y="299.932645"/>
     <use style="fill:#dd8452;fill-opacity:0.8;stroke:#dd8452;stroke-opacity:0.8;" x="141.935706" xlink:href="#m2d4d9b824f" y="293.676368"/>
     <use style="fill:#dd8452;fill-opacity:0.8;stroke:#dd8452;stroke-opacity:0.8;" x="109.628528" xlink:href="#m2d4d9b824f" y="303.990098"/>
     <use style="fill:#dd8452;fill-opacity:0.8;stroke:#dd8452;stroke-opacity:0.8;" x="78.584031" xlink:href="#m2d4d9b824f" y="306.421251"/>
     <use style="fill:#dd8452;fill-opacity:0.8;stroke:#dd8452;stroke-opacity:0.8;" x="248.044318" xlink:href="#m2d4d9b824f" y="202.694831"/>
     <use style="fill:#dd8452;fill-opacity:0.8;stroke:#dd8452;stroke-opacity:0.8;" x="122.516567" xlink:href="#m2d4d9b824f" y="286.324828"/>
     <use style="fill:#dd8452;fill-opacity:0.8;stroke:#dd8452;stroke-opacity:0.8;" x="96.653409" xlink:href="#m2d4d9b824f" y="306.047866"/>
     <use style="fill:#dd8452;fill-opacity:0.8;stroke:#dd8452;stroke-opacity:0.8;" x="132.966328" xlink:href="#m2d4d9b824f" y="296.962158"/>
     <use style="fill:#dd8452;fill-opacity:0.8;stroke:#dd8452;stroke-opacity:0.8;" x="87.945275" xlink:href="#m2d4d9b824f" y="305.832132"/>
     <use style="fill:#dd8452;fill-opacity:0.8;stroke:#dd8452;stroke-opacity:0.8;" x="128.307476" xlink:href="#m2d4d9b824f" y="292.763649"/>
     <use style="fill:#dd8452;fill-opacity:0.8;stroke:#dd8452;stroke-opacity:0.8;" x="75.536184" xlink:href="#m2d4d9b824f" y="300.961529"/>
     <use style="fill:#dd8452;fill-opacity:0.8;stroke:#dd8452;stroke-opacity:0.8;" x="118.293122" xlink:href="#m2d4d9b824f" y="301.467674"/>
     <use style="fill:#dd8452;fill-opacity:0.8;stroke:#dd8452;stroke-opacity:0.8;" x="104.011782" xlink:href="#m2d4d9b824f" y="291.743062"/>
     <use style="fill:#dd8452;fill-opacity:0.8;stroke:#dd8452;stroke-opacity:0.8;" x="109.628528" xlink:href="#m2d4d9b824f" y="290.158249"/>
     <use style="fill:#dd8452;fill-opacity:0.8;stroke:#dd8452;stroke-opacity:0.8;" x="87.814653" xlink:href="#m2d4d9b824f" y="286.391207"/>
     <use style="fill:#dd8452;fill-opacity:0.8;stroke:#dd8452;stroke-opacity:0.8;" x="103.576375" xlink:href="#m2d4d9b824f" y="299.385014"/>
     <use style="fill:#dd8452;fill-opacity:0.8;stroke:#dd8452;stroke-opacity:0.8;" x="115.506519" xlink:href="#m2d4d9b824f" y="281.545497"/>
     <use style="fill:#dd8452;fill-opacity:0.8;stroke:#dd8452;stroke-opacity:0.8;" x="106.841926" xlink:href="#m2d4d9b824f" y="303.923719"/>
     <use style="fill:#dd8452;fill-opacity:0.8;stroke:#dd8452;stroke-opacity:0.8;" x="90.25293" xlink:href="#m2d4d9b824f" y="304.247319"/>
     <use style="fill:#dd8452;fill-opacity:0.8;stroke:#dd8452;stroke-opacity:0.8;" x="84.505562" xlink:href="#m2d4d9b824f" y="305.267906"/>
     <use style="fill:#dd8452;fill-opacity:0.8;stroke:#dd8452;stroke-opacity:0.8;" x="118.293122" xlink:href="#m2d4d9b824f" y="284.092814"/>
     <use style="fill:#dd8452;fill-opacity:0.8;stroke:#dd8452;stroke-opacity:0.8;" x="76.450538" xlink:href="#m2d4d9b824f" y="305.765753"/>
     <use style="fill:#dd8452;fill-opacity:0.8;stroke:#dd8452;stroke-opacity:0.8;" x="108.322308" xlink:href="#m2d4d9b824f" y="299.111198"/>
     <use style="fill:#dd8452;fill-opacity:0.8;stroke:#dd8452;stroke-opacity:0.8;" x="81.10939" xlink:href="#m2d4d9b824f" y="305.508532"/>
     <use style="fill:#dd8452;fill-opacity:0.8;stroke:#dd8452;stroke-opacity:0.8;" x="121.776375" xlink:href="#m2d4d9b824f" y="304.811546"/>
     <use style="fill:#dd8452;fill-opacity:0.8;stroke:#dd8452;stroke-opacity:0.8;" x="122.995514" xlink:href="#m2d4d9b824f" y="289.627213"/>
     <use style="fill:#dd8452;fill-opacity:0.8;stroke:#dd8452;stroke-opacity:0.8;" x="146.725179" xlink:href="#m2d4d9b824f" y="301.459376"/>
     <use style="fill:#dd8452;fill-opacity:0.8;stroke:#dd8452;stroke-opacity:0.8;" x="237.333314" xlink:href="#m2d4d9b824f" y="265.597798"/>
     <use style="fill:#dd8452;fill-opacity:0.8;stroke:#dd8452;stroke-opacity:0.8;" x="107.538576" xlink:href="#m2d4d9b824f" y="277.081469"/>
     <use style="fill:#dd8452;fill-opacity:0.8;stroke:#dd8452;stroke-opacity:0.8;" x="69.309868" xlink:href="#m2d4d9b824f" y="307.275888"/>
     <use style="fill:#dd8452;fill-opacity:0.8;stroke:#dd8452;stroke-opacity:0.8;" x="89.077332" xlink:href="#m2d4d9b824f" y="298.190181"/>
     <use style="fill:#dd8452;fill-opacity:0.8;stroke:#dd8452;stroke-opacity:0.8;" x="185.998864" xlink:href="#m2d4d9b824f" y="300.613036"/>
     <use style="fill:#dd8452;fill-opacity:0.8;stroke:#dd8452;stroke-opacity:0.8;" x="102.966806" xlink:href="#m2d4d9b824f" y="301.890843"/>
     <use style="fill:#dd8452;fill-opacity:0.8;stroke:#dd8452;stroke-opacity:0.8;" x="98.525658" xlink:href="#m2d4d9b824f" y="304.695382"/>
     <use style="fill:#dd8452;fill-opacity:0.8;stroke:#dd8452;stroke-opacity:0.8;" x="109.236662" xlink:href="#m2d4d9b824f" y="300.397303"/>
     <use style="fill:#dd8452;fill-opacity:0.8;stroke:#dd8452;stroke-opacity:0.8;" x="150.121352" xlink:href="#m2d4d9b824f" y="271.563664"/>
     <use style="fill:#dd8452;fill-opacity:0.8;stroke:#dd8452;stroke-opacity:0.8;" x="101.96537" xlink:href="#m2d4d9b824f" y="300.546657"/>
     <use style="fill:#dd8452;fill-opacity:0.8;stroke:#dd8452;stroke-opacity:0.8;" x="117.814174" xlink:href="#m2d4d9b824f" y="301.982115"/>
     <use style="fill:#dd8452;fill-opacity:0.8;stroke:#dd8452;stroke-opacity:0.8;" x="75.27494" xlink:href="#m2d4d9b824f" y="304.911115"/>
     <use style="fill:#dd8452;fill-opacity:0.8;stroke:#dd8452;stroke-opacity:0.8;" x="104.185945" xlink:href="#m2d4d9b824f" y="286.77289"/>
     <use style="fill:#dd8452;fill-opacity:0.8;stroke:#dd8452;stroke-opacity:0.8;" x="74.708911" xlink:href="#m2d4d9b824f" y="303.359492"/>
     <use style="fill:#dd8452;fill-opacity:0.8;stroke:#dd8452;stroke-opacity:0.8;" x="293.239534" xlink:href="#m2d4d9b824f" y="275.355599"/>
     <use style="fill:#dd8452;fill-opacity:0.8;stroke:#dd8452;stroke-opacity:0.8;" x="112.458672" xlink:href="#m2d4d9b824f" y="293.601691"/>
     <use style="fill:#dd8452;fill-opacity:0.8;stroke:#dd8452;stroke-opacity:0.8;" x="117.988337" xlink:href="#m2d4d9b824f" y="295.576484"/>
     <use style="fill:#dd8452;fill-opacity:0.8;stroke:#dd8452;stroke-opacity:0.8;" x="139.584509" xlink:href="#m2d4d9b824f" y="288.648114"/>
     <use style="fill:#dd8452;fill-opacity:0.8;stroke:#dd8452;stroke-opacity:0.8;" x="94.694079" xlink:href="#m2d4d9b824f" y="303.981801"/>
     <use style="fill:#dd8452;fill-opacity:0.8;stroke:#dd8452;stroke-opacity:0.8;" x="118.1625" xlink:href="#m2d4d9b824f" y="283.702833"/>
     <use style="fill:#dd8452;fill-opacity:0.8;stroke:#dd8452;stroke-opacity:0.8;" x="168.713218" xlink:href="#m2d4d9b824f" y="290.017193"/>
     <use style="fill:#dd8452;fill-opacity:0.8;stroke:#dd8452;stroke-opacity:0.8;" x="136.144796" xlink:href="#m2d4d9b824f" y="290.232927"/>
     <use style="fill:#dd8452;fill-opacity:0.8;stroke:#dd8452;stroke-opacity:0.8;" x="95.956758" xlink:href="#m2d4d9b824f" y="287.279034"/>
     <use style="fill:#dd8452;fill-opacity:0.8;stroke:#dd8452;stroke-opacity:0.8;" x="162.095036" xlink:href="#m2d4d9b824f" y="132.61457"/>
     <use style="fill:#dd8452;fill-opacity:0.8;stroke:#dd8452;stroke-opacity:0.8;" x="157.523265" xlink:href="#m2d4d9b824f" y="285.495083"/>
     <use style="fill:#dd8452;fill-opacity:0.8;stroke:#dd8452;stroke-opacity:0.8;" x="76.668241" xlink:href="#m2d4d9b824f" y="302.853348"/>
     <use style="fill:#dd8452;fill-opacity:0.8;stroke:#dd8452;stroke-opacity:0.8;" x="263.588338" xlink:href="#m2d4d9b824f" y="292.962787"/>
     <use style="fill:#dd8452;fill-opacity:0.8;stroke:#dd8452;stroke-opacity:0.8;" x="126.173983" xlink:href="#m2d4d9b824f" y="301.077693"/>
     <use style="fill:#dd8452;fill-opacity:0.8;stroke:#dd8452;stroke-opacity:0.8;" x="71.182117" xlink:href="#m2d4d9b824f" y="302.936322"/>
     <use style="fill:#dd8452;fill-opacity:0.8;stroke:#dd8452;stroke-opacity:0.8;" x="130.919916" xlink:href="#m2d4d9b824f" y="299.62564"/>
     <use style="fill:#dd8452;fill-opacity:0.8;stroke:#dd8452;stroke-opacity:0.8;" x="94.040969" xlink:href="#m2d4d9b824f" y="302.587829"/>
     <use style="fill:#dd8452;fill-opacity:0.8;stroke:#dd8452;stroke-opacity:0.8;" x="99.265849" xlink:href="#m2d4d9b824f" y="298.181883"/>
     <use style="fill:#dd8452;fill-opacity:0.8;stroke:#dd8452;stroke-opacity:0.8;" x="120.426615" xlink:href="#m2d4d9b824f" y="290.100167"/>
     <use style="fill:#dd8452;fill-opacity:0.8;stroke:#dd8452;stroke-opacity:0.8;" x="113.851973" xlink:href="#m2d4d9b824f" y="290.83864"/>
     <use style="fill:#dd8452;fill-opacity:0.8;stroke:#dd8452;stroke-opacity:0.8;" x="93.823265" xlink:href="#m2d4d9b824f" y="304.297104"/>
     <use style="fill:#dd8452;fill-opacity:0.8;stroke:#dd8452;stroke-opacity:0.8;" x="69.309868" xlink:href="#m2d4d9b824f" y="307.317376"/>
     <use style="fill:#dd8452;fill-opacity:0.8;stroke:#dd8452;stroke-opacity:0.8;" x="169.148624" xlink:href="#m2d4d9b824f" y="233.602831"/>
     <use style="fill:#dd8452;fill-opacity:0.8;stroke:#dd8452;stroke-opacity:0.8;" x="89.164413" xlink:href="#m2d4d9b824f" y="303.309707"/>
     <use style="fill:#dd8452;fill-opacity:0.8;stroke:#dd8452;stroke-opacity:0.8;" x="118.249581" xlink:href="#m2d4d9b824f" y="287.536255"/>
     <use style="fill:#dd8452;fill-opacity:0.8;stroke:#dd8452;stroke-opacity:0.8;" x="77.756758" xlink:href="#m2d4d9b824f" y="305.815537"/>
     <use style="fill:#dd8452;fill-opacity:0.8;stroke:#dd8452;stroke-opacity:0.8;" x="101.225179" xlink:href="#m2d4d9b824f" y="293.76764"/>
     <use style="fill:#dd8452;fill-opacity:0.8;stroke:#dd8452;stroke-opacity:0.8;" x="131.616567" xlink:href="#m2d4d9b824f" y="301.758084"/>
     <use style="fill:#dd8452;fill-opacity:0.8;stroke:#dd8452;stroke-opacity:0.8;" x="161.006519" xlink:href="#m2d4d9b824f" y="294.472923"/>
     <use style="fill:#dd8452;fill-opacity:0.8;stroke:#dd8452;stroke-opacity:0.8;" x="273.951017" xlink:href="#m2d4d9b824f" y="282.449919"/>
     <use style="fill:#dd8452;fill-opacity:0.8;stroke:#dd8452;stroke-opacity:0.8;" x="201.238098" xlink:href="#m2d4d9b824f" y="279.114344"/>
     <use style="fill:#dd8452;fill-opacity:0.8;stroke:#dd8452;stroke-opacity:0.8;" x="154.083552" xlink:href="#m2d4d9b824f" y="276.143857"/>
     <use style="fill:#dd8452;fill-opacity:0.8;stroke:#dd8452;stroke-opacity:0.8;" x="198.582117" xlink:href="#m2d4d9b824f" y="242.663647"/>
     <use style="fill:#dd8452;fill-opacity:0.8;stroke:#dd8452;stroke-opacity:0.8;" x="70.74671" xlink:href="#m2d4d9b824f" y="307.109939"/>
     <use style="fill:#dd8452;fill-opacity:0.8;stroke:#dd8452;stroke-opacity:0.8;" x="115.5936" xlink:href="#m2d4d9b824f" y="233.113282"/>
     <use style="fill:#dd8452;fill-opacity:0.8;stroke:#dd8452;stroke-opacity:0.8;" x="200.497907" xlink:href="#m2d4d9b824f" y="264.079365"/>
     <use style="fill:#dd8452;fill-opacity:0.8;stroke:#dd8452;stroke-opacity:0.8;" x="103.750538" xlink:href="#m2d4d9b824f" y="301.168965"/>
     <use style="fill:#dd8452;fill-opacity:0.8;stroke:#dd8452;stroke-opacity:0.8;" x="108.714174" xlink:href="#m2d4d9b824f" y="283.171797"/>
     <use style="fill:#dd8452;fill-opacity:0.8;stroke:#dd8452;stroke-opacity:0.8;" x="84.200777" xlink:href="#m2d4d9b824f" y="303.243328"/>
     <use style="fill:#dd8452;fill-opacity:0.8;stroke:#dd8452;stroke-opacity:0.8;" x="94.345753" xlink:href="#m2d4d9b824f" y="291.917309"/>
     <use style="fill:#dd8452;fill-opacity:0.8;stroke:#dd8452;stroke-opacity:0.8;" x="152.385466" xlink:href="#m2d4d9b824f" y="272.692118"/>
     <use style="fill:#dd8452;fill-opacity:0.8;stroke:#dd8452;stroke-opacity:0.8;" x="86.203648" xlink:href="#m2d4d9b824f" y="305.301095"/>
     <use style="fill:#dd8452;fill-opacity:0.8;stroke:#dd8452;stroke-opacity:0.8;" x="124.911304" xlink:href="#m2d4d9b824f" y="170.567105"/>
     <use style="fill:#dd8452;fill-opacity:0.8;stroke:#dd8452;stroke-opacity:0.8;" x="118.293122" xlink:href="#m2d4d9b824f" y="299.940943"/>
     <use style="fill:#dd8452;fill-opacity:0.8;stroke:#dd8452;stroke-opacity:0.8;" x="101.791208" xlink:href="#m2d4d9b824f" y="282.765222"/>
     <use style="fill:#dd8452;fill-opacity:0.8;stroke:#dd8452;stroke-opacity:0.8;" x="114.853409" xlink:href="#m2d4d9b824f" y="272.410004"/>
     <use style="fill:#dd8452;fill-opacity:0.8;stroke:#dd8452;stroke-opacity:0.8;" x="107.843361" xlink:href="#m2d4d9b824f" y="299.774994"/>
     <use style="fill:#dd8452;fill-opacity:0.8;stroke:#dd8452;stroke-opacity:0.8;" x="133.75006" xlink:href="#m2d4d9b824f" y="286.814377"/>
     <use style="fill:#dd8452;fill-opacity:0.8;stroke:#dd8452;stroke-opacity:0.8;" x="86.029485" xlink:href="#m2d4d9b824f" y="289.046391"/>
     <use style="fill:#dd8452;fill-opacity:0.8;stroke:#dd8452;stroke-opacity:0.8;" x="73.35915" xlink:href="#m2d4d9b824f" y="305.018982"/>
     <use style="fill:#dd8452;fill-opacity:0.8;stroke:#dd8452;stroke-opacity:0.8;" x="108.670634" xlink:href="#m2d4d9b824f" y="292.680674"/>
     <use style="fill:#dd8452;fill-opacity:0.8;stroke:#dd8452;stroke-opacity:0.8;" x="114.374461" xlink:href="#m2d4d9b824f" y="137.468578"/>
     <use style="fill:#dd8452;fill-opacity:0.8;stroke:#dd8452;stroke-opacity:0.8;" x="148.336184" xlink:href="#m2d4d9b824f" y="282.126318"/>
     <use style="fill:#dd8452;fill-opacity:0.8;stroke:#dd8452;stroke-opacity:0.8;" x="81.022308" xlink:href="#m2d4d9b824f" y="306.678472"/>
     <use style="fill:#dd8452;fill-opacity:0.8;stroke:#dd8452;stroke-opacity:0.8;" x="96.348624" xlink:href="#m2d4d9b824f" y="295.659459"/>
     <use style="fill:#dd8452;fill-opacity:0.8;stroke:#dd8452;stroke-opacity:0.8;" x="88.511303" xlink:href="#m2d4d9b824f" y="304.778356"/>
     <use style="fill:#dd8452;fill-opacity:0.8;stroke:#dd8452;stroke-opacity:0.8;" x="80.238576" xlink:href="#m2d4d9b824f" y="290.987994"/>
     <use style="fill:#dd8452;fill-opacity:0.8;stroke:#dd8452;stroke-opacity:0.8;" x="162.007954" xlink:href="#m2d4d9b824f" y="222.74147"/>
     <use style="fill:#dd8452;fill-opacity:0.8;stroke:#dd8452;stroke-opacity:0.8;" x="110.194557" xlink:href="#m2d4d9b824f" y="295.410535"/>
     <use style="fill:#dd8452;fill-opacity:0.8;stroke:#dd8452;stroke-opacity:0.8;" x="117.248146" xlink:href="#m2d4d9b824f" y="303.865637"/>
     <use style="fill:#dd8452;fill-opacity:0.8;stroke:#dd8452;stroke-opacity:0.8;" x="116.769198" xlink:href="#m2d4d9b824f" y="295.327561"/>
     <use style="fill:#dd8452;fill-opacity:0.8;stroke:#dd8452;stroke-opacity:0.8;" x="106.667763" xlink:href="#m2d4d9b824f" y="301.824464"/>
     <use style="fill:#dd8452;fill-opacity:0.8;stroke:#dd8452;stroke-opacity:0.8;" x="147.987859" xlink:href="#m2d4d9b824f" y="214.302963"/>
     <use style="fill:#dd8452;fill-opacity:0.8;stroke:#dd8452;stroke-opacity:0.8;" x="110.978289" xlink:href="#m2d4d9b824f" y="296.887481"/>
     <use style="fill:#dd8452;fill-opacity:0.8;stroke:#dd8452;stroke-opacity:0.8;" x="99.570634" xlink:href="#m2d4d9b824f" y="300.936637"/>
     <use style="fill:#dd8452;fill-opacity:0.8;stroke:#dd8452;stroke-opacity:0.8;" x="100.789772" xlink:href="#m2d4d9b824f" y="300.289436"/>
     <use style="fill:#dd8452;fill-opacity:0.8;stroke:#dd8452;stroke-opacity:0.8;" x="109.323744" xlink:href="#m2d4d9b824f" y="301.799572"/>
     <use style="fill:#dd8452;fill-opacity:0.8;stroke:#dd8452;stroke-opacity:0.8;" x="87.64049" xlink:href="#m2d4d9b824f" y="305.458747"/>
     <use style="fill:#dd8452;fill-opacity:0.8;stroke:#dd8452;stroke-opacity:0.8;" x="180.207954" xlink:href="#m2d4d9b824f" y="79.270265"/>
     <use style="fill:#dd8452;fill-opacity:0.8;stroke:#dd8452;stroke-opacity:0.8;" x="71.573983" xlink:href="#m2d4d9b824f" y="307.192914"/>
     <use style="fill:#dd8452;fill-opacity:0.8;stroke:#dd8452;stroke-opacity:0.8;" x="88.119437" xlink:href="#m2d4d9b824f" y="293.73445"/>
     <use style="fill:#dd8452;fill-opacity:0.8;stroke:#dd8452;stroke-opacity:0.8;" x="73.881638" xlink:href="#m2d4d9b824f" y="306.338277"/>
     <use style="fill:#dd8452;fill-opacity:0.8;stroke:#dd8452;stroke-opacity:0.8;" x="151.688816" xlink:href="#m2d4d9b824f" y="265.72226"/>
     <use style="fill:#dd8452;fill-opacity:0.8;stroke:#dd8452;stroke-opacity:0.8;" x="146.246232" xlink:href="#m2d4d9b824f" y="287.751989"/>
     <use style="fill:#dd8452;fill-opacity:0.8;stroke:#dd8452;stroke-opacity:0.8;" x="96.74049" xlink:href="#m2d4d9b824f" y="295.659459"/>
     <use style="fill:#dd8452;fill-opacity:0.8;stroke:#dd8452;stroke-opacity:0.8;" x="243.646711" xlink:href="#m2d4d9b824f" y="226.135127"/>
     <use style="fill:#dd8452;fill-opacity:0.8;stroke:#dd8452;stroke-opacity:0.8;" x="113.068241" xlink:href="#m2d4d9b824f" y="105.67275"/>
     <use style="fill:#dd8452;fill-opacity:0.8;stroke:#dd8452;stroke-opacity:0.8;" x="112.806997" xlink:href="#m2d4d9b824f" y="304.247319"/>
     <use style="fill:#dd8452;fill-opacity:0.8;stroke:#dd8452;stroke-opacity:0.8;" x="79.629007" xlink:href="#m2d4d9b824f" y="305.508532"/>
     <use style="fill:#dd8452;fill-opacity:0.8;stroke:#dd8452;stroke-opacity:0.8;" x="148.162021" xlink:href="#m2d4d9b824f" y="299.426501"/>
     <use style="fill:#dd8452;fill-opacity:0.8;stroke:#dd8452;stroke-opacity:0.8;" x="88.337141" xlink:href="#m2d4d9b824f" y="283.561777"/>
     <use style="fill:#dd8452;fill-opacity:0.8;stroke:#dd8452;stroke-opacity:0.8;" x="96.130921" xlink:href="#m2d4d9b824f" y="302.172957"/>
     <use style="fill:#dd8452;fill-opacity:0.8;stroke:#dd8452;stroke-opacity:0.8;" x="132.139055" xlink:href="#m2d4d9b824f" y="298.837382"/>
     <use style="fill:#dd8452;fill-opacity:0.8;stroke:#dd8452;stroke-opacity:0.8;" x="82.372069" xlink:href="#m2d4d9b824f" y="295.825408"/>
     <use style="fill:#dd8452;fill-opacity:0.8;stroke:#dd8452;stroke-opacity:0.8;" x="93.213696" xlink:href="#m2d4d9b824f" y="297.57617"/>
     <use style="fill:#dd8452;fill-opacity:0.8;stroke:#dd8452;stroke-opacity:0.8;" x="88.162978" xlink:href="#m2d4d9b824f" y="286.648428"/>
     <use style="fill:#dd8452;fill-opacity:0.8;stroke:#dd8452;stroke-opacity:0.8;" x="122.73427" xlink:href="#m2d4d9b824f" y="296.779614"/>
     <use style="fill:#dd8452;fill-opacity:0.8;stroke:#dd8452;stroke-opacity:0.8;" x="83.895992" xlink:href="#m2d4d9b824f" y="225.006673"/>
     <use style="fill:#dd8452;fill-opacity:0.8;stroke:#dd8452;stroke-opacity:0.8;" x="103.532835" xlink:href="#m2d4d9b824f" y="295.418833"/>
     <use style="fill:#dd8452;fill-opacity:0.8;stroke:#dd8452;stroke-opacity:0.8;" x="138.365371" xlink:href="#m2d4d9b824f" y="141.136051"/>
     <use style="fill:#dd8452;fill-opacity:0.8;stroke:#dd8452;stroke-opacity:0.8;" x="141.108433" xlink:href="#m2d4d9b824f" y="94.96904"/>
     <use style="fill:#dd8452;fill-opacity:0.8;stroke:#dd8452;stroke-opacity:0.8;" x="108.844796" xlink:href="#m2d4d9b824f" y="289.759972"/>
     <use style="fill:#dd8452;fill-opacity:0.8;stroke:#dd8452;stroke-opacity:0.8;" x="100.528528" xlink:href="#m2d4d9b824f" y="283.337746"/>
     <use style="fill:#dd8452;fill-opacity:0.8;stroke:#dd8452;stroke-opacity:0.8;" x="83.591208" xlink:href="#m2d4d9b824f" y="299.849671"/>
     <use style="fill:#dd8452;fill-opacity:0.8;stroke:#dd8452;stroke-opacity:0.8;" x="103.706997" xlink:href="#m2d4d9b824f" y="297.567872"/>
     <use style="fill:#dd8452;fill-opacity:0.8;stroke:#dd8452;stroke-opacity:0.8;" x="71.051495" xlink:href="#m2d4d9b824f" y="306.703364"/>
     <use style="fill:#dd8452;fill-opacity:0.8;stroke:#dd8452;stroke-opacity:0.8;" x="83.983074" xlink:href="#m2d4d9b824f" y="301.426186"/>
     <use style="fill:#dd8452;fill-opacity:0.8;stroke:#dd8452;stroke-opacity:0.8;" x="127.654366" xlink:href="#m2d4d9b824f" y="275.098378"/>
     <use style="fill:#dd8452;fill-opacity:0.8;stroke:#dd8452;stroke-opacity:0.8;" x="205.200299" xlink:href="#m2d4d9b824f" y="281.711446"/>
     <use style="fill:#dd8452;fill-opacity:0.8;stroke:#dd8452;stroke-opacity:0.8;" x="105.274461" xlink:href="#m2d4d9b824f" y="287.984318"/>
     <use style="fill:#dd8452;fill-opacity:0.8;stroke:#dd8452;stroke-opacity:0.8;" x="75.797428" xlink:href="#m2d4d9b824f" y="302.081685"/>
     <use style="fill:#dd8452;fill-opacity:0.8;stroke:#dd8452;stroke-opacity:0.8;" x="80.282117" xlink:href="#m2d4d9b824f" y="298.737813"/>
     <use style="fill:#dd8452;fill-opacity:0.8;stroke:#dd8452;stroke-opacity:0.8;" x="101.31226" xlink:href="#m2d4d9b824f" y="298.040827"/>
     <use style="fill:#dd8452;fill-opacity:0.8;stroke:#dd8452;stroke-opacity:0.8;" x="103.097428" xlink:href="#m2d4d9b824f" y="298.646541"/>
     <use style="fill:#dd8452;fill-opacity:0.8;stroke:#dd8452;stroke-opacity:0.8;" x="79.062978" xlink:href="#m2d4d9b824f" y="301.069396"/>
     <use style="fill:#dd8452;fill-opacity:0.8;stroke:#dd8452;stroke-opacity:0.8;" x="92.995992" xlink:href="#m2d4d9b824f" y="306.612092"/>
     <use style="fill:#dd8452;fill-opacity:0.8;stroke:#dd8452;stroke-opacity:0.8;" x="136.972069" xlink:href="#m2d4d9b824f" y="290.913317"/>
     <use style="fill:#dd8452;fill-opacity:0.8;stroke:#dd8452;stroke-opacity:0.8;" x="153.561064" xlink:href="#m2d4d9b824f" y="272.401707"/>
     <use style="fill:#dd8452;fill-opacity:0.8;stroke:#dd8452;stroke-opacity:0.8;" x="73.402691" xlink:href="#m2d4d9b824f" y="306.338277"/>
     <use style="fill:#dd8452;fill-opacity:0.8;stroke:#dd8452;stroke-opacity:0.8;" x="94.302213" xlink:href="#m2d4d9b824f" y="262.776665"/>
     <use style="fill:#dd8452;fill-opacity:0.8;stroke:#dd8452;stroke-opacity:0.8;" x="104.142404" xlink:href="#m2d4d9b824f" y="289.477859"/>
     <use style="fill:#dd8452;fill-opacity:0.8;stroke:#dd8452;stroke-opacity:0.8;" x="81.501256" xlink:href="#m2d4d9b824f" y="303.392682"/>
     <use style="fill:#dd8452;fill-opacity:0.8;stroke:#dd8452;stroke-opacity:0.8;" x="87.379246" xlink:href="#m2d4d9b824f" y="305.74086"/>
     <use style="fill:#dd8452;fill-opacity:0.8;stroke:#dd8452;stroke-opacity:0.8;" x="77.016567" xlink:href="#m2d4d9b824f" y="304.097965"/>
     <use style="fill:#dd8452;fill-opacity:0.8;stroke:#dd8452;stroke-opacity:0.8;" x="116.116088" xlink:href="#m2d4d9b824f" y="304.678787"/>
     <use style="fill:#dd8452;fill-opacity:0.8;stroke:#dd8452;stroke-opacity:0.8;" x="330.815132" xlink:href="#m2d4d9b824f" y="210.992281"/>
     <use style="fill:#dd8452;fill-opacity:0.8;stroke:#dd8452;stroke-opacity:0.8;" x="286.273027" xlink:href="#m2d4d9b824f" y="282.96436"/>
     <use style="fill:#dd8452;fill-opacity:0.8;stroke:#dd8452;stroke-opacity:0.8;" x="142.675897" xlink:href="#m2d4d9b824f" y="295.227991"/>
     <use style="fill:#dd8452;fill-opacity:0.8;stroke:#dd8452;stroke-opacity:0.8;" x="73.141447" xlink:href="#m2d4d9b824f" y="306.736554"/>
     <use style="fill:#dd8452;fill-opacity:0.8;stroke:#dd8452;stroke-opacity:0.8;" x="239.205562" xlink:href="#m2d4d9b824f" y="192.074095"/>
    </g>
   </g>
   <g id="PolyCollection_1">
    <defs>
     <path d="M 69.309868 -57.305124 
L 69.309868 -51.232653 
L 71.951335 -52.138945 
L 74.592803 -53.045701 
L 77.23427 -53.935329 
L 79.875737 -54.840888 
L 82.517205 -55.713437 
L 85.158672 -56.606461 
L 87.800139 -57.415411 
L 90.441606 -58.196083 
L 93.083074 -58.873854 
L 95.724541 -59.546172 
L 98.366008 -60.163184 
L 101.007476 -60.681611 
L 103.648943 -61.185192 
L 106.29041 -61.675987 
L 108.931878 -62.179371 
L 111.573345 -62.68936 
L 114.214812 -63.120536 
L 116.85628 -63.545859 
L 119.497747 -63.99007 
L 122.139214 -64.445804 
L 124.780682 -64.88186 
L 127.422149 -65.313356 
L 130.063616 -65.744452 
L 132.705084 -66.165975 
L 135.346551 -66.593671 
L 137.988018 -67.019866 
L 140.629485 -67.431365 
L 143.270953 -67.819909 
L 145.91242 -68.20723 
L 148.553887 -68.606036 
L 151.195355 -69.03906 
L 153.836822 -69.461872 
L 156.478289 -69.84269 
L 159.119757 -70.236422 
L 161.761224 -70.668066 
L 164.402691 -71.099709 
L 167.044159 -71.447778 
L 169.685626 -71.825564 
L 172.327093 -72.230983 
L 174.968561 -72.655419 
L 177.610028 -73.079867 
L 180.251495 -73.504422 
L 182.892962 -73.928977 
L 185.53443 -74.353532 
L 188.175897 -74.765862 
L 190.817364 -75.173584 
L 193.458832 -75.58981 
L 196.100299 -75.979301 
L 198.741766 -76.403731 
L 201.383234 -76.828178 
L 204.024701 -77.231809 
L 206.666168 -77.632551 
L 209.307636 -78.033292 
L 211.949103 -78.434033 
L 214.59057 -78.830526 
L 217.232038 -79.226265 
L 219.873505 -79.622005 
L 222.514972 -80.017744 
L 225.156439 -80.413484 
L 227.797907 -80.809224 
L 230.439374 -81.204963 
L 233.080841 -81.600703 
L 235.722309 -81.996443 
L 238.363776 -82.392182 
L 241.005243 -82.787922 
L 243.646711 -83.183661 
L 246.288178 -83.579401 
L 248.929645 -83.975158 
L 251.571113 -84.371019 
L 254.21258 -84.766879 
L 256.854047 -85.165841 
L 259.495515 -85.558099 
L 262.136982 -85.953839 
L 264.778449 -86.349578 
L 267.419916 -86.748253 
L 270.061384 -87.146783 
L 272.702851 -87.542645 
L 275.344318 -87.938506 
L 277.985786 -88.334368 
L 280.627253 -88.73023 
L 283.26872 -89.126092 
L 285.910188 -89.521953 
L 288.551655 -89.917815 
L 291.193122 -90.313677 
L 293.83459 -90.709539 
L 296.476057 -91.11046 
L 299.117524 -91.521231 
L 301.758992 -91.932002 
L 304.400459 -92.338814 
L 307.041926 -92.738129 
L 309.683394 -93.137445 
L 312.324861 -93.53676 
L 314.966328 -93.936076 
L 317.607795 -94.335391 
L 320.249263 -94.734706 
L 322.89073 -95.134022 
L 325.532197 -95.533337 
L 328.173665 -95.932652 
L 330.815132 -96.331968 
L 330.815132 -145.546332 
L 330.815132 -145.546332 
L 328.173665 -144.596263 
L 325.532197 -143.646195 
L 322.89073 -142.696126 
L 320.249263 -141.751602 
L 317.607795 -140.80842 
L 314.966328 -139.865238 
L 312.324861 -138.922056 
L 309.683394 -137.978875 
L 307.041926 -137.035693 
L 304.400459 -136.092511 
L 301.758992 -135.149329 
L 299.117524 -134.206148 
L 296.476057 -133.262966 
L 293.83459 -132.319784 
L 291.193122 -131.376602 
L 288.551655 -130.433421 
L 285.910188 -129.490239 
L 283.26872 -128.547057 
L 280.627253 -127.603875 
L 277.985786 -126.660694 
L 275.344318 -125.717512 
L 272.702851 -124.77433 
L 270.061384 -123.831148 
L 267.419916 -122.887967 
L 264.778449 -121.944785 
L 262.136982 -121.001603 
L 259.495515 -120.058421 
L 256.854047 -119.11524 
L 254.21258 -118.172058 
L 251.571113 -117.228876 
L 248.929645 -116.285694 
L 246.288178 -115.342513 
L 243.646711 -114.399331 
L 241.005243 -113.456149 
L 238.363776 -112.512967 
L 235.722309 -111.569786 
L 233.080841 -110.626604 
L 230.439374 -109.683422 
L 227.797907 -108.74024 
L 225.156439 -107.797059 
L 222.514972 -106.853877 
L 219.873505 -105.910695 
L 217.232038 -104.967513 
L 214.59057 -104.024332 
L 211.949103 -103.08115 
L 209.307636 -102.137968 
L 206.666168 -101.194786 
L 204.024701 -100.251605 
L 201.383234 -99.308423 
L 198.741766 -98.365241 
L 196.100299 -97.421777 
L 193.458832 -96.478085 
L 190.817364 -95.534394 
L 188.175897 -94.590702 
L 185.53443 -93.633305 
L 182.892962 -92.66737 
L 180.251495 -91.701435 
L 177.610028 -90.735499 
L 174.968561 -89.769564 
L 172.327093 -88.803309 
L 169.685626 -87.836771 
L 167.044159 -86.870233 
L 164.402691 -85.918807 
L 161.761224 -85.000762 
L 159.119757 -84.082716 
L 156.478289 -83.12527 
L 153.836822 -82.178654 
L 151.195355 -81.245583 
L 148.553887 -80.298776 
L 145.91242 -79.378845 
L 143.270953 -78.41763 
L 140.629485 -77.430115 
L 137.988018 -76.442172 
L 135.346551 -75.54519 
L 132.705084 -74.567009 
L 130.063616 -73.637322 
L 127.422149 -72.71959 
L 124.780682 -71.814799 
L 122.139214 -70.912906 
L 119.497747 -69.997683 
L 116.85628 -69.027434 
L 114.214812 -68.098739 
L 111.573345 -67.172909 
L 108.931878 -66.297394 
L 106.29041 -65.399335 
L 103.648943 -64.517655 
L 101.007476 -63.673939 
L 98.366008 -62.907819 
L 95.724541 -62.173354 
L 93.083074 -61.583824 
L 90.441606 -61.030785 
L 87.800139 -60.458862 
L 85.158672 -59.969712 
L 82.517205 -59.482745 
L 79.875737 -59.014177 
L 77.23427 -58.589874 
L 74.592803 -58.158396 
L 71.951335 -57.763033 
L 69.309868 -57.305124 
z
" id="md01ab1e08e" style="stroke:#ffffff;stroke-opacity:0.15;"/>
    </defs>
    <g clip-path="url(#p96a662d589)">
     <use style="fill:#dd8452;fill-opacity:0.15;stroke:#ffffff;stroke-opacity:0.15;" x="0" xlink:href="#md01ab1e08e" y="360"/>
    </g>
   </g>
   <g id="PathCollection_2">
    <defs>
     <path d="M 0 3 
C 0.795609 3 1.55874 2.683901 2.12132 2.12132 
C 2.683901 1.55874 3 0.795609 3 0 
C 3 -0.795609 2.683901 -1.55874 2.12132 -2.12132 
C 1.55874 -2.683901 0.795609 -3 0 -3 
C -0.795609 -3 -1.55874 -2.683901 -2.12132 -2.12132 
C -2.683901 -1.55874 -3 -0.795609 -3 0 
C -3 0.795609 -2.683901 1.55874 -2.12132 2.12132 
C -1.55874 2.683901 -0.795609 3 0 3 
z
" id="m050d2a5368" style="stroke:#4c72b0;stroke-opacity:0.8;"/>
    </defs>
    <g clip-path="url(#p96a662d589)">
     <use style="fill:#4c72b0;fill-opacity:0.8;stroke:#4c72b0;stroke-opacity:0.8;" x="72.836662" xlink:href="#m050d2a5368" y="307.126534"/>
     <use style="fill:#4c72b0;fill-opacity:0.8;stroke:#4c72b0;stroke-opacity:0.8;" x="70.964413" xlink:href="#m050d2a5368" y="306.919098"/>
     <use style="fill:#4c72b0;fill-opacity:0.8;stroke:#4c72b0;stroke-opacity:0.8;" x="100.833313" xlink:href="#m050d2a5368" y="305.973189"/>
     <use style="fill:#4c72b0;fill-opacity:0.8;stroke:#4c72b0;stroke-opacity:0.8;" x="75.492643" xlink:href="#m050d2a5368" y="306.55401"/>
     <use style="fill:#4c72b0;fill-opacity:0.8;stroke:#4c72b0;stroke-opacity:0.8;" x="94.12805" xlink:href="#m050d2a5368" y="301.57554"/>
     <use style="fill:#4c72b0;fill-opacity:0.8;stroke:#4c72b0;stroke-opacity:0.8;" x="73.184988" xlink:href="#m050d2a5368" y="305.442152"/>
     <use style="fill:#4c72b0;fill-opacity:0.8;stroke:#4c72b0;stroke-opacity:0.8;" x="101.225179" xlink:href="#m050d2a5368" y="296.69664"/>
     <use style="fill:#4c72b0;fill-opacity:0.8;stroke:#4c72b0;stroke-opacity:0.8;" x="96.392165" xlink:href="#m050d2a5368" y="296.829399"/>
     <use style="fill:#4c72b0;fill-opacity:0.8;stroke:#4c72b0;stroke-opacity:0.8;" x="97.829007" xlink:href="#m050d2a5368" y="306.288492"/>
     <use style="fill:#4c72b0;fill-opacity:0.8;stroke:#4c72b0;stroke-opacity:0.8;" x="86.726136" xlink:href="#m050d2a5368" y="306.2636"/>
     <use style="fill:#4c72b0;fill-opacity:0.8;stroke:#4c72b0;stroke-opacity:0.8;" x="84.723265" xlink:href="#m050d2a5368" y="304.554325"/>
     <use style="fill:#4c72b0;fill-opacity:0.8;stroke:#4c72b0;stroke-opacity:0.8;" x="153.604605" xlink:href="#m050d2a5368" y="242.398128"/>
     <use style="fill:#4c72b0;fill-opacity:0.8;stroke:#4c72b0;stroke-opacity:0.8;" x="73.35915" xlink:href="#m050d2a5368" y="306.719959"/>
     <use style="fill:#4c72b0;fill-opacity:0.8;stroke:#4c72b0;stroke-opacity:0.8;" x="85.68116" xlink:href="#m050d2a5368" y="304.985792"/>
     <use style="fill:#4c72b0;fill-opacity:0.8;stroke:#4c72b0;stroke-opacity:0.8;" x="141.151973" xlink:href="#m050d2a5368" y="286.797782"/>
     <use style="fill:#4c72b0;fill-opacity:0.8;stroke:#4c72b0;stroke-opacity:0.8;" x="106.798385" xlink:href="#m050d2a5368" y="305.989784"/>
     <use style="fill:#4c72b0;fill-opacity:0.8;stroke:#4c72b0;stroke-opacity:0.8;" x="89.425658" xlink:href="#m050d2a5368" y="306.504226"/>
     <use style="fill:#4c72b0;fill-opacity:0.8;stroke:#4c72b0;stroke-opacity:0.8;" x="109.10604" xlink:href="#m050d2a5368" y="301.517458"/>
     <use style="fill:#4c72b0;fill-opacity:0.8;stroke:#4c72b0;stroke-opacity:0.8;" x="135.883552" xlink:href="#m050d2a5368" y="273.571647"/>
     <use style="fill:#4c72b0;fill-opacity:0.8;stroke:#4c72b0;stroke-opacity:0.8;" x="178.335706" xlink:href="#m050d2a5368" y="284.399819"/>
     <use style="fill:#4c72b0;fill-opacity:0.8;stroke:#4c72b0;stroke-opacity:0.8;" x="77.147189" xlink:href="#m050d2a5368" y="303.824149"/>
     <use style="fill:#4c72b0;fill-opacity:0.8;stroke:#4c72b0;stroke-opacity:0.8;" x="112.676375" xlink:href="#m050d2a5368" y="280.466828"/>
     <use style="fill:#4c72b0;fill-opacity:0.8;stroke:#4c72b0;stroke-opacity:0.8;" x="106.929007" xlink:href="#m050d2a5368" y="301.168965"/>
     <use style="fill:#4c72b0;fill-opacity:0.8;stroke:#4c72b0;stroke-opacity:0.8;" x="73.838098" xlink:href="#m050d2a5368" y="306.056163"/>
     <use style="fill:#4c72b0;fill-opacity:0.8;stroke:#4c72b0;stroke-opacity:0.8;" x="79.106519" xlink:href="#m050d2a5368" y="303.72458"/>
     <use style="fill:#4c72b0;fill-opacity:0.8;stroke:#4c72b0;stroke-opacity:0.8;" x="103.619916" xlink:href="#m050d2a5368" y="281.470819"/>
     <use style="fill:#4c72b0;fill-opacity:0.8;stroke:#4c72b0;stroke-opacity:0.8;" x="74.62183" xlink:href="#m050d2a5368" y="305.500234"/>
     <use style="fill:#4c72b0;fill-opacity:0.8;stroke:#4c72b0;stroke-opacity:0.8;" x="174.460586" xlink:href="#m050d2a5368" y="289.610618"/>
     <use style="fill:#4c72b0;fill-opacity:0.8;stroke:#4c72b0;stroke-opacity:0.8;" x="229.887859" xlink:href="#m050d2a5368" y="288.092184"/>
     <use style="fill:#4c72b0;fill-opacity:0.8;stroke:#4c72b0;stroke-opacity:0.8;" x="146.202691" xlink:href="#m050d2a5368" y="255.815105"/>
     <use style="fill:#4c72b0;fill-opacity:0.8;stroke:#4c72b0;stroke-opacity:0.8;" x="99.831878" xlink:href="#m050d2a5368" y="295.709243"/>
     <use style="fill:#4c72b0;fill-opacity:0.8;stroke:#4c72b0;stroke-opacity:0.8;" x="193.792644" xlink:href="#m050d2a5368" y="305.309393"/>
     <use style="fill:#4c72b0;fill-opacity:0.8;stroke:#4c72b0;stroke-opacity:0.8;" x="71.443361" xlink:href="#m050d2a5368" y="307.184616"/>
     <use style="fill:#4c72b0;fill-opacity:0.8;stroke:#4c72b0;stroke-opacity:0.8;" x="172.936663" xlink:href="#m050d2a5368" y="272.343625"/>
     <use style="fill:#4c72b0;fill-opacity:0.8;stroke:#4c72b0;stroke-opacity:0.8;" x="73.576854" xlink:href="#m050d2a5368" y="307.159724"/>
     <use style="fill:#4c72b0;fill-opacity:0.8;stroke:#4c72b0;stroke-opacity:0.8;" x="104.664892" xlink:href="#m050d2a5368" y="250.139649"/>
     <use style="fill:#4c72b0;fill-opacity:0.8;stroke:#4c72b0;stroke-opacity:0.8;" x="87.945275" xlink:href="#m050d2a5368" y="304.687084"/>
     <use style="fill:#4c72b0;fill-opacity:0.8;stroke:#4c72b0;stroke-opacity:0.8;" x="74.926614" xlink:href="#m050d2a5368" y="306.670175"/>
     <use style="fill:#4c72b0;fill-opacity:0.8;stroke:#4c72b0;stroke-opacity:0.8;" x="71.965849" xlink:href="#m050d2a5368" y="307.209509"/>
     <use style="fill:#4c72b0;fill-opacity:0.8;stroke:#4c72b0;stroke-opacity:0.8;" x="139.279725" xlink:href="#m050d2a5368" y="244.414409"/>
     <use style="fill:#4c72b0;fill-opacity:0.8;stroke:#4c72b0;stroke-opacity:0.8;" x="144.417524" xlink:href="#m050d2a5368" y="160.170401"/>
     <use style="fill:#4c72b0;fill-opacity:0.8;stroke:#4c72b0;stroke-opacity:0.8;" x="94.955323" xlink:href="#m050d2a5368" y="226.234696"/>
     <use style="fill:#4c72b0;fill-opacity:0.8;stroke:#4c72b0;stroke-opacity:0.8;" x="94.955323" xlink:href="#m050d2a5368" y="68.317631"/>
     <use style="fill:#4c72b0;fill-opacity:0.8;stroke:#4c72b0;stroke-opacity:0.8;" x="105.013217" xlink:href="#m050d2a5368" y="305.525127"/>
     <use style="fill:#4c72b0;fill-opacity:0.8;stroke:#4c72b0;stroke-opacity:0.8;" x="81.80604" xlink:href="#m050d2a5368" y="304.247319"/>
     <use style="fill:#4c72b0;fill-opacity:0.8;stroke:#4c72b0;stroke-opacity:0.8;" x="101.791208" xlink:href="#m050d2a5368" y="291.568816"/>
     <use style="fill:#4c72b0;fill-opacity:0.8;stroke:#4c72b0;stroke-opacity:0.8;" x="89.904605" xlink:href="#m050d2a5368" y="304.728571"/>
     <use style="fill:#4c72b0;fill-opacity:0.8;stroke:#4c72b0;stroke-opacity:0.8;" x="119.991208" xlink:href="#m050d2a5368" y="299.13609"/>
     <use style="fill:#4c72b0;fill-opacity:0.8;stroke:#4c72b0;stroke-opacity:0.8;" x="110.891208" xlink:href="#m050d2a5368" y="289.087878"/>
     <use style="fill:#4c72b0;fill-opacity:0.8;stroke:#4c72b0;stroke-opacity:0.8;" x="178.161543" xlink:href="#m050d2a5368" y="267.406642"/>
     <use style="fill:#4c72b0;fill-opacity:0.8;stroke:#4c72b0;stroke-opacity:0.8;" x="164.881639" xlink:href="#m050d2a5368" y="139.277422"/>
     <use style="fill:#4c72b0;fill-opacity:0.8;stroke:#4c72b0;stroke-opacity:0.8;" x="76.232835" xlink:href="#m050d2a5368" y="301.509161"/>
     <use style="fill:#4c72b0;fill-opacity:0.8;stroke:#4c72b0;stroke-opacity:0.8;" x="134.185466" xlink:href="#m050d2a5368" y="238.921497"/>
     <use style="fill:#4c72b0;fill-opacity:0.8;stroke:#4c72b0;stroke-opacity:0.8;" x="100.049581" xlink:href="#m050d2a5368" y="296.016249"/>
     <use style="fill:#4c72b0;fill-opacity:0.8;stroke:#4c72b0;stroke-opacity:0.8;" x="92.86537" xlink:href="#m050d2a5368" y="245.260748"/>
     <use style="fill:#4c72b0;fill-opacity:0.8;stroke:#4c72b0;stroke-opacity:0.8;" x="111.02183" xlink:href="#m050d2a5368" y="247.575737"/>
     <use style="fill:#4c72b0;fill-opacity:0.8;stroke:#4c72b0;stroke-opacity:0.8;" x="69.919437" xlink:href="#m050d2a5368" y="307.176319"/>
     <use style="fill:#4c72b0;fill-opacity:0.8;stroke:#4c72b0;stroke-opacity:0.8;" x="139.410347" xlink:href="#m050d2a5368" y="279.894304"/>
     <use style="fill:#4c72b0;fill-opacity:0.8;stroke:#4c72b0;stroke-opacity:0.8;" x="162.007954" xlink:href="#m050d2a5368" y="236.357585"/>
     <use style="fill:#4c72b0;fill-opacity:0.8;stroke:#4c72b0;stroke-opacity:0.8;" x="97.872547" xlink:href="#m050d2a5368" y="302.413583"/>
     <use style="fill:#4c72b0;fill-opacity:0.8;stroke:#4c72b0;stroke-opacity:0.8;" x="174.547667" xlink:href="#m050d2a5368" y="284.988938"/>
     <use style="fill:#4c72b0;fill-opacity:0.8;stroke:#4c72b0;stroke-opacity:0.8;" x="87.901734" xlink:href="#m050d2a5368" y="286.482479"/>
     <use style="fill:#4c72b0;fill-opacity:0.8;stroke:#4c72b0;stroke-opacity:0.8;" x="146.246232" xlink:href="#m050d2a5368" y="227.802914"/>
     <use style="fill:#4c72b0;fill-opacity:0.8;stroke:#4c72b0;stroke-opacity:0.8;" x="86.160107" xlink:href="#m050d2a5368" y="222.650198"/>
     <use style="fill:#4c72b0;fill-opacity:0.8;stroke:#4c72b0;stroke-opacity:0.8;" x="109.672069" xlink:href="#m050d2a5368" y="301.915736"/>
     <use style="fill:#4c72b0;fill-opacity:0.8;stroke:#4c72b0;stroke-opacity:0.8;" x="88.990251" xlink:href="#m050d2a5368" y="303.226733"/>
     <use style="fill:#4c72b0;fill-opacity:0.8;stroke:#4c72b0;stroke-opacity:0.8;" x="200.71561" xlink:href="#m050d2a5368" y="30.240634"/>
     <use style="fill:#4c72b0;fill-opacity:0.8;stroke:#4c72b0;stroke-opacity:0.8;" x="144.112739" xlink:href="#m050d2a5368" y="226.508512"/>
     <use style="fill:#4c72b0;fill-opacity:0.8;stroke:#4c72b0;stroke-opacity:0.8;" x="211.644318" xlink:href="#m050d2a5368" y="250.123054"/>
     <use style="fill:#4c72b0;fill-opacity:0.8;stroke:#4c72b0;stroke-opacity:0.8;" x="88.598385" xlink:href="#m050d2a5368" y="302.297419"/>
     <use style="fill:#4c72b0;fill-opacity:0.8;stroke:#4c72b0;stroke-opacity:0.8;" x="93.126614" xlink:href="#m050d2a5368" y="304.770059"/>
     <use style="fill:#4c72b0;fill-opacity:0.8;stroke:#4c72b0;stroke-opacity:0.8;" x="105.884031" xlink:href="#m050d2a5368" y="299.924348"/>
    </g>
   </g>
   <g id="PolyCollection_2">
    <defs>
     <path d="M 69.919437 -60.225436 
L 69.919437 -46.73323 
L 71.53528 -47.959009 
L 73.151123 -49.148121 
L 74.766965 -50.340862 
L 76.382808 -51.548875 
L 77.998651 -52.659792 
L 79.614493 -53.77021 
L 81.230336 -54.751396 
L 82.846178 -55.547223 
L 84.462021 -56.297426 
L 86.077864 -56.983793 
L 87.693706 -57.643158 
L 89.309549 -58.225793 
L 90.925392 -58.805781 
L 92.541234 -59.385425 
L 94.157077 -59.905166 
L 95.77292 -60.412977 
L 97.388762 -60.968348 
L 99.004605 -61.543328 
L 100.620448 -62.047849 
L 102.23629 -62.492179 
L 103.852133 -62.87317 
L 105.467975 -63.356983 
L 107.083818 -63.845158 
L 108.699661 -64.330725 
L 110.315503 -64.75207 
L 111.931346 -65.171876 
L 113.547189 -65.592265 
L 115.163031 -66.013067 
L 116.778874 -66.451705 
L 118.394717 -66.875472 
L 120.010559 -67.268637 
L 121.626402 -67.686295 
L 123.242245 -68.066922 
L 124.858087 -68.430366 
L 126.47393 -68.806298 
L 128.089772 -69.273024 
L 129.705615 -69.696553 
L 131.321458 -70.07894 
L 132.9373 -70.461328 
L 134.553143 -70.838778 
L 136.168986 -71.167404 
L 137.784828 -71.611149 
L 139.400671 -72.016084 
L 141.016514 -72.447372 
L 142.632356 -72.883291 
L 144.248199 -73.321717 
L 145.864042 -73.740055 
L 147.479884 -74.157333 
L 149.095727 -74.567001 
L 150.711569 -74.922045 
L 152.327412 -75.34689 
L 153.943255 -75.799078 
L 155.559097 -76.251518 
L 157.17494 -76.70548 
L 158.790783 -77.159441 
L 160.406625 -77.611668 
L 162.022468 -78.042581 
L 163.638311 -78.450809 
L 165.254153 -78.814943 
L 166.869996 -79.179076 
L 168.485839 -79.54321 
L 170.101681 -79.907343 
L 171.717524 -80.271477 
L 173.333366 -80.650527 
L 174.949209 -80.999707 
L 176.565052 -81.358867 
L 178.180894 -81.71986 
L 179.796737 -82.080853 
L 181.41258 -82.441846 
L 183.028422 -82.802839 
L 184.644265 -83.163833 
L 186.260108 -83.524826 
L 187.87595 -83.887842 
L 189.491793 -84.250944 
L 191.107636 -84.614045 
L 192.723478 -84.921984 
L 194.339321 -85.22362 
L 195.955163 -85.525256 
L 197.571006 -85.93113 
L 199.186849 -86.355537 
L 200.802691 -86.781548 
L 202.418534 -87.157763 
L 204.034377 -87.50975 
L 205.650219 -87.857523 
L 207.266062 -88.21267 
L 208.881905 -88.611055 
L 210.497747 -88.973253 
L 212.11359 -89.335451 
L 213.729433 -89.698801 
L 215.345275 -90.062264 
L 216.961118 -90.429593 
L 218.57696 -90.825577 
L 220.192803 -91.222097 
L 221.808646 -91.618979 
L 223.424488 -92.015861 
L 225.040331 -92.397221 
L 226.656174 -92.766262 
L 228.272016 -93.163921 
L 229.887859 -93.561581 
L 229.887859 -170.346452 
L 229.887859 -170.346452 
L 228.272016 -169.087283 
L 226.656174 -167.828115 
L 225.040331 -166.568947 
L 223.424488 -165.309779 
L 221.808646 -164.05061 
L 220.192803 -162.791442 
L 218.57696 -161.532274 
L 216.961118 -160.289379 
L 215.345275 -159.143626 
L 213.729433 -157.997873 
L 212.11359 -156.85212 
L 210.497747 -155.706367 
L 208.881905 -154.560614 
L 207.266062 -153.414861 
L 205.650219 -152.269109 
L 204.034377 -151.123356 
L 202.418534 -149.977603 
L 200.802691 -148.83185 
L 199.186849 -147.686097 
L 197.571006 -146.529342 
L 195.955163 -145.277527 
L 194.339321 -144.025713 
L 192.723478 -142.773898 
L 191.107636 -141.522083 
L 189.491793 -140.270269 
L 187.87595 -139.018454 
L 186.260108 -137.76664 
L 184.644265 -136.514825 
L 183.028422 -135.26301 
L 181.41258 -134.011196 
L 179.796737 -132.759381 
L 178.180894 -131.507566 
L 176.565052 -130.255752 
L 174.949209 -129.00359 
L 173.333366 -127.749386 
L 171.717524 -126.495181 
L 170.101681 -125.265861 
L 168.485839 -124.11982 
L 166.869996 -122.97378 
L 165.254153 -121.82774 
L 163.638311 -120.681699 
L 162.022468 -119.535659 
L 160.406625 -118.387397 
L 158.790783 -117.238406 
L 157.17494 -116.089415 
L 155.559097 -114.940424 
L 153.943255 -113.791433 
L 152.327412 -112.510011 
L 150.711569 -111.158752 
L 149.095727 -109.807494 
L 147.479884 -108.456235 
L 145.864042 -107.104976 
L 144.248199 -105.753717 
L 142.632356 -104.400728 
L 141.016514 -103.044822 
L 139.400671 -101.688408 
L 137.784828 -100.331415 
L 136.168986 -98.974422 
L 134.553143 -97.632347 
L 132.9373 -96.37478 
L 131.321458 -95.117214 
L 129.705615 -93.859647 
L 128.089772 -92.602081 
L 126.47393 -91.344514 
L 124.858087 -90.086948 
L 123.242245 -88.831822 
L 121.626402 -87.854877 
L 120.010559 -86.734982 
L 118.394717 -85.772871 
L 116.778874 -84.466402 
L 115.163031 -83.30172 
L 113.547189 -82.508884 
L 111.931346 -81.441512 
L 110.315503 -80.555114 
L 108.699661 -79.442181 
L 107.083818 -78.403877 
L 105.467975 -77.611992 
L 103.852133 -76.690167 
L 102.23629 -75.707528 
L 100.620448 -74.838636 
L 99.004605 -73.744177 
L 97.388762 -72.838063 
L 95.77292 -71.938091 
L 94.157077 -71.142606 
L 92.541234 -70.302513 
L 90.925392 -69.29544 
L 89.309549 -68.373495 
L 87.693706 -67.489903 
L 86.077864 -66.750264 
L 84.462021 -66.044761 
L 82.846178 -65.177375 
L 81.230336 -64.263241 
L 79.614493 -63.448892 
L 77.998651 -63.080701 
L 76.382808 -62.290435 
L 74.766965 -61.823624 
L 73.151123 -61.391286 
L 71.53528 -60.634221 
L 69.919437 -60.225436 
z
" id="mde65e8ff73" style="stroke:#ffffff;stroke-opacity:0.15;"/>
    </defs>
    <g clip-path="url(#p96a662d589)">
     <use style="fill:#4c72b0;fill-opacity:0.15;stroke:#ffffff;stroke-opacity:0.15;" x="0" xlink:href="#mde65e8ff73" y="360"/>
    </g>
   </g>
   <g id="line2d_16">
    <path clip-path="url(#p96a662d589)" d="M 69.309868 305.890632 
L 71.951335 305.228916 
L 74.592803 304.5672 
L 77.23427 303.905484 
L 79.875737 303.243768 
L 82.517205 302.582052 
L 85.158672 301.920336 
L 87.800139 301.258621 
L 90.441606 300.596905 
L 93.083074 299.935189 
L 95.724541 299.273473 
L 98.366008 298.611757 
L 101.007476 297.950041 
L 103.648943 297.288325 
L 106.29041 296.626609 
L 108.931878 295.964893 
L 111.573345 295.303177 
L 114.214812 294.641461 
L 116.85628 293.979745 
L 119.497747 293.31803 
L 122.139214 292.656314 
L 124.780682 291.994598 
L 127.422149 291.332882 
L 130.063616 290.671166 
L 132.705084 290.00945 
L 135.346551 289.347734 
L 137.988018 288.686018 
L 140.629485 288.024302 
L 143.270953 287.362586 
L 145.91242 286.70087 
L 148.553887 286.039154 
L 151.195355 285.377439 
L 153.836822 284.715723 
L 156.478289 284.054007 
L 159.119757 283.392291 
L 161.761224 282.730575 
L 164.402691 282.068859 
L 167.044159 281.407143 
L 169.685626 280.745427 
L 172.327093 280.083711 
L 174.968561 279.421995 
L 177.610028 278.760279 
L 180.251495 278.098563 
L 182.892962 277.436848 
L 185.53443 276.775132 
L 188.175897 276.113416 
L 190.817364 275.4517 
L 193.458832 274.789984 
L 196.100299 274.128268 
L 198.741766 273.466552 
L 201.383234 272.804836 
L 204.024701 272.14312 
L 206.666168 271.481404 
L 209.307636 270.819688 
L 211.949103 270.157972 
L 214.59057 269.496257 
L 217.232038 268.834541 
L 219.873505 268.172825 
L 222.514972 267.511109 
L 225.156439 266.849393 
L 227.797907 266.187677 
L 230.439374 265.525961 
L 233.080841 264.864245 
L 235.722309 264.202529 
L 238.363776 263.540813 
L 241.005243 262.879097 
L 243.646711 262.217381 
L 246.288178 261.555666 
L 248.929645 260.89395 
L 251.571113 260.232234 
L 254.21258 259.570518 
L 256.854047 258.908802 
L 259.495515 258.247086 
L 262.136982 257.58537 
L 264.778449 256.923654 
L 267.419916 256.261938 
L 270.061384 255.600222 
L 272.702851 254.938506 
L 275.344318 254.27679 
L 277.985786 253.615075 
L 280.627253 252.953359 
L 283.26872 252.291643 
L 285.910188 251.629927 
L 288.551655 250.968211 
L 291.193122 250.306495 
L 293.83459 249.644779 
L 296.476057 248.983063 
L 299.117524 248.321347 
L 301.758992 247.659631 
L 304.400459 246.997915 
L 307.041926 246.336199 
L 309.683394 245.674483 
L 312.324861 245.012768 
L 314.966328 244.351052 
L 317.607795 243.689336 
L 320.249263 243.02762 
L 322.89073 242.365904 
L 325.532197 241.704188 
L 328.173665 241.042472 
L 330.815132 240.380756 
" style="fill:none;stroke:#dd8452;stroke-linecap:round;stroke-width:2.25;"/>
   </g>
   <g id="line2d_17">
    <path clip-path="url(#p96a662d589)" d="M 69.919437 306.736346 
L 71.53528 306.076336 
L 73.151123 305.416325 
L 74.766965 304.756314 
L 76.382808 304.096304 
L 77.998651 303.436293 
L 79.614493 302.776282 
L 81.230336 302.116271 
L 82.846178 301.456261 
L 84.462021 300.79625 
L 86.077864 300.136239 
L 87.693706 299.476229 
L 89.309549 298.816218 
L 90.925392 298.156207 
L 92.541234 297.496197 
L 94.157077 296.836186 
L 95.77292 296.176175 
L 97.388762 295.516165 
L 99.004605 294.856154 
L 100.620448 294.196143 
L 102.23629 293.536133 
L 103.852133 292.876122 
L 105.467975 292.216111 
L 107.083818 291.556101 
L 108.699661 290.89609 
L 110.315503 290.236079 
L 111.931346 289.576069 
L 113.547189 288.916058 
L 115.163031 288.256047 
L 116.778874 287.596036 
L 118.394717 286.936026 
L 120.010559 286.276015 
L 121.626402 285.616004 
L 123.242245 284.955994 
L 124.858087 284.295983 
L 126.47393 283.635972 
L 128.089772 282.975962 
L 129.705615 282.315951 
L 131.321458 281.65594 
L 132.9373 280.99593 
L 134.553143 280.335919 
L 136.168986 279.675908 
L 137.784828 279.015898 
L 139.400671 278.355887 
L 141.016514 277.695876 
L 142.632356 277.035866 
L 144.248199 276.375855 
L 145.864042 275.715844 
L 147.479884 275.055834 
L 149.095727 274.395823 
L 150.711569 273.735812 
L 152.327412 273.075802 
L 153.943255 272.415791 
L 155.559097 271.75578 
L 157.17494 271.095769 
L 158.790783 270.435759 
L 160.406625 269.775748 
L 162.022468 269.115737 
L 163.638311 268.455727 
L 165.254153 267.795716 
L 166.869996 267.135705 
L 168.485839 266.475695 
L 170.101681 265.815684 
L 171.717524 265.155673 
L 173.333366 264.495663 
L 174.949209 263.835652 
L 176.565052 263.175641 
L 178.180894 262.515631 
L 179.796737 261.85562 
L 181.41258 261.195609 
L 183.028422 260.535599 
L 184.644265 259.875588 
L 186.260108 259.215577 
L 187.87595 258.555567 
L 189.491793 257.895556 
L 191.107636 257.235545 
L 192.723478 256.575534 
L 194.339321 255.915524 
L 195.955163 255.255513 
L 197.571006 254.595502 
L 199.186849 253.935492 
L 200.802691 253.275481 
L 202.418534 252.61547 
L 204.034377 251.95546 
L 205.650219 251.295449 
L 207.266062 250.635438 
L 208.881905 249.975428 
L 210.497747 249.315417 
L 212.11359 248.655406 
L 213.729433 247.995396 
L 215.345275 247.335385 
L 216.961118 246.675374 
L 218.57696 246.015364 
L 220.192803 245.355353 
L 221.808646 244.695342 
L 223.424488 244.035332 
L 225.040331 243.375321 
L 226.656174 242.71531 
L 228.272016 242.055299 
L 229.887859 241.395289 
" style="fill:none;stroke:#4c72b0;stroke-linecap:round;stroke-width:2.25;"/>
   </g>
   <g id="patch_3">
    <path d="M 53.085 327.54 
L 53.085 13.528932 
" style="fill:none;stroke:#cccccc;stroke-linecap:square;stroke-linejoin:miter;stroke-width:1.25;"/>
   </g>
   <g id="patch_4">
    <path d="M 53.085 327.54 
L 347.04 327.54 
" style="fill:none;stroke:#cccccc;stroke-linecap:square;stroke-linejoin:miter;stroke-width:1.25;"/>
   </g>
  </g>
 </g>
 <defs>
  <clipPath id="p96a662d589">
   <rect height="314.011068" width="293.955" x="53.085" y="13.528932"/>
  </clipPath>
 </defs>
</svg>
