<?xml version="1.0" encoding="utf-8" standalone="no"?>
<!DOCTYPE svg PUBLIC "-//W3C//DTD SVG 1.1//EN"
  "http://www.w3.org/Graphics/SVG/1.1/DTD/svg11.dtd">
<!-- Created with matplotlib (https://matplotlib.org/) -->
<svg height="360pt" version="1.1" viewBox="0 0 360 360" width="360pt" xmlns="http://www.w3.org/2000/svg" xmlns:xlink="http://www.w3.org/1999/xlink">
 <metadata>
  <rdf:RDF xmlns:cc="http://creativecommons.org/ns#" xmlns:dc="http://purl.org/dc/elements/1.1/" xmlns:rdf="http://www.w3.org/1999/02/22-rdf-syntax-ns#">
   <cc:Work>
    <dc:type rdf:resource="http://purl.org/dc/dcmitype/StillImage"/>
    <dc:date>2021-02-05T20:23:38.692924</dc:date>
    <dc:format>image/svg+xml</dc:format>
    <dc:creator>
     <cc:Agent>
      <dc:title>Matplotlib v3.3.2, https://matplotlib.org/</dc:title>
     </cc:Agent>
    </dc:creator>
   </cc:Work>
  </rdf:RDF>
 </metadata>
 <defs>
  <style type="text/css">*{stroke-linecap:butt;stroke-linejoin:round;}</style>
 </defs>
 <g id="figure_1">
  <g id="patch_1">
   <path d="M 0 360 
L 360 360 
L 360 0 
L 0 0 
z
" style="fill:#ffffff;"/>
  </g>
  <g id="axes_1">
   <g id="patch_2">
    <path d="M 53.085 327.54 
L 335.191622 327.54 
L 335.191622 16.041272 
L 53.085 16.041272 
z
" style="fill:#ffffff;"/>
   </g>
   <g id="matplotlib.axis_1">
    <g id="xtick_1">
     <g id="line2d_1">
      <path clip-path="url(#p98bb546f9c)" d="M 99.961858 327.54 
L 99.961858 16.041272 
" style="fill:none;stroke:#cccccc;stroke-linecap:round;"/>
     </g>
     <g id="text_1">
      <!-- 1000 -->
      <g style="fill:#262626;" transform="translate(87.727795 344.913594)scale(0.11 -0.11)">
       <defs>
        <path d="M 37.25 0 
L 28.46875 0 
L 28.46875 56 
Q 25.296875 52.984375 20.140625 49.953125 
Q 14.984375 46.921875 10.890625 45.40625 
L 10.890625 53.90625 
Q 18.265625 57.375 23.78125 62.296875 
Q 29.296875 67.234375 31.59375 71.875 
L 37.25 71.875 
z
" id="ArialMT-49"/>
        <path d="M 4.15625 35.296875 
Q 4.15625 48 6.765625 55.734375 
Q 9.375 63.484375 14.515625 67.671875 
Q 19.671875 71.875 27.484375 71.875 
Q 33.25 71.875 37.59375 69.546875 
Q 41.9375 67.234375 44.765625 62.859375 
Q 47.609375 58.5 49.21875 52.21875 
Q 50.828125 45.953125 50.828125 35.296875 
Q 50.828125 22.703125 48.234375 14.96875 
Q 45.65625 7.234375 40.5 3 
Q 35.359375 -1.21875 27.484375 -1.21875 
Q 17.140625 -1.21875 11.234375 6.203125 
Q 4.15625 15.140625 4.15625 35.296875 
z
M 13.1875 35.296875 
Q 13.1875 17.671875 17.3125 11.828125 
Q 21.4375 6 27.484375 6 
Q 33.546875 6 37.671875 11.859375 
Q 41.796875 17.71875 41.796875 35.296875 
Q 41.796875 52.984375 37.671875 58.78125 
Q 33.546875 64.59375 27.390625 64.59375 
Q 21.34375 64.59375 17.71875 59.46875 
Q 13.1875 52.9375 13.1875 35.296875 
z
" id="ArialMT-48"/>
       </defs>
       <use xlink:href="#ArialMT-49"/>
       <use x="55.615234" xlink:href="#ArialMT-48"/>
       <use x="111.230469" xlink:href="#ArialMT-48"/>
       <use x="166.845703" xlink:href="#ArialMT-48"/>
      </g>
     </g>
    </g>
    <g id="xtick_2">
     <g id="line2d_2">
      <path clip-path="url(#p98bb546f9c)" d="M 146.932657 327.54 
L 146.932657 16.041272 
" style="fill:none;stroke:#cccccc;stroke-linecap:round;"/>
     </g>
     <g id="text_2">
      <!-- 2000 -->
      <g style="fill:#262626;" transform="translate(134.698595 344.913594)scale(0.11 -0.11)">
       <defs>
        <path d="M 50.34375 8.453125 
L 50.34375 0 
L 3.03125 0 
Q 2.9375 3.171875 4.046875 6.109375 
Q 5.859375 10.9375 9.828125 15.625 
Q 13.8125 20.3125 21.34375 26.46875 
Q 33.015625 36.03125 37.109375 41.625 
Q 41.21875 47.21875 41.21875 52.203125 
Q 41.21875 57.421875 37.46875 61 
Q 33.734375 64.59375 27.734375 64.59375 
Q 21.390625 64.59375 17.578125 60.78125 
Q 13.765625 56.984375 13.71875 50.25 
L 4.6875 51.171875 
Q 5.609375 61.28125 11.65625 66.578125 
Q 17.71875 71.875 27.9375 71.875 
Q 38.234375 71.875 44.234375 66.15625 
Q 50.25 60.453125 50.25 52 
Q 50.25 47.703125 48.484375 43.546875 
Q 46.734375 39.40625 42.65625 34.8125 
Q 38.578125 30.21875 29.109375 22.21875 
Q 21.1875 15.578125 18.9375 13.203125 
Q 16.703125 10.84375 15.234375 8.453125 
z
" id="ArialMT-50"/>
       </defs>
       <use xlink:href="#ArialMT-50"/>
       <use x="55.615234" xlink:href="#ArialMT-48"/>
       <use x="111.230469" xlink:href="#ArialMT-48"/>
       <use x="166.845703" xlink:href="#ArialMT-48"/>
      </g>
     </g>
    </g>
    <g id="xtick_3">
     <g id="line2d_3">
      <path clip-path="url(#p98bb546f9c)" d="M 193.903457 327.54 
L 193.903457 16.041272 
" style="fill:none;stroke:#cccccc;stroke-linecap:round;"/>
     </g>
     <g id="text_3">
      <!-- 3000 -->
      <g style="fill:#262626;" transform="translate(181.669394 344.913594)scale(0.11 -0.11)">
       <defs>
        <path d="M 4.203125 18.890625 
L 12.984375 20.0625 
Q 14.5 12.59375 18.140625 9.296875 
Q 21.78125 6 27 6 
Q 33.203125 6 37.46875 10.296875 
Q 41.75 14.59375 41.75 20.953125 
Q 41.75 27 37.796875 30.921875 
Q 33.84375 34.859375 27.734375 34.859375 
Q 25.25 34.859375 21.53125 33.890625 
L 22.515625 41.609375 
Q 23.390625 41.5 23.921875 41.5 
Q 29.546875 41.5 34.03125 44.421875 
Q 38.53125 47.359375 38.53125 53.46875 
Q 38.53125 58.296875 35.25 61.46875 
Q 31.984375 64.65625 26.8125 64.65625 
Q 21.6875 64.65625 18.265625 61.421875 
Q 14.84375 58.203125 13.875 51.765625 
L 5.078125 53.328125 
Q 6.6875 62.15625 12.390625 67.015625 
Q 18.109375 71.875 26.609375 71.875 
Q 32.46875 71.875 37.390625 69.359375 
Q 42.328125 66.84375 44.9375 62.5 
Q 47.5625 58.15625 47.5625 53.265625 
Q 47.5625 48.640625 45.0625 44.828125 
Q 42.578125 41.015625 37.703125 38.765625 
Q 44.046875 37.3125 47.5625 32.6875 
Q 51.078125 28.078125 51.078125 21.140625 
Q 51.078125 11.765625 44.234375 5.25 
Q 37.40625 -1.265625 26.953125 -1.265625 
Q 17.53125 -1.265625 11.296875 4.34375 
Q 5.078125 9.96875 4.203125 18.890625 
z
" id="ArialMT-51"/>
       </defs>
       <use xlink:href="#ArialMT-51"/>
       <use x="55.615234" xlink:href="#ArialMT-48"/>
       <use x="111.230469" xlink:href="#ArialMT-48"/>
       <use x="166.845703" xlink:href="#ArialMT-48"/>
      </g>
     </g>
    </g>
    <g id="xtick_4">
     <g id="line2d_4">
      <path clip-path="url(#p98bb546f9c)" d="M 240.874256 327.54 
L 240.874256 16.041272 
" style="fill:none;stroke:#cccccc;stroke-linecap:round;"/>
     </g>
     <g id="text_4">
      <!-- 4000 -->
      <g style="fill:#262626;" transform="translate(228.640194 344.913594)scale(0.11 -0.11)">
       <defs>
        <path d="M 32.328125 0 
L 32.328125 17.140625 
L 1.265625 17.140625 
L 1.265625 25.203125 
L 33.9375 71.578125 
L 41.109375 71.578125 
L 41.109375 25.203125 
L 50.78125 25.203125 
L 50.78125 17.140625 
L 41.109375 17.140625 
L 41.109375 0 
z
M 32.328125 25.203125 
L 32.328125 57.46875 
L 9.90625 25.203125 
z
" id="ArialMT-52"/>
       </defs>
       <use xlink:href="#ArialMT-52"/>
       <use x="55.615234" xlink:href="#ArialMT-48"/>
       <use x="111.230469" xlink:href="#ArialMT-48"/>
       <use x="166.845703" xlink:href="#ArialMT-48"/>
      </g>
     </g>
    </g>
    <g id="xtick_5">
     <g id="line2d_5">
      <path clip-path="url(#p98bb546f9c)" d="M 287.845056 327.54 
L 287.845056 16.041272 
" style="fill:none;stroke:#cccccc;stroke-linecap:round;"/>
     </g>
     <g id="text_5">
      <!-- 5000 -->
      <g style="fill:#262626;" transform="translate(275.610993 344.913594)scale(0.11 -0.11)">
       <defs>
        <path d="M 4.15625 18.75 
L 13.375 19.53125 
Q 14.40625 12.796875 18.140625 9.390625 
Q 21.875 6 27.15625 6 
Q 33.5 6 37.890625 10.78125 
Q 42.28125 15.578125 42.28125 23.484375 
Q 42.28125 31 38.0625 35.34375 
Q 33.84375 39.703125 27 39.703125 
Q 22.75 39.703125 19.328125 37.765625 
Q 15.921875 35.84375 13.96875 32.765625 
L 5.71875 33.84375 
L 12.640625 70.609375 
L 48.25 70.609375 
L 48.25 62.203125 
L 19.671875 62.203125 
L 15.828125 42.96875 
Q 22.265625 47.46875 29.34375 47.46875 
Q 38.71875 47.46875 45.15625 40.96875 
Q 51.609375 34.46875 51.609375 24.265625 
Q 51.609375 14.546875 45.953125 7.46875 
Q 39.0625 -1.21875 27.15625 -1.21875 
Q 17.390625 -1.21875 11.203125 4.25 
Q 5.03125 9.71875 4.15625 18.75 
z
" id="ArialMT-53"/>
       </defs>
       <use xlink:href="#ArialMT-53"/>
       <use x="55.615234" xlink:href="#ArialMT-48"/>
       <use x="111.230469" xlink:href="#ArialMT-48"/>
       <use x="166.845703" xlink:href="#ArialMT-48"/>
      </g>
     </g>
    </g>
    <g id="xtick_6">
     <g id="line2d_6">
      <path clip-path="url(#p98bb546f9c)" d="M 334.815855 327.54 
L 334.815855 16.041272 
" style="fill:none;stroke:#cccccc;stroke-linecap:round;"/>
     </g>
     <g id="text_6">
      <!-- 6000 -->
      <g style="fill:#262626;" transform="translate(322.581793 344.913594)scale(0.11 -0.11)">
       <defs>
        <path d="M 49.75 54.046875 
L 41.015625 53.375 
Q 39.84375 58.546875 37.703125 60.890625 
Q 34.125 64.65625 28.90625 64.65625 
Q 24.703125 64.65625 21.53125 62.3125 
Q 17.390625 59.28125 14.984375 53.46875 
Q 12.59375 47.65625 12.5 36.921875 
Q 15.671875 41.75 20.265625 44.09375 
Q 24.859375 46.4375 29.890625 46.4375 
Q 38.671875 46.4375 44.84375 39.96875 
Q 51.03125 33.5 51.03125 23.25 
Q 51.03125 16.5 48.125 10.71875 
Q 45.21875 4.9375 40.140625 1.859375 
Q 35.0625 -1.21875 28.609375 -1.21875 
Q 17.625 -1.21875 10.6875 6.859375 
Q 3.765625 14.9375 3.765625 33.5 
Q 3.765625 54.25 11.421875 63.671875 
Q 18.109375 71.875 29.4375 71.875 
Q 37.890625 71.875 43.28125 67.140625 
Q 48.6875 62.40625 49.75 54.046875 
z
M 13.875 23.1875 
Q 13.875 18.65625 15.796875 14.5 
Q 17.71875 10.359375 21.1875 8.171875 
Q 24.65625 6 28.46875 6 
Q 34.03125 6 38.03125 10.484375 
Q 42.046875 14.984375 42.046875 22.703125 
Q 42.046875 30.125 38.078125 34.390625 
Q 34.125 38.671875 28.125 38.671875 
Q 22.171875 38.671875 18.015625 34.390625 
Q 13.875 30.125 13.875 23.1875 
z
" id="ArialMT-54"/>
       </defs>
       <use xlink:href="#ArialMT-54"/>
       <use x="55.615234" xlink:href="#ArialMT-48"/>
       <use x="111.230469" xlink:href="#ArialMT-48"/>
       <use x="166.845703" xlink:href="#ArialMT-48"/>
      </g>
     </g>
    </g>
    <g id="text_7">
     <!-- following_count -->
     <g style="fill:#262626;" transform="translate(152.779561 359.835469)scale(0.12 -0.12)">
      <defs>
       <path d="M 8.6875 0 
L 8.6875 45.015625 
L 0.921875 45.015625 
L 0.921875 51.859375 
L 8.6875 51.859375 
L 8.6875 57.375 
Q 8.6875 62.59375 9.625 65.140625 
Q 10.890625 68.5625 14.078125 70.671875 
Q 17.28125 72.796875 23.046875 72.796875 
Q 26.765625 72.796875 31.25 71.921875 
L 29.9375 64.265625 
Q 27.203125 64.75 24.75 64.75 
Q 20.75 64.75 19.09375 63.03125 
Q 17.4375 61.328125 17.4375 56.640625 
L 17.4375 51.859375 
L 27.546875 51.859375 
L 27.546875 45.015625 
L 17.4375 45.015625 
L 17.4375 0 
z
" id="ArialMT-102"/>
       <path d="M 3.328125 25.921875 
Q 3.328125 40.328125 11.328125 47.265625 
Q 18.015625 53.03125 27.640625 53.03125 
Q 38.328125 53.03125 45.109375 46.015625 
Q 51.90625 39.015625 51.90625 26.65625 
Q 51.90625 16.65625 48.90625 10.90625 
Q 45.90625 5.171875 40.15625 2 
Q 34.421875 -1.171875 27.640625 -1.171875 
Q 16.75 -1.171875 10.03125 5.8125 
Q 3.328125 12.796875 3.328125 25.921875 
z
M 12.359375 25.921875 
Q 12.359375 15.96875 16.703125 11.015625 
Q 21.046875 6.0625 27.640625 6.0625 
Q 34.1875 6.0625 38.53125 11.03125 
Q 42.875 16.015625 42.875 26.21875 
Q 42.875 35.84375 38.5 40.796875 
Q 34.125 45.75 27.640625 45.75 
Q 21.046875 45.75 16.703125 40.8125 
Q 12.359375 35.890625 12.359375 25.921875 
z
" id="ArialMT-111"/>
       <path d="M 6.390625 0 
L 6.390625 71.578125 
L 15.1875 71.578125 
L 15.1875 0 
z
" id="ArialMT-108"/>
       <path d="M 16.15625 0 
L 0.296875 51.859375 
L 9.375 51.859375 
L 17.625 21.921875 
L 20.703125 10.796875 
Q 20.90625 11.625 23.390625 21.484375 
L 31.640625 51.859375 
L 40.671875 51.859375 
L 48.4375 21.78125 
L 51.03125 11.859375 
L 54 21.875 
L 62.890625 51.859375 
L 71.4375 51.859375 
L 55.21875 0 
L 46.09375 0 
L 37.84375 31.0625 
L 35.84375 39.890625 
L 25.34375 0 
z
" id="ArialMT-119"/>
       <path d="M 6.640625 61.46875 
L 6.640625 71.578125 
L 15.4375 71.578125 
L 15.4375 61.46875 
z
M 6.640625 0 
L 6.640625 51.859375 
L 15.4375 51.859375 
L 15.4375 0 
z
" id="ArialMT-105"/>
       <path d="M 6.59375 0 
L 6.59375 51.859375 
L 14.5 51.859375 
L 14.5 44.484375 
Q 20.21875 53.03125 31 53.03125 
Q 35.6875 53.03125 39.625 51.34375 
Q 43.5625 49.65625 45.515625 46.921875 
Q 47.46875 44.1875 48.25 40.4375 
Q 48.734375 37.984375 48.734375 31.890625 
L 48.734375 0 
L 39.9375 0 
L 39.9375 31.546875 
Q 39.9375 36.921875 38.90625 39.578125 
Q 37.890625 42.234375 35.28125 43.8125 
Q 32.671875 45.40625 29.15625 45.40625 
Q 23.53125 45.40625 19.453125 41.84375 
Q 15.375 38.28125 15.375 28.328125 
L 15.375 0 
z
" id="ArialMT-110"/>
       <path d="M 4.984375 -4.296875 
L 13.53125 -5.5625 
Q 14.0625 -9.515625 16.5 -11.328125 
Q 19.78125 -13.765625 25.4375 -13.765625 
Q 31.546875 -13.765625 34.859375 -11.328125 
Q 38.1875 -8.890625 39.359375 -4.5 
Q 40.046875 -1.8125 39.984375 6.78125 
Q 34.234375 0 25.640625 0 
Q 14.9375 0 9.078125 7.71875 
Q 3.21875 15.4375 3.21875 26.21875 
Q 3.21875 33.640625 5.90625 39.90625 
Q 8.59375 46.1875 13.6875 49.609375 
Q 18.796875 53.03125 25.6875 53.03125 
Q 34.859375 53.03125 40.828125 45.609375 
L 40.828125 51.859375 
L 48.921875 51.859375 
L 48.921875 7.03125 
Q 48.921875 -5.078125 46.453125 -10.125 
Q 44 -15.1875 38.640625 -18.109375 
Q 33.296875 -21.046875 25.484375 -21.046875 
Q 16.21875 -21.046875 10.5 -16.875 
Q 4.78125 -12.703125 4.984375 -4.296875 
z
M 12.25 26.859375 
Q 12.25 16.65625 16.296875 11.96875 
Q 20.359375 7.28125 26.46875 7.28125 
Q 32.515625 7.28125 36.609375 11.9375 
Q 40.71875 16.609375 40.71875 26.5625 
Q 40.71875 36.078125 36.5 40.90625 
Q 32.28125 45.75 26.3125 45.75 
Q 20.453125 45.75 16.34375 40.984375 
Q 12.25 36.234375 12.25 26.859375 
z
" id="ArialMT-103"/>
       <path d="M -1.515625 -19.875 
L -1.515625 -13.53125 
L 56.734375 -13.53125 
L 56.734375 -19.875 
z
" id="ArialMT-95"/>
       <path d="M 40.4375 19 
L 49.078125 17.875 
Q 47.65625 8.9375 41.8125 3.875 
Q 35.984375 -1.171875 27.484375 -1.171875 
Q 16.84375 -1.171875 10.375 5.78125 
Q 3.90625 12.75 3.90625 25.734375 
Q 3.90625 34.125 6.6875 40.421875 
Q 9.46875 46.734375 15.15625 49.875 
Q 20.84375 53.03125 27.546875 53.03125 
Q 35.984375 53.03125 41.359375 48.75 
Q 46.734375 44.484375 48.25 36.625 
L 39.703125 35.296875 
Q 38.484375 40.53125 35.375 43.15625 
Q 32.28125 45.796875 27.875 45.796875 
Q 21.234375 45.796875 17.078125 41.03125 
Q 12.9375 36.28125 12.9375 25.984375 
Q 12.9375 15.53125 16.9375 10.796875 
Q 20.953125 6.0625 27.390625 6.0625 
Q 32.5625 6.0625 36.03125 9.234375 
Q 39.5 12.40625 40.4375 19 
z
" id="ArialMT-99"/>
       <path d="M 40.578125 0 
L 40.578125 7.625 
Q 34.515625 -1.171875 24.125 -1.171875 
Q 19.53125 -1.171875 15.546875 0.578125 
Q 11.578125 2.34375 9.640625 5 
Q 7.71875 7.671875 6.9375 11.53125 
Q 6.390625 14.109375 6.390625 19.734375 
L 6.390625 51.859375 
L 15.1875 51.859375 
L 15.1875 23.09375 
Q 15.1875 16.21875 15.71875 13.8125 
Q 16.546875 10.359375 19.234375 8.375 
Q 21.921875 6.390625 25.875 6.390625 
Q 29.828125 6.390625 33.296875 8.421875 
Q 36.765625 10.453125 38.203125 13.9375 
Q 39.65625 17.4375 39.65625 24.078125 
L 39.65625 51.859375 
L 48.4375 51.859375 
L 48.4375 0 
z
" id="ArialMT-117"/>
       <path d="M 25.78125 7.859375 
L 27.046875 0.09375 
Q 23.34375 -0.6875 20.40625 -0.6875 
Q 15.625 -0.6875 12.984375 0.828125 
Q 10.359375 2.34375 9.28125 4.8125 
Q 8.203125 7.28125 8.203125 15.1875 
L 8.203125 45.015625 
L 1.765625 45.015625 
L 1.765625 51.859375 
L 8.203125 51.859375 
L 8.203125 64.703125 
L 16.9375 69.96875 
L 16.9375 51.859375 
L 25.78125 51.859375 
L 25.78125 45.015625 
L 16.9375 45.015625 
L 16.9375 14.703125 
Q 16.9375 10.9375 17.40625 9.859375 
Q 17.875 8.796875 18.921875 8.15625 
Q 19.96875 7.515625 21.921875 7.515625 
Q 23.390625 7.515625 25.78125 7.859375 
z
" id="ArialMT-116"/>
      </defs>
      <use xlink:href="#ArialMT-102"/>
      <use x="27.783203" xlink:href="#ArialMT-111"/>
      <use x="83.398438" xlink:href="#ArialMT-108"/>
      <use x="105.615234" xlink:href="#ArialMT-108"/>
      <use x="127.832031" xlink:href="#ArialMT-111"/>
      <use x="183.447266" xlink:href="#ArialMT-119"/>
      <use x="255.664062" xlink:href="#ArialMT-105"/>
      <use x="277.880859" xlink:href="#ArialMT-110"/>
      <use x="333.496094" xlink:href="#ArialMT-103"/>
      <use x="389.111328" xlink:href="#ArialMT-95"/>
      <use x="444.726562" xlink:href="#ArialMT-99"/>
      <use x="494.726562" xlink:href="#ArialMT-111"/>
      <use x="550.341797" xlink:href="#ArialMT-117"/>
      <use x="605.957031" xlink:href="#ArialMT-110"/>
      <use x="661.572266" xlink:href="#ArialMT-116"/>
     </g>
    </g>
   </g>
   <g id="matplotlib.axis_2">
    <g id="ytick_1">
     <g id="line2d_7">
      <path clip-path="url(#p98bb546f9c)" d="M 53.085 307.260697 
L 335.191622 307.260697 
" style="fill:none;stroke:#cccccc;stroke-linecap:round;"/>
     </g>
     <g id="text_8">
      <!-- 0 -->
      <g style="fill:#262626;" transform="translate(37.467969 311.197494)scale(0.11 -0.11)">
       <use xlink:href="#ArialMT-48"/>
      </g>
     </g>
    </g>
    <g id="ytick_2">
     <g id="line2d_8">
      <path clip-path="url(#p98bb546f9c)" d="M 53.085 265.789557 
L 335.191622 265.789557 
" style="fill:none;stroke:#cccccc;stroke-linecap:round;"/>
     </g>
     <g id="text_9">
      <!-- 5000 -->
      <g style="fill:#262626;" transform="translate(19.116875 269.726354)scale(0.11 -0.11)">
       <use xlink:href="#ArialMT-53"/>
       <use x="55.615234" xlink:href="#ArialMT-48"/>
       <use x="111.230469" xlink:href="#ArialMT-48"/>
       <use x="166.845703" xlink:href="#ArialMT-48"/>
      </g>
     </g>
    </g>
    <g id="ytick_3">
     <g id="line2d_9">
      <path clip-path="url(#p98bb546f9c)" d="M 53.085 224.318417 
L 335.191622 224.318417 
" style="fill:none;stroke:#cccccc;stroke-linecap:round;"/>
     </g>
     <g id="text_10">
      <!-- 10000 -->
      <g style="fill:#262626;" transform="translate(12.999844 228.255214)scale(0.11 -0.11)">
       <use xlink:href="#ArialMT-49"/>
       <use x="55.615234" xlink:href="#ArialMT-48"/>
       <use x="111.230469" xlink:href="#ArialMT-48"/>
       <use x="166.845703" xlink:href="#ArialMT-48"/>
       <use x="222.460938" xlink:href="#ArialMT-48"/>
      </g>
     </g>
    </g>
    <g id="ytick_4">
     <g id="line2d_10">
      <path clip-path="url(#p98bb546f9c)" d="M 53.085 182.847277 
L 335.191622 182.847277 
" style="fill:none;stroke:#cccccc;stroke-linecap:round;"/>
     </g>
     <g id="text_11">
      <!-- 15000 -->
      <g style="fill:#262626;" transform="translate(12.999844 186.784074)scale(0.11 -0.11)">
       <use xlink:href="#ArialMT-49"/>
       <use x="55.615234" xlink:href="#ArialMT-53"/>
       <use x="111.230469" xlink:href="#ArialMT-48"/>
       <use x="166.845703" xlink:href="#ArialMT-48"/>
       <use x="222.460938" xlink:href="#ArialMT-48"/>
      </g>
     </g>
    </g>
    <g id="ytick_5">
     <g id="line2d_11">
      <path clip-path="url(#p98bb546f9c)" d="M 53.085 141.376137 
L 335.191622 141.376137 
" style="fill:none;stroke:#cccccc;stroke-linecap:round;"/>
     </g>
     <g id="text_12">
      <!-- 20000 -->
      <g style="fill:#262626;" transform="translate(12.999844 145.312934)scale(0.11 -0.11)">
       <use xlink:href="#ArialMT-50"/>
       <use x="55.615234" xlink:href="#ArialMT-48"/>
       <use x="111.230469" xlink:href="#ArialMT-48"/>
       <use x="166.845703" xlink:href="#ArialMT-48"/>
       <use x="222.460938" xlink:href="#ArialMT-48"/>
      </g>
     </g>
    </g>
    <g id="ytick_6">
     <g id="line2d_12">
      <path clip-path="url(#p98bb546f9c)" d="M 53.085 99.904998 
L 335.191622 99.904998 
" style="fill:none;stroke:#cccccc;stroke-linecap:round;"/>
     </g>
     <g id="text_13">
      <!-- 25000 -->
      <g style="fill:#262626;" transform="translate(12.999844 103.841794)scale(0.11 -0.11)">
       <use xlink:href="#ArialMT-50"/>
       <use x="55.615234" xlink:href="#ArialMT-53"/>
       <use x="111.230469" xlink:href="#ArialMT-48"/>
       <use x="166.845703" xlink:href="#ArialMT-48"/>
       <use x="222.460938" xlink:href="#ArialMT-48"/>
      </g>
     </g>
    </g>
    <g id="ytick_7">
     <g id="line2d_13">
      <path clip-path="url(#p98bb546f9c)" d="M 53.085 58.433858 
L 335.191622 58.433858 
" style="fill:none;stroke:#cccccc;stroke-linecap:round;"/>
     </g>
     <g id="text_14">
      <!-- 30000 -->
      <g style="fill:#262626;" transform="translate(12.999844 62.370654)scale(0.11 -0.11)">
       <use xlink:href="#ArialMT-51"/>
       <use x="55.615234" xlink:href="#ArialMT-48"/>
       <use x="111.230469" xlink:href="#ArialMT-48"/>
       <use x="166.845703" xlink:href="#ArialMT-48"/>
       <use x="222.460938" xlink:href="#ArialMT-48"/>
      </g>
     </g>
    </g>
    <g id="ytick_8">
     <g id="line2d_14">
      <path clip-path="url(#p98bb546f9c)" d="M 53.085 16.962718 
L 335.191622 16.962718 
" style="fill:none;stroke:#cccccc;stroke-linecap:round;"/>
     </g>
     <g id="text_15">
      <!-- 35000 -->
      <g style="fill:#262626;" transform="translate(12.999844 20.899515)scale(0.11 -0.11)">
       <use xlink:href="#ArialMT-51"/>
       <use x="55.615234" xlink:href="#ArialMT-53"/>
       <use x="111.230469" xlink:href="#ArialMT-48"/>
       <use x="166.845703" xlink:href="#ArialMT-48"/>
       <use x="222.460938" xlink:href="#ArialMT-48"/>
      </g>
     </g>
    </g>
    <g id="text_16">
     <!-- followers_count -->
     <g style="fill:#262626;" transform="translate(6.614844 213.477511)rotate(-90)scale(0.12 -0.12)">
      <defs>
       <path d="M 42.09375 16.703125 
L 51.171875 15.578125 
Q 49.03125 7.625 43.21875 3.21875 
Q 37.40625 -1.171875 28.375 -1.171875 
Q 17 -1.171875 10.328125 5.828125 
Q 3.65625 12.84375 3.65625 25.484375 
Q 3.65625 38.578125 10.390625 45.796875 
Q 17.140625 53.03125 27.875 53.03125 
Q 38.28125 53.03125 44.875 45.953125 
Q 51.46875 38.875 51.46875 26.03125 
Q 51.46875 25.25 51.421875 23.6875 
L 12.75 23.6875 
Q 13.234375 15.140625 17.578125 10.59375 
Q 21.921875 6.0625 28.421875 6.0625 
Q 33.25 6.0625 36.671875 8.59375 
Q 40.09375 11.140625 42.09375 16.703125 
z
M 13.234375 30.90625 
L 42.1875 30.90625 
Q 41.609375 37.453125 38.875 40.71875 
Q 34.671875 45.796875 27.984375 45.796875 
Q 21.921875 45.796875 17.796875 41.75 
Q 13.671875 37.703125 13.234375 30.90625 
z
" id="ArialMT-101"/>
       <path d="M 6.5 0 
L 6.5 51.859375 
L 14.40625 51.859375 
L 14.40625 44 
Q 17.4375 49.515625 20 51.265625 
Q 22.5625 53.03125 25.640625 53.03125 
Q 30.078125 53.03125 34.671875 50.203125 
L 31.640625 42.046875 
Q 28.421875 43.953125 25.203125 43.953125 
Q 22.3125 43.953125 20.015625 42.21875 
Q 17.71875 40.484375 16.75 37.40625 
Q 15.28125 32.71875 15.28125 27.15625 
L 15.28125 0 
z
" id="ArialMT-114"/>
       <path d="M 3.078125 15.484375 
L 11.765625 16.84375 
Q 12.5 11.625 15.84375 8.84375 
Q 19.1875 6.0625 25.203125 6.0625 
Q 31.25 6.0625 34.171875 8.515625 
Q 37.109375 10.984375 37.109375 14.3125 
Q 37.109375 17.28125 34.515625 19 
Q 32.71875 20.171875 25.53125 21.96875 
Q 15.875 24.421875 12.140625 26.203125 
Q 8.40625 27.984375 6.46875 31.125 
Q 4.546875 34.28125 4.546875 38.09375 
Q 4.546875 41.546875 6.125 44.5 
Q 7.71875 47.46875 10.453125 49.421875 
Q 12.5 50.921875 16.03125 51.96875 
Q 19.578125 53.03125 23.640625 53.03125 
Q 29.734375 53.03125 34.34375 51.265625 
Q 38.96875 49.515625 41.15625 46.5 
Q 43.359375 43.5 44.1875 38.484375 
L 35.59375 37.3125 
Q 35.015625 41.3125 32.203125 43.546875 
Q 29.390625 45.796875 24.265625 45.796875 
Q 18.21875 45.796875 15.625 43.796875 
Q 13.03125 41.796875 13.03125 39.109375 
Q 13.03125 37.40625 14.109375 36.03125 
Q 15.1875 34.625 17.484375 33.6875 
Q 18.796875 33.203125 25.25 31.453125 
Q 34.578125 28.953125 38.25 27.359375 
Q 41.9375 25.78125 44.03125 22.75 
Q 46.140625 19.734375 46.140625 15.234375 
Q 46.140625 10.84375 43.578125 6.953125 
Q 41.015625 3.078125 36.171875 0.953125 
Q 31.34375 -1.171875 25.25 -1.171875 
Q 15.140625 -1.171875 9.84375 3.03125 
Q 4.546875 7.234375 3.078125 15.484375 
z
" id="ArialMT-115"/>
      </defs>
      <use xlink:href="#ArialMT-102"/>
      <use x="27.783203" xlink:href="#ArialMT-111"/>
      <use x="83.398438" xlink:href="#ArialMT-108"/>
      <use x="105.615234" xlink:href="#ArialMT-108"/>
      <use x="127.832031" xlink:href="#ArialMT-111"/>
      <use x="183.447266" xlink:href="#ArialMT-119"/>
      <use x="255.664062" xlink:href="#ArialMT-101"/>
      <use x="311.279297" xlink:href="#ArialMT-114"/>
      <use x="344.580078" xlink:href="#ArialMT-115"/>
      <use x="394.580078" xlink:href="#ArialMT-95"/>
      <use x="450.195312" xlink:href="#ArialMT-99"/>
      <use x="500.195312" xlink:href="#ArialMT-111"/>
      <use x="555.810547" xlink:href="#ArialMT-117"/>
      <use x="611.425781" xlink:href="#ArialMT-110"/>
      <use x="667.041016" xlink:href="#ArialMT-116"/>
     </g>
    </g>
   </g>
   <g id="PathCollection_1">
    <defs>
     <path d="M 0 3 
C 0.795609 3 1.55874 2.683901 2.12132 2.12132 
C 2.683901 1.55874 3 0.795609 3 0 
C 3 -0.795609 2.683901 -1.55874 2.12132 -2.12132 
C 1.55874 -2.683901 0.795609 -3 0 -3 
C -0.795609 -3 -1.55874 -2.683901 -2.12132 -2.12132 
C -2.683901 -1.55874 -3 -0.795609 -3 0 
C -3 0.795609 -2.683901 1.55874 -2.12132 2.12132 
C -1.55874 2.683901 -0.795609 3 0 3 
z
" id="m4b829e6978" style="stroke:#dd8452;stroke-opacity:0.8;"/>
    </defs>
    <g clip-path="url(#p98bb546f9c)">
     <use style="fill:#dd8452;fill-opacity:0.8;stroke:#dd8452;stroke-opacity:0.8;" x="53.225912" xlink:href="#m4b829e6978" y="307.202638"/>
     <use style="fill:#dd8452;fill-opacity:0.8;stroke:#dd8452;stroke-opacity:0.8;" x="60.224562" xlink:href="#m4b829e6978" y="306.779632"/>
     <use style="fill:#dd8452;fill-opacity:0.8;stroke:#dd8452;stroke-opacity:0.8;" x="68.585364" xlink:href="#m4b829e6978" y="305.120786"/>
     <use style="fill:#dd8452;fill-opacity:0.8;stroke:#dd8452;stroke-opacity:0.8;" x="62.103394" xlink:href="#m4b829e6978" y="306.373215"/>
     <use style="fill:#dd8452;fill-opacity:0.8;stroke:#dd8452;stroke-opacity:0.8;" x="59.473029" xlink:href="#m4b829e6978" y="306.530805"/>
     <use style="fill:#dd8452;fill-opacity:0.8;stroke:#dd8452;stroke-opacity:0.8;" x="63.935255" xlink:href="#m4b829e6978" y="304.523602"/>
     <use style="fill:#dd8452;fill-opacity:0.8;stroke:#dd8452;stroke-opacity:0.8;" x="70.792991" xlink:href="#m4b829e6978" y="305.908738"/>
     <use style="fill:#dd8452;fill-opacity:0.8;stroke:#dd8452;stroke-opacity:0.8;" x="90.379815" xlink:href="#m4b829e6978" y="305.950209"/>
     <use style="fill:#dd8452;fill-opacity:0.8;stroke:#dd8452;stroke-opacity:0.8;" x="74.879451" xlink:href="#m4b829e6978" y="305.983386"/>
     <use style="fill:#dd8452;fill-opacity:0.8;stroke:#dd8452;stroke-opacity:0.8;" x="103.719522" xlink:href="#m4b829e6978" y="304.050831"/>
     <use style="fill:#dd8452;fill-opacity:0.8;stroke:#dd8452;stroke-opacity:0.8;" x="86.950946" xlink:href="#m4b829e6978" y="305.336436"/>
     <use style="fill:#dd8452;fill-opacity:0.8;stroke:#dd8452;stroke-opacity:0.8;" x="73.470327" xlink:href="#m4b829e6978" y="306.655219"/>
     <use style="fill:#dd8452;fill-opacity:0.8;stroke:#dd8452;stroke-opacity:0.8;" x="63.136751" xlink:href="#m4b829e6978" y="305.77603"/>
     <use style="fill:#dd8452;fill-opacity:0.8;stroke:#dd8452;stroke-opacity:0.8;" x="78.214378" xlink:href="#m4b829e6978" y="305.129081"/>
     <use style="fill:#dd8452;fill-opacity:0.8;stroke:#dd8452;stroke-opacity:0.8;" x="168.163459" xlink:href="#m4b829e6978" y="305.535498"/>
     <use style="fill:#dd8452;fill-opacity:0.8;stroke:#dd8452;stroke-opacity:0.8;" x="110.999996" xlink:href="#m4b829e6978" y="304.954902"/>
     <use style="fill:#dd8452;fill-opacity:0.8;stroke:#dd8452;stroke-opacity:0.8;" x="104.518025" xlink:href="#m4b829e6978" y="303.262879"/>
     <use style="fill:#dd8452;fill-opacity:0.8;stroke:#dd8452;stroke-opacity:0.8;" x="76.241604" xlink:href="#m4b829e6978" y="302.49981"/>
     <use style="fill:#dd8452;fill-opacity:0.8;stroke:#dd8452;stroke-opacity:0.8;" x="60.74124" xlink:href="#m4b829e6978" y="306.655219"/>
     <use style="fill:#dd8452;fill-opacity:0.8;stroke:#dd8452;stroke-opacity:0.8;" x="134.532366" xlink:href="#m4b829e6978" y="302.524693"/>
     <use style="fill:#dd8452;fill-opacity:0.8;stroke:#dd8452;stroke-opacity:0.8;" x="54.212299" xlink:href="#m4b829e6978" y="307.094813"/>
     <use style="fill:#dd8452;fill-opacity:0.8;stroke:#dd8452;stroke-opacity:0.8;" x="81.549304" xlink:href="#m4b829e6978" y="302.051922"/>
     <use style="fill:#dd8452;fill-opacity:0.8;stroke:#dd8452;stroke-opacity:0.8;" x="64.968612" xlink:href="#m4b829e6978" y="305.6765"/>
     <use style="fill:#dd8452;fill-opacity:0.8;stroke:#dd8452;stroke-opacity:0.8;" x="77.556787" xlink:href="#m4b829e6978" y="304.175244"/>
     <use style="fill:#dd8452;fill-opacity:0.8;stroke:#dd8452;stroke-opacity:0.8;" x="69.900546" xlink:href="#m4b829e6978" y="302.002157"/>
     <use style="fill:#dd8452;fill-opacity:0.8;stroke:#dd8452;stroke-opacity:0.8;" x="102.028573" xlink:href="#m4b829e6978" y="288.623567"/>
     <use style="fill:#dd8452;fill-opacity:0.8;stroke:#dd8452;stroke-opacity:0.8;" x="65.203466" xlink:href="#m4b829e6978" y="306.373215"/>
     <use style="fill:#dd8452;fill-opacity:0.8;stroke:#dd8452;stroke-opacity:0.8;" x="142.611344" xlink:href="#m4b829e6978" y="299.787598"/>
     <use style="fill:#dd8452;fill-opacity:0.8;stroke:#dd8452;stroke-opacity:0.8;" x="131.432294" xlink:href="#m4b829e6978" y="293.53375"/>
     <use style="fill:#dd8452;fill-opacity:0.8;stroke:#dd8452;stroke-opacity:0.8;" x="96.57996" xlink:href="#m4b829e6978" y="303.843475"/>
     <use style="fill:#dd8452;fill-opacity:0.8;stroke:#dd8452;stroke-opacity:0.8;" x="63.08978" xlink:href="#m4b829e6978" y="306.273684"/>
     <use style="fill:#dd8452;fill-opacity:0.8;stroke:#dd8452;stroke-opacity:0.8;" x="245.900132" xlink:href="#m4b829e6978" y="202.58754"/>
     <use style="fill:#dd8452;fill-opacity:0.8;stroke:#dd8452;stroke-opacity:0.8;" x="110.483317" xlink:href="#m4b829e6978" y="286.185064"/>
     <use style="fill:#dd8452;fill-opacity:0.8;stroke:#dd8452;stroke-opacity:0.8;" x="82.582662" xlink:href="#m4b829e6978" y="305.900444"/>
     <use style="fill:#dd8452;fill-opacity:0.8;stroke:#dd8452;stroke-opacity:0.8;" x="121.756309" xlink:href="#m4b829e6978" y="296.818264"/>
     <use style="fill:#dd8452;fill-opacity:0.8;stroke:#dd8452;stroke-opacity:0.8;" x="73.188502" xlink:href="#m4b829e6978" y="305.684794"/>
     <use style="fill:#dd8452;fill-opacity:0.8;stroke:#dd8452;stroke-opacity:0.8;" x="116.730433" xlink:href="#m4b829e6978" y="292.621385"/>
     <use style="fill:#dd8452;fill-opacity:0.8;stroke:#dd8452;stroke-opacity:0.8;" x="59.801824" xlink:href="#m4b829e6978" y="300.816082"/>
     <use style="fill:#dd8452;fill-opacity:0.8;stroke:#dd8452;stroke-opacity:0.8;" x="105.927149" xlink:href="#m4b829e6978" y="301.32203"/>
     <use style="fill:#dd8452;fill-opacity:0.8;stroke:#dd8452;stroke-opacity:0.8;" x="90.520727" xlink:href="#m4b829e6978" y="291.601195"/>
     <use style="fill:#dd8452;fill-opacity:0.8;stroke:#dd8452;stroke-opacity:0.8;" x="96.57996" xlink:href="#m4b829e6978" y="290.016997"/>
     <use style="fill:#dd8452;fill-opacity:0.8;stroke:#dd8452;stroke-opacity:0.8;" x="73.04759" xlink:href="#m4b829e6978" y="286.251418"/>
     <use style="fill:#dd8452;fill-opacity:0.8;stroke:#dd8452;stroke-opacity:0.8;" x="90.051019" xlink:href="#m4b829e6978" y="299.240179"/>
     <use style="fill:#dd8452;fill-opacity:0.8;stroke:#dd8452;stroke-opacity:0.8;" x="102.921018" xlink:href="#m4b829e6978" y="281.407589"/>
     <use style="fill:#dd8452;fill-opacity:0.8;stroke:#dd8452;stroke-opacity:0.8;" x="93.573829" xlink:href="#m4b829e6978" y="303.777121"/>
     <use style="fill:#dd8452;fill-opacity:0.8;stroke:#dd8452;stroke-opacity:0.8;" x="75.677955" xlink:href="#m4b829e6978" y="304.100596"/>
     <use style="fill:#dd8452;fill-opacity:0.8;stroke:#dd8452;stroke-opacity:0.8;" x="69.477809" xlink:href="#m4b829e6978" y="305.120786"/>
     <use style="fill:#dd8452;fill-opacity:0.8;stroke:#dd8452;stroke-opacity:0.8;" x="105.927149" xlink:href="#m4b829e6978" y="283.953917"/>
     <use style="fill:#dd8452;fill-opacity:0.8;stroke:#dd8452;stroke-opacity:0.8;" x="60.788211" xlink:href="#m4b829e6978" y="305.61844"/>
     <use style="fill:#dd8452;fill-opacity:0.8;stroke:#dd8452;stroke-opacity:0.8;" x="95.170836" xlink:href="#m4b829e6978" y="298.966469"/>
     <use style="fill:#dd8452;fill-opacity:0.8;stroke:#dd8452;stroke-opacity:0.8;" x="65.814087" xlink:href="#m4b829e6978" y="305.361319"/>
     <use style="fill:#dd8452;fill-opacity:0.8;stroke:#dd8452;stroke-opacity:0.8;" x="109.684813" xlink:href="#m4b829e6978" y="304.664604"/>
     <use style="fill:#dd8452;fill-opacity:0.8;stroke:#dd8452;stroke-opacity:0.8;" x="110.999996" xlink:href="#m4b829e6978" y="289.486167"/>
     <use style="fill:#dd8452;fill-opacity:0.8;stroke:#dd8452;stroke-opacity:0.8;" x="136.599081" xlink:href="#m4b829e6978" y="301.313736"/>
     <use style="fill:#dd8452;fill-opacity:0.8;stroke:#dd8452;stroke-opacity:0.8;" x="234.345315" xlink:href="#m4b829e6978" y="265.466082"/>
     <use style="fill:#dd8452;fill-opacity:0.8;stroke:#dd8452;stroke-opacity:0.8;" x="94.325362" xlink:href="#m4b829e6978" y="276.945294"/>
     <use style="fill:#dd8452;fill-opacity:0.8;stroke:#dd8452;stroke-opacity:0.8;" x="53.085" xlink:href="#m4b829e6978" y="307.12799"/>
     <use style="fill:#dd8452;fill-opacity:0.8;stroke:#dd8452;stroke-opacity:0.8;" x="74.409743" xlink:href="#m4b829e6978" y="298.04581"/>
     <use style="fill:#dd8452;fill-opacity:0.8;stroke:#dd8452;stroke-opacity:0.8;" x="178.966743" xlink:href="#m4b829e6978" y="300.467724"/>
     <use style="fill:#dd8452;fill-opacity:0.8;stroke:#dd8452;stroke-opacity:0.8;" x="89.393428" xlink:href="#m4b829e6978" y="301.745036"/>
     <use style="fill:#dd8452;fill-opacity:0.8;stroke:#dd8452;stroke-opacity:0.8;" x="84.602406" xlink:href="#m4b829e6978" y="304.548485"/>
     <use style="fill:#dd8452;fill-opacity:0.8;stroke:#dd8452;stroke-opacity:0.8;" x="96.157223" xlink:href="#m4b829e6978" y="300.252075"/>
     <use style="fill:#dd8452;fill-opacity:0.8;stroke:#dd8452;stroke-opacity:0.8;" x="140.262804" xlink:href="#m4b829e6978" y="271.429632"/>
     <use style="fill:#dd8452;fill-opacity:0.8;stroke:#dd8452;stroke-opacity:0.8;" x="88.3131" xlink:href="#m4b829e6978" y="300.401371"/>
     <use style="fill:#dd8452;fill-opacity:0.8;stroke:#dd8452;stroke-opacity:0.8;" x="105.410471" xlink:href="#m4b829e6978" y="301.836272"/>
     <use style="fill:#dd8452;fill-opacity:0.8;stroke:#dd8452;stroke-opacity:0.8;" x="59.52" xlink:href="#m4b829e6978" y="304.764135"/>
     <use style="fill:#dd8452;fill-opacity:0.8;stroke:#dd8452;stroke-opacity:0.8;" x="90.70861" xlink:href="#m4b829e6978" y="286.632952"/>
     <use style="fill:#dd8452;fill-opacity:0.8;stroke:#dd8452;stroke-opacity:0.8;" x="58.909379" xlink:href="#m4b829e6978" y="303.213114"/>
     <use style="fill:#dd8452;fill-opacity:0.8;stroke:#dd8452;stroke-opacity:0.8;" x="294.655822" xlink:href="#m4b829e6978" y="275.220094"/>
     <use style="fill:#dd8452;fill-opacity:0.8;stroke:#dd8452;stroke-opacity:0.8;" x="99.633062" xlink:href="#m4b829e6978" y="293.459102"/>
     <use style="fill:#dd8452;fill-opacity:0.8;stroke:#dd8452;stroke-opacity:0.8;" x="105.598354" xlink:href="#m4b829e6978" y="295.433128"/>
     <use style="fill:#dd8452;fill-opacity:0.8;stroke:#dd8452;stroke-opacity:0.8;" x="128.89587" xlink:href="#m4b829e6978" y="288.507448"/>
     <use style="fill:#dd8452;fill-opacity:0.8;stroke:#dd8452;stroke-opacity:0.8;" x="80.468976" xlink:href="#m4b829e6978" y="303.835181"/>
     <use style="fill:#dd8452;fill-opacity:0.8;stroke:#dd8452;stroke-opacity:0.8;" x="105.786237" xlink:href="#m4b829e6978" y="283.564088"/>
     <use style="fill:#dd8452;fill-opacity:0.8;stroke:#dd8452;stroke-opacity:0.8;" x="160.319335" xlink:href="#m4b829e6978" y="289.875995"/>
     <use style="fill:#dd8452;fill-opacity:0.8;stroke:#dd8452;stroke-opacity:0.8;" x="125.185177" xlink:href="#m4b829e6978" y="290.091645"/>
     <use style="fill:#dd8452;fill-opacity:0.8;stroke:#dd8452;stroke-opacity:0.8;" x="81.831129" xlink:href="#m4b829e6978" y="287.1389"/>
     <use style="fill:#dd8452;fill-opacity:0.8;stroke:#dd8452;stroke-opacity:0.8;" x="153.179774" xlink:href="#m4b829e6978" y="132.53449"/>
     <use style="fill:#dd8452;fill-opacity:0.8;stroke:#dd8452;stroke-opacity:0.8;" x="148.24784" xlink:href="#m4b829e6978" y="285.355641"/>
     <use style="fill:#dd8452;fill-opacity:0.8;stroke:#dd8452;stroke-opacity:0.8;" x="61.023065" xlink:href="#m4b829e6978" y="302.707166"/>
     <use style="fill:#dd8452;fill-opacity:0.8;stroke:#dd8452;stroke-opacity:0.8;" x="262.668707" xlink:href="#m4b829e6978" y="292.820446"/>
     <use style="fill:#dd8452;fill-opacity:0.8;stroke:#dd8452;stroke-opacity:0.8;" x="114.428864" xlink:href="#m4b829e6978" y="300.932201"/>
     <use style="fill:#dd8452;fill-opacity:0.8;stroke:#dd8452;stroke-opacity:0.8;" x="55.104744" xlink:href="#m4b829e6978" y="302.790108"/>
     <use style="fill:#dd8452;fill-opacity:0.8;stroke:#dd8452;stroke-opacity:0.8;" x="119.548681" xlink:href="#m4b829e6978" y="299.480711"/>
     <use style="fill:#dd8452;fill-opacity:0.8;stroke:#dd8452;stroke-opacity:0.8;" x="79.764414" xlink:href="#m4b829e6978" y="302.441751"/>
     <use style="fill:#dd8452;fill-opacity:0.8;stroke:#dd8452;stroke-opacity:0.8;" x="85.40091" xlink:href="#m4b829e6978" y="298.037516"/>
     <use style="fill:#dd8452;fill-opacity:0.8;stroke:#dd8452;stroke-opacity:0.8;" x="108.228719" xlink:href="#m4b829e6978" y="289.958938"/>
     <use style="fill:#dd8452;fill-opacity:0.8;stroke:#dd8452;stroke-opacity:0.8;" x="101.136128" xlink:href="#m4b829e6978" y="290.697124"/>
     <use style="fill:#dd8452;fill-opacity:0.8;stroke:#dd8452;stroke-opacity:0.8;" x="79.52956" xlink:href="#m4b829e6978" y="304.150362"/>
     <use style="fill:#dd8452;fill-opacity:0.8;stroke:#dd8452;stroke-opacity:0.8;" x="53.085" xlink:href="#m4b829e6978" y="307.169461"/>
     <use style="fill:#dd8452;fill-opacity:0.8;stroke:#dd8452;stroke-opacity:0.8;" x="160.789043" xlink:href="#m4b829e6978" y="233.483539"/>
     <use style="fill:#dd8452;fill-opacity:0.8;stroke:#dd8452;stroke-opacity:0.8;" x="74.503685" xlink:href="#m4b829e6978" y="303.163349"/>
     <use style="fill:#dd8452;fill-opacity:0.8;stroke:#dd8452;stroke-opacity:0.8;" x="105.880179" xlink:href="#m4b829e6978" y="287.396021"/>
     <use style="fill:#dd8452;fill-opacity:0.8;stroke:#dd8452;stroke-opacity:0.8;" x="62.197335" xlink:href="#m4b829e6978" y="305.668205"/>
     <use style="fill:#dd8452;fill-opacity:0.8;stroke:#dd8452;stroke-opacity:0.8;" x="87.514596" xlink:href="#m4b829e6978" y="293.624986"/>
     <use style="fill:#dd8452;fill-opacity:0.8;stroke:#dd8452;stroke-opacity:0.8;" x="120.300214" xlink:href="#m4b829e6978" y="301.612328"/>
     <use style="fill:#dd8452;fill-opacity:0.8;stroke:#dd8452;stroke-opacity:0.8;" x="152.005504" xlink:href="#m4b829e6978" y="294.329996"/>
     <use style="fill:#dd8452;fill-opacity:0.8;stroke:#dd8452;stroke-opacity:0.8;" x="273.847758" xlink:href="#m4b829e6978" y="282.311659"/>
     <use style="fill:#dd8452;fill-opacity:0.8;stroke:#dd8452;stroke-opacity:0.8;" x="195.406522" xlink:href="#m4b829e6978" y="278.97738"/>
     <use style="fill:#dd8452;fill-opacity:0.8;stroke:#dd8452;stroke-opacity:0.8;" x="144.537147" xlink:href="#m4b829e6978" y="276.008046"/>
     <use style="fill:#dd8452;fill-opacity:0.8;stroke:#dd8452;stroke-opacity:0.8;" x="192.541304" xlink:href="#m4b829e6978" y="242.540836"/>
     <use style="fill:#dd8452;fill-opacity:0.8;stroke:#dd8452;stroke-opacity:0.8;" x="54.635036" xlink:href="#m4b829e6978" y="306.962105"/>
     <use style="fill:#dd8452;fill-opacity:0.8;stroke:#dd8452;stroke-opacity:0.8;" x="103.01496" xlink:href="#m4b829e6978" y="232.99418"/>
     <use style="fill:#dd8452;fill-opacity:0.8;stroke:#dd8452;stroke-opacity:0.8;" x="194.608019" xlink:href="#m4b829e6978" y="263.948239"/>
     <use style="fill:#dd8452;fill-opacity:0.8;stroke:#dd8452;stroke-opacity:0.8;" x="90.238902" xlink:href="#m4b829e6978" y="301.023438"/>
     <use style="fill:#dd8452;fill-opacity:0.8;stroke:#dd8452;stroke-opacity:0.8;" x="95.593574" xlink:href="#m4b829e6978" y="283.033257"/>
     <use style="fill:#dd8452;fill-opacity:0.8;stroke:#dd8452;stroke-opacity:0.8;" x="69.149013" xlink:href="#m4b829e6978" y="303.096995"/>
     <use style="fill:#dd8452;fill-opacity:0.8;stroke:#dd8452;stroke-opacity:0.8;" x="80.09321" xlink:href="#m4b829e6978" y="291.775374"/>
     <use style="fill:#dd8452;fill-opacity:0.8;stroke:#dd8452;stroke-opacity:0.8;" x="142.705285" xlink:href="#m4b829e6978" y="272.557647"/>
     <use style="fill:#dd8452;fill-opacity:0.8;stroke:#dd8452;stroke-opacity:0.8;" x="71.30967" xlink:href="#m4b829e6978" y="305.153963"/>
     <use style="fill:#dd8452;fill-opacity:0.8;stroke:#dd8452;stroke-opacity:0.8;" x="113.066711" xlink:href="#m4b829e6978" y="170.472289"/>
     <use style="fill:#dd8452;fill-opacity:0.8;stroke:#dd8452;stroke-opacity:0.8;" x="105.927149" xlink:href="#m4b829e6978" y="299.795892"/>
     <use style="fill:#dd8452;fill-opacity:0.8;stroke:#dd8452;stroke-opacity:0.8;" x="88.125216" xlink:href="#m4b829e6978" y="282.62684"/>
     <use style="fill:#dd8452;fill-opacity:0.8;stroke:#dd8452;stroke-opacity:0.8;" x="102.216456" xlink:href="#m4b829e6978" y="272.275644"/>
     <use style="fill:#dd8452;fill-opacity:0.8;stroke:#dd8452;stroke-opacity:0.8;" x="94.654158" xlink:href="#m4b829e6978" y="299.630007"/>
     <use style="fill:#dd8452;fill-opacity:0.8;stroke:#dd8452;stroke-opacity:0.8;" x="122.601783" xlink:href="#m4b829e6978" y="286.674423"/>
     <use style="fill:#dd8452;fill-opacity:0.8;stroke:#dd8452;stroke-opacity:0.8;" x="71.121787" xlink:href="#m4b829e6978" y="288.905571"/>
     <use style="fill:#dd8452;fill-opacity:0.8;stroke:#dd8452;stroke-opacity:0.8;" x="57.453284" xlink:href="#m4b829e6978" y="304.87196"/>
     <use style="fill:#dd8452;fill-opacity:0.8;stroke:#dd8452;stroke-opacity:0.8;" x="95.546603" xlink:href="#m4b829e6978" y="292.538443"/>
     <use style="fill:#dd8452;fill-opacity:0.8;stroke:#dd8452;stroke-opacity:0.8;" x="101.699777" xlink:href="#m4b829e6978" y="137.386614"/>
     <use style="fill:#dd8452;fill-opacity:0.8;stroke:#dd8452;stroke-opacity:0.8;" x="138.337001" xlink:href="#m4b829e6978" y="281.988185"/>
     <use style="fill:#dd8452;fill-opacity:0.8;stroke:#dd8452;stroke-opacity:0.8;" x="65.720145" xlink:href="#m4b829e6978" y="306.530805"/>
     <use style="fill:#dd8452;fill-opacity:0.8;stroke:#dd8452;stroke-opacity:0.8;" x="82.253866" xlink:href="#m4b829e6978" y="295.51607"/>
     <use style="fill:#dd8452;fill-opacity:0.8;stroke:#dd8452;stroke-opacity:0.8;" x="73.799123" xlink:href="#m4b829e6978" y="304.631427"/>
     <use style="fill:#dd8452;fill-opacity:0.8;stroke:#dd8452;stroke-opacity:0.8;" x="64.874671" xlink:href="#m4b829e6978" y="290.84642"/>
     <use style="fill:#dd8452;fill-opacity:0.8;stroke:#dd8452;stroke-opacity:0.8;" x="153.085832" xlink:href="#m4b829e6978" y="222.626395"/>
     <use style="fill:#dd8452;fill-opacity:0.8;stroke:#dd8452;stroke-opacity:0.8;" x="97.190581" xlink:href="#m4b829e6978" y="295.267244"/>
     <use style="fill:#dd8452;fill-opacity:0.8;stroke:#dd8452;stroke-opacity:0.8;" x="104.79985" xlink:href="#m4b829e6978" y="303.719062"/>
     <use style="fill:#dd8452;fill-opacity:0.8;stroke:#dd8452;stroke-opacity:0.8;" x="104.283171" xlink:href="#m4b829e6978" y="295.184301"/>
     <use style="fill:#dd8452;fill-opacity:0.8;stroke:#dd8452;stroke-opacity:0.8;" x="93.385946" xlink:href="#m4b829e6978" y="301.678682"/>
     <use style="fill:#dd8452;fill-opacity:0.8;stroke:#dd8452;stroke-opacity:0.8;" x="137.961235" xlink:href="#m4b829e6978" y="214.191165"/>
     <use style="fill:#dd8452;fill-opacity:0.8;stroke:#dd8452;stroke-opacity:0.8;" x="98.036055" xlink:href="#m4b829e6978" y="296.743616"/>
     <use style="fill:#dd8452;fill-opacity:0.8;stroke:#dd8452;stroke-opacity:0.8;" x="85.729706" xlink:href="#m4b829e6978" y="300.791199"/>
     <use style="fill:#dd8452;fill-opacity:0.8;stroke:#dd8452;stroke-opacity:0.8;" x="87.044888" xlink:href="#m4b829e6978" y="300.14425"/>
     <use style="fill:#dd8452;fill-opacity:0.8;stroke:#dd8452;stroke-opacity:0.8;" x="96.251165" xlink:href="#m4b829e6978" y="301.653799"/>
     <use style="fill:#dd8452;fill-opacity:0.8;stroke:#dd8452;stroke-opacity:0.8;" x="72.859707" xlink:href="#m4b829e6978" y="305.311554"/>
     <use style="fill:#dd8452;fill-opacity:0.8;stroke:#dd8452;stroke-opacity:0.8;" x="172.719626" xlink:href="#m4b829e6978" y="79.210899"/>
     <use style="fill:#dd8452;fill-opacity:0.8;stroke:#dd8452;stroke-opacity:0.8;" x="55.527482" xlink:href="#m4b829e6978" y="307.045047"/>
     <use style="fill:#dd8452;fill-opacity:0.8;stroke:#dd8452;stroke-opacity:0.8;" x="73.376385" xlink:href="#m4b829e6978" y="293.591809"/>
     <use style="fill:#dd8452;fill-opacity:0.8;stroke:#dd8452;stroke-opacity:0.8;" x="58.016934" xlink:href="#m4b829e6978" y="306.190742"/>
     <use style="fill:#dd8452;fill-opacity:0.8;stroke:#dd8452;stroke-opacity:0.8;" x="141.953753" xlink:href="#m4b829e6978" y="265.590496"/>
     <use style="fill:#dd8452;fill-opacity:0.8;stroke:#dd8452;stroke-opacity:0.8;" x="136.082403" xlink:href="#m4b829e6978" y="287.611671"/>
     <use style="fill:#dd8452;fill-opacity:0.8;stroke:#dd8452;stroke-opacity:0.8;" x="82.676604" xlink:href="#m4b829e6978" y="295.51607"/>
     <use style="fill:#dd8452;fill-opacity:0.8;stroke:#dd8452;stroke-opacity:0.8;" x="241.156081" xlink:href="#m4b829e6978" y="226.018734"/>
     <use style="fill:#dd8452;fill-opacity:0.8;stroke:#dd8452;stroke-opacity:0.8;" x="100.290653" xlink:href="#m4b829e6978" y="105.603132"/>
     <use style="fill:#dd8452;fill-opacity:0.8;stroke:#dd8452;stroke-opacity:0.8;" x="100.008829" xlink:href="#m4b829e6978" y="304.100596"/>
     <use style="fill:#dd8452;fill-opacity:0.8;stroke:#dd8452;stroke-opacity:0.8;" x="64.217079" xlink:href="#m4b829e6978" y="305.361319"/>
     <use style="fill:#dd8452;fill-opacity:0.8;stroke:#dd8452;stroke-opacity:0.8;" x="138.149118" xlink:href="#m4b829e6978" y="299.28165"/>
     <use style="fill:#dd8452;fill-opacity:0.8;stroke:#dd8452;stroke-opacity:0.8;" x="73.611239" xlink:href="#m4b829e6978" y="283.423086"/>
     <use style="fill:#dd8452;fill-opacity:0.8;stroke:#dd8452;stroke-opacity:0.8;" x="82.019012" xlink:href="#m4b829e6978" y="302.027039"/>
     <use style="fill:#dd8452;fill-opacity:0.8;stroke:#dd8452;stroke-opacity:0.8;" x="120.863864" xlink:href="#m4b829e6978" y="298.69276"/>
     <use style="fill:#dd8452;fill-opacity:0.8;stroke:#dd8452;stroke-opacity:0.8;" x="67.17624" xlink:href="#m4b829e6978" y="295.681955"/>
     <use style="fill:#dd8452;fill-opacity:0.8;stroke:#dd8452;stroke-opacity:0.8;" x="78.871969" xlink:href="#m4b829e6978" y="297.432037"/>
     <use style="fill:#dd8452;fill-opacity:0.8;stroke:#dd8452;stroke-opacity:0.8;" x="73.423356" xlink:href="#m4b829e6978" y="286.508539"/>
     <use style="fill:#dd8452;fill-opacity:0.8;stroke:#dd8452;stroke-opacity:0.8;" x="110.718171" xlink:href="#m4b829e6978" y="296.635791"/>
     <use style="fill:#dd8452;fill-opacity:0.8;stroke:#dd8452;stroke-opacity:0.8;" x="68.820218" xlink:href="#m4b829e6978" y="224.890719"/>
     <use style="fill:#dd8452;fill-opacity:0.8;stroke:#dd8452;stroke-opacity:0.8;" x="90.004048" xlink:href="#m4b829e6978" y="295.275538"/>
     <use style="fill:#dd8452;fill-opacity:0.8;stroke:#dd8452;stroke-opacity:0.8;" x="127.580688" xlink:href="#m4b829e6978" y="141.052663"/>
     <use style="fill:#dd8452;fill-opacity:0.8;stroke:#dd8452;stroke-opacity:0.8;" x="130.539848" xlink:href="#m4b829e6978" y="94.903578"/>
     <use style="fill:#dd8452;fill-opacity:0.8;stroke:#dd8452;stroke-opacity:0.8;" x="95.734486" xlink:href="#m4b829e6978" y="289.618874"/>
     <use style="fill:#dd8452;fill-opacity:0.8;stroke:#dd8452;stroke-opacity:0.8;" x="86.763063" xlink:href="#m4b829e6978" y="283.199142"/>
     <use style="fill:#dd8452;fill-opacity:0.8;stroke:#dd8452;stroke-opacity:0.8;" x="68.491422" xlink:href="#m4b829e6978" y="299.704655"/>
     <use style="fill:#dd8452;fill-opacity:0.8;stroke:#dd8452;stroke-opacity:0.8;" x="90.191932" xlink:href="#m4b829e6978" y="297.423743"/>
     <use style="fill:#dd8452;fill-opacity:0.8;stroke:#dd8452;stroke-opacity:0.8;" x="54.963832" xlink:href="#m4b829e6978" y="306.555688"/>
     <use style="fill:#dd8452;fill-opacity:0.8;stroke:#dd8452;stroke-opacity:0.8;" x="68.914159" xlink:href="#m4b829e6978" y="301.280559"/>
     <use style="fill:#dd8452;fill-opacity:0.8;stroke:#dd8452;stroke-opacity:0.8;" x="116.025871" xlink:href="#m4b829e6978" y="274.962973"/>
     <use style="fill:#dd8452;fill-opacity:0.8;stroke:#dd8452;stroke-opacity:0.8;" x="199.680865" xlink:href="#m4b829e6978" y="281.573473"/>
     <use style="fill:#dd8452;fill-opacity:0.8;stroke:#dd8452;stroke-opacity:0.8;" x="91.88288" xlink:href="#m4b829e6978" y="287.843909"/>
     <use style="fill:#dd8452;fill-opacity:0.8;stroke:#dd8452;stroke-opacity:0.8;" x="60.083649" xlink:href="#m4b829e6978" y="301.935803"/>
     <use style="fill:#dd8452;fill-opacity:0.8;stroke:#dd8452;stroke-opacity:0.8;" x="64.921641" xlink:href="#m4b829e6978" y="298.593229"/>
     <use style="fill:#dd8452;fill-opacity:0.8;stroke:#dd8452;stroke-opacity:0.8;" x="87.608538" xlink:href="#m4b829e6978" y="297.896514"/>
     <use style="fill:#dd8452;fill-opacity:0.8;stroke:#dd8452;stroke-opacity:0.8;" x="89.53434" xlink:href="#m4b829e6978" y="298.501992"/>
     <use style="fill:#dd8452;fill-opacity:0.8;stroke:#dd8452;stroke-opacity:0.8;" x="63.606459" xlink:href="#m4b829e6978" y="300.923907"/>
     <use style="fill:#dd8452;fill-opacity:0.8;stroke:#dd8452;stroke-opacity:0.8;" x="78.637115" xlink:href="#m4b829e6978" y="306.464451"/>
     <use style="fill:#dd8452;fill-opacity:0.8;stroke:#dd8452;stroke-opacity:0.8;" x="126.077622" xlink:href="#m4b829e6978" y="290.771772"/>
     <use style="fill:#dd8452;fill-opacity:0.8;stroke:#dd8452;stroke-opacity:0.8;" x="143.973497" xlink:href="#m4b829e6978" y="272.267349"/>
     <use style="fill:#dd8452;fill-opacity:0.8;stroke:#dd8452;stroke-opacity:0.8;" x="57.500255" xlink:href="#m4b829e6978" y="306.190742"/>
     <use style="fill:#dd8452;fill-opacity:0.8;stroke:#dd8452;stroke-opacity:0.8;" x="80.046239" xlink:href="#m4b829e6978" y="262.646045"/>
     <use style="fill:#dd8452;fill-opacity:0.8;stroke:#dd8452;stroke-opacity:0.8;" x="90.66164" xlink:href="#m4b829e6978" y="289.336871"/>
     <use style="fill:#dd8452;fill-opacity:0.8;stroke:#dd8452;stroke-opacity:0.8;" x="66.236824" xlink:href="#m4b829e6978" y="303.246291"/>
     <use style="fill:#dd8452;fill-opacity:0.8;stroke:#dd8452;stroke-opacity:0.8;" x="72.577882" xlink:href="#m4b829e6978" y="305.593557"/>
     <use style="fill:#dd8452;fill-opacity:0.8;stroke:#dd8452;stroke-opacity:0.8;" x="61.398832" xlink:href="#m4b829e6978" y="303.9513"/>
     <use style="fill:#dd8452;fill-opacity:0.8;stroke:#dd8452;stroke-opacity:0.8;" x="103.578609" xlink:href="#m4b829e6978" y="304.531896"/>
     <use style="fill:#dd8452;fill-opacity:0.8;stroke:#dd8452;stroke-opacity:0.8;" x="335.191622" xlink:href="#m4b829e6978" y="210.881768"/>
     <use style="fill:#dd8452;fill-opacity:0.8;stroke:#dd8452;stroke-opacity:0.8;" x="287.140494" xlink:href="#m4b829e6978" y="282.825902"/>
     <use style="fill:#dd8452;fill-opacity:0.8;stroke:#dd8452;stroke-opacity:0.8;" x="132.230797" xlink:href="#m4b829e6978" y="295.08477"/>
     <use style="fill:#dd8452;fill-opacity:0.8;stroke:#dd8452;stroke-opacity:0.8;" x="57.21843" xlink:href="#m4b829e6978" y="306.588865"/>
     <use style="fill:#dd8452;fill-opacity:0.8;stroke:#dd8452;stroke-opacity:0.8;" x="236.36506" xlink:href="#m4b829e6978" y="191.970928"/>
    </g>
   </g>
   <g id="PolyCollection_1">
    <defs>
     <path d="M 53.085 -57.484628 
L 53.085 -51.105575 
L 55.934562 -52.022144 
L 58.784124 -52.953622 
L 61.633686 -53.925953 
L 64.483247 -54.832867 
L 67.332809 -55.749031 
L 70.182371 -56.664758 
L 73.031933 -57.494218 
L 75.881495 -58.259972 
L 78.731057 -59.042866 
L 81.580618 -59.669052 
L 84.43018 -60.254541 
L 87.279742 -60.839142 
L 90.129304 -61.339938 
L 92.978866 -61.836783 
L 95.828428 -62.35704 
L 98.677989 -62.77722 
L 101.527551 -63.218401 
L 104.377113 -63.619852 
L 107.226675 -64.081128 
L 110.076237 -64.509112 
L 112.925799 -64.925338 
L 115.77536 -65.353627 
L 118.624922 -65.842732 
L 121.474484 -66.250145 
L 124.324046 -66.716953 
L 127.173608 -67.112738 
L 130.02317 -67.518966 
L 132.872731 -67.964361 
L 135.722293 -68.409688 
L 138.571855 -68.826195 
L 141.421417 -69.271245 
L 144.270979 -69.717572 
L 147.120541 -70.164308 
L 149.970102 -70.590316 
L 152.819664 -70.979633 
L 155.669226 -71.414603 
L 158.518788 -71.849573 
L 161.36835 -72.284543 
L 164.217912 -72.71057 
L 167.067473 -73.11404 
L 169.917035 -73.517511 
L 172.766597 -73.920981 
L 175.616159 -74.324451 
L 178.465721 -74.727921 
L 181.315283 -75.073398 
L 184.164844 -75.485917 
L 187.014406 -75.90606 
L 189.863968 -76.326203 
L 192.71353 -76.737113 
L 195.563092 -77.139396 
L 198.412654 -77.542033 
L 201.262215 -77.94467 
L 204.111777 -78.347307 
L 206.961339 -78.742686 
L 209.810901 -79.100246 
L 212.660463 -79.449877 
L 215.510025 -79.799507 
L 218.359586 -80.149235 
L 221.209148 -80.499449 
L 224.05871 -80.849662 
L 226.908272 -81.199876 
L 229.757834 -81.566598 
L 232.607396 -81.977247 
L 235.456957 -82.387913 
L 238.306519 -82.799568 
L 241.156081 -83.211224 
L 244.005643 -83.60223 
L 246.855205 -83.976041 
L 249.704767 -84.349852 
L 252.554328 -84.723663 
L 255.40389 -85.097474 
L 258.253452 -85.471285 
L 261.103014 -85.845096 
L 263.952576 -86.218907 
L 266.802138 -86.592718 
L 269.651699 -86.96653 
L 272.501261 -87.340341 
L 275.350823 -87.714152 
L 278.200385 -88.087963 
L 281.049947 -88.469941 
L 283.899509 -88.858463 
L 286.749071 -89.246985 
L 289.598632 -89.635997 
L 292.448194 -90.025047 
L 295.297756 -90.414274 
L 298.147318 -90.807854 
L 300.99688 -91.217693 
L 303.846442 -91.603529 
L 306.696003 -91.981203 
L 309.545565 -92.363034 
L 312.395127 -92.757425 
L 315.244689 -93.151816 
L 318.094251 -93.546207 
L 320.943813 -93.940598 
L 323.793374 -94.334989 
L 326.642936 -94.729453 
L 329.492498 -95.124227 
L 332.34206 -95.519001 
L 335.191622 -95.913775 
L 335.191622 -148.495579 
L 335.191622 -148.495579 
L 332.34206 -147.509 
L 329.492498 -146.522422 
L 326.642936 -145.535843 
L 323.793374 -144.549264 
L 320.943813 -143.562686 
L 318.094251 -142.576107 
L 315.244689 -141.589528 
L 312.395127 -140.60295 
L 309.545565 -139.616371 
L 306.696003 -138.629792 
L 303.846442 -137.643214 
L 300.99688 -136.656635 
L 298.147318 -135.670372 
L 295.297756 -134.70372 
L 292.448194 -133.737069 
L 289.598632 -132.770417 
L 286.749071 -131.803765 
L 283.899509 -130.837113 
L 281.049947 -129.870462 
L 278.200385 -128.90381 
L 275.350823 -127.937158 
L 272.501261 -126.970506 
L 269.651699 -126.003855 
L 266.802138 -125.037203 
L 263.952576 -124.070551 
L 261.103014 -123.103899 
L 258.253452 -122.137248 
L 255.40389 -121.170596 
L 252.554328 -120.203944 
L 249.704767 -119.237292 
L 246.855205 -118.270641 
L 244.005643 -117.303671 
L 241.156081 -116.336367 
L 238.306519 -115.369063 
L 235.456957 -114.401758 
L 232.607396 -113.411002 
L 229.757834 -112.408154 
L 226.908272 -111.405307 
L 224.05871 -110.40246 
L 221.209148 -109.399613 
L 218.359586 -108.396765 
L 215.510025 -107.393918 
L 212.660463 -106.391071 
L 209.810901 -105.388224 
L 206.961339 -104.385142 
L 204.111777 -103.382012 
L 201.262215 -102.378882 
L 198.412654 -101.375752 
L 195.563092 -100.372622 
L 192.71353 -99.36933 
L 189.863968 -98.365574 
L 187.014406 -97.361677 
L 184.164844 -96.357725 
L 181.315283 -95.36535 
L 178.465721 -94.387622 
L 175.616159 -93.409895 
L 172.766597 -92.432167 
L 169.917035 -91.454439 
L 167.067473 -90.476712 
L 164.217912 -89.551461 
L 161.36835 -88.634166 
L 158.518788 -87.716748 
L 155.669226 -86.708479 
L 152.819664 -85.698108 
L 149.970102 -84.714879 
L 147.120541 -83.790361 
L 144.270979 -82.789903 
L 141.421417 -81.864558 
L 138.571855 -80.886798 
L 135.722293 -79.955089 
L 132.872731 -78.985615 
L 130.02317 -77.993608 
L 127.173608 -76.980875 
L 124.324046 -75.989457 
L 121.474484 -74.989738 
L 118.624922 -74.081644 
L 115.77536 -73.140295 
L 112.925799 -72.182421 
L 110.076237 -71.263567 
L 107.226675 -70.303388 
L 104.377113 -69.425286 
L 101.527551 -68.498603 
L 98.677989 -67.573653 
L 95.828428 -66.600831 
L 92.978866 -65.665976 
L 90.129304 -64.770914 
L 87.279742 -63.985719 
L 84.43018 -63.186773 
L 81.580618 -62.516048 
L 78.731057 -61.744864 
L 75.881495 -61.191362 
L 73.031933 -60.589622 
L 70.182371 -60.145709 
L 67.332809 -59.652697 
L 64.483247 -59.13986 
L 61.633686 -58.758726 
L 58.784124 -58.337553 
L 55.934562 -57.872135 
L 53.085 -57.484628 
z
" id="me0f04de820" style="stroke:#ffffff;stroke-opacity:0.15;"/>
    </defs>
    <g clip-path="url(#p98bb546f9c)">
     <use style="fill:#dd8452;fill-opacity:0.15;stroke:#ffffff;stroke-opacity:0.15;" x="0" xlink:href="#me0f04de820" y="360"/>
    </g>
   </g>
   <g id="PathCollection_2">
    <defs>
     <path d="M 0 3 
C 0.795609 3 1.55874 2.683901 2.12132 2.12132 
C 2.683901 1.55874 3 0.795609 3 0 
C 3 -0.795609 2.683901 -1.55874 2.12132 -2.12132 
C 1.55874 -2.683901 0.795609 -3 0 -3 
C -0.795609 -3 -1.55874 -2.683901 -2.12132 -2.12132 
C -2.683901 -1.55874 -3 -0.795609 -3 0 
C -3 0.795609 -2.683901 1.55874 -2.12132 2.12132 
C -1.55874 2.683901 -0.795609 3 0 3 
z
" id="m8bbac846f3" style="stroke:#4c72b0;stroke-opacity:0.8;"/>
    </defs>
    <g clip-path="url(#p98bb546f9c)">
     <use style="fill:#4c72b0;fill-opacity:0.8;stroke:#4c72b0;stroke-opacity:0.8;" x="56.889635" xlink:href="#m8bbac846f3" y="306.978693"/>
     <use style="fill:#4c72b0;fill-opacity:0.8;stroke:#4c72b0;stroke-opacity:0.8;" x="54.86989" xlink:href="#m8bbac846f3" y="306.771338"/>
     <use style="fill:#4c72b0;fill-opacity:0.8;stroke:#4c72b0;stroke-opacity:0.8;" x="87.091859" xlink:href="#m8bbac846f3" y="305.825796"/>
     <use style="fill:#4c72b0;fill-opacity:0.8;stroke:#4c72b0;stroke-opacity:0.8;" x="59.754854" xlink:href="#m8bbac846f3" y="306.406392"/>
     <use style="fill:#4c72b0;fill-opacity:0.8;stroke:#4c72b0;stroke-opacity:0.8;" x="79.858356" xlink:href="#m8bbac846f3" y="301.429855"/>
     <use style="fill:#4c72b0;fill-opacity:0.8;stroke:#4c72b0;stroke-opacity:0.8;" x="57.265401" xlink:href="#m8bbac846f3" y="305.294965"/>
     <use style="fill:#4c72b0;fill-opacity:0.8;stroke:#4c72b0;stroke-opacity:0.8;" x="87.514596" xlink:href="#m8bbac846f3" y="296.552849"/>
     <use style="fill:#4c72b0;fill-opacity:0.8;stroke:#4c72b0;stroke-opacity:0.8;" x="82.300837" xlink:href="#m8bbac846f3" y="296.685557"/>
     <use style="fill:#4c72b0;fill-opacity:0.8;stroke:#4c72b0;stroke-opacity:0.8;" x="83.850874" xlink:href="#m8bbac846f3" y="306.140976"/>
     <use style="fill:#4c72b0;fill-opacity:0.8;stroke:#4c72b0;stroke-opacity:0.8;" x="71.87332" xlink:href="#m8bbac846f3" y="306.116094"/>
     <use style="fill:#4c72b0;fill-opacity:0.8;stroke:#4c72b0;stroke-opacity:0.8;" x="69.712663" xlink:href="#m8bbac846f3" y="304.407483"/>
     <use style="fill:#4c72b0;fill-opacity:0.8;stroke:#4c72b0;stroke-opacity:0.8;" x="144.020468" xlink:href="#m8bbac846f3" y="242.275421"/>
     <use style="fill:#4c72b0;fill-opacity:0.8;stroke:#4c72b0;stroke-opacity:0.8;" x="57.453284" xlink:href="#m8bbac846f3" y="306.572276"/>
     <use style="fill:#4c72b0;fill-opacity:0.8;stroke:#4c72b0;stroke-opacity:0.8;" x="70.746021" xlink:href="#m8bbac846f3" y="304.838783"/>
     <use style="fill:#4c72b0;fill-opacity:0.8;stroke:#4c72b0;stroke-opacity:0.8;" x="130.586819" xlink:href="#m8bbac846f3" y="286.657835"/>
     <use style="fill:#4c72b0;fill-opacity:0.8;stroke:#4c72b0;stroke-opacity:0.8;" x="93.526858" xlink:href="#m8bbac846f3" y="305.842384"/>
     <use style="fill:#4c72b0;fill-opacity:0.8;stroke:#4c72b0;stroke-opacity:0.8;" x="74.785509" xlink:href="#m8bbac846f3" y="306.356626"/>
     <use style="fill:#4c72b0;fill-opacity:0.8;stroke:#4c72b0;stroke-opacity:0.8;" x="96.016311" xlink:href="#m8bbac846f3" y="301.371795"/>
     <use style="fill:#4c72b0;fill-opacity:0.8;stroke:#4c72b0;stroke-opacity:0.8;" x="124.903352" xlink:href="#m8bbac846f3" y="273.436835"/>
     <use style="fill:#4c72b0;fill-opacity:0.8;stroke:#4c72b0;stroke-opacity:0.8;" x="170.699882" xlink:href="#m8bbac846f3" y="284.260803"/>
     <use style="fill:#4c72b0;fill-opacity:0.8;stroke:#4c72b0;stroke-opacity:0.8;" x="61.539744" xlink:href="#m8bbac846f3" y="303.677591"/>
     <use style="fill:#4c72b0;fill-opacity:0.8;stroke:#4c72b0;stroke-opacity:0.8;" x="99.867916" xlink:href="#m8bbac846f3" y="280.329339"/>
     <use style="fill:#4c72b0;fill-opacity:0.8;stroke:#4c72b0;stroke-opacity:0.8;" x="93.667771" xlink:href="#m8bbac846f3" y="301.023438"/>
     <use style="fill:#4c72b0;fill-opacity:0.8;stroke:#4c72b0;stroke-opacity:0.8;" x="57.969963" xlink:href="#m8bbac846f3" y="305.908738"/>
     <use style="fill:#4c72b0;fill-opacity:0.8;stroke:#4c72b0;stroke-opacity:0.8;" x="63.65343" xlink:href="#m8bbac846f3" y="303.57806"/>
     <use style="fill:#4c72b0;fill-opacity:0.8;stroke:#4c72b0;stroke-opacity:0.8;" x="90.09799" xlink:href="#m8bbac846f3" y="281.33294"/>
     <use style="fill:#4c72b0;fill-opacity:0.8;stroke:#4c72b0;stroke-opacity:0.8;" x="58.815438" xlink:href="#m8bbac846f3" y="305.353025"/>
     <use style="fill:#4c72b0;fill-opacity:0.8;stroke:#4c72b0;stroke-opacity:0.8;" x="166.519481" xlink:href="#m8bbac846f3" y="289.469578"/>
     <use style="fill:#4c72b0;fill-opacity:0.8;stroke:#4c72b0;stroke-opacity:0.8;" x="226.313309" xlink:href="#m8bbac846f3" y="287.951734"/>
     <use style="fill:#4c72b0;fill-opacity:0.8;stroke:#4c72b0;stroke-opacity:0.8;" x="136.035432" xlink:href="#m8bbac846f3" y="255.687188"/>
     <use style="fill:#4c72b0;fill-opacity:0.8;stroke:#4c72b0;stroke-opacity:0.8;" x="86.01153" xlink:href="#m8bbac846f3" y="295.565836"/>
     <use style="fill:#4c72b0;fill-opacity:0.8;stroke:#4c72b0;stroke-opacity:0.8;" x="187.374516" xlink:href="#m8bbac846f3" y="305.162258"/>
     <use style="fill:#4c72b0;fill-opacity:0.8;stroke:#4c72b0;stroke-opacity:0.8;" x="55.386569" xlink:href="#m8bbac846f3" y="307.036753"/>
     <use style="fill:#4c72b0;fill-opacity:0.8;stroke:#4c72b0;stroke-opacity:0.8;" x="164.875503" xlink:href="#m8bbac846f3" y="272.20929"/>
     <use style="fill:#4c72b0;fill-opacity:0.8;stroke:#4c72b0;stroke-opacity:0.8;" x="57.688138" xlink:href="#m8bbac846f3" y="307.01187"/>
     <use style="fill:#4c72b0;fill-opacity:0.8;stroke:#4c72b0;stroke-opacity:0.8;" x="91.225289" xlink:href="#m8bbac846f3" y="250.013936"/>
     <use style="fill:#4c72b0;fill-opacity:0.8;stroke:#4c72b0;stroke-opacity:0.8;" x="73.188502" xlink:href="#m8bbac846f3" y="304.54019"/>
     <use style="fill:#4c72b0;fill-opacity:0.8;stroke:#4c72b0;stroke-opacity:0.8;" x="59.144233" xlink:href="#m8bbac846f3" y="306.522511"/>
     <use style="fill:#4c72b0;fill-opacity:0.8;stroke:#4c72b0;stroke-opacity:0.8;" x="55.950219" xlink:href="#m8bbac846f3" y="307.061636"/>
     <use style="fill:#4c72b0;fill-opacity:0.8;stroke:#4c72b0;stroke-opacity:0.8;" x="128.567075" xlink:href="#m8bbac846f3" y="244.290918"/>
     <use style="fill:#4c72b0;fill-opacity:0.8;stroke:#4c72b0;stroke-opacity:0.8;" x="134.109629" xlink:href="#m8bbac846f3" y="160.079622"/>
     <use style="fill:#4c72b0;fill-opacity:0.8;stroke:#4c72b0;stroke-opacity:0.8;" x="80.750801" xlink:href="#m8bbac846f3" y="226.118265"/>
     <use style="fill:#4c72b0;fill-opacity:0.8;stroke:#4c72b0;stroke-opacity:0.8;" x="80.750801" xlink:href="#m8bbac846f3" y="68.262518"/>
     <use style="fill:#4c72b0;fill-opacity:0.8;stroke:#4c72b0;stroke-opacity:0.8;" x="91.601056" xlink:href="#m8bbac846f3" y="305.377907"/>
     <use style="fill:#4c72b0;fill-opacity:0.8;stroke:#4c72b0;stroke-opacity:0.8;" x="66.565619" xlink:href="#m8bbac846f3" y="304.100596"/>
     <use style="fill:#4c72b0;fill-opacity:0.8;stroke:#4c72b0;stroke-opacity:0.8;" x="88.125216" xlink:href="#m8bbac846f3" y="291.427016"/>
     <use style="fill:#4c72b0;fill-opacity:0.8;stroke:#4c72b0;stroke-opacity:0.8;" x="75.302188" xlink:href="#m8bbac846f3" y="304.581662"/>
     <use style="fill:#4c72b0;fill-opacity:0.8;stroke:#4c72b0;stroke-opacity:0.8;" x="107.759011" xlink:href="#m8bbac846f3" y="298.991352"/>
     <use style="fill:#4c72b0;fill-opacity:0.8;stroke:#4c72b0;stroke-opacity:0.8;" x="97.942114" xlink:href="#m8bbac846f3" y="288.947042"/>
     <use style="fill:#4c72b0;fill-opacity:0.8;stroke:#4c72b0;stroke-opacity:0.8;" x="170.511999" xlink:href="#m8bbac846f3" y="267.274224"/>
     <use style="fill:#4c72b0;fill-opacity:0.8;stroke:#4c72b0;stroke-opacity:0.8;" x="156.185905" xlink:href="#m8bbac846f3" y="139.194756"/>
     <use style="fill:#4c72b0;fill-opacity:0.8;stroke:#4c72b0;stroke-opacity:0.8;" x="60.553357" xlink:href="#m8bbac846f3" y="301.363501"/>
     <use style="fill:#4c72b0;fill-opacity:0.8;stroke:#4c72b0;stroke-opacity:0.8;" x="123.071491" xlink:href="#m8bbac846f3" y="238.800139"/>
     <use style="fill:#4c72b0;fill-opacity:0.8;stroke:#4c72b0;stroke-opacity:0.8;" x="86.246384" xlink:href="#m8bbac846f3" y="295.872722"/>
     <use style="fill:#4c72b0;fill-opacity:0.8;stroke:#4c72b0;stroke-opacity:0.8;" x="78.496203" xlink:href="#m8bbac846f3" y="245.13693"/>
     <use style="fill:#4c72b0;fill-opacity:0.8;stroke:#4c72b0;stroke-opacity:0.8;" x="98.083026" xlink:href="#m8bbac846f3" y="247.451019"/>
     <use style="fill:#4c72b0;fill-opacity:0.8;stroke:#4c72b0;stroke-opacity:0.8;" x="53.742591" xlink:href="#m8bbac846f3" y="307.028459"/>
     <use style="fill:#4c72b0;fill-opacity:0.8;stroke:#4c72b0;stroke-opacity:0.8;" x="128.707987" xlink:href="#m8bbac846f3" y="279.757037"/>
     <use style="fill:#4c72b0;fill-opacity:0.8;stroke:#4c72b0;stroke-opacity:0.8;" x="153.085832" xlink:href="#m8bbac846f3" y="236.237223"/>
     <use style="fill:#4c72b0;fill-opacity:0.8;stroke:#4c72b0;stroke-opacity:0.8;" x="83.897844" xlink:href="#m8bbac846f3" y="302.267572"/>
     <use style="fill:#4c72b0;fill-opacity:0.8;stroke:#4c72b0;stroke-opacity:0.8;" x="166.613422" xlink:href="#m8bbac846f3" y="284.849693"/>
     <use style="fill:#4c72b0;fill-opacity:0.8;stroke:#4c72b0;stroke-opacity:0.8;" x="73.141531" xlink:href="#m8bbac846f3" y="286.342654"/>
     <use style="fill:#4c72b0;fill-opacity:0.8;stroke:#4c72b0;stroke-opacity:0.8;" x="136.082403" xlink:href="#m8bbac846f3" y="227.685874"/>
     <use style="fill:#4c72b0;fill-opacity:0.8;stroke:#4c72b0;stroke-opacity:0.8;" x="71.262699" xlink:href="#m8bbac846f3" y="222.535158"/>
     <use style="fill:#4c72b0;fill-opacity:0.8;stroke:#4c72b0;stroke-opacity:0.8;" x="96.626931" xlink:href="#m8bbac846f3" y="301.769918"/>
     <use style="fill:#4c72b0;fill-opacity:0.8;stroke:#4c72b0;stroke-opacity:0.8;" x="74.315801" xlink:href="#m8bbac846f3" y="303.080406"/>
     <use style="fill:#4c72b0;fill-opacity:0.8;stroke:#4c72b0;stroke-opacity:0.8;" x="194.842873" xlink:href="#m8bbac846f3" y="30.200306"/>
     <use style="fill:#4c72b0;fill-opacity:0.8;stroke:#4c72b0;stroke-opacity:0.8;" x="133.780834" xlink:href="#m8bbac846f3" y="226.391974"/>
     <use style="fill:#4c72b0;fill-opacity:0.8;stroke:#4c72b0;stroke-opacity:0.8;" x="206.632544" xlink:href="#m8bbac846f3" y="249.997347"/>
     <use style="fill:#4c72b0;fill-opacity:0.8;stroke:#4c72b0;stroke-opacity:0.8;" x="73.893064" xlink:href="#m8bbac846f3" y="302.151453"/>
     <use style="fill:#4c72b0;fill-opacity:0.8;stroke:#4c72b0;stroke-opacity:0.8;" x="78.778027" xlink:href="#m8bbac846f3" y="304.623133"/>
     <use style="fill:#4c72b0;fill-opacity:0.8;stroke:#4c72b0;stroke-opacity:0.8;" x="92.540472" xlink:href="#m8bbac846f3" y="299.779304"/>
    </g>
   </g>
   <g id="PolyCollection_2">
    <defs>
     <path d="M 53.742591 -60.375184 
L 53.742591 -46.619033 
L 55.48573 -47.948612 
L 57.228868 -49.17235 
L 58.972007 -50.327789 
L 60.715145 -51.384489 
L 62.458284 -52.642743 
L 64.201423 -53.831053 
L 65.944561 -54.882285 
L 67.6877 -55.778216 
L 69.430838 -56.478417 
L 71.173977 -57.147443 
L 72.917115 -57.781076 
L 74.660254 -58.348247 
L 76.403392 -59.006132 
L 78.146531 -59.486327 
L 79.88967 -60.028843 
L 81.632808 -60.543889 
L 83.375947 -61.044153 
L 85.119085 -61.533574 
L 86.862224 -62.029145 
L 88.605362 -62.501188 
L 90.348501 -62.928702 
L 92.091639 -63.329976 
L 93.834778 -63.773717 
L 95.577917 -64.278828 
L 97.321055 -64.677081 
L 99.064194 -65.075335 
L 100.807332 -65.472867 
L 102.550471 -65.900074 
L 104.293609 -66.266589 
L 106.036748 -66.694656 
L 107.779887 -67.158483 
L 109.523025 -67.62231 
L 111.266164 -68.060556 
L 113.009302 -68.466573 
L 114.752441 -68.872589 
L 116.495579 -69.288931 
L 118.238718 -69.760702 
L 119.981856 -70.232473 
L 121.724995 -70.644663 
L 123.468134 -71.023718 
L 125.211272 -71.399946 
L 126.954411 -71.776175 
L 128.697549 -72.152403 
L 130.440688 -72.517285 
L 132.183826 -72.903727 
L 133.926965 -73.320167 
L 135.670103 -73.687622 
L 137.413242 -74.051759 
L 139.156381 -74.415895 
L 140.899519 -74.782044 
L 142.642658 -75.157261 
L 144.385796 -75.532479 
L 146.128935 -75.907696 
L 147.872073 -76.283812 
L 149.615212 -76.688781 
L 151.35835 -77.051691 
L 153.101489 -77.458463 
L 154.844628 -77.870726 
L 156.587766 -78.28361 
L 158.330905 -78.696531 
L 160.074043 -79.109526 
L 161.817182 -79.522521 
L 163.56032 -79.935515 
L 165.303459 -80.34851 
L 167.046598 -80.761505 
L 168.789736 -81.1745 
L 170.532875 -81.587495 
L 172.276013 -81.977287 
L 174.019152 -82.282784 
L 175.76229 -82.594637 
L 177.505429 -82.994968 
L 179.248567 -83.381115 
L 180.991706 -83.742926 
L 182.734845 -84.138463 
L 184.477983 -84.535828 
L 186.221122 -84.933332 
L 187.96426 -85.330836 
L 189.707399 -85.728341 
L 191.450537 -86.125845 
L 193.193676 -86.523349 
L 194.936814 -86.920853 
L 196.679953 -87.318446 
L 198.423092 -87.728066 
L 200.16623 -88.137686 
L 201.909369 -88.547306 
L 203.652507 -88.906841 
L 205.395646 -89.302636 
L 207.138784 -89.699634 
L 208.881923 -90.096862 
L 210.625061 -90.494091 
L 212.3682 -90.89132 
L 214.111339 -91.288549 
L 215.854477 -91.685778 
L 217.597616 -92.083007 
L 219.340754 -92.480284 
L 221.083893 -92.8777 
L 222.827031 -93.275117 
L 224.57017 -93.672534 
L 226.313309 -94.069951 
L 226.313309 -172.553407 
L 226.313309 -172.553407 
L 224.57017 -171.294307 
L 222.827031 -170.035207 
L 221.083893 -168.776107 
L 219.340754 -167.517008 
L 217.597616 -166.257908 
L 215.854477 -164.998808 
L 214.111339 -163.739709 
L 212.3682 -162.480609 
L 210.625061 -161.221509 
L 208.881923 -159.96241 
L 207.138784 -158.70331 
L 205.395646 -157.44421 
L 203.652507 -156.18511 
L 201.909369 -154.926011 
L 200.16623 -153.666911 
L 198.423092 -152.407811 
L 196.679953 -151.148712 
L 194.936814 -149.889612 
L 193.193676 -148.630512 
L 191.450537 -147.365777 
L 189.707399 -146.078272 
L 187.96426 -144.790768 
L 186.221122 -143.503264 
L 184.477983 -142.21576 
L 182.734845 -140.928255 
L 180.991706 -139.640751 
L 179.248567 -138.35263 
L 177.505429 -137.064421 
L 175.76229 -135.776211 
L 174.019152 -134.488002 
L 172.276013 -133.199792 
L 170.532875 -131.911583 
L 168.789736 -130.623373 
L 167.046598 -129.335164 
L 165.303459 -128.046954 
L 163.56032 -126.758745 
L 161.817182 -125.470536 
L 160.074043 -124.182326 
L 158.330905 -122.894117 
L 156.587766 -121.605907 
L 154.844628 -120.317698 
L 153.101489 -119.029488 
L 151.35835 -117.865431 
L 149.615212 -116.669241 
L 147.872073 -115.387318 
L 146.128935 -114.105394 
L 144.385796 -112.821896 
L 142.642658 -111.536039 
L 140.899519 -110.267217 
L 139.156381 -109.031791 
L 137.413242 -107.796366 
L 135.670103 -106.56094 
L 133.926965 -105.325514 
L 132.183826 -104.090089 
L 130.440688 -102.854663 
L 128.697549 -101.646792 
L 126.954411 -100.594334 
L 125.211272 -99.541876 
L 123.468134 -98.300788 
L 121.724995 -97.047716 
L 119.981856 -95.892369 
L 118.238718 -94.83211 
L 116.495579 -93.771851 
L 114.752441 -92.711261 
L 113.009302 -91.644911 
L 111.266164 -90.578561 
L 109.523025 -89.376418 
L 107.779887 -88.139763 
L 106.036748 -86.99654 
L 104.293609 -85.748161 
L 102.550471 -84.475658 
L 100.807332 -83.306801 
L 99.064194 -82.115497 
L 97.321055 -80.984788 
L 95.577917 -79.839488 
L 93.834778 -78.713589 
L 92.091639 -77.449995 
L 90.348501 -76.149505 
L 88.605362 -75.120755 
L 86.862224 -74.369757 
L 85.119085 -73.582485 
L 83.375947 -72.744089 
L 81.632808 -72.109689 
L 79.88967 -71.371413 
L 78.146531 -70.44158 
L 76.403392 -69.365879 
L 74.660254 -68.423836 
L 72.917115 -67.665683 
L 71.173977 -66.825639 
L 69.430838 -66.099972 
L 67.6877 -65.314162 
L 65.944561 -64.757444 
L 64.201423 -64.013982 
L 62.458284 -63.441822 
L 60.715145 -62.972266 
L 58.972007 -62.275719 
L 57.228868 -61.49723 
L 55.48573 -60.930742 
L 53.742591 -60.375184 
z
" id="m09dacb0658" style="stroke:#ffffff;stroke-opacity:0.15;"/>
    </defs>
    <g clip-path="url(#p98bb546f9c)">
     <use style="fill:#4c72b0;fill-opacity:0.15;stroke:#ffffff;stroke-opacity:0.15;" x="0" xlink:href="#m09dacb0658" y="360"/>
    </g>
   </g>
   <g id="line2d_15">
    <path clip-path="url(#p98bb546f9c)" d="M 53.085 305.743271 
L 55.934562 305.081812 
L 58.784124 304.420353 
L 61.633686 303.758894 
L 64.483247 303.097435 
L 67.332809 302.435976 
L 70.182371 301.774517 
L 73.031933 301.113058 
L 75.881495 300.451599 
L 78.731057 299.79014 
L 81.580618 299.128681 
L 84.43018 298.467222 
L 87.279742 297.805763 
L 90.129304 297.144304 
L 92.978866 296.482845 
L 95.828428 295.821386 
L 98.677989 295.159927 
L 101.527551 294.498468 
L 104.377113 293.837009 
L 107.226675 293.17555 
L 110.076237 292.514091 
L 112.925799 291.852632 
L 115.77536 291.191173 
L 118.624922 290.529714 
L 121.474484 289.868255 
L 124.324046 289.206796 
L 127.173608 288.545338 
L 130.02317 287.883879 
L 132.872731 287.22242 
L 135.722293 286.560961 
L 138.571855 285.899502 
L 141.421417 285.238043 
L 144.270979 284.576584 
L 147.120541 283.915125 
L 149.970102 283.253666 
L 152.819664 282.592207 
L 155.669226 281.930748 
L 158.518788 281.269289 
L 161.36835 280.60783 
L 164.217912 279.946371 
L 167.067473 279.284912 
L 169.917035 278.623453 
L 172.766597 277.961994 
L 175.616159 277.300535 
L 178.465721 276.639076 
L 181.315283 275.977617 
L 184.164844 275.316158 
L 187.014406 274.654699 
L 189.863968 273.99324 
L 192.71353 273.331781 
L 195.563092 272.670322 
L 198.412654 272.008863 
L 201.262215 271.347404 
L 204.111777 270.685945 
L 206.961339 270.024486 
L 209.810901 269.363027 
L 212.660463 268.701568 
L 215.510025 268.040109 
L 218.359586 267.37865 
L 221.209148 266.717191 
L 224.05871 266.055732 
L 226.908272 265.394273 
L 229.757834 264.732814 
L 232.607396 264.071355 
L 235.456957 263.409896 
L 238.306519 262.748437 
L 241.156081 262.086978 
L 244.005643 261.425519 
L 246.855205 260.76406 
L 249.704767 260.102601 
L 252.554328 259.441142 
L 255.40389 258.779683 
L 258.253452 258.118225 
L 261.103014 257.456766 
L 263.952576 256.795307 
L 266.802138 256.133848 
L 269.651699 255.472389 
L 272.501261 254.81093 
L 275.350823 254.149471 
L 278.200385 253.488012 
L 281.049947 252.826553 
L 283.899509 252.165094 
L 286.749071 251.503635 
L 289.598632 250.842176 
L 292.448194 250.180717 
L 295.297756 249.519258 
L 298.147318 248.857799 
L 300.99688 248.19634 
L 303.846442 247.534881 
L 306.696003 246.873422 
L 309.545565 246.211963 
L 312.395127 245.550504 
L 315.244689 244.889045 
L 318.094251 244.227586 
L 320.943813 243.566127 
L 323.793374 242.904668 
L 326.642936 242.243209 
L 329.492498 241.58175 
L 332.34206 240.920291 
L 335.191622 240.258832 
" style="fill:none;stroke:#dd8452;stroke-linecap:round;stroke-width:2.25;"/>
   </g>
   <g id="line2d_16">
    <path clip-path="url(#p98bb546f9c)" d="M 53.742591 306.588657 
L 55.48573 305.928902 
L 57.228868 305.269148 
L 58.972007 304.609394 
L 60.715145 303.949639 
L 62.458284 303.289885 
L 64.201423 302.63013 
L 65.944561 301.970376 
L 67.6877 301.310622 
L 69.430838 300.650867 
L 71.173977 299.991113 
L 72.917115 299.331358 
L 74.660254 298.671604 
L 76.403392 298.01185 
L 78.146531 297.352095 
L 79.88967 296.692341 
L 81.632808 296.032586 
L 83.375947 295.372832 
L 85.119085 294.713078 
L 86.862224 294.053323 
L 88.605362 293.393569 
L 90.348501 292.733814 
L 92.091639 292.07406 
L 93.834778 291.414306 
L 95.577917 290.754551 
L 97.321055 290.094797 
L 99.064194 289.435042 
L 100.807332 288.775288 
L 102.550471 288.115534 
L 104.293609 287.455779 
L 106.036748 286.796025 
L 107.779887 286.13627 
L 109.523025 285.476516 
L 111.266164 284.816761 
L 113.009302 284.157007 
L 114.752441 283.497253 
L 116.495579 282.837498 
L 118.238718 282.177744 
L 119.981856 281.517989 
L 121.724995 280.858235 
L 123.468134 280.198481 
L 125.211272 279.538726 
L 126.954411 278.878972 
L 128.697549 278.219217 
L 130.440688 277.559463 
L 132.183826 276.899709 
L 133.926965 276.239954 
L 135.670103 275.5802 
L 137.413242 274.920445 
L 139.156381 274.260691 
L 140.899519 273.600937 
L 142.642658 272.941182 
L 144.385796 272.281428 
L 146.128935 271.621673 
L 147.872073 270.961919 
L 149.615212 270.302165 
L 151.35835 269.64241 
L 153.101489 268.982656 
L 154.844628 268.322901 
L 156.587766 267.663147 
L 158.330905 267.003393 
L 160.074043 266.343638 
L 161.817182 265.683884 
L 163.56032 265.024129 
L 165.303459 264.364375 
L 167.046598 263.704621 
L 168.789736 263.044866 
L 170.532875 262.385112 
L 172.276013 261.725357 
L 174.019152 261.065603 
L 175.76229 260.405849 
L 177.505429 259.746094 
L 179.248567 259.08634 
L 180.991706 258.426585 
L 182.734845 257.766831 
L 184.477983 257.107077 
L 186.221122 256.447322 
L 187.96426 255.787568 
L 189.707399 255.127813 
L 191.450537 254.468059 
L 193.193676 253.808304 
L 194.936814 253.14855 
L 196.679953 252.488796 
L 198.423092 251.829041 
L 200.16623 251.169287 
L 201.909369 250.509532 
L 203.652507 249.849778 
L 205.395646 249.190024 
L 207.138784 248.530269 
L 208.881923 247.870515 
L 210.625061 247.21076 
L 212.3682 246.551006 
L 214.111339 245.891252 
L 215.854477 245.231497 
L 217.597616 244.571743 
L 219.340754 243.911988 
L 221.083893 243.252234 
L 222.827031 242.59248 
L 224.57017 241.932725 
L 226.313309 241.272971 
" style="fill:none;stroke:#4c72b0;stroke-linecap:round;stroke-width:2.25;"/>
   </g>
   <g id="patch_3">
    <path d="M 53.085 327.54 
L 53.085 16.041272 
" style="fill:none;stroke:#cccccc;stroke-linecap:square;stroke-linejoin:miter;stroke-width:1.25;"/>
   </g>
   <g id="patch_4">
    <path d="M 53.085 327.54 
L 335.191622 327.54 
" style="fill:none;stroke:#cccccc;stroke-linecap:square;stroke-linejoin:miter;stroke-width:1.25;"/>
   </g>
  </g>
 </g>
 <defs>
  <clipPath id="p98bb546f9c">
   <rect height="311.498728" width="282.106622" x="53.085" y="16.041272"/>
  </clipPath>
 </defs>
</svg>
