<?xml version="1.0" encoding="utf-8" standalone="no"?>
<!DOCTYPE svg PUBLIC "-//W3C//DTD SVG 1.1//EN"
  "http://www.w3.org/Graphics/SVG/1.1/DTD/svg11.dtd">
<!-- Created with matplotlib (https://matplotlib.org/) -->
<svg height="360pt" version="1.1" viewBox="0 0 360 360" width="360pt" xmlns="http://www.w3.org/2000/svg" xmlns:xlink="http://www.w3.org/1999/xlink">
 <metadata>
  <rdf:RDF xmlns:cc="http://creativecommons.org/ns#" xmlns:dc="http://purl.org/dc/elements/1.1/" xmlns:rdf="http://www.w3.org/1999/02/22-rdf-syntax-ns#">
   <cc:Work>
    <dc:type rdf:resource="http://purl.org/dc/dcmitype/StillImage"/>
    <dc:date>2021-02-21T17:23:06.102859</dc:date>
    <dc:format>image/svg+xml</dc:format>
    <dc:creator>
     <cc:Agent>
      <dc:title>Matplotlib v3.3.2, https://matplotlib.org/</dc:title>
     </cc:Agent>
    </dc:creator>
   </cc:Work>
  </rdf:RDF>
 </metadata>
 <defs>
  <style type="text/css">*{stroke-linecap:butt;stroke-linejoin:round;}</style>
 </defs>
 <g id="figure_1">
  <g id="patch_1">
   <path d="M 0 360 
L 360 360 
L 360 0 
L 0 0 
z
" style="fill:#ffffff;"/>
  </g>
  <g id="axes_1">
   <g id="patch_2">
    <path d="M 53.085 327.54 
L 335.191622 327.54 
L 335.191622 16.052174 
L 53.085 16.052174 
z
" style="fill:#ffffff;"/>
   </g>
   <g id="matplotlib.axis_1">
    <g id="xtick_1">
     <g id="line2d_1">
      <path clip-path="url(#p69a0c9a88f)" d="M 99.961858 327.54 
L 99.961858 16.052174 
" style="fill:none;stroke:#cccccc;stroke-linecap:round;"/>
     </g>
     <g id="text_1">
      <!-- 1000 -->
      <g style="fill:#262626;" transform="translate(87.727795 344.913594)scale(0.11 -0.11)">
       <defs>
        <path d="M 37.25 0 
L 28.46875 0 
L 28.46875 56 
Q 25.296875 52.984375 20.140625 49.953125 
Q 14.984375 46.921875 10.890625 45.40625 
L 10.890625 53.90625 
Q 18.265625 57.375 23.78125 62.296875 
Q 29.296875 67.234375 31.59375 71.875 
L 37.25 71.875 
z
" id="ArialMT-49"/>
        <path d="M 4.15625 35.296875 
Q 4.15625 48 6.765625 55.734375 
Q 9.375 63.484375 14.515625 67.671875 
Q 19.671875 71.875 27.484375 71.875 
Q 33.25 71.875 37.59375 69.546875 
Q 41.9375 67.234375 44.765625 62.859375 
Q 47.609375 58.5 49.21875 52.21875 
Q 50.828125 45.953125 50.828125 35.296875 
Q 50.828125 22.703125 48.234375 14.96875 
Q 45.65625 7.234375 40.5 3 
Q 35.359375 -1.21875 27.484375 -1.21875 
Q 17.140625 -1.21875 11.234375 6.203125 
Q 4.15625 15.140625 4.15625 35.296875 
z
M 13.1875 35.296875 
Q 13.1875 17.671875 17.3125 11.828125 
Q 21.4375 6 27.484375 6 
Q 33.546875 6 37.671875 11.859375 
Q 41.796875 17.71875 41.796875 35.296875 
Q 41.796875 52.984375 37.671875 58.78125 
Q 33.546875 64.59375 27.390625 64.59375 
Q 21.34375 64.59375 17.71875 59.46875 
Q 13.1875 52.9375 13.1875 35.296875 
z
" id="ArialMT-48"/>
       </defs>
       <use xlink:href="#ArialMT-49"/>
       <use x="55.615234" xlink:href="#ArialMT-48"/>
       <use x="111.230469" xlink:href="#ArialMT-48"/>
       <use x="166.845703" xlink:href="#ArialMT-48"/>
      </g>
     </g>
    </g>
    <g id="xtick_2">
     <g id="line2d_2">
      <path clip-path="url(#p69a0c9a88f)" d="M 146.932657 327.54 
L 146.932657 16.052174 
" style="fill:none;stroke:#cccccc;stroke-linecap:round;"/>
     </g>
     <g id="text_2">
      <!-- 2000 -->
      <g style="fill:#262626;" transform="translate(134.698595 344.913594)scale(0.11 -0.11)">
       <defs>
        <path d="M 50.34375 8.453125 
L 50.34375 0 
L 3.03125 0 
Q 2.9375 3.171875 4.046875 6.109375 
Q 5.859375 10.9375 9.828125 15.625 
Q 13.8125 20.3125 21.34375 26.46875 
Q 33.015625 36.03125 37.109375 41.625 
Q 41.21875 47.21875 41.21875 52.203125 
Q 41.21875 57.421875 37.46875 61 
Q 33.734375 64.59375 27.734375 64.59375 
Q 21.390625 64.59375 17.578125 60.78125 
Q 13.765625 56.984375 13.71875 50.25 
L 4.6875 51.171875 
Q 5.609375 61.28125 11.65625 66.578125 
Q 17.71875 71.875 27.9375 71.875 
Q 38.234375 71.875 44.234375 66.15625 
Q 50.25 60.453125 50.25 52 
Q 50.25 47.703125 48.484375 43.546875 
Q 46.734375 39.40625 42.65625 34.8125 
Q 38.578125 30.21875 29.109375 22.21875 
Q 21.1875 15.578125 18.9375 13.203125 
Q 16.703125 10.84375 15.234375 8.453125 
z
" id="ArialMT-50"/>
       </defs>
       <use xlink:href="#ArialMT-50"/>
       <use x="55.615234" xlink:href="#ArialMT-48"/>
       <use x="111.230469" xlink:href="#ArialMT-48"/>
       <use x="166.845703" xlink:href="#ArialMT-48"/>
      </g>
     </g>
    </g>
    <g id="xtick_3">
     <g id="line2d_3">
      <path clip-path="url(#p69a0c9a88f)" d="M 193.903457 327.54 
L 193.903457 16.052174 
" style="fill:none;stroke:#cccccc;stroke-linecap:round;"/>
     </g>
     <g id="text_3">
      <!-- 3000 -->
      <g style="fill:#262626;" transform="translate(181.669394 344.913594)scale(0.11 -0.11)">
       <defs>
        <path d="M 4.203125 18.890625 
L 12.984375 20.0625 
Q 14.5 12.59375 18.140625 9.296875 
Q 21.78125 6 27 6 
Q 33.203125 6 37.46875 10.296875 
Q 41.75 14.59375 41.75 20.953125 
Q 41.75 27 37.796875 30.921875 
Q 33.84375 34.859375 27.734375 34.859375 
Q 25.25 34.859375 21.53125 33.890625 
L 22.515625 41.609375 
Q 23.390625 41.5 23.921875 41.5 
Q 29.546875 41.5 34.03125 44.421875 
Q 38.53125 47.359375 38.53125 53.46875 
Q 38.53125 58.296875 35.25 61.46875 
Q 31.984375 64.65625 26.8125 64.65625 
Q 21.6875 64.65625 18.265625 61.421875 
Q 14.84375 58.203125 13.875 51.765625 
L 5.078125 53.328125 
Q 6.6875 62.15625 12.390625 67.015625 
Q 18.109375 71.875 26.609375 71.875 
Q 32.46875 71.875 37.390625 69.359375 
Q 42.328125 66.84375 44.9375 62.5 
Q 47.5625 58.15625 47.5625 53.265625 
Q 47.5625 48.640625 45.0625 44.828125 
Q 42.578125 41.015625 37.703125 38.765625 
Q 44.046875 37.3125 47.5625 32.6875 
Q 51.078125 28.078125 51.078125 21.140625 
Q 51.078125 11.765625 44.234375 5.25 
Q 37.40625 -1.265625 26.953125 -1.265625 
Q 17.53125 -1.265625 11.296875 4.34375 
Q 5.078125 9.96875 4.203125 18.890625 
z
" id="ArialMT-51"/>
       </defs>
       <use xlink:href="#ArialMT-51"/>
       <use x="55.615234" xlink:href="#ArialMT-48"/>
       <use x="111.230469" xlink:href="#ArialMT-48"/>
       <use x="166.845703" xlink:href="#ArialMT-48"/>
      </g>
     </g>
    </g>
    <g id="xtick_4">
     <g id="line2d_4">
      <path clip-path="url(#p69a0c9a88f)" d="M 240.874256 327.54 
L 240.874256 16.052174 
" style="fill:none;stroke:#cccccc;stroke-linecap:round;"/>
     </g>
     <g id="text_4">
      <!-- 4000 -->
      <g style="fill:#262626;" transform="translate(228.640194 344.913594)scale(0.11 -0.11)">
       <defs>
        <path d="M 32.328125 0 
L 32.328125 17.140625 
L 1.265625 17.140625 
L 1.265625 25.203125 
L 33.9375 71.578125 
L 41.109375 71.578125 
L 41.109375 25.203125 
L 50.78125 25.203125 
L 50.78125 17.140625 
L 41.109375 17.140625 
L 41.109375 0 
z
M 32.328125 25.203125 
L 32.328125 57.46875 
L 9.90625 25.203125 
z
" id="ArialMT-52"/>
       </defs>
       <use xlink:href="#ArialMT-52"/>
       <use x="55.615234" xlink:href="#ArialMT-48"/>
       <use x="111.230469" xlink:href="#ArialMT-48"/>
       <use x="166.845703" xlink:href="#ArialMT-48"/>
      </g>
     </g>
    </g>
    <g id="xtick_5">
     <g id="line2d_5">
      <path clip-path="url(#p69a0c9a88f)" d="M 287.845056 327.54 
L 287.845056 16.052174 
" style="fill:none;stroke:#cccccc;stroke-linecap:round;"/>
     </g>
     <g id="text_5">
      <!-- 5000 -->
      <g style="fill:#262626;" transform="translate(275.610993 344.913594)scale(0.11 -0.11)">
       <defs>
        <path d="M 4.15625 18.75 
L 13.375 19.53125 
Q 14.40625 12.796875 18.140625 9.390625 
Q 21.875 6 27.15625 6 
Q 33.5 6 37.890625 10.78125 
Q 42.28125 15.578125 42.28125 23.484375 
Q 42.28125 31 38.0625 35.34375 
Q 33.84375 39.703125 27 39.703125 
Q 22.75 39.703125 19.328125 37.765625 
Q 15.921875 35.84375 13.96875 32.765625 
L 5.71875 33.84375 
L 12.640625 70.609375 
L 48.25 70.609375 
L 48.25 62.203125 
L 19.671875 62.203125 
L 15.828125 42.96875 
Q 22.265625 47.46875 29.34375 47.46875 
Q 38.71875 47.46875 45.15625 40.96875 
Q 51.609375 34.46875 51.609375 24.265625 
Q 51.609375 14.546875 45.953125 7.46875 
Q 39.0625 -1.21875 27.15625 -1.21875 
Q 17.390625 -1.21875 11.203125 4.25 
Q 5.03125 9.71875 4.15625 18.75 
z
" id="ArialMT-53"/>
       </defs>
       <use xlink:href="#ArialMT-53"/>
       <use x="55.615234" xlink:href="#ArialMT-48"/>
       <use x="111.230469" xlink:href="#ArialMT-48"/>
       <use x="166.845703" xlink:href="#ArialMT-48"/>
      </g>
     </g>
    </g>
    <g id="xtick_6">
     <g id="line2d_6">
      <path clip-path="url(#p69a0c9a88f)" d="M 334.815855 327.54 
L 334.815855 16.052174 
" style="fill:none;stroke:#cccccc;stroke-linecap:round;"/>
     </g>
     <g id="text_6">
      <!-- 6000 -->
      <g style="fill:#262626;" transform="translate(322.581793 344.913594)scale(0.11 -0.11)">
       <defs>
        <path d="M 49.75 54.046875 
L 41.015625 53.375 
Q 39.84375 58.546875 37.703125 60.890625 
Q 34.125 64.65625 28.90625 64.65625 
Q 24.703125 64.65625 21.53125 62.3125 
Q 17.390625 59.28125 14.984375 53.46875 
Q 12.59375 47.65625 12.5 36.921875 
Q 15.671875 41.75 20.265625 44.09375 
Q 24.859375 46.4375 29.890625 46.4375 
Q 38.671875 46.4375 44.84375 39.96875 
Q 51.03125 33.5 51.03125 23.25 
Q 51.03125 16.5 48.125 10.71875 
Q 45.21875 4.9375 40.140625 1.859375 
Q 35.0625 -1.21875 28.609375 -1.21875 
Q 17.625 -1.21875 10.6875 6.859375 
Q 3.765625 14.9375 3.765625 33.5 
Q 3.765625 54.25 11.421875 63.671875 
Q 18.109375 71.875 29.4375 71.875 
Q 37.890625 71.875 43.28125 67.140625 
Q 48.6875 62.40625 49.75 54.046875 
z
M 13.875 23.1875 
Q 13.875 18.65625 15.796875 14.5 
Q 17.71875 10.359375 21.1875 8.171875 
Q 24.65625 6 28.46875 6 
Q 34.03125 6 38.03125 10.484375 
Q 42.046875 14.984375 42.046875 22.703125 
Q 42.046875 30.125 38.078125 34.390625 
Q 34.125 38.671875 28.125 38.671875 
Q 22.171875 38.671875 18.015625 34.390625 
Q 13.875 30.125 13.875 23.1875 
z
" id="ArialMT-54"/>
       </defs>
       <use xlink:href="#ArialMT-54"/>
       <use x="55.615234" xlink:href="#ArialMT-48"/>
       <use x="111.230469" xlink:href="#ArialMT-48"/>
       <use x="166.845703" xlink:href="#ArialMT-48"/>
      </g>
     </g>
    </g>
    <g id="text_7">
     <!-- following_count -->
     <g style="fill:#262626;" transform="translate(152.779561 359.835469)scale(0.12 -0.12)">
      <defs>
       <path d="M 8.6875 0 
L 8.6875 45.015625 
L 0.921875 45.015625 
L 0.921875 51.859375 
L 8.6875 51.859375 
L 8.6875 57.375 
Q 8.6875 62.59375 9.625 65.140625 
Q 10.890625 68.5625 14.078125 70.671875 
Q 17.28125 72.796875 23.046875 72.796875 
Q 26.765625 72.796875 31.25 71.921875 
L 29.9375 64.265625 
Q 27.203125 64.75 24.75 64.75 
Q 20.75 64.75 19.09375 63.03125 
Q 17.4375 61.328125 17.4375 56.640625 
L 17.4375 51.859375 
L 27.546875 51.859375 
L 27.546875 45.015625 
L 17.4375 45.015625 
L 17.4375 0 
z
" id="ArialMT-102"/>
       <path d="M 3.328125 25.921875 
Q 3.328125 40.328125 11.328125 47.265625 
Q 18.015625 53.03125 27.640625 53.03125 
Q 38.328125 53.03125 45.109375 46.015625 
Q 51.90625 39.015625 51.90625 26.65625 
Q 51.90625 16.65625 48.90625 10.90625 
Q 45.90625 5.171875 40.15625 2 
Q 34.421875 -1.171875 27.640625 -1.171875 
Q 16.75 -1.171875 10.03125 5.8125 
Q 3.328125 12.796875 3.328125 25.921875 
z
M 12.359375 25.921875 
Q 12.359375 15.96875 16.703125 11.015625 
Q 21.046875 6.0625 27.640625 6.0625 
Q 34.1875 6.0625 38.53125 11.03125 
Q 42.875 16.015625 42.875 26.21875 
Q 42.875 35.84375 38.5 40.796875 
Q 34.125 45.75 27.640625 45.75 
Q 21.046875 45.75 16.703125 40.8125 
Q 12.359375 35.890625 12.359375 25.921875 
z
" id="ArialMT-111"/>
       <path d="M 6.390625 0 
L 6.390625 71.578125 
L 15.1875 71.578125 
L 15.1875 0 
z
" id="ArialMT-108"/>
       <path d="M 16.15625 0 
L 0.296875 51.859375 
L 9.375 51.859375 
L 17.625 21.921875 
L 20.703125 10.796875 
Q 20.90625 11.625 23.390625 21.484375 
L 31.640625 51.859375 
L 40.671875 51.859375 
L 48.4375 21.78125 
L 51.03125 11.859375 
L 54 21.875 
L 62.890625 51.859375 
L 71.4375 51.859375 
L 55.21875 0 
L 46.09375 0 
L 37.84375 31.0625 
L 35.84375 39.890625 
L 25.34375 0 
z
" id="ArialMT-119"/>
       <path d="M 6.640625 61.46875 
L 6.640625 71.578125 
L 15.4375 71.578125 
L 15.4375 61.46875 
z
M 6.640625 0 
L 6.640625 51.859375 
L 15.4375 51.859375 
L 15.4375 0 
z
" id="ArialMT-105"/>
       <path d="M 6.59375 0 
L 6.59375 51.859375 
L 14.5 51.859375 
L 14.5 44.484375 
Q 20.21875 53.03125 31 53.03125 
Q 35.6875 53.03125 39.625 51.34375 
Q 43.5625 49.65625 45.515625 46.921875 
Q 47.46875 44.1875 48.25 40.4375 
Q 48.734375 37.984375 48.734375 31.890625 
L 48.734375 0 
L 39.9375 0 
L 39.9375 31.546875 
Q 39.9375 36.921875 38.90625 39.578125 
Q 37.890625 42.234375 35.28125 43.8125 
Q 32.671875 45.40625 29.15625 45.40625 
Q 23.53125 45.40625 19.453125 41.84375 
Q 15.375 38.28125 15.375 28.328125 
L 15.375 0 
z
" id="ArialMT-110"/>
       <path d="M 4.984375 -4.296875 
L 13.53125 -5.5625 
Q 14.0625 -9.515625 16.5 -11.328125 
Q 19.78125 -13.765625 25.4375 -13.765625 
Q 31.546875 -13.765625 34.859375 -11.328125 
Q 38.1875 -8.890625 39.359375 -4.5 
Q 40.046875 -1.8125 39.984375 6.78125 
Q 34.234375 0 25.640625 0 
Q 14.9375 0 9.078125 7.71875 
Q 3.21875 15.4375 3.21875 26.21875 
Q 3.21875 33.640625 5.90625 39.90625 
Q 8.59375 46.1875 13.6875 49.609375 
Q 18.796875 53.03125 25.6875 53.03125 
Q 34.859375 53.03125 40.828125 45.609375 
L 40.828125 51.859375 
L 48.921875 51.859375 
L 48.921875 7.03125 
Q 48.921875 -5.078125 46.453125 -10.125 
Q 44 -15.1875 38.640625 -18.109375 
Q 33.296875 -21.046875 25.484375 -21.046875 
Q 16.21875 -21.046875 10.5 -16.875 
Q 4.78125 -12.703125 4.984375 -4.296875 
z
M 12.25 26.859375 
Q 12.25 16.65625 16.296875 11.96875 
Q 20.359375 7.28125 26.46875 7.28125 
Q 32.515625 7.28125 36.609375 11.9375 
Q 40.71875 16.609375 40.71875 26.5625 
Q 40.71875 36.078125 36.5 40.90625 
Q 32.28125 45.75 26.3125 45.75 
Q 20.453125 45.75 16.34375 40.984375 
Q 12.25 36.234375 12.25 26.859375 
z
" id="ArialMT-103"/>
       <path d="M -1.515625 -19.875 
L -1.515625 -13.53125 
L 56.734375 -13.53125 
L 56.734375 -19.875 
z
" id="ArialMT-95"/>
       <path d="M 40.4375 19 
L 49.078125 17.875 
Q 47.65625 8.9375 41.8125 3.875 
Q 35.984375 -1.171875 27.484375 -1.171875 
Q 16.84375 -1.171875 10.375 5.78125 
Q 3.90625 12.75 3.90625 25.734375 
Q 3.90625 34.125 6.6875 40.421875 
Q 9.46875 46.734375 15.15625 49.875 
Q 20.84375 53.03125 27.546875 53.03125 
Q 35.984375 53.03125 41.359375 48.75 
Q 46.734375 44.484375 48.25 36.625 
L 39.703125 35.296875 
Q 38.484375 40.53125 35.375 43.15625 
Q 32.28125 45.796875 27.875 45.796875 
Q 21.234375 45.796875 17.078125 41.03125 
Q 12.9375 36.28125 12.9375 25.984375 
Q 12.9375 15.53125 16.9375 10.796875 
Q 20.953125 6.0625 27.390625 6.0625 
Q 32.5625 6.0625 36.03125 9.234375 
Q 39.5 12.40625 40.4375 19 
z
" id="ArialMT-99"/>
       <path d="M 40.578125 0 
L 40.578125 7.625 
Q 34.515625 -1.171875 24.125 -1.171875 
Q 19.53125 -1.171875 15.546875 0.578125 
Q 11.578125 2.34375 9.640625 5 
Q 7.71875 7.671875 6.9375 11.53125 
Q 6.390625 14.109375 6.390625 19.734375 
L 6.390625 51.859375 
L 15.1875 51.859375 
L 15.1875 23.09375 
Q 15.1875 16.21875 15.71875 13.8125 
Q 16.546875 10.359375 19.234375 8.375 
Q 21.921875 6.390625 25.875 6.390625 
Q 29.828125 6.390625 33.296875 8.421875 
Q 36.765625 10.453125 38.203125 13.9375 
Q 39.65625 17.4375 39.65625 24.078125 
L 39.65625 51.859375 
L 48.4375 51.859375 
L 48.4375 0 
z
" id="ArialMT-117"/>
       <path d="M 25.78125 7.859375 
L 27.046875 0.09375 
Q 23.34375 -0.6875 20.40625 -0.6875 
Q 15.625 -0.6875 12.984375 0.828125 
Q 10.359375 2.34375 9.28125 4.8125 
Q 8.203125 7.28125 8.203125 15.1875 
L 8.203125 45.015625 
L 1.765625 45.015625 
L 1.765625 51.859375 
L 8.203125 51.859375 
L 8.203125 64.703125 
L 16.9375 69.96875 
L 16.9375 51.859375 
L 25.78125 51.859375 
L 25.78125 45.015625 
L 16.9375 45.015625 
L 16.9375 14.703125 
Q 16.9375 10.9375 17.40625 9.859375 
Q 17.875 8.796875 18.921875 8.15625 
Q 19.96875 7.515625 21.921875 7.515625 
Q 23.390625 7.515625 25.78125 7.859375 
z
" id="ArialMT-116"/>
      </defs>
      <use xlink:href="#ArialMT-102"/>
      <use x="27.783203" xlink:href="#ArialMT-111"/>
      <use x="83.398438" xlink:href="#ArialMT-108"/>
      <use x="105.615234" xlink:href="#ArialMT-108"/>
      <use x="127.832031" xlink:href="#ArialMT-111"/>
      <use x="183.447266" xlink:href="#ArialMT-119"/>
      <use x="255.664062" xlink:href="#ArialMT-105"/>
      <use x="277.880859" xlink:href="#ArialMT-110"/>
      <use x="333.496094" xlink:href="#ArialMT-103"/>
      <use x="389.111328" xlink:href="#ArialMT-95"/>
      <use x="444.726562" xlink:href="#ArialMT-99"/>
      <use x="494.726562" xlink:href="#ArialMT-111"/>
      <use x="550.341797" xlink:href="#ArialMT-117"/>
      <use x="605.957031" xlink:href="#ArialMT-110"/>
      <use x="661.572266" xlink:href="#ArialMT-116"/>
     </g>
    </g>
   </g>
   <g id="matplotlib.axis_2">
    <g id="ytick_1">
     <g id="line2d_7">
      <path clip-path="url(#p69a0c9a88f)" d="M 53.085 307.49025 
L 335.191622 307.49025 
" style="fill:none;stroke:#cccccc;stroke-linecap:round;"/>
     </g>
     <g id="text_8">
      <!-- 0 -->
      <g style="fill:#262626;" transform="translate(37.467969 311.427047)scale(0.11 -0.11)">
       <use xlink:href="#ArialMT-48"/>
      </g>
     </g>
    </g>
    <g id="ytick_2">
     <g id="line2d_8">
      <path clip-path="url(#p69a0c9a88f)" d="M 53.085 265.986308 
L 335.191622 265.986308 
" style="fill:none;stroke:#cccccc;stroke-linecap:round;"/>
     </g>
     <g id="text_9">
      <!-- 5000 -->
      <g style="fill:#262626;" transform="translate(19.116875 269.923104)scale(0.11 -0.11)">
       <use xlink:href="#ArialMT-53"/>
       <use x="55.615234" xlink:href="#ArialMT-48"/>
       <use x="111.230469" xlink:href="#ArialMT-48"/>
       <use x="166.845703" xlink:href="#ArialMT-48"/>
      </g>
     </g>
    </g>
    <g id="ytick_3">
     <g id="line2d_9">
      <path clip-path="url(#p69a0c9a88f)" d="M 53.085 224.482365 
L 335.191622 224.482365 
" style="fill:none;stroke:#cccccc;stroke-linecap:round;"/>
     </g>
     <g id="text_10">
      <!-- 10000 -->
      <g style="fill:#262626;" transform="translate(12.999844 228.419162)scale(0.11 -0.11)">
       <use xlink:href="#ArialMT-49"/>
       <use x="55.615234" xlink:href="#ArialMT-48"/>
       <use x="111.230469" xlink:href="#ArialMT-48"/>
       <use x="166.845703" xlink:href="#ArialMT-48"/>
       <use x="222.460938" xlink:href="#ArialMT-48"/>
      </g>
     </g>
    </g>
    <g id="ytick_4">
     <g id="line2d_10">
      <path clip-path="url(#p69a0c9a88f)" d="M 53.085 182.978423 
L 335.191622 182.978423 
" style="fill:none;stroke:#cccccc;stroke-linecap:round;"/>
     </g>
     <g id="text_11">
      <!-- 15000 -->
      <g style="fill:#262626;" transform="translate(12.999844 186.91522)scale(0.11 -0.11)">
       <use xlink:href="#ArialMT-49"/>
       <use x="55.615234" xlink:href="#ArialMT-53"/>
       <use x="111.230469" xlink:href="#ArialMT-48"/>
       <use x="166.845703" xlink:href="#ArialMT-48"/>
       <use x="222.460938" xlink:href="#ArialMT-48"/>
      </g>
     </g>
    </g>
    <g id="ytick_5">
     <g id="line2d_11">
      <path clip-path="url(#p69a0c9a88f)" d="M 53.085 141.474481 
L 335.191622 141.474481 
" style="fill:none;stroke:#cccccc;stroke-linecap:round;"/>
     </g>
     <g id="text_12">
      <!-- 20000 -->
      <g style="fill:#262626;" transform="translate(12.999844 145.411277)scale(0.11 -0.11)">
       <use xlink:href="#ArialMT-50"/>
       <use x="55.615234" xlink:href="#ArialMT-48"/>
       <use x="111.230469" xlink:href="#ArialMT-48"/>
       <use x="166.845703" xlink:href="#ArialMT-48"/>
       <use x="222.460938" xlink:href="#ArialMT-48"/>
      </g>
     </g>
    </g>
    <g id="ytick_6">
     <g id="line2d_12">
      <path clip-path="url(#p69a0c9a88f)" d="M 53.085 99.970538 
L 335.191622 99.970538 
" style="fill:none;stroke:#cccccc;stroke-linecap:round;"/>
     </g>
     <g id="text_13">
      <!-- 25000 -->
      <g style="fill:#262626;" transform="translate(12.999844 103.907335)scale(0.11 -0.11)">
       <use xlink:href="#ArialMT-50"/>
       <use x="55.615234" xlink:href="#ArialMT-53"/>
       <use x="111.230469" xlink:href="#ArialMT-48"/>
       <use x="166.845703" xlink:href="#ArialMT-48"/>
       <use x="222.460938" xlink:href="#ArialMT-48"/>
      </g>
     </g>
    </g>
    <g id="ytick_7">
     <g id="line2d_13">
      <path clip-path="url(#p69a0c9a88f)" d="M 53.085 58.466596 
L 335.191622 58.466596 
" style="fill:none;stroke:#cccccc;stroke-linecap:round;"/>
     </g>
     <g id="text_14">
      <!-- 30000 -->
      <g style="fill:#262626;" transform="translate(12.999844 62.403393)scale(0.11 -0.11)">
       <use xlink:href="#ArialMT-51"/>
       <use x="55.615234" xlink:href="#ArialMT-48"/>
       <use x="111.230469" xlink:href="#ArialMT-48"/>
       <use x="166.845703" xlink:href="#ArialMT-48"/>
       <use x="222.460938" xlink:href="#ArialMT-48"/>
      </g>
     </g>
    </g>
    <g id="ytick_8">
     <g id="line2d_14">
      <path clip-path="url(#p69a0c9a88f)" d="M 53.085 16.962654 
L 335.191622 16.962654 
" style="fill:none;stroke:#cccccc;stroke-linecap:round;"/>
     </g>
     <g id="text_15">
      <!-- 35000 -->
      <g style="fill:#262626;" transform="translate(12.999844 20.89945)scale(0.11 -0.11)">
       <use xlink:href="#ArialMT-51"/>
       <use x="55.615234" xlink:href="#ArialMT-53"/>
       <use x="111.230469" xlink:href="#ArialMT-48"/>
       <use x="166.845703" xlink:href="#ArialMT-48"/>
       <use x="222.460938" xlink:href="#ArialMT-48"/>
      </g>
     </g>
    </g>
    <g id="text_16">
     <!-- followers_count -->
     <g style="fill:#262626;" transform="translate(6.614844 213.482962)rotate(-90)scale(0.12 -0.12)">
      <defs>
       <path d="M 42.09375 16.703125 
L 51.171875 15.578125 
Q 49.03125 7.625 43.21875 3.21875 
Q 37.40625 -1.171875 28.375 -1.171875 
Q 17 -1.171875 10.328125 5.828125 
Q 3.65625 12.84375 3.65625 25.484375 
Q 3.65625 38.578125 10.390625 45.796875 
Q 17.140625 53.03125 27.875 53.03125 
Q 38.28125 53.03125 44.875 45.953125 
Q 51.46875 38.875 51.46875 26.03125 
Q 51.46875 25.25 51.421875 23.6875 
L 12.75 23.6875 
Q 13.234375 15.140625 17.578125 10.59375 
Q 21.921875 6.0625 28.421875 6.0625 
Q 33.25 6.0625 36.671875 8.59375 
Q 40.09375 11.140625 42.09375 16.703125 
z
M 13.234375 30.90625 
L 42.1875 30.90625 
Q 41.609375 37.453125 38.875 40.71875 
Q 34.671875 45.796875 27.984375 45.796875 
Q 21.921875 45.796875 17.796875 41.75 
Q 13.671875 37.703125 13.234375 30.90625 
z
" id="ArialMT-101"/>
       <path d="M 6.5 0 
L 6.5 51.859375 
L 14.40625 51.859375 
L 14.40625 44 
Q 17.4375 49.515625 20 51.265625 
Q 22.5625 53.03125 25.640625 53.03125 
Q 30.078125 53.03125 34.671875 50.203125 
L 31.640625 42.046875 
Q 28.421875 43.953125 25.203125 43.953125 
Q 22.3125 43.953125 20.015625 42.21875 
Q 17.71875 40.484375 16.75 37.40625 
Q 15.28125 32.71875 15.28125 27.15625 
L 15.28125 0 
z
" id="ArialMT-114"/>
       <path d="M 3.078125 15.484375 
L 11.765625 16.84375 
Q 12.5 11.625 15.84375 8.84375 
Q 19.1875 6.0625 25.203125 6.0625 
Q 31.25 6.0625 34.171875 8.515625 
Q 37.109375 10.984375 37.109375 14.3125 
Q 37.109375 17.28125 34.515625 19 
Q 32.71875 20.171875 25.53125 21.96875 
Q 15.875 24.421875 12.140625 26.203125 
Q 8.40625 27.984375 6.46875 31.125 
Q 4.546875 34.28125 4.546875 38.09375 
Q 4.546875 41.546875 6.125 44.5 
Q 7.71875 47.46875 10.453125 49.421875 
Q 12.5 50.921875 16.03125 51.96875 
Q 19.578125 53.03125 23.640625 53.03125 
Q 29.734375 53.03125 34.34375 51.265625 
Q 38.96875 49.515625 41.15625 46.5 
Q 43.359375 43.5 44.1875 38.484375 
L 35.59375 37.3125 
Q 35.015625 41.3125 32.203125 43.546875 
Q 29.390625 45.796875 24.265625 45.796875 
Q 18.21875 45.796875 15.625 43.796875 
Q 13.03125 41.796875 13.03125 39.109375 
Q 13.03125 37.40625 14.109375 36.03125 
Q 15.1875 34.625 17.484375 33.6875 
Q 18.796875 33.203125 25.25 31.453125 
Q 34.578125 28.953125 38.25 27.359375 
Q 41.9375 25.78125 44.03125 22.75 
Q 46.140625 19.734375 46.140625 15.234375 
Q 46.140625 10.84375 43.578125 6.953125 
Q 41.015625 3.078125 36.171875 0.953125 
Q 31.34375 -1.171875 25.25 -1.171875 
Q 15.140625 -1.171875 9.84375 3.03125 
Q 4.546875 7.234375 3.078125 15.484375 
z
" id="ArialMT-115"/>
      </defs>
      <use xlink:href="#ArialMT-102"/>
      <use x="27.783203" xlink:href="#ArialMT-111"/>
      <use x="83.398438" xlink:href="#ArialMT-108"/>
      <use x="105.615234" xlink:href="#ArialMT-108"/>
      <use x="127.832031" xlink:href="#ArialMT-111"/>
      <use x="183.447266" xlink:href="#ArialMT-119"/>
      <use x="255.664062" xlink:href="#ArialMT-101"/>
      <use x="311.279297" xlink:href="#ArialMT-114"/>
      <use x="344.580078" xlink:href="#ArialMT-115"/>
      <use x="394.580078" xlink:href="#ArialMT-95"/>
      <use x="450.195312" xlink:href="#ArialMT-99"/>
      <use x="500.195312" xlink:href="#ArialMT-111"/>
      <use x="555.810547" xlink:href="#ArialMT-117"/>
      <use x="611.425781" xlink:href="#ArialMT-110"/>
      <use x="667.041016" xlink:href="#ArialMT-116"/>
     </g>
    </g>
   </g>
   <g id="PathCollection_1">
    <defs>
     <path d="M 0 3 
C 0.795609 3 1.55874 2.683901 2.12132 2.12132 
C 2.683901 1.55874 3 0.795609 3 0 
C 3 -0.795609 2.683901 -1.55874 2.12132 -2.12132 
C 1.55874 -2.683901 0.795609 -3 0 -3 
C -0.795609 -3 -1.55874 -2.683901 -2.12132 -2.12132 
C -2.683901 -1.55874 -3 -0.795609 -3 0 
C -3 0.795609 -2.683901 1.55874 -2.12132 2.12132 
C -1.55874 2.683901 -0.795609 3 0 3 
z
" id="m1d5dd6965c" style="stroke:#dd8452;stroke-opacity:0.8;"/>
    </defs>
    <g clip-path="url(#p69a0c9a88f)">
     <use style="fill:#dd8452;fill-opacity:0.8;stroke:#dd8452;stroke-opacity:0.8;" x="53.225912" xlink:href="#m1d5dd6965c" y="307.432144"/>
     <use style="fill:#dd8452;fill-opacity:0.8;stroke:#dd8452;stroke-opacity:0.8;" x="60.224562" xlink:href="#m1d5dd6965c" y="307.008804"/>
     <use style="fill:#dd8452;fill-opacity:0.8;stroke:#dd8452;stroke-opacity:0.8;" x="68.585364" xlink:href="#m1d5dd6965c" y="305.348646"/>
     <use style="fill:#dd8452;fill-opacity:0.8;stroke:#dd8452;stroke-opacity:0.8;" x="62.103394" xlink:href="#m1d5dd6965c" y="306.602065"/>
     <use style="fill:#dd8452;fill-opacity:0.8;stroke:#dd8452;stroke-opacity:0.8;" x="59.473029" xlink:href="#m1d5dd6965c" y="306.75978"/>
     <use style="fill:#dd8452;fill-opacity:0.8;stroke:#dd8452;stroke-opacity:0.8;" x="63.935255" xlink:href="#m1d5dd6965c" y="304.75099"/>
     <use style="fill:#dd8452;fill-opacity:0.8;stroke:#dd8452;stroke-opacity:0.8;" x="70.792991" xlink:href="#m1d5dd6965c" y="306.137221"/>
     <use style="fill:#dd8452;fill-opacity:0.8;stroke:#dd8452;stroke-opacity:0.8;" x="90.379815" xlink:href="#m1d5dd6965c" y="306.178725"/>
     <use style="fill:#dd8452;fill-opacity:0.8;stroke:#dd8452;stroke-opacity:0.8;" x="74.879451" xlink:href="#m1d5dd6965c" y="306.211928"/>
     <use style="fill:#dd8452;fill-opacity:0.8;stroke:#dd8452;stroke-opacity:0.8;" x="103.719522" xlink:href="#m1d5dd6965c" y="304.277845"/>
     <use style="fill:#dd8452;fill-opacity:0.8;stroke:#dd8452;stroke-opacity:0.8;" x="86.950946" xlink:href="#m1d5dd6965c" y="305.564467"/>
     <use style="fill:#dd8452;fill-opacity:0.8;stroke:#dd8452;stroke-opacity:0.8;" x="73.470327" xlink:href="#m1d5dd6965c" y="306.884292"/>
     <use style="fill:#dd8452;fill-opacity:0.8;stroke:#dd8452;stroke-opacity:0.8;" x="63.136751" xlink:href="#m1d5dd6965c" y="306.004409"/>
     <use style="fill:#dd8452;fill-opacity:0.8;stroke:#dd8452;stroke-opacity:0.8;" x="78.214378" xlink:href="#m1d5dd6965c" y="305.356947"/>
     <use style="fill:#dd8452;fill-opacity:0.8;stroke:#dd8452;stroke-opacity:0.8;" x="168.163459" xlink:href="#m1d5dd6965c" y="305.763686"/>
     <use style="fill:#dd8452;fill-opacity:0.8;stroke:#dd8452;stroke-opacity:0.8;" x="110.999996" xlink:href="#m1d5dd6965c" y="305.182631"/>
     <use style="fill:#dd8452;fill-opacity:0.8;stroke:#dd8452;stroke-opacity:0.8;" x="104.518025" xlink:href="#m1d5dd6965c" y="303.48927"/>
     <use style="fill:#dd8452;fill-opacity:0.8;stroke:#dd8452;stroke-opacity:0.8;" x="76.241604" xlink:href="#m1d5dd6965c" y="302.725597"/>
     <use style="fill:#dd8452;fill-opacity:0.8;stroke:#dd8452;stroke-opacity:0.8;" x="60.74124" xlink:href="#m1d5dd6965c" y="306.884292"/>
     <use style="fill:#dd8452;fill-opacity:0.8;stroke:#dd8452;stroke-opacity:0.8;" x="134.532366" xlink:href="#m1d5dd6965c" y="302.7505"/>
     <use style="fill:#dd8452;fill-opacity:0.8;stroke:#dd8452;stroke-opacity:0.8;" x="54.212299" xlink:href="#m1d5dd6965c" y="307.324234"/>
     <use style="fill:#dd8452;fill-opacity:0.8;stroke:#dd8452;stroke-opacity:0.8;" x="81.549304" xlink:href="#m1d5dd6965c" y="302.277355"/>
     <use style="fill:#dd8452;fill-opacity:0.8;stroke:#dd8452;stroke-opacity:0.8;" x="64.968612" xlink:href="#m1d5dd6965c" y="305.904799"/>
     <use style="fill:#dd8452;fill-opacity:0.8;stroke:#dd8452;stroke-opacity:0.8;" x="77.556787" xlink:href="#m1d5dd6965c" y="304.402357"/>
     <use style="fill:#dd8452;fill-opacity:0.8;stroke:#dd8452;stroke-opacity:0.8;" x="69.900546" xlink:href="#m1d5dd6965c" y="302.22755"/>
     <use style="fill:#dd8452;fill-opacity:0.8;stroke:#dd8452;stroke-opacity:0.8;" x="102.028573" xlink:href="#m1d5dd6965c" y="288.838378"/>
     <use style="fill:#dd8452;fill-opacity:0.8;stroke:#dd8452;stroke-opacity:0.8;" x="65.203466" xlink:href="#m1d5dd6965c" y="306.602065"/>
     <use style="fill:#dd8452;fill-opacity:0.8;stroke:#dd8452;stroke-opacity:0.8;" x="142.611344" xlink:href="#m1d5dd6965c" y="300.011239"/>
     <use style="fill:#dd8452;fill-opacity:0.8;stroke:#dd8452;stroke-opacity:0.8;" x="131.432294" xlink:href="#m1d5dd6965c" y="293.752445"/>
     <use style="fill:#dd8452;fill-opacity:0.8;stroke:#dd8452;stroke-opacity:0.8;" x="96.57996" xlink:href="#m1d5dd6965c" y="304.070325"/>
     <use style="fill:#dd8452;fill-opacity:0.8;stroke:#dd8452;stroke-opacity:0.8;" x="63.08978" xlink:href="#m1d5dd6965c" y="306.502456"/>
     <use style="fill:#dd8452;fill-opacity:0.8;stroke:#dd8452;stroke-opacity:0.8;" x="245.900132" xlink:href="#m1d5dd6965c" y="202.734299"/>
     <use style="fill:#dd8452;fill-opacity:0.8;stroke:#dd8452;stroke-opacity:0.8;" x="110.483317" xlink:href="#m1d5dd6965c" y="286.397946"/>
     <use style="fill:#dd8452;fill-opacity:0.8;stroke:#dd8452;stroke-opacity:0.8;" x="82.582662" xlink:href="#m1d5dd6965c" y="306.128921"/>
     <use style="fill:#dd8452;fill-opacity:0.8;stroke:#dd8452;stroke-opacity:0.8;" x="121.756309" xlink:href="#m1d5dd6965c" y="297.039557"/>
     <use style="fill:#dd8452;fill-opacity:0.8;stroke:#dd8452;stroke-opacity:0.8;" x="73.188502" xlink:href="#m1d5dd6965c" y="305.9131"/>
     <use style="fill:#dd8452;fill-opacity:0.8;stroke:#dd8452;stroke-opacity:0.8;" x="116.730433" xlink:href="#m1d5dd6965c" y="292.839358"/>
     <use style="fill:#dd8452;fill-opacity:0.8;stroke:#dd8452;stroke-opacity:0.8;" x="59.801824" xlink:href="#m1d5dd6965c" y="301.040537"/>
     <use style="fill:#dd8452;fill-opacity:0.8;stroke:#dd8452;stroke-opacity:0.8;" x="105.927149" xlink:href="#m1d5dd6965c" y="301.546885"/>
     <use style="fill:#dd8452;fill-opacity:0.8;stroke:#dd8452;stroke-opacity:0.8;" x="90.520727" xlink:href="#m1d5dd6965c" y="291.818361"/>
     <use style="fill:#dd8452;fill-opacity:0.8;stroke:#dd8452;stroke-opacity:0.8;" x="96.57996" xlink:href="#m1d5dd6965c" y="290.232911"/>
     <use style="fill:#dd8452;fill-opacity:0.8;stroke:#dd8452;stroke-opacity:0.8;" x="73.04759" xlink:href="#m1d5dd6965c" y="286.464353"/>
     <use style="fill:#dd8452;fill-opacity:0.8;stroke:#dd8452;stroke-opacity:0.8;" x="90.051019" xlink:href="#m1d5dd6965c" y="299.463387"/>
     <use style="fill:#dd8452;fill-opacity:0.8;stroke:#dd8452;stroke-opacity:0.8;" x="102.921018" xlink:href="#m1d5dd6965c" y="281.616692"/>
     <use style="fill:#dd8452;fill-opacity:0.8;stroke:#dd8452;stroke-opacity:0.8;" x="93.573829" xlink:href="#m1d5dd6965c" y="304.003919"/>
     <use style="fill:#dd8452;fill-opacity:0.8;stroke:#dd8452;stroke-opacity:0.8;" x="75.677955" xlink:href="#m1d5dd6965c" y="304.327649"/>
     <use style="fill:#dd8452;fill-opacity:0.8;stroke:#dd8452;stroke-opacity:0.8;" x="69.477809" xlink:href="#m1d5dd6965c" y="305.348646"/>
     <use style="fill:#dd8452;fill-opacity:0.8;stroke:#dd8452;stroke-opacity:0.8;" x="105.927149" xlink:href="#m1d5dd6965c" y="284.165034"/>
     <use style="fill:#dd8452;fill-opacity:0.8;stroke:#dd8452;stroke-opacity:0.8;" x="60.788211" xlink:href="#m1d5dd6965c" y="305.846694"/>
     <use style="fill:#dd8452;fill-opacity:0.8;stroke:#dd8452;stroke-opacity:0.8;" x="95.170836" xlink:href="#m1d5dd6965c" y="299.189461"/>
     <use style="fill:#dd8452;fill-opacity:0.8;stroke:#dd8452;stroke-opacity:0.8;" x="65.814087" xlink:href="#m1d5dd6965c" y="305.589369"/>
     <use style="fill:#dd8452;fill-opacity:0.8;stroke:#dd8452;stroke-opacity:0.8;" x="109.684813" xlink:href="#m1d5dd6965c" y="304.892103"/>
     <use style="fill:#dd8452;fill-opacity:0.8;stroke:#dd8452;stroke-opacity:0.8;" x="110.999996" xlink:href="#m1d5dd6965c" y="289.70166"/>
     <use style="fill:#dd8452;fill-opacity:0.8;stroke:#dd8452;stroke-opacity:0.8;" x="136.599081" xlink:href="#m1d5dd6965c" y="301.538584"/>
     <use style="fill:#dd8452;fill-opacity:0.8;stroke:#dd8452;stroke-opacity:0.8;" x="234.345315" xlink:href="#m1d5dd6965c" y="265.662577"/>
     <use style="fill:#dd8452;fill-opacity:0.8;stroke:#dd8452;stroke-opacity:0.8;" x="94.325362" xlink:href="#m1d5dd6965c" y="277.150868"/>
     <use style="fill:#dd8452;fill-opacity:0.8;stroke:#dd8452;stroke-opacity:0.8;" x="53.085" xlink:href="#m1d5dd6965c" y="307.357437"/>
     <use style="fill:#dd8452;fill-opacity:0.8;stroke:#dd8452;stroke-opacity:0.8;" x="74.409743" xlink:href="#m1d5dd6965c" y="298.268074"/>
     <use style="fill:#dd8452;fill-opacity:0.8;stroke:#dd8452;stroke-opacity:0.8;" x="178.966743" xlink:href="#m1d5dd6965c" y="300.691904"/>
     <use style="fill:#dd8452;fill-opacity:0.8;stroke:#dd8452;stroke-opacity:0.8;" x="89.393428" xlink:href="#m1d5dd6965c" y="301.970225"/>
     <use style="fill:#dd8452;fill-opacity:0.8;stroke:#dd8452;stroke-opacity:0.8;" x="84.602406" xlink:href="#m1d5dd6965c" y="304.775892"/>
     <use style="fill:#dd8452;fill-opacity:0.8;stroke:#dd8452;stroke-opacity:0.8;" x="96.157223" xlink:href="#m1d5dd6965c" y="300.476084"/>
     <use style="fill:#dd8452;fill-opacity:0.8;stroke:#dd8452;stroke-opacity:0.8;" x="140.262804" xlink:href="#m1d5dd6965c" y="271.630844"/>
     <use style="fill:#dd8452;fill-opacity:0.8;stroke:#dd8452;stroke-opacity:0.8;" x="88.3131" xlink:href="#m1d5dd6965c" y="300.625498"/>
     <use style="fill:#dd8452;fill-opacity:0.8;stroke:#dd8452;stroke-opacity:0.8;" x="105.410471" xlink:href="#m1d5dd6965c" y="302.061534"/>
     <use style="fill:#dd8452;fill-opacity:0.8;stroke:#dd8452;stroke-opacity:0.8;" x="59.52" xlink:href="#m1d5dd6965c" y="304.991712"/>
     <use style="fill:#dd8452;fill-opacity:0.8;stroke:#dd8452;stroke-opacity:0.8;" x="90.70861" xlink:href="#m1d5dd6965c" y="286.846189"/>
     <use style="fill:#dd8452;fill-opacity:0.8;stroke:#dd8452;stroke-opacity:0.8;" x="58.909379" xlink:href="#m1d5dd6965c" y="303.439465"/>
     <use style="fill:#dd8452;fill-opacity:0.8;stroke:#dd8452;stroke-opacity:0.8;" x="294.655822" xlink:href="#m1d5dd6965c" y="275.424304"/>
     <use style="fill:#dd8452;fill-opacity:0.8;stroke:#dd8452;stroke-opacity:0.8;" x="99.633062" xlink:href="#m1d5dd6965c" y="293.677738"/>
     <use style="fill:#dd8452;fill-opacity:0.8;stroke:#dd8452;stroke-opacity:0.8;" x="105.598354" xlink:href="#m1d5dd6965c" y="295.653325"/>
     <use style="fill:#dd8452;fill-opacity:0.8;stroke:#dd8452;stroke-opacity:0.8;" x="128.89587" xlink:href="#m1d5dd6965c" y="288.722167"/>
     <use style="fill:#dd8452;fill-opacity:0.8;stroke:#dd8452;stroke-opacity:0.8;" x="80.468976" xlink:href="#m1d5dd6965c" y="304.062024"/>
     <use style="fill:#dd8452;fill-opacity:0.8;stroke:#dd8452;stroke-opacity:0.8;" x="105.786237" xlink:href="#m1d5dd6965c" y="283.774897"/>
     <use style="fill:#dd8452;fill-opacity:0.8;stroke:#dd8452;stroke-opacity:0.8;" x="160.319335" xlink:href="#m1d5dd6965c" y="290.091797"/>
     <use style="fill:#dd8452;fill-opacity:0.8;stroke:#dd8452;stroke-opacity:0.8;" x="125.185177" xlink:href="#m1d5dd6965c" y="290.307618"/>
     <use style="fill:#dd8452;fill-opacity:0.8;stroke:#dd8452;stroke-opacity:0.8;" x="81.831129" xlink:href="#m1d5dd6965c" y="287.352537"/>
     <use style="fill:#dd8452;fill-opacity:0.8;stroke:#dd8452;stroke-opacity:0.8;" x="153.179774" xlink:href="#m1d5dd6965c" y="132.62584"/>
     <use style="fill:#dd8452;fill-opacity:0.8;stroke:#dd8452;stroke-opacity:0.8;" x="148.24784" xlink:href="#m1d5dd6965c" y="285.567867"/>
     <use style="fill:#dd8452;fill-opacity:0.8;stroke:#dd8452;stroke-opacity:0.8;" x="61.023065" xlink:href="#m1d5dd6965c" y="302.933117"/>
     <use style="fill:#dd8452;fill-opacity:0.8;stroke:#dd8452;stroke-opacity:0.8;" x="262.668707" xlink:href="#m1d5dd6965c" y="293.038577"/>
     <use style="fill:#dd8452;fill-opacity:0.8;stroke:#dd8452;stroke-opacity:0.8;" x="114.428864" xlink:href="#m1d5dd6965c" y="301.156748"/>
     <use style="fill:#dd8452;fill-opacity:0.8;stroke:#dd8452;stroke-opacity:0.8;" x="55.104744" xlink:href="#m1d5dd6965c" y="303.016125"/>
     <use style="fill:#dd8452;fill-opacity:0.8;stroke:#dd8452;stroke-opacity:0.8;" x="119.548681" xlink:href="#m1d5dd6965c" y="299.70411"/>
     <use style="fill:#dd8452;fill-opacity:0.8;stroke:#dd8452;stroke-opacity:0.8;" x="79.764414" xlink:href="#m1d5dd6965c" y="302.667492"/>
     <use style="fill:#dd8452;fill-opacity:0.8;stroke:#dd8452;stroke-opacity:0.8;" x="85.40091" xlink:href="#m1d5dd6965c" y="298.259773"/>
     <use style="fill:#dd8452;fill-opacity:0.8;stroke:#dd8452;stroke-opacity:0.8;" x="108.228719" xlink:href="#m1d5dd6965c" y="290.174805"/>
     <use style="fill:#dd8452;fill-opacity:0.8;stroke:#dd8452;stroke-opacity:0.8;" x="101.136128" xlink:href="#m1d5dd6965c" y="290.913575"/>
     <use style="fill:#dd8452;fill-opacity:0.8;stroke:#dd8452;stroke-opacity:0.8;" x="79.52956" xlink:href="#m1d5dd6965c" y="304.377454"/>
     <use style="fill:#dd8452;fill-opacity:0.8;stroke:#dd8452;stroke-opacity:0.8;" x="53.085" xlink:href="#m1d5dd6965c" y="307.398941"/>
     <use style="fill:#dd8452;fill-opacity:0.8;stroke:#dd8452;stroke-opacity:0.8;" x="160.789043" xlink:href="#m1d5dd6965c" y="233.654736"/>
     <use style="fill:#dd8452;fill-opacity:0.8;stroke:#dd8452;stroke-opacity:0.8;" x="74.503685" xlink:href="#m1d5dd6965c" y="303.38966"/>
     <use style="fill:#dd8452;fill-opacity:0.8;stroke:#dd8452;stroke-opacity:0.8;" x="105.880179" xlink:href="#m1d5dd6965c" y="287.609861"/>
     <use style="fill:#dd8452;fill-opacity:0.8;stroke:#dd8452;stroke-opacity:0.8;" x="62.197335" xlink:href="#m1d5dd6965c" y="305.896498"/>
     <use style="fill:#dd8452;fill-opacity:0.8;stroke:#dd8452;stroke-opacity:0.8;" x="87.514596" xlink:href="#m1d5dd6965c" y="293.843754"/>
     <use style="fill:#dd8452;fill-opacity:0.8;stroke:#dd8452;stroke-opacity:0.8;" x="120.300214" xlink:href="#m1d5dd6965c" y="301.837413"/>
     <use style="fill:#dd8452;fill-opacity:0.8;stroke:#dd8452;stroke-opacity:0.8;" x="152.005504" xlink:href="#m1d5dd6965c" y="294.549321"/>
     <use style="fill:#dd8452;fill-opacity:0.8;stroke:#dd8452;stroke-opacity:0.8;" x="273.847758" xlink:href="#m1d5dd6965c" y="282.521478"/>
     <use style="fill:#dd8452;fill-opacity:0.8;stroke:#dd8452;stroke-opacity:0.8;" x="195.406522" xlink:href="#m1d5dd6965c" y="279.184561"/>
     <use style="fill:#dd8452;fill-opacity:0.8;stroke:#dd8452;stroke-opacity:0.8;" x="144.537147" xlink:href="#m1d5dd6965c" y="276.212879"/>
     <use style="fill:#dd8452;fill-opacity:0.8;stroke:#dd8452;stroke-opacity:0.8;" x="192.541304" xlink:href="#m1d5dd6965c" y="242.719197"/>
     <use style="fill:#dd8452;fill-opacity:0.8;stroke:#dd8452;stroke-opacity:0.8;" x="54.635036" xlink:href="#m1d5dd6965c" y="307.191421"/>
     <use style="fill:#dd8452;fill-opacity:0.8;stroke:#dd8452;stroke-opacity:0.8;" x="103.01496" xlink:href="#m1d5dd6965c" y="233.16499"/>
     <use style="fill:#dd8452;fill-opacity:0.8;stroke:#dd8452;stroke-opacity:0.8;" x="194.608019" xlink:href="#m1d5dd6965c" y="264.143532"/>
     <use style="fill:#dd8452;fill-opacity:0.8;stroke:#dd8452;stroke-opacity:0.8;" x="90.238902" xlink:href="#m1d5dd6965c" y="301.248057"/>
     <use style="fill:#dd8452;fill-opacity:0.8;stroke:#dd8452;stroke-opacity:0.8;" x="95.593574" xlink:href="#m1d5dd6965c" y="283.243647"/>
     <use style="fill:#dd8452;fill-opacity:0.8;stroke:#dd8452;stroke-opacity:0.8;" x="69.149013" xlink:href="#m1d5dd6965c" y="303.323254"/>
     <use style="fill:#dd8452;fill-opacity:0.8;stroke:#dd8452;stroke-opacity:0.8;" x="80.09321" xlink:href="#m1d5dd6965c" y="291.992678"/>
     <use style="fill:#dd8452;fill-opacity:0.8;stroke:#dd8452;stroke-opacity:0.8;" x="142.705285" xlink:href="#m1d5dd6965c" y="272.759751"/>
     <use style="fill:#dd8452;fill-opacity:0.8;stroke:#dd8452;stroke-opacity:0.8;" x="71.30967" xlink:href="#m1d5dd6965c" y="305.38185"/>
     <use style="fill:#dd8452;fill-opacity:0.8;stroke:#dd8452;stroke-opacity:0.8;" x="113.066711" xlink:href="#m1d5dd6965c" y="170.593646"/>
     <use style="fill:#dd8452;fill-opacity:0.8;stroke:#dd8452;stroke-opacity:0.8;" x="105.927149" xlink:href="#m1d5dd6965c" y="300.01954"/>
     <use style="fill:#dd8452;fill-opacity:0.8;stroke:#dd8452;stroke-opacity:0.8;" x="88.125216" xlink:href="#m1d5dd6965c" y="282.836908"/>
     <use style="fill:#dd8452;fill-opacity:0.8;stroke:#dd8452;stroke-opacity:0.8;" x="102.216456" xlink:href="#m1d5dd6965c" y="272.477524"/>
     <use style="fill:#dd8452;fill-opacity:0.8;stroke:#dd8452;stroke-opacity:0.8;" x="94.654158" xlink:href="#m1d5dd6965c" y="299.853524"/>
     <use style="fill:#dd8452;fill-opacity:0.8;stroke:#dd8452;stroke-opacity:0.8;" x="122.601783" xlink:href="#m1d5dd6965c" y="286.887693"/>
     <use style="fill:#dd8452;fill-opacity:0.8;stroke:#dd8452;stroke-opacity:0.8;" x="71.121787" xlink:href="#m1d5dd6965c" y="289.120605"/>
     <use style="fill:#dd8452;fill-opacity:0.8;stroke:#dd8452;stroke-opacity:0.8;" x="57.453284" xlink:href="#m1d5dd6965c" y="305.099623"/>
     <use style="fill:#dd8452;fill-opacity:0.8;stroke:#dd8452;stroke-opacity:0.8;" x="95.546603" xlink:href="#m1d5dd6965c" y="292.75635"/>
     <use style="fill:#dd8452;fill-opacity:0.8;stroke:#dd8452;stroke-opacity:0.8;" x="101.699777" xlink:href="#m1d5dd6965c" y="137.481801"/>
     <use style="fill:#dd8452;fill-opacity:0.8;stroke:#dd8452;stroke-opacity:0.8;" x="138.337001" xlink:href="#m1d5dd6965c" y="282.197747"/>
     <use style="fill:#dd8452;fill-opacity:0.8;stroke:#dd8452;stroke-opacity:0.8;" x="65.720145" xlink:href="#m1d5dd6965c" y="306.75978"/>
     <use style="fill:#dd8452;fill-opacity:0.8;stroke:#dd8452;stroke-opacity:0.8;" x="82.253866" xlink:href="#m1d5dd6965c" y="295.736333"/>
     <use style="fill:#dd8452;fill-opacity:0.8;stroke:#dd8452;stroke-opacity:0.8;" x="73.799123" xlink:href="#m1d5dd6965c" y="304.8589"/>
     <use style="fill:#dd8452;fill-opacity:0.8;stroke:#dd8452;stroke-opacity:0.8;" x="64.874671" xlink:href="#m1d5dd6965c" y="291.062989"/>
     <use style="fill:#dd8452;fill-opacity:0.8;stroke:#dd8452;stroke-opacity:0.8;" x="153.085832" xlink:href="#m1d5dd6965c" y="222.789004"/>
     <use style="fill:#dd8452;fill-opacity:0.8;stroke:#dd8452;stroke-opacity:0.8;" x="97.190581" xlink:href="#m1d5dd6965c" y="295.48731"/>
     <use style="fill:#dd8452;fill-opacity:0.8;stroke:#dd8452;stroke-opacity:0.8;" x="104.79985" xlink:href="#m1d5dd6965c" y="303.945813"/>
     <use style="fill:#dd8452;fill-opacity:0.8;stroke:#dd8452;stroke-opacity:0.8;" x="104.283171" xlink:href="#m1d5dd6965c" y="295.404302"/>
     <use style="fill:#dd8452;fill-opacity:0.8;stroke:#dd8452;stroke-opacity:0.8;" x="93.385946" xlink:href="#m1d5dd6965c" y="301.903819"/>
     <use style="fill:#dd8452;fill-opacity:0.8;stroke:#dd8452;stroke-opacity:0.8;" x="137.961235" xlink:href="#m1d5dd6965c" y="214.347102"/>
     <use style="fill:#dd8452;fill-opacity:0.8;stroke:#dd8452;stroke-opacity:0.8;" x="98.036055" xlink:href="#m1d5dd6965c" y="296.96485"/>
     <use style="fill:#dd8452;fill-opacity:0.8;stroke:#dd8452;stroke-opacity:0.8;" x="85.729706" xlink:href="#m1d5dd6965c" y="301.015635"/>
     <use style="fill:#dd8452;fill-opacity:0.8;stroke:#dd8452;stroke-opacity:0.8;" x="87.044888" xlink:href="#m1d5dd6965c" y="300.368173"/>
     <use style="fill:#dd8452;fill-opacity:0.8;stroke:#dd8452;stroke-opacity:0.8;" x="96.251165" xlink:href="#m1d5dd6965c" y="301.878917"/>
     <use style="fill:#dd8452;fill-opacity:0.8;stroke:#dd8452;stroke-opacity:0.8;" x="72.859707" xlink:href="#m1d5dd6965c" y="305.539565"/>
     <use style="fill:#dd8452;fill-opacity:0.8;stroke:#dd8452;stroke-opacity:0.8;" x="172.719626" xlink:href="#m1d5dd6965c" y="79.260071"/>
     <use style="fill:#dd8452;fill-opacity:0.8;stroke:#dd8452;stroke-opacity:0.8;" x="55.527482" xlink:href="#m1d5dd6965c" y="307.274429"/>
     <use style="fill:#dd8452;fill-opacity:0.8;stroke:#dd8452;stroke-opacity:0.8;" x="73.376385" xlink:href="#m1d5dd6965c" y="293.81055"/>
     <use style="fill:#dd8452;fill-opacity:0.8;stroke:#dd8452;stroke-opacity:0.8;" x="58.016934" xlink:href="#m1d5dd6965c" y="306.419448"/>
     <use style="fill:#dd8452;fill-opacity:0.8;stroke:#dd8452;stroke-opacity:0.8;" x="141.953753" xlink:href="#m1d5dd6965c" y="265.787089"/>
     <use style="fill:#dd8452;fill-opacity:0.8;stroke:#dd8452;stroke-opacity:0.8;" x="136.082403" xlink:href="#m1d5dd6965c" y="287.825682"/>
     <use style="fill:#dd8452;fill-opacity:0.8;stroke:#dd8452;stroke-opacity:0.8;" x="82.676604" xlink:href="#m1d5dd6965c" y="295.736333"/>
     <use style="fill:#dd8452;fill-opacity:0.8;stroke:#dd8452;stroke-opacity:0.8;" x="241.156081" xlink:href="#m1d5dd6965c" y="226.184027"/>
     <use style="fill:#dd8452;fill-opacity:0.8;stroke:#dd8452;stroke-opacity:0.8;" x="100.290653" xlink:href="#m1d5dd6965c" y="105.67318"/>
     <use style="fill:#dd8452;fill-opacity:0.8;stroke:#dd8452;stroke-opacity:0.8;" x="100.008829" xlink:href="#m1d5dd6965c" y="304.327649"/>
     <use style="fill:#dd8452;fill-opacity:0.8;stroke:#dd8452;stroke-opacity:0.8;" x="64.217079" xlink:href="#m1d5dd6965c" y="305.589369"/>
     <use style="fill:#dd8452;fill-opacity:0.8;stroke:#dd8452;stroke-opacity:0.8;" x="138.149118" xlink:href="#m1d5dd6965c" y="299.504891"/>
     <use style="fill:#dd8452;fill-opacity:0.8;stroke:#dd8452;stroke-opacity:0.8;" x="73.611239" xlink:href="#m1d5dd6965c" y="283.633784"/>
     <use style="fill:#dd8452;fill-opacity:0.8;stroke:#dd8452;stroke-opacity:0.8;" x="82.019012" xlink:href="#m1d5dd6965c" y="302.252452"/>
     <use style="fill:#dd8452;fill-opacity:0.8;stroke:#dd8452;stroke-opacity:0.8;" x="120.863864" xlink:href="#m1d5dd6965c" y="298.915535"/>
     <use style="fill:#dd8452;fill-opacity:0.8;stroke:#dd8452;stroke-opacity:0.8;" x="67.17624" xlink:href="#m1d5dd6965c" y="295.902349"/>
     <use style="fill:#dd8452;fill-opacity:0.8;stroke:#dd8452;stroke-opacity:0.8;" x="78.871969" xlink:href="#m1d5dd6965c" y="297.653815"/>
     <use style="fill:#dd8452;fill-opacity:0.8;stroke:#dd8452;stroke-opacity:0.8;" x="73.423356" xlink:href="#m1d5dd6965c" y="286.721677"/>
     <use style="fill:#dd8452;fill-opacity:0.8;stroke:#dd8452;stroke-opacity:0.8;" x="110.718171" xlink:href="#m1d5dd6965c" y="296.85694"/>
     <use style="fill:#dd8452;fill-opacity:0.8;stroke:#dd8452;stroke-opacity:0.8;" x="68.820218" xlink:href="#m1d5dd6965c" y="225.05512"/>
     <use style="fill:#dd8452;fill-opacity:0.8;stroke:#dd8452;stroke-opacity:0.8;" x="90.004048" xlink:href="#m1d5dd6965c" y="295.49561"/>
     <use style="fill:#dd8452;fill-opacity:0.8;stroke:#dd8452;stroke-opacity:0.8;" x="127.580688" xlink:href="#m1d5dd6965c" y="141.15075"/>
     <use style="fill:#dd8452;fill-opacity:0.8;stroke:#dd8452;stroke-opacity:0.8;" x="130.539848" xlink:href="#m1d5dd6965c" y="94.965163"/>
     <use style="fill:#dd8452;fill-opacity:0.8;stroke:#dd8452;stroke-opacity:0.8;" x="95.734486" xlink:href="#m1d5dd6965c" y="289.834473"/>
     <use style="fill:#dd8452;fill-opacity:0.8;stroke:#dd8452;stroke-opacity:0.8;" x="86.763063" xlink:href="#m1d5dd6965c" y="283.409662"/>
     <use style="fill:#dd8452;fill-opacity:0.8;stroke:#dd8452;stroke-opacity:0.8;" x="68.491422" xlink:href="#m1d5dd6965c" y="299.928232"/>
     <use style="fill:#dd8452;fill-opacity:0.8;stroke:#dd8452;stroke-opacity:0.8;" x="90.191932" xlink:href="#m1d5dd6965c" y="297.645515"/>
     <use style="fill:#dd8452;fill-opacity:0.8;stroke:#dd8452;stroke-opacity:0.8;" x="54.963832" xlink:href="#m1d5dd6965c" y="306.784683"/>
     <use style="fill:#dd8452;fill-opacity:0.8;stroke:#dd8452;stroke-opacity:0.8;" x="68.914159" xlink:href="#m1d5dd6965c" y="301.505381"/>
     <use style="fill:#dd8452;fill-opacity:0.8;stroke:#dd8452;stroke-opacity:0.8;" x="116.025871" xlink:href="#m1d5dd6965c" y="275.16698"/>
     <use style="fill:#dd8452;fill-opacity:0.8;stroke:#dd8452;stroke-opacity:0.8;" x="199.680865" xlink:href="#m1d5dd6965c" y="281.782708"/>
     <use style="fill:#dd8452;fill-opacity:0.8;stroke:#dd8452;stroke-opacity:0.8;" x="91.88288" xlink:href="#m1d5dd6965c" y="288.058104"/>
     <use style="fill:#dd8452;fill-opacity:0.8;stroke:#dd8452;stroke-opacity:0.8;" x="60.083649" xlink:href="#m1d5dd6965c" y="302.161144"/>
     <use style="fill:#dd8452;fill-opacity:0.8;stroke:#dd8452;stroke-opacity:0.8;" x="64.921641" xlink:href="#m1d5dd6965c" y="298.815926"/>
     <use style="fill:#dd8452;fill-opacity:0.8;stroke:#dd8452;stroke-opacity:0.8;" x="87.608538" xlink:href="#m1d5dd6965c" y="298.11866"/>
     <use style="fill:#dd8452;fill-opacity:0.8;stroke:#dd8452;stroke-opacity:0.8;" x="89.53434" xlink:href="#m1d5dd6965c" y="298.724617"/>
     <use style="fill:#dd8452;fill-opacity:0.8;stroke:#dd8452;stroke-opacity:0.8;" x="63.606459" xlink:href="#m1d5dd6965c" y="301.148447"/>
     <use style="fill:#dd8452;fill-opacity:0.8;stroke:#dd8452;stroke-opacity:0.8;" x="78.637115" xlink:href="#m1d5dd6965c" y="306.693374"/>
     <use style="fill:#dd8452;fill-opacity:0.8;stroke:#dd8452;stroke-opacity:0.8;" x="126.077622" xlink:href="#m1d5dd6965c" y="290.988282"/>
     <use style="fill:#dd8452;fill-opacity:0.8;stroke:#dd8452;stroke-opacity:0.8;" x="143.973497" xlink:href="#m1d5dd6965c" y="272.469223"/>
     <use style="fill:#dd8452;fill-opacity:0.8;stroke:#dd8452;stroke-opacity:0.8;" x="57.500255" xlink:href="#m1d5dd6965c" y="306.419448"/>
     <use style="fill:#dd8452;fill-opacity:0.8;stroke:#dd8452;stroke-opacity:0.8;" x="80.046239" xlink:href="#m1d5dd6965c" y="262.840309"/>
     <use style="fill:#dd8452;fill-opacity:0.8;stroke:#dd8452;stroke-opacity:0.8;" x="90.66164" xlink:href="#m1d5dd6965c" y="289.552246"/>
     <use style="fill:#dd8452;fill-opacity:0.8;stroke:#dd8452;stroke-opacity:0.8;" x="66.236824" xlink:href="#m1d5dd6965c" y="303.472668"/>
     <use style="fill:#dd8452;fill-opacity:0.8;stroke:#dd8452;stroke-opacity:0.8;" x="72.577882" xlink:href="#m1d5dd6965c" y="305.821791"/>
     <use style="fill:#dd8452;fill-opacity:0.8;stroke:#dd8452;stroke-opacity:0.8;" x="61.398832" xlink:href="#m1d5dd6965c" y="304.178235"/>
     <use style="fill:#dd8452;fill-opacity:0.8;stroke:#dd8452;stroke-opacity:0.8;" x="103.578609" xlink:href="#m1d5dd6965c" y="304.75929"/>
     <use style="fill:#dd8452;fill-opacity:0.8;stroke:#dd8452;stroke-opacity:0.8;" x="335.191622" xlink:href="#m1d5dd6965c" y="211.035088"/>
     <use style="fill:#dd8452;fill-opacity:0.8;stroke:#dd8452;stroke-opacity:0.8;" x="287.140494" xlink:href="#m1d5dd6965c" y="283.036127"/>
     <use style="fill:#dd8452;fill-opacity:0.8;stroke:#dd8452;stroke-opacity:0.8;" x="132.230797" xlink:href="#m1d5dd6965c" y="295.304692"/>
     <use style="fill:#dd8452;fill-opacity:0.8;stroke:#dd8452;stroke-opacity:0.8;" x="57.21843" xlink:href="#m1d5dd6965c" y="306.817886"/>
     <use style="fill:#dd8452;fill-opacity:0.8;stroke:#dd8452;stroke-opacity:0.8;" x="236.36506" xlink:href="#m1d5dd6965c" y="192.10929"/>
    </g>
   </g>
   <g id="PolyCollection_1">
    <defs>
     <path d="M 53.085 -57.346135 
L 53.085 -50.849399 
L 55.934562 -51.846928 
L 58.784124 -52.772254 
L 61.633686 -53.716629 
L 64.483247 -54.633258 
L 67.332809 -55.547142 
L 70.182371 -56.438551 
L 73.031933 -57.27951 
L 75.881495 -58.076999 
L 78.731057 -58.791867 
L 81.580618 -59.482291 
L 84.43018 -60.102468 
L 87.279742 -60.690888 
L 90.129304 -61.176115 
L 92.978866 -61.669142 
L 95.828428 -62.102266 
L 98.677989 -62.538738 
L 101.527551 -62.957606 
L 104.377113 -63.421499 
L 107.226675 -63.862833 
L 110.076237 -64.232635 
L 112.925799 -64.68425 
L 115.77536 -65.147676 
L 118.624922 -65.613428 
L 121.474484 -66.046132 
L 124.324046 -66.413268 
L 127.173608 -66.847261 
L 130.02317 -67.272136 
L 132.872731 -67.682503 
L 135.722293 -68.089783 
L 138.571855 -68.49818 
L 141.421417 -68.905835 
L 144.270979 -69.313748 
L 147.120541 -69.720487 
L 149.970102 -70.126069 
L 152.819664 -70.521869 
L 155.669226 -70.909792 
L 158.518788 -71.298759 
L 161.36835 -71.703555 
L 164.217912 -72.09693 
L 167.067473 -72.480228 
L 169.917035 -72.884557 
L 172.766597 -73.277764 
L 175.616159 -73.67097 
L 178.465721 -74.064389 
L 181.315283 -74.458304 
L 184.164844 -74.852218 
L 187.014406 -75.251814 
L 189.863968 -75.639309 
L 192.71353 -76.03231 
L 195.563092 -76.425312 
L 198.412654 -76.800916 
L 201.262215 -77.153599 
L 204.111777 -77.506281 
L 206.961339 -77.879192 
L 209.810901 -78.253828 
L 212.660463 -78.654811 
L 215.510025 -79.071495 
L 218.359586 -79.488178 
L 221.209148 -79.904861 
L 224.05871 -80.321544 
L 226.908272 -80.738228 
L 229.757834 -81.14591 
L 232.607396 -81.539607 
L 235.456957 -81.933304 
L 238.306519 -82.327002 
L 241.156081 -82.720699 
L 244.005643 -83.114396 
L 246.855205 -83.508093 
L 249.704767 -83.901791 
L 252.554328 -84.29553 
L 255.40389 -84.689304 
L 258.253452 -85.088216 
L 261.103014 -85.493396 
L 263.952576 -85.898637 
L 266.802138 -86.303879 
L 269.651699 -86.70912 
L 272.501261 -87.114361 
L 275.350823 -87.519603 
L 278.200385 -87.924844 
L 281.049947 -88.330085 
L 283.899509 -88.735327 
L 286.749071 -89.140568 
L 289.598632 -89.545809 
L 292.448194 -89.951051 
L 295.297756 -90.356292 
L 298.147318 -90.761533 
L 300.99688 -91.166775 
L 303.846442 -91.566692 
L 306.696003 -91.958121 
L 309.545565 -92.363816 
L 312.395127 -92.785789 
L 315.244689 -93.193115 
L 318.094251 -93.598223 
L 320.943813 -94.003464 
L 323.793374 -94.408706 
L 326.642936 -94.813947 
L 329.492498 -95.219188 
L 332.34206 -95.62443 
L 335.191622 -96.018228 
L 335.191622 -147.743772 
L 335.191622 -147.743772 
L 332.34206 -146.768214 
L 329.492498 -145.792657 
L 326.642936 -144.817099 
L 323.793374 -143.841541 
L 320.943813 -142.865983 
L 318.094251 -141.890425 
L 315.244689 -140.914867 
L 312.395127 -139.939309 
L 309.545565 -138.963751 
L 306.696003 -137.988193 
L 303.846442 -137.010431 
L 300.99688 -136.027013 
L 298.147318 -135.043596 
L 295.297756 -134.060178 
L 292.448194 -133.07676 
L 289.598632 -132.093342 
L 286.749071 -131.109924 
L 283.899509 -130.126506 
L 281.049947 -129.143089 
L 278.200385 -128.159671 
L 275.350823 -127.176253 
L 272.501261 -126.192835 
L 269.651699 -125.209417 
L 266.802138 -124.225999 
L 263.952576 -123.242582 
L 261.103014 -122.259164 
L 258.253452 -121.275746 
L 255.40389 -120.292328 
L 252.554328 -119.30891 
L 249.704767 -118.325492 
L 246.855205 -117.342075 
L 244.005643 -116.358657 
L 241.156081 -115.375239 
L 238.306519 -114.391821 
L 235.456957 -113.408403 
L 232.607396 -112.424985 
L 229.757834 -111.441568 
L 226.908272 -110.45815 
L 224.05871 -109.474732 
L 221.209148 -108.491314 
L 218.359586 -107.507896 
L 215.510025 -106.524478 
L 212.660463 -105.572553 
L 209.810901 -104.620948 
L 206.961339 -103.669343 
L 204.111777 -102.717738 
L 201.262215 -101.766133 
L 198.412654 -100.814529 
L 195.563092 -99.862924 
L 192.71353 -98.911319 
L 189.863968 -97.959714 
L 187.014406 -97.008109 
L 184.164844 -96.048166 
L 181.315283 -95.073424 
L 178.465721 -94.098682 
L 175.616159 -93.123939 
L 172.766597 -92.149197 
L 169.917035 -91.181193 
L 167.067473 -90.224453 
L 164.217912 -89.267713 
L 161.36835 -88.310972 
L 158.518788 -87.354232 
L 155.669226 -86.397492 
L 152.819664 -85.440751 
L 149.970102 -84.483268 
L 147.120541 -83.52539 
L 144.270979 -82.567512 
L 141.421417 -81.609633 
L 138.571855 -80.62958 
L 135.722293 -79.659192 
L 132.872731 -78.660634 
L 130.02317 -77.660059 
L 127.173608 -76.658936 
L 124.324046 -75.70428 
L 121.474484 -74.759568 
L 118.624922 -73.804209 
L 115.77536 -72.874019 
L 112.925799 -71.858834 
L 110.076237 -70.928386 
L 107.226675 -70.009736 
L 104.377113 -69.073614 
L 101.527551 -68.079354 
L 98.677989 -67.122117 
L 95.828428 -66.226457 
L 92.978866 -65.334979 
L 90.129304 -64.461714 
L 87.279742 -63.619793 
L 84.43018 -62.889027 
L 81.580618 -62.15927 
L 78.731057 -61.561599 
L 75.881495 -61.025453 
L 73.031933 -60.460878 
L 70.182371 -59.909379 
L 67.332809 -59.463836 
L 64.483247 -58.999877 
L 61.633686 -58.588557 
L 58.784124 -58.171029 
L 55.934562 -57.786275 
L 53.085 -57.346135 
z
" id="m10cbcad6e4" style="stroke:#ffffff;stroke-opacity:0.15;"/>
    </defs>
    <g clip-path="url(#p69a0c9a88f)">
     <use style="fill:#dd8452;fill-opacity:0.15;stroke:#ffffff;stroke-opacity:0.15;" x="0" xlink:href="#m10cbcad6e4" y="360"/>
    </g>
   </g>
   <g id="PathCollection_2">
    <defs>
     <path d="M 0 3 
C 0.795609 3 1.55874 2.683901 2.12132 2.12132 
C 2.683901 1.55874 3 0.795609 3 0 
C 3 -0.795609 2.683901 -1.55874 2.12132 -2.12132 
C 1.55874 -2.683901 0.795609 -3 0 -3 
C -0.795609 -3 -1.55874 -2.683901 -2.12132 -2.12132 
C -2.683901 -1.55874 -3 -0.795609 -3 0 
C -3 0.795609 -2.683901 1.55874 -2.12132 2.12132 
C -1.55874 2.683901 -0.795609 3 0 3 
z
" id="mbd15321bce" style="stroke:#4c72b0;stroke-opacity:0.8;"/>
    </defs>
    <g clip-path="url(#p69a0c9a88f)">
     <use style="fill:#4c72b0;fill-opacity:0.8;stroke:#4c72b0;stroke-opacity:0.8;" x="56.889635" xlink:href="#mbd15321bce" y="307.208023"/>
     <use style="fill:#4c72b0;fill-opacity:0.8;stroke:#4c72b0;stroke-opacity:0.8;" x="54.86989" xlink:href="#mbd15321bce" y="307.000503"/>
     <use style="fill:#4c72b0;fill-opacity:0.8;stroke:#4c72b0;stroke-opacity:0.8;" x="87.091859" xlink:href="#mbd15321bce" y="306.054213"/>
     <use style="fill:#4c72b0;fill-opacity:0.8;stroke:#4c72b0;stroke-opacity:0.8;" x="59.754854" xlink:href="#mbd15321bce" y="306.635269"/>
     <use style="fill:#4c72b0;fill-opacity:0.8;stroke:#4c72b0;stroke-opacity:0.8;" x="79.858356" xlink:href="#mbd15321bce" y="301.654796"/>
     <use style="fill:#4c72b0;fill-opacity:0.8;stroke:#4c72b0;stroke-opacity:0.8;" x="57.265401" xlink:href="#mbd15321bce" y="305.522963"/>
     <use style="fill:#4c72b0;fill-opacity:0.8;stroke:#4c72b0;stroke-opacity:0.8;" x="87.514596" xlink:href="#mbd15321bce" y="296.773932"/>
     <use style="fill:#4c72b0;fill-opacity:0.8;stroke:#4c72b0;stroke-opacity:0.8;" x="82.300837" xlink:href="#mbd15321bce" y="296.906745"/>
     <use style="fill:#4c72b0;fill-opacity:0.8;stroke:#4c72b0;stroke-opacity:0.8;" x="83.850874" xlink:href="#mbd15321bce" y="306.369643"/>
     <use style="fill:#4c72b0;fill-opacity:0.8;stroke:#4c72b0;stroke-opacity:0.8;" x="71.87332" xlink:href="#mbd15321bce" y="306.344741"/>
     <use style="fill:#4c72b0;fill-opacity:0.8;stroke:#4c72b0;stroke-opacity:0.8;" x="69.712663" xlink:href="#mbd15321bce" y="304.634779"/>
     <use style="fill:#4c72b0;fill-opacity:0.8;stroke:#4c72b0;stroke-opacity:0.8;" x="144.020468" xlink:href="#mbd15321bce" y="242.453572"/>
     <use style="fill:#4c72b0;fill-opacity:0.8;stroke:#4c72b0;stroke-opacity:0.8;" x="57.453284" xlink:href="#mbd15321bce" y="306.801284"/>
     <use style="fill:#4c72b0;fill-opacity:0.8;stroke:#4c72b0;stroke-opacity:0.8;" x="70.746021" xlink:href="#mbd15321bce" y="305.06642"/>
     <use style="fill:#4c72b0;fill-opacity:0.8;stroke:#4c72b0;stroke-opacity:0.8;" x="130.586819" xlink:href="#mbd15321bce" y="286.871091"/>
     <use style="fill:#4c72b0;fill-opacity:0.8;stroke:#4c72b0;stroke-opacity:0.8;" x="93.526858" xlink:href="#mbd15321bce" y="306.070815"/>
     <use style="fill:#4c72b0;fill-opacity:0.8;stroke:#4c72b0;stroke-opacity:0.8;" x="74.785509" xlink:href="#mbd15321bce" y="306.585464"/>
     <use style="fill:#4c72b0;fill-opacity:0.8;stroke:#4c72b0;stroke-opacity:0.8;" x="96.016311" xlink:href="#mbd15321bce" y="301.59669"/>
     <use style="fill:#4c72b0;fill-opacity:0.8;stroke:#4c72b0;stroke-opacity:0.8;" x="124.903352" xlink:href="#mbd15321bce" y="273.639634"/>
     <use style="fill:#4c72b0;fill-opacity:0.8;stroke:#4c72b0;stroke-opacity:0.8;" x="170.699882" xlink:href="#mbd15321bce" y="284.472163"/>
     <use style="fill:#4c72b0;fill-opacity:0.8;stroke:#4c72b0;stroke-opacity:0.8;" x="61.539744" xlink:href="#mbd15321bce" y="303.904309"/>
     <use style="fill:#4c72b0;fill-opacity:0.8;stroke:#4c72b0;stroke-opacity:0.8;" x="99.867916" xlink:href="#mbd15321bce" y="280.53759"/>
     <use style="fill:#4c72b0;fill-opacity:0.8;stroke:#4c72b0;stroke-opacity:0.8;" x="93.667771" xlink:href="#mbd15321bce" y="301.248057"/>
     <use style="fill:#4c72b0;fill-opacity:0.8;stroke:#4c72b0;stroke-opacity:0.8;" x="57.969963" xlink:href="#mbd15321bce" y="306.137221"/>
     <use style="fill:#4c72b0;fill-opacity:0.8;stroke:#4c72b0;stroke-opacity:0.8;" x="63.65343" xlink:href="#mbd15321bce" y="303.8047"/>
     <use style="fill:#4c72b0;fill-opacity:0.8;stroke:#4c72b0;stroke-opacity:0.8;" x="90.09799" xlink:href="#mbd15321bce" y="281.541985"/>
     <use style="fill:#4c72b0;fill-opacity:0.8;stroke:#4c72b0;stroke-opacity:0.8;" x="58.815438" xlink:href="#mbd15321bce" y="305.581068"/>
     <use style="fill:#4c72b0;fill-opacity:0.8;stroke:#4c72b0;stroke-opacity:0.8;" x="166.519481" xlink:href="#mbd15321bce" y="289.685059"/>
     <use style="fill:#4c72b0;fill-opacity:0.8;stroke:#4c72b0;stroke-opacity:0.8;" x="226.313309" xlink:href="#mbd15321bce" y="288.166014"/>
     <use style="fill:#4c72b0;fill-opacity:0.8;stroke:#4c72b0;stroke-opacity:0.8;" x="136.035432" xlink:href="#mbd15321bce" y="255.875947"/>
     <use style="fill:#4c72b0;fill-opacity:0.8;stroke:#4c72b0;stroke-opacity:0.8;" x="86.01153" xlink:href="#mbd15321bce" y="295.786138"/>
     <use style="fill:#4c72b0;fill-opacity:0.8;stroke:#4c72b0;stroke-opacity:0.8;" x="187.374516" xlink:href="#mbd15321bce" y="305.39015"/>
     <use style="fill:#4c72b0;fill-opacity:0.8;stroke:#4c72b0;stroke-opacity:0.8;" x="55.386569" xlink:href="#mbd15321bce" y="307.266129"/>
     <use style="fill:#4c72b0;fill-opacity:0.8;stroke:#4c72b0;stroke-opacity:0.8;" x="164.875503" xlink:href="#mbd15321bce" y="272.411118"/>
     <use style="fill:#4c72b0;fill-opacity:0.8;stroke:#4c72b0;stroke-opacity:0.8;" x="57.688138" xlink:href="#mbd15321bce" y="307.241226"/>
     <use style="fill:#4c72b0;fill-opacity:0.8;stroke:#4c72b0;stroke-opacity:0.8;" x="91.225289" xlink:href="#mbd15321bce" y="250.198208"/>
     <use style="fill:#4c72b0;fill-opacity:0.8;stroke:#4c72b0;stroke-opacity:0.8;" x="73.188502" xlink:href="#mbd15321bce" y="304.767591"/>
     <use style="fill:#4c72b0;fill-opacity:0.8;stroke:#4c72b0;stroke-opacity:0.8;" x="59.144233" xlink:href="#mbd15321bce" y="306.75148"/>
     <use style="fill:#4c72b0;fill-opacity:0.8;stroke:#4c72b0;stroke-opacity:0.8;" x="55.950219" xlink:href="#mbd15321bce" y="307.291031"/>
     <use style="fill:#4c72b0;fill-opacity:0.8;stroke:#4c72b0;stroke-opacity:0.8;" x="128.567075" xlink:href="#mbd15321bce" y="244.470664"/>
     <use style="fill:#4c72b0;fill-opacity:0.8;stroke:#4c72b0;stroke-opacity:0.8;" x="134.109629" xlink:href="#mbd15321bce" y="160.192759"/>
     <use style="fill:#4c72b0;fill-opacity:0.8;stroke:#4c72b0;stroke-opacity:0.8;" x="80.750801" xlink:href="#mbd15321bce" y="226.283636"/>
     <use style="fill:#4c72b0;fill-opacity:0.8;stroke:#4c72b0;stroke-opacity:0.8;" x="80.750801" xlink:href="#mbd15321bce" y="68.30303"/>
     <use style="fill:#4c72b0;fill-opacity:0.8;stroke:#4c72b0;stroke-opacity:0.8;" x="91.601056" xlink:href="#mbd15321bce" y="305.605971"/>
     <use style="fill:#4c72b0;fill-opacity:0.8;stroke:#4c72b0;stroke-opacity:0.8;" x="66.565619" xlink:href="#mbd15321bce" y="304.327649"/>
     <use style="fill:#4c72b0;fill-opacity:0.8;stroke:#4c72b0;stroke-opacity:0.8;" x="88.125216" xlink:href="#mbd15321bce" y="291.644045"/>
     <use style="fill:#4c72b0;fill-opacity:0.8;stroke:#4c72b0;stroke-opacity:0.8;" x="75.302188" xlink:href="#mbd15321bce" y="304.809095"/>
     <use style="fill:#4c72b0;fill-opacity:0.8;stroke:#4c72b0;stroke-opacity:0.8;" x="107.759011" xlink:href="#mbd15321bce" y="299.214364"/>
     <use style="fill:#4c72b0;fill-opacity:0.8;stroke:#4c72b0;stroke-opacity:0.8;" x="97.942114" xlink:href="#mbd15321bce" y="289.162109"/>
     <use style="fill:#4c72b0;fill-opacity:0.8;stroke:#4c72b0;stroke-opacity:0.8;" x="170.511999" xlink:href="#mbd15321bce" y="267.472149"/>
     <use style="fill:#4c72b0;fill-opacity:0.8;stroke:#4c72b0;stroke-opacity:0.8;" x="156.185905" xlink:href="#mbd15321bce" y="139.291373"/>
     <use style="fill:#4c72b0;fill-opacity:0.8;stroke:#4c72b0;stroke-opacity:0.8;" x="60.553357" xlink:href="#mbd15321bce" y="301.588389"/>
     <use style="fill:#4c72b0;fill-opacity:0.8;stroke:#4c72b0;stroke-opacity:0.8;" x="123.071491" xlink:href="#mbd15321bce" y="238.975542"/>
     <use style="fill:#4c72b0;fill-opacity:0.8;stroke:#4c72b0;stroke-opacity:0.8;" x="86.246384" xlink:href="#mbd15321bce" y="296.093267"/>
     <use style="fill:#4c72b0;fill-opacity:0.8;stroke:#4c72b0;stroke-opacity:0.8;" x="78.496203" xlink:href="#mbd15321bce" y="245.317344"/>
     <use style="fill:#4c72b0;fill-opacity:0.8;stroke:#4c72b0;stroke-opacity:0.8;" x="98.083026" xlink:href="#mbd15321bce" y="247.633264"/>
     <use style="fill:#4c72b0;fill-opacity:0.8;stroke:#4c72b0;stroke-opacity:0.8;" x="53.742591" xlink:href="#mbd15321bce" y="307.257828"/>
     <use style="fill:#4c72b0;fill-opacity:0.8;stroke:#4c72b0;stroke-opacity:0.8;" x="128.707987" xlink:href="#mbd15321bce" y="279.964835"/>
     <use style="fill:#4c72b0;fill-opacity:0.8;stroke:#4c72b0;stroke-opacity:0.8;" x="153.085832" xlink:href="#mbd15321bce" y="236.410598"/>
     <use style="fill:#4c72b0;fill-opacity:0.8;stroke:#4c72b0;stroke-opacity:0.8;" x="83.897844" xlink:href="#mbd15321bce" y="302.493175"/>
     <use style="fill:#4c72b0;fill-opacity:0.8;stroke:#4c72b0;stroke-opacity:0.8;" x="166.613422" xlink:href="#mbd15321bce" y="285.061519"/>
     <use style="fill:#4c72b0;fill-opacity:0.8;stroke:#4c72b0;stroke-opacity:0.8;" x="73.141531" xlink:href="#mbd15321bce" y="286.555661"/>
     <use style="fill:#4c72b0;fill-opacity:0.8;stroke:#4c72b0;stroke-opacity:0.8;" x="136.082403" xlink:href="#mbd15321bce" y="227.852485"/>
     <use style="fill:#4c72b0;fill-opacity:0.8;stroke:#4c72b0;stroke-opacity:0.8;" x="71.262699" xlink:href="#mbd15321bce" y="222.697696"/>
     <use style="fill:#4c72b0;fill-opacity:0.8;stroke:#4c72b0;stroke-opacity:0.8;" x="96.626931" xlink:href="#mbd15321bce" y="301.995128"/>
     <use style="fill:#4c72b0;fill-opacity:0.8;stroke:#4c72b0;stroke-opacity:0.8;" x="74.315801" xlink:href="#mbd15321bce" y="303.306652"/>
     <use style="fill:#4c72b0;fill-opacity:0.8;stroke:#4c72b0;stroke-opacity:0.8;" x="194.842873" xlink:href="#mbd15321bce" y="30.210712"/>
     <use style="fill:#4c72b0;fill-opacity:0.8;stroke:#4c72b0;stroke-opacity:0.8;" x="133.780834" xlink:href="#mbd15321bce" y="226.557562"/>
     <use style="fill:#4c72b0;fill-opacity:0.8;stroke:#4c72b0;stroke-opacity:0.8;" x="206.632544" xlink:href="#mbd15321bce" y="250.181606"/>
     <use style="fill:#4c72b0;fill-opacity:0.8;stroke:#4c72b0;stroke-opacity:0.8;" x="73.893064" xlink:href="#mbd15321bce" y="302.376964"/>
     <use style="fill:#4c72b0;fill-opacity:0.8;stroke:#4c72b0;stroke-opacity:0.8;" x="78.778027" xlink:href="#mbd15321bce" y="304.850599"/>
     <use style="fill:#4c72b0;fill-opacity:0.8;stroke:#4c72b0;stroke-opacity:0.8;" x="92.540472" xlink:href="#mbd15321bce" y="300.002939"/>
    </g>
   </g>
   <g id="PolyCollection_2">
    <defs>
     <path d="M 53.742591 -60.784208 
L 53.742591 -46.618538 
L 55.48573 -47.781364 
L 57.228868 -48.902382 
L 58.972007 -50.183403 
L 60.715145 -51.225697 
L 62.458284 -52.398526 
L 64.201423 -53.475148 
L 65.944561 -54.500866 
L 67.6877 -55.576833 
L 69.430838 -56.301272 
L 71.173977 -56.984579 
L 72.917115 -57.611336 
L 74.660254 -58.170981 
L 76.403392 -58.742921 
L 78.146531 -59.376904 
L 79.88967 -59.914249 
L 81.632808 -60.379368 
L 83.375947 -60.811848 
L 85.119085 -61.336013 
L 86.862224 -61.872513 
L 88.605362 -62.338006 
L 90.348501 -62.790564 
L 92.091639 -63.297149 
L 93.834778 -63.761291 
L 95.577917 -64.213341 
L 97.321055 -64.598496 
L 99.064194 -65.049882 
L 100.807332 -65.503244 
L 102.550471 -65.956096 
L 104.293609 -66.415404 
L 106.036748 -66.942235 
L 107.779887 -67.406622 
L 109.523025 -67.788629 
L 111.266164 -68.217169 
L 113.009302 -68.669985 
L 114.752441 -69.119077 
L 116.495579 -69.571048 
L 118.238718 -70.023632 
L 119.981856 -70.476217 
L 121.724995 -70.928802 
L 123.468134 -71.372017 
L 125.211272 -71.771325 
L 126.954411 -72.168828 
L 128.697549 -72.564207 
L 130.440688 -72.865202 
L 132.183826 -73.142323 
L 133.926965 -73.577658 
L 135.670103 -74.031028 
L 137.413242 -74.447411 
L 139.156381 -74.905434 
L 140.899519 -75.25124 
L 142.642658 -75.596939 
L 144.385796 -75.995193 
L 146.128935 -76.322151 
L 147.872073 -76.705719 
L 149.615212 -77.084854 
L 151.35835 -77.468918 
L 153.101489 -77.833807 
L 154.844628 -78.198727 
L 156.587766 -78.563914 
L 158.330905 -78.930756 
L 160.074043 -79.298125 
L 161.817182 -79.665493 
L 163.56032 -80.032862 
L 165.303459 -80.40023 
L 167.046598 -80.818062 
L 168.789736 -81.241437 
L 170.532875 -81.664812 
L 172.276013 -82.088668 
L 174.019152 -82.438859 
L 175.76229 -82.756538 
L 177.505429 -83.116471 
L 179.248567 -83.52553 
L 180.991706 -83.93459 
L 182.734845 -84.344742 
L 184.477983 -84.756118 
L 186.221122 -85.167493 
L 187.96426 -85.578868 
L 189.707399 -85.990244 
L 191.450537 -86.401619 
L 193.193676 -86.812994 
L 194.936814 -87.22437 
L 196.679953 -87.635745 
L 198.423092 -88.04712 
L 200.16623 -88.417358 
L 201.909369 -88.765958 
L 203.652507 -89.114559 
L 205.395646 -89.463159 
L 207.138784 -89.81176 
L 208.881923 -90.180684 
L 210.625061 -90.587068 
L 212.3682 -90.993819 
L 214.111339 -91.401905 
L 215.854477 -91.809991 
L 217.597616 -92.218077 
L 219.340754 -92.626163 
L 221.083893 -93.034249 
L 222.827031 -93.442334 
L 224.57017 -93.85042 
L 226.313309 -94.258506 
L 226.313309 -170.634342 
L 226.313309 -170.634342 
L 224.57017 -169.381988 
L 222.827031 -168.129634 
L 221.083893 -166.87728 
L 219.340754 -165.624927 
L 217.597616 -164.372573 
L 215.854477 -163.120219 
L 214.111339 -161.867865 
L 212.3682 -160.615512 
L 210.625061 -159.363158 
L 208.881923 -158.110804 
L 207.138784 -156.85845 
L 205.395646 -155.606097 
L 203.652507 -154.353743 
L 201.909369 -153.101389 
L 200.16623 -151.849036 
L 198.423092 -150.596682 
L 196.679953 -149.344328 
L 194.936814 -148.091974 
L 193.193676 -146.839621 
L 191.450537 -145.58719 
L 189.707399 -144.334449 
L 187.96426 -143.081708 
L 186.221122 -141.828967 
L 184.477983 -140.576226 
L 182.734845 -139.323485 
L 180.991706 -138.070744 
L 179.248567 -136.818003 
L 177.505429 -135.565262 
L 175.76229 -134.312521 
L 174.019152 -133.05978 
L 172.276013 -131.807039 
L 170.532875 -130.554298 
L 168.789736 -129.301557 
L 167.046598 -128.048816 
L 165.303459 -126.796075 
L 163.56032 -125.543334 
L 161.817182 -124.289197 
L 160.074043 -123.085063 
L 158.330905 -121.907313 
L 156.587766 -120.729564 
L 154.844628 -119.552948 
L 153.101489 -118.376559 
L 151.35835 -117.203438 
L 149.615212 -116.030318 
L 147.872073 -114.857197 
L 146.128935 -113.683542 
L 144.385796 -112.553046 
L 142.642658 -111.335315 
L 140.899519 -110.160283 
L 139.156381 -108.924327 
L 137.413242 -107.643962 
L 135.670103 -106.571216 
L 133.926965 -105.464938 
L 132.183826 -104.291748 
L 130.440688 -103.116505 
L 128.697549 -101.89824 
L 126.954411 -100.666726 
L 125.211272 -99.36162 
L 123.468134 -98.038477 
L 121.724995 -96.712865 
L 119.981856 -95.387254 
L 118.238718 -94.061643 
L 116.495579 -92.706737 
L 114.752441 -91.366972 
L 113.009302 -90.088429 
L 111.266164 -88.799477 
L 109.523025 -87.789739 
L 107.779887 -86.758821 
L 106.036748 -85.62539 
L 104.293609 -84.47745 
L 102.550471 -83.43486 
L 100.807332 -82.416383 
L 99.064194 -81.385575 
L 97.321055 -80.250092 
L 95.577917 -79.32507 
L 93.834778 -78.348328 
L 92.091639 -77.554506 
L 90.348501 -76.532313 
L 88.605362 -75.512445 
L 86.862224 -74.60196 
L 85.119085 -73.690423 
L 83.375947 -72.631649 
L 81.632808 -71.888152 
L 79.88967 -71.15201 
L 78.146531 -70.421975 
L 76.403392 -69.69194 
L 74.660254 -68.961905 
L 72.917115 -68.228291 
L 71.173977 -67.336967 
L 69.430838 -66.677643 
L 67.6877 -66.14109 
L 65.944561 -65.543942 
L 64.201423 -64.737534 
L 62.458284 -64.026027 
L 60.715145 -63.399122 
L 58.972007 -62.701185 
L 57.228868 -62.03161 
L 55.48573 -61.338384 
L 53.742591 -60.784208 
z
" id="m8a1736a29d" style="stroke:#ffffff;stroke-opacity:0.15;"/>
    </defs>
    <g clip-path="url(#p69a0c9a88f)">
     <use style="fill:#4c72b0;fill-opacity:0.15;stroke:#ffffff;stroke-opacity:0.15;" x="0" xlink:href="#m8a1736a29d" y="360"/>
    </g>
   </g>
   <g id="line2d_15">
    <path clip-path="url(#p69a0c9a88f)" d="M 53.085 305.971623 
L 55.934562 305.309641 
L 58.784124 304.647659 
L 61.633686 303.985677 
L 64.483247 303.323695 
L 67.332809 302.661712 
L 70.182371 301.99973 
L 73.031933 301.337748 
L 75.881495 300.675766 
L 78.731057 300.013784 
L 81.580618 299.351802 
L 84.43018 298.689819 
L 87.279742 298.027837 
L 90.129304 297.365855 
L 92.978866 296.703873 
L 95.828428 296.041891 
L 98.677989 295.379909 
L 101.527551 294.717926 
L 104.377113 294.055944 
L 107.226675 293.393962 
L 110.076237 292.73198 
L 112.925799 292.069998 
L 115.77536 291.408016 
L 118.624922 290.746033 
L 121.474484 290.084051 
L 124.324046 289.422069 
L 127.173608 288.760087 
L 130.02317 288.098105 
L 132.872731 287.436123 
L 135.722293 286.77414 
L 138.571855 286.112158 
L 141.421417 285.450176 
L 144.270979 284.788194 
L 147.120541 284.126212 
L 149.970102 283.46423 
L 152.819664 282.802247 
L 155.669226 282.140265 
L 158.518788 281.478283 
L 161.36835 280.816301 
L 164.217912 280.154319 
L 167.067473 279.492336 
L 169.917035 278.830354 
L 172.766597 278.168372 
L 175.616159 277.50639 
L 178.465721 276.844408 
L 181.315283 276.182426 
L 184.164844 275.520443 
L 187.014406 274.858461 
L 189.863968 274.196479 
L 192.71353 273.534497 
L 195.563092 272.872515 
L 198.412654 272.210533 
L 201.262215 271.54855 
L 204.111777 270.886568 
L 206.961339 270.224586 
L 209.810901 269.562604 
L 212.660463 268.900622 
L 215.510025 268.23864 
L 218.359586 267.576657 
L 221.209148 266.914675 
L 224.05871 266.252693 
L 226.908272 265.590711 
L 229.757834 264.928729 
L 232.607396 264.266747 
L 235.456957 263.604764 
L 238.306519 262.942782 
L 241.156081 262.2808 
L 244.005643 261.618818 
L 246.855205 260.956836 
L 249.704767 260.294853 
L 252.554328 259.632871 
L 255.40389 258.970889 
L 258.253452 258.308907 
L 261.103014 257.646925 
L 263.952576 256.984943 
L 266.802138 256.32296 
L 269.651699 255.660978 
L 272.501261 254.998996 
L 275.350823 254.337014 
L 278.200385 253.675032 
L 281.049947 253.01305 
L 283.899509 252.351067 
L 286.749071 251.689085 
L 289.598632 251.027103 
L 292.448194 250.365121 
L 295.297756 249.703139 
L 298.147318 249.041157 
L 300.99688 248.379174 
L 303.846442 247.717192 
L 306.696003 247.05521 
L 309.545565 246.393228 
L 312.395127 245.731246 
L 315.244689 245.069264 
L 318.094251 244.407281 
L 320.943813 243.745299 
L 323.793374 243.083317 
L 326.642936 242.421335 
L 329.492498 241.759353 
L 332.34206 241.097371 
L 335.191622 240.435388 
" style="fill:none;stroke:#dd8452;stroke-linecap:round;stroke-width:2.25;"/>
   </g>
   <g id="line2d_16">
    <path clip-path="url(#p69a0c9a88f)" d="M 53.742591 306.817678 
L 55.48573 306.157402 
L 57.228868 305.497125 
L 58.972007 304.836849 
L 60.715145 304.176573 
L 62.458284 303.516297 
L 64.201423 302.85602 
L 65.944561 302.195744 
L 67.6877 301.535468 
L 69.430838 300.875192 
L 71.173977 300.214915 
L 72.917115 299.554639 
L 74.660254 298.894363 
L 76.403392 298.234087 
L 78.146531 297.57381 
L 79.88967 296.913534 
L 81.632808 296.253258 
L 83.375947 295.592982 
L 85.119085 294.932705 
L 86.862224 294.272429 
L 88.605362 293.612153 
L 90.348501 292.951877 
L 92.091639 292.2916 
L 93.834778 291.631324 
L 95.577917 290.971048 
L 97.321055 290.310772 
L 99.064194 289.650495 
L 100.807332 288.990219 
L 102.550471 288.329943 
L 104.293609 287.669667 
L 106.036748 287.00939 
L 107.779887 286.349114 
L 109.523025 285.688838 
L 111.266164 285.028562 
L 113.009302 284.368285 
L 114.752441 283.708009 
L 116.495579 283.047733 
L 118.238718 282.387457 
L 119.981856 281.72718 
L 121.724995 281.066904 
L 123.468134 280.406628 
L 125.211272 279.746352 
L 126.954411 279.086075 
L 128.697549 278.425799 
L 130.440688 277.765523 
L 132.183826 277.105247 
L 133.926965 276.44497 
L 135.670103 275.784694 
L 137.413242 275.124418 
L 139.156381 274.464142 
L 140.899519 273.803865 
L 142.642658 273.143589 
L 144.385796 272.483313 
L 146.128935 271.823037 
L 147.872073 271.16276 
L 149.615212 270.502484 
L 151.35835 269.842208 
L 153.101489 269.181932 
L 154.844628 268.521655 
L 156.587766 267.861379 
L 158.330905 267.201103 
L 160.074043 266.540827 
L 161.817182 265.88055 
L 163.56032 265.220274 
L 165.303459 264.559998 
L 167.046598 263.899722 
L 168.789736 263.239445 
L 170.532875 262.579169 
L 172.276013 261.918893 
L 174.019152 261.258617 
L 175.76229 260.59834 
L 177.505429 259.938064 
L 179.248567 259.277788 
L 180.991706 258.617512 
L 182.734845 257.957235 
L 184.477983 257.296959 
L 186.221122 256.636683 
L 187.96426 255.976407 
L 189.707399 255.31613 
L 191.450537 254.655854 
L 193.193676 253.995578 
L 194.936814 253.335302 
L 196.679953 252.675025 
L 198.423092 252.014749 
L 200.16623 251.354473 
L 201.909369 250.694197 
L 203.652507 250.03392 
L 205.395646 249.373644 
L 207.138784 248.713368 
L 208.881923 248.053092 
L 210.625061 247.392815 
L 212.3682 246.732539 
L 214.111339 246.072263 
L 215.854477 245.411987 
L 217.597616 244.75171 
L 219.340754 244.091434 
L 221.083893 243.431158 
L 222.827031 242.770882 
L 224.57017 242.110605 
L 226.313309 241.450329 
" style="fill:none;stroke:#4c72b0;stroke-linecap:round;stroke-width:2.25;"/>
   </g>
   <g id="patch_3">
    <path d="M 53.085 327.54 
L 53.085 16.052174 
" style="fill:none;stroke:#cccccc;stroke-linecap:square;stroke-linejoin:miter;stroke-width:1.25;"/>
   </g>
   <g id="patch_4">
    <path d="M 53.085 327.54 
L 335.191622 327.54 
" style="fill:none;stroke:#cccccc;stroke-linecap:square;stroke-linejoin:miter;stroke-width:1.25;"/>
   </g>
  </g>
 </g>
 <defs>
  <clipPath id="p69a0c9a88f">
   <rect height="311.487826" width="282.106622" x="53.085" y="16.052174"/>
  </clipPath>
 </defs>
</svg>
