<?xml version="1.0" encoding="utf-8" standalone="no"?>
<!DOCTYPE svg PUBLIC "-//W3C//DTD SVG 1.1//EN"
  "http://www.w3.org/Graphics/SVG/1.1/DTD/svg11.dtd">
<!-- Created with matplotlib (https://matplotlib.org/) -->
<svg height="360pt" version="1.1" viewBox="0 0 408.85 360" width="408.85pt" xmlns="http://www.w3.org/2000/svg" xmlns:xlink="http://www.w3.org/1999/xlink">
 <defs>
  <style type="text/css">
*{stroke-linecap:butt;stroke-linejoin:round;}
  </style>
 </defs>
 <g id="figure_1">
  <g id="patch_1">
   <path d="M 0 360 
L 408.85 360 
L 408.85 0 
L 0 0 
z
" style="fill:#ffffff;"/>
  </g>
  <g id="axes_1">
   <g id="patch_2">
    <path d="M 60.28834 327.54 
L 355.9115 327.54 
L 355.9115 13.52573 
L 60.28834 13.52573 
z
" style="fill:#ffffff;"/>
   </g>
   <g id="matplotlib.axis_1">
    <g id="xtick_1">
     <g id="line2d_1">
      <path clip-path="url(#p6716e80a5a)" d="M 76.517706 327.54 
L 76.517706 13.52573 
" style="fill:none;stroke:#cccccc;stroke-linecap:round;"/>
     </g>
     <g id="text_1">
      <!-- 0 -->
      <defs>
       <path d="M 4.15625 35.296875 
Q 4.15625 48 6.765625 55.734375 
Q 9.375 63.484375 14.515625 67.671875 
Q 19.671875 71.875 27.484375 71.875 
Q 33.25 71.875 37.59375 69.546875 
Q 41.9375 67.234375 44.765625 62.859375 
Q 47.609375 58.5 49.21875 52.21875 
Q 50.828125 45.953125 50.828125 35.296875 
Q 50.828125 22.703125 48.234375 14.96875 
Q 45.65625 7.234375 40.5 3 
Q 35.359375 -1.21875 27.484375 -1.21875 
Q 17.140625 -1.21875 11.234375 6.203125 
Q 4.15625 15.140625 4.15625 35.296875 
z
M 13.1875 35.296875 
Q 13.1875 17.671875 17.3125 11.828125 
Q 21.4375 6 27.484375 6 
Q 33.546875 6 37.671875 11.859375 
Q 41.796875 17.71875 41.796875 35.296875 
Q 41.796875 52.984375 37.671875 58.78125 
Q 33.546875 64.59375 27.390625 64.59375 
Q 21.34375 64.59375 17.71875 59.46875 
Q 13.1875 52.9375 13.1875 35.296875 
z
" id="ArialMT-48"/>
      </defs>
      <g style="fill:#262626;" transform="translate(73.459191 344.913594)scale(0.11 -0.11)">
       <use xlink:href="#ArialMT-48"/>
      </g>
     </g>
    </g>
    <g id="xtick_2">
     <g id="line2d_2">
      <path clip-path="url(#p6716e80a5a)" d="M 120.305465 327.54 
L 120.305465 13.52573 
" style="fill:none;stroke:#cccccc;stroke-linecap:round;"/>
     </g>
     <g id="text_2">
      <!-- 1000 -->
      <defs>
       <path d="M 37.25 0 
L 28.46875 0 
L 28.46875 56 
Q 25.296875 52.984375 20.140625 49.953125 
Q 14.984375 46.921875 10.890625 45.40625 
L 10.890625 53.90625 
Q 18.265625 57.375 23.78125 62.296875 
Q 29.296875 67.234375 31.59375 71.875 
L 37.25 71.875 
z
" id="ArialMT-49"/>
      </defs>
      <g style="fill:#262626;" transform="translate(108.071402 344.913594)scale(0.11 -0.11)">
       <use xlink:href="#ArialMT-49"/>
       <use x="55.615234" xlink:href="#ArialMT-48"/>
       <use x="111.230469" xlink:href="#ArialMT-48"/>
       <use x="166.845703" xlink:href="#ArialMT-48"/>
      </g>
     </g>
    </g>
    <g id="xtick_3">
     <g id="line2d_3">
      <path clip-path="url(#p6716e80a5a)" d="M 164.093223 327.54 
L 164.093223 13.52573 
" style="fill:none;stroke:#cccccc;stroke-linecap:round;"/>
     </g>
     <g id="text_3">
      <!-- 2000 -->
      <defs>
       <path d="M 50.34375 8.453125 
L 50.34375 0 
L 3.03125 0 
Q 2.9375 3.171875 4.046875 6.109375 
Q 5.859375 10.9375 9.828125 15.625 
Q 13.8125 20.3125 21.34375 26.46875 
Q 33.015625 36.03125 37.109375 41.625 
Q 41.21875 47.21875 41.21875 52.203125 
Q 41.21875 57.421875 37.46875 61 
Q 33.734375 64.59375 27.734375 64.59375 
Q 21.390625 64.59375 17.578125 60.78125 
Q 13.765625 56.984375 13.71875 50.25 
L 4.6875 51.171875 
Q 5.609375 61.28125 11.65625 66.578125 
Q 17.71875 71.875 27.9375 71.875 
Q 38.234375 71.875 44.234375 66.15625 
Q 50.25 60.453125 50.25 52 
Q 50.25 47.703125 48.484375 43.546875 
Q 46.734375 39.40625 42.65625 34.8125 
Q 38.578125 30.21875 29.109375 22.21875 
Q 21.1875 15.578125 18.9375 13.203125 
Q 16.703125 10.84375 15.234375 8.453125 
z
" id="ArialMT-50"/>
      </defs>
      <g style="fill:#262626;" transform="translate(151.85916 344.913594)scale(0.11 -0.11)">
       <use xlink:href="#ArialMT-50"/>
       <use x="55.615234" xlink:href="#ArialMT-48"/>
       <use x="111.230469" xlink:href="#ArialMT-48"/>
       <use x="166.845703" xlink:href="#ArialMT-48"/>
      </g>
     </g>
    </g>
    <g id="xtick_4">
     <g id="line2d_4">
      <path clip-path="url(#p6716e80a5a)" d="M 207.880981 327.54 
L 207.880981 13.52573 
" style="fill:none;stroke:#cccccc;stroke-linecap:round;"/>
     </g>
     <g id="text_4">
      <!-- 3000 -->
      <defs>
       <path d="M 4.203125 18.890625 
L 12.984375 20.0625 
Q 14.5 12.59375 18.140625 9.296875 
Q 21.78125 6 27 6 
Q 33.203125 6 37.46875 10.296875 
Q 41.75 14.59375 41.75 20.953125 
Q 41.75 27 37.796875 30.921875 
Q 33.84375 34.859375 27.734375 34.859375 
Q 25.25 34.859375 21.53125 33.890625 
L 22.515625 41.609375 
Q 23.390625 41.5 23.921875 41.5 
Q 29.546875 41.5 34.03125 44.421875 
Q 38.53125 47.359375 38.53125 53.46875 
Q 38.53125 58.296875 35.25 61.46875 
Q 31.984375 64.65625 26.8125 64.65625 
Q 21.6875 64.65625 18.265625 61.421875 
Q 14.84375 58.203125 13.875 51.765625 
L 5.078125 53.328125 
Q 6.6875 62.15625 12.390625 67.015625 
Q 18.109375 71.875 26.609375 71.875 
Q 32.46875 71.875 37.390625 69.359375 
Q 42.328125 66.84375 44.9375 62.5 
Q 47.5625 58.15625 47.5625 53.265625 
Q 47.5625 48.640625 45.0625 44.828125 
Q 42.578125 41.015625 37.703125 38.765625 
Q 44.046875 37.3125 47.5625 32.6875 
Q 51.078125 28.078125 51.078125 21.140625 
Q 51.078125 11.765625 44.234375 5.25 
Q 37.40625 -1.265625 26.953125 -1.265625 
Q 17.53125 -1.265625 11.296875 4.34375 
Q 5.078125 9.96875 4.203125 18.890625 
z
" id="ArialMT-51"/>
      </defs>
      <g style="fill:#262626;" transform="translate(195.646919 344.913594)scale(0.11 -0.11)">
       <use xlink:href="#ArialMT-51"/>
       <use x="55.615234" xlink:href="#ArialMT-48"/>
       <use x="111.230469" xlink:href="#ArialMT-48"/>
       <use x="166.845703" xlink:href="#ArialMT-48"/>
      </g>
     </g>
    </g>
    <g id="xtick_5">
     <g id="line2d_5">
      <path clip-path="url(#p6716e80a5a)" d="M 251.668739 327.54 
L 251.668739 13.52573 
" style="fill:none;stroke:#cccccc;stroke-linecap:round;"/>
     </g>
     <g id="text_5">
      <!-- 4000 -->
      <defs>
       <path d="M 32.328125 0 
L 32.328125 17.140625 
L 1.265625 17.140625 
L 1.265625 25.203125 
L 33.9375 71.578125 
L 41.109375 71.578125 
L 41.109375 25.203125 
L 50.78125 25.203125 
L 50.78125 17.140625 
L 41.109375 17.140625 
L 41.109375 0 
z
M 32.328125 25.203125 
L 32.328125 57.46875 
L 9.90625 25.203125 
z
" id="ArialMT-52"/>
      </defs>
      <g style="fill:#262626;" transform="translate(239.434677 344.913594)scale(0.11 -0.11)">
       <use xlink:href="#ArialMT-52"/>
       <use x="55.615234" xlink:href="#ArialMT-48"/>
       <use x="111.230469" xlink:href="#ArialMT-48"/>
       <use x="166.845703" xlink:href="#ArialMT-48"/>
      </g>
     </g>
    </g>
    <g id="xtick_6">
     <g id="line2d_6">
      <path clip-path="url(#p6716e80a5a)" d="M 295.456497 327.54 
L 295.456497 13.52573 
" style="fill:none;stroke:#cccccc;stroke-linecap:round;"/>
     </g>
     <g id="text_6">
      <!-- 5000 -->
      <defs>
       <path d="M 4.15625 18.75 
L 13.375 19.53125 
Q 14.40625 12.796875 18.140625 9.390625 
Q 21.875 6 27.15625 6 
Q 33.5 6 37.890625 10.78125 
Q 42.28125 15.578125 42.28125 23.484375 
Q 42.28125 31 38.0625 35.34375 
Q 33.84375 39.703125 27 39.703125 
Q 22.75 39.703125 19.328125 37.765625 
Q 15.921875 35.84375 13.96875 32.765625 
L 5.71875 33.84375 
L 12.640625 70.609375 
L 48.25 70.609375 
L 48.25 62.203125 
L 19.671875 62.203125 
L 15.828125 42.96875 
Q 22.265625 47.46875 29.34375 47.46875 
Q 38.71875 47.46875 45.15625 40.96875 
Q 51.609375 34.46875 51.609375 24.265625 
Q 51.609375 14.546875 45.953125 7.46875 
Q 39.0625 -1.21875 27.15625 -1.21875 
Q 17.390625 -1.21875 11.203125 4.25 
Q 5.03125 9.71875 4.15625 18.75 
z
" id="ArialMT-53"/>
      </defs>
      <g style="fill:#262626;" transform="translate(283.222435 344.913594)scale(0.11 -0.11)">
       <use xlink:href="#ArialMT-53"/>
       <use x="55.615234" xlink:href="#ArialMT-48"/>
       <use x="111.230469" xlink:href="#ArialMT-48"/>
       <use x="166.845703" xlink:href="#ArialMT-48"/>
      </g>
     </g>
    </g>
    <g id="xtick_7">
     <g id="line2d_7">
      <path clip-path="url(#p6716e80a5a)" d="M 339.244256 327.54 
L 339.244256 13.52573 
" style="fill:none;stroke:#cccccc;stroke-linecap:round;"/>
     </g>
     <g id="text_7">
      <!-- 6000 -->
      <defs>
       <path d="M 49.75 54.046875 
L 41.015625 53.375 
Q 39.84375 58.546875 37.703125 60.890625 
Q 34.125 64.65625 28.90625 64.65625 
Q 24.703125 64.65625 21.53125 62.3125 
Q 17.390625 59.28125 14.984375 53.46875 
Q 12.59375 47.65625 12.5 36.921875 
Q 15.671875 41.75 20.265625 44.09375 
Q 24.859375 46.4375 29.890625 46.4375 
Q 38.671875 46.4375 44.84375 39.96875 
Q 51.03125 33.5 51.03125 23.25 
Q 51.03125 16.5 48.125 10.71875 
Q 45.21875 4.9375 40.140625 1.859375 
Q 35.0625 -1.21875 28.609375 -1.21875 
Q 17.625 -1.21875 10.6875 6.859375 
Q 3.765625 14.9375 3.765625 33.5 
Q 3.765625 54.25 11.421875 63.671875 
Q 18.109375 71.875 29.4375 71.875 
Q 37.890625 71.875 43.28125 67.140625 
Q 48.6875 62.40625 49.75 54.046875 
z
M 13.875 23.1875 
Q 13.875 18.65625 15.796875 14.5 
Q 17.71875 10.359375 21.1875 8.171875 
Q 24.65625 6 28.46875 6 
Q 34.03125 6 38.03125 10.484375 
Q 42.046875 14.984375 42.046875 22.703125 
Q 42.046875 30.125 38.078125 34.390625 
Q 34.125 38.671875 28.125 38.671875 
Q 22.171875 38.671875 18.015625 34.390625 
Q 13.875 30.125 13.875 23.1875 
z
" id="ArialMT-54"/>
      </defs>
      <g style="fill:#262626;" transform="translate(327.010193 344.913594)scale(0.11 -0.11)">
       <use xlink:href="#ArialMT-54"/>
       <use x="55.615234" xlink:href="#ArialMT-48"/>
       <use x="111.230469" xlink:href="#ArialMT-48"/>
       <use x="166.845703" xlink:href="#ArialMT-48"/>
      </g>
     </g>
    </g>
    <g id="text_8">
     <!-- following_count -->
     <defs>
      <path d="M 8.6875 0 
L 8.6875 45.015625 
L 0.921875 45.015625 
L 0.921875 51.859375 
L 8.6875 51.859375 
L 8.6875 57.375 
Q 8.6875 62.59375 9.625 65.140625 
Q 10.890625 68.5625 14.078125 70.671875 
Q 17.28125 72.796875 23.046875 72.796875 
Q 26.765625 72.796875 31.25 71.921875 
L 29.9375 64.265625 
Q 27.203125 64.75 24.75 64.75 
Q 20.75 64.75 19.09375 63.03125 
Q 17.4375 61.328125 17.4375 56.640625 
L 17.4375 51.859375 
L 27.546875 51.859375 
L 27.546875 45.015625 
L 17.4375 45.015625 
L 17.4375 0 
z
" id="ArialMT-102"/>
      <path d="M 3.328125 25.921875 
Q 3.328125 40.328125 11.328125 47.265625 
Q 18.015625 53.03125 27.640625 53.03125 
Q 38.328125 53.03125 45.109375 46.015625 
Q 51.90625 39.015625 51.90625 26.65625 
Q 51.90625 16.65625 48.90625 10.90625 
Q 45.90625 5.171875 40.15625 2 
Q 34.421875 -1.171875 27.640625 -1.171875 
Q 16.75 -1.171875 10.03125 5.8125 
Q 3.328125 12.796875 3.328125 25.921875 
z
M 12.359375 25.921875 
Q 12.359375 15.96875 16.703125 11.015625 
Q 21.046875 6.0625 27.640625 6.0625 
Q 34.1875 6.0625 38.53125 11.03125 
Q 42.875 16.015625 42.875 26.21875 
Q 42.875 35.84375 38.5 40.796875 
Q 34.125 45.75 27.640625 45.75 
Q 21.046875 45.75 16.703125 40.8125 
Q 12.359375 35.890625 12.359375 25.921875 
z
" id="ArialMT-111"/>
      <path d="M 6.390625 0 
L 6.390625 71.578125 
L 15.1875 71.578125 
L 15.1875 0 
z
" id="ArialMT-108"/>
      <path d="M 16.15625 0 
L 0.296875 51.859375 
L 9.375 51.859375 
L 17.625 21.921875 
L 20.703125 10.796875 
Q 20.90625 11.625 23.390625 21.484375 
L 31.640625 51.859375 
L 40.671875 51.859375 
L 48.4375 21.78125 
L 51.03125 11.859375 
L 54 21.875 
L 62.890625 51.859375 
L 71.4375 51.859375 
L 55.21875 0 
L 46.09375 0 
L 37.84375 31.0625 
L 35.84375 39.890625 
L 25.34375 0 
z
" id="ArialMT-119"/>
      <path d="M 6.640625 61.46875 
L 6.640625 71.578125 
L 15.4375 71.578125 
L 15.4375 61.46875 
z
M 6.640625 0 
L 6.640625 51.859375 
L 15.4375 51.859375 
L 15.4375 0 
z
" id="ArialMT-105"/>
      <path d="M 6.59375 0 
L 6.59375 51.859375 
L 14.5 51.859375 
L 14.5 44.484375 
Q 20.21875 53.03125 31 53.03125 
Q 35.6875 53.03125 39.625 51.34375 
Q 43.5625 49.65625 45.515625 46.921875 
Q 47.46875 44.1875 48.25 40.4375 
Q 48.734375 37.984375 48.734375 31.890625 
L 48.734375 0 
L 39.9375 0 
L 39.9375 31.546875 
Q 39.9375 36.921875 38.90625 39.578125 
Q 37.890625 42.234375 35.28125 43.8125 
Q 32.671875 45.40625 29.15625 45.40625 
Q 23.53125 45.40625 19.453125 41.84375 
Q 15.375 38.28125 15.375 28.328125 
L 15.375 0 
z
" id="ArialMT-110"/>
      <path d="M 4.984375 -4.296875 
L 13.53125 -5.5625 
Q 14.0625 -9.515625 16.5 -11.328125 
Q 19.78125 -13.765625 25.4375 -13.765625 
Q 31.546875 -13.765625 34.859375 -11.328125 
Q 38.1875 -8.890625 39.359375 -4.5 
Q 40.046875 -1.8125 39.984375 6.78125 
Q 34.234375 0 25.640625 0 
Q 14.9375 0 9.078125 7.71875 
Q 3.21875 15.4375 3.21875 26.21875 
Q 3.21875 33.640625 5.90625 39.90625 
Q 8.59375 46.1875 13.6875 49.609375 
Q 18.796875 53.03125 25.6875 53.03125 
Q 34.859375 53.03125 40.828125 45.609375 
L 40.828125 51.859375 
L 48.921875 51.859375 
L 48.921875 7.03125 
Q 48.921875 -5.078125 46.453125 -10.125 
Q 44 -15.1875 38.640625 -18.109375 
Q 33.296875 -21.046875 25.484375 -21.046875 
Q 16.21875 -21.046875 10.5 -16.875 
Q 4.78125 -12.703125 4.984375 -4.296875 
z
M 12.25 26.859375 
Q 12.25 16.65625 16.296875 11.96875 
Q 20.359375 7.28125 26.46875 7.28125 
Q 32.515625 7.28125 36.609375 11.9375 
Q 40.71875 16.609375 40.71875 26.5625 
Q 40.71875 36.078125 36.5 40.90625 
Q 32.28125 45.75 26.3125 45.75 
Q 20.453125 45.75 16.34375 40.984375 
Q 12.25 36.234375 12.25 26.859375 
z
" id="ArialMT-103"/>
      <path d="M -1.515625 -19.875 
L -1.515625 -13.53125 
L 56.734375 -13.53125 
L 56.734375 -19.875 
z
" id="ArialMT-95"/>
      <path d="M 40.4375 19 
L 49.078125 17.875 
Q 47.65625 8.9375 41.8125 3.875 
Q 35.984375 -1.171875 27.484375 -1.171875 
Q 16.84375 -1.171875 10.375 5.78125 
Q 3.90625 12.75 3.90625 25.734375 
Q 3.90625 34.125 6.6875 40.421875 
Q 9.46875 46.734375 15.15625 49.875 
Q 20.84375 53.03125 27.546875 53.03125 
Q 35.984375 53.03125 41.359375 48.75 
Q 46.734375 44.484375 48.25 36.625 
L 39.703125 35.296875 
Q 38.484375 40.53125 35.375 43.15625 
Q 32.28125 45.796875 27.875 45.796875 
Q 21.234375 45.796875 17.078125 41.03125 
Q 12.9375 36.28125 12.9375 25.984375 
Q 12.9375 15.53125 16.9375 10.796875 
Q 20.953125 6.0625 27.390625 6.0625 
Q 32.5625 6.0625 36.03125 9.234375 
Q 39.5 12.40625 40.4375 19 
z
" id="ArialMT-99"/>
      <path d="M 40.578125 0 
L 40.578125 7.625 
Q 34.515625 -1.171875 24.125 -1.171875 
Q 19.53125 -1.171875 15.546875 0.578125 
Q 11.578125 2.34375 9.640625 5 
Q 7.71875 7.671875 6.9375 11.53125 
Q 6.390625 14.109375 6.390625 19.734375 
L 6.390625 51.859375 
L 15.1875 51.859375 
L 15.1875 23.09375 
Q 15.1875 16.21875 15.71875 13.8125 
Q 16.546875 10.359375 19.234375 8.375 
Q 21.921875 6.390625 25.875 6.390625 
Q 29.828125 6.390625 33.296875 8.421875 
Q 36.765625 10.453125 38.203125 13.9375 
Q 39.65625 17.4375 39.65625 24.078125 
L 39.65625 51.859375 
L 48.4375 51.859375 
L 48.4375 0 
z
" id="ArialMT-117"/>
      <path d="M 25.78125 7.859375 
L 27.046875 0.09375 
Q 23.34375 -0.6875 20.40625 -0.6875 
Q 15.625 -0.6875 12.984375 0.828125 
Q 10.359375 2.34375 9.28125 4.8125 
Q 8.203125 7.28125 8.203125 15.1875 
L 8.203125 45.015625 
L 1.765625 45.015625 
L 1.765625 51.859375 
L 8.203125 51.859375 
L 8.203125 64.703125 
L 16.9375 69.96875 
L 16.9375 51.859375 
L 25.78125 51.859375 
L 25.78125 45.015625 
L 16.9375 45.015625 
L 16.9375 14.703125 
Q 16.9375 10.9375 17.40625 9.859375 
Q 17.875 8.796875 18.921875 8.15625 
Q 19.96875 7.515625 21.921875 7.515625 
Q 23.390625 7.515625 25.78125 7.859375 
z
" id="ArialMT-116"/>
     </defs>
     <g style="fill:#262626;" transform="translate(166.74117 359.835469)scale(0.12 -0.12)">
      <use xlink:href="#ArialMT-102"/>
      <use x="27.783203" xlink:href="#ArialMT-111"/>
      <use x="83.398438" xlink:href="#ArialMT-108"/>
      <use x="105.615234" xlink:href="#ArialMT-108"/>
      <use x="127.832031" xlink:href="#ArialMT-111"/>
      <use x="183.447266" xlink:href="#ArialMT-119"/>
      <use x="255.664062" xlink:href="#ArialMT-105"/>
      <use x="277.880859" xlink:href="#ArialMT-110"/>
      <use x="333.496094" xlink:href="#ArialMT-103"/>
      <use x="389.111328" xlink:href="#ArialMT-95"/>
      <use x="444.726562" xlink:href="#ArialMT-99"/>
      <use x="494.726562" xlink:href="#ArialMT-111"/>
      <use x="550.341797" xlink:href="#ArialMT-117"/>
      <use x="605.957031" xlink:href="#ArialMT-110"/>
      <use x="661.572266" xlink:href="#ArialMT-116"/>
     </g>
    </g>
   </g>
   <g id="matplotlib.axis_2">
    <g id="ytick_1">
     <g id="line2d_8">
      <path clip-path="url(#p6716e80a5a)" d="M 60.28834 307.395742 
L 355.9115 307.395742 
" style="fill:none;stroke:#cccccc;stroke-linecap:round;"/>
     </g>
     <g id="text_9">
      <!-- 0 -->
      <g style="fill:#262626;" transform="translate(44.671308 311.332539)scale(0.11 -0.11)">
       <use xlink:href="#ArialMT-48"/>
      </g>
     </g>
    </g>
    <g id="ytick_2">
     <g id="line2d_9">
      <path clip-path="url(#p6716e80a5a)" d="M 60.28834 265.910347 
L 355.9115 265.910347 
" style="fill:none;stroke:#cccccc;stroke-linecap:round;"/>
     </g>
     <g id="text_10">
      <!-- 5000 -->
      <g style="fill:#262626;" transform="translate(26.320215 269.847144)scale(0.11 -0.11)">
       <use xlink:href="#ArialMT-53"/>
       <use x="55.615234" xlink:href="#ArialMT-48"/>
       <use x="111.230469" xlink:href="#ArialMT-48"/>
       <use x="166.845703" xlink:href="#ArialMT-48"/>
      </g>
     </g>
    </g>
    <g id="ytick_3">
     <g id="line2d_10">
      <path clip-path="url(#p6716e80a5a)" d="M 60.28834 224.424952 
L 355.9115 224.424952 
" style="fill:none;stroke:#cccccc;stroke-linecap:round;"/>
     </g>
     <g id="text_11">
      <!-- 10000 -->
      <g style="fill:#262626;" transform="translate(20.203183 228.361748)scale(0.11 -0.11)">
       <use xlink:href="#ArialMT-49"/>
       <use x="55.615234" xlink:href="#ArialMT-48"/>
       <use x="111.230469" xlink:href="#ArialMT-48"/>
       <use x="166.845703" xlink:href="#ArialMT-48"/>
       <use x="222.460938" xlink:href="#ArialMT-48"/>
      </g>
     </g>
    </g>
    <g id="ytick_4">
     <g id="line2d_11">
      <path clip-path="url(#p6716e80a5a)" d="M 60.28834 182.939556 
L 355.9115 182.939556 
" style="fill:none;stroke:#cccccc;stroke-linecap:round;"/>
     </g>
     <g id="text_12">
      <!-- 15000 -->
      <g style="fill:#262626;" transform="translate(20.203183 186.876353)scale(0.11 -0.11)">
       <use xlink:href="#ArialMT-49"/>
       <use x="55.615234" xlink:href="#ArialMT-53"/>
       <use x="111.230469" xlink:href="#ArialMT-48"/>
       <use x="166.845703" xlink:href="#ArialMT-48"/>
       <use x="222.460938" xlink:href="#ArialMT-48"/>
      </g>
     </g>
    </g>
    <g id="ytick_5">
     <g id="line2d_12">
      <path clip-path="url(#p6716e80a5a)" d="M 60.28834 141.454161 
L 355.9115 141.454161 
" style="fill:none;stroke:#cccccc;stroke-linecap:round;"/>
     </g>
     <g id="text_13">
      <!-- 20000 -->
      <g style="fill:#262626;" transform="translate(20.203183 145.390958)scale(0.11 -0.11)">
       <use xlink:href="#ArialMT-50"/>
       <use x="55.615234" xlink:href="#ArialMT-48"/>
       <use x="111.230469" xlink:href="#ArialMT-48"/>
       <use x="166.845703" xlink:href="#ArialMT-48"/>
       <use x="222.460938" xlink:href="#ArialMT-48"/>
      </g>
     </g>
    </g>
    <g id="ytick_6">
     <g id="line2d_13">
      <path clip-path="url(#p6716e80a5a)" d="M 60.28834 99.968766 
L 355.9115 99.968766 
" style="fill:none;stroke:#cccccc;stroke-linecap:round;"/>
     </g>
     <g id="text_14">
      <!-- 25000 -->
      <g style="fill:#262626;" transform="translate(20.203183 103.905562)scale(0.11 -0.11)">
       <use xlink:href="#ArialMT-50"/>
       <use x="55.615234" xlink:href="#ArialMT-53"/>
       <use x="111.230469" xlink:href="#ArialMT-48"/>
       <use x="166.845703" xlink:href="#ArialMT-48"/>
       <use x="222.460938" xlink:href="#ArialMT-48"/>
      </g>
     </g>
    </g>
    <g id="ytick_7">
     <g id="line2d_14">
      <path clip-path="url(#p6716e80a5a)" d="M 60.28834 58.48337 
L 355.9115 58.48337 
" style="fill:none;stroke:#cccccc;stroke-linecap:round;"/>
     </g>
     <g id="text_15">
      <!-- 30000 -->
      <g style="fill:#262626;" transform="translate(20.203183 62.420167)scale(0.11 -0.11)">
       <use xlink:href="#ArialMT-51"/>
       <use x="55.615234" xlink:href="#ArialMT-48"/>
       <use x="111.230469" xlink:href="#ArialMT-48"/>
       <use x="166.845703" xlink:href="#ArialMT-48"/>
       <use x="222.460938" xlink:href="#ArialMT-48"/>
      </g>
     </g>
    </g>
    <g id="ytick_8">
     <g id="line2d_15">
      <path clip-path="url(#p6716e80a5a)" d="M 60.28834 16.997975 
L 355.9115 16.997975 
" style="fill:none;stroke:#cccccc;stroke-linecap:round;"/>
     </g>
     <g id="text_16">
      <!-- 35000 -->
      <g style="fill:#262626;" transform="translate(20.203183 20.934772)scale(0.11 -0.11)">
       <use xlink:href="#ArialMT-51"/>
       <use x="55.615234" xlink:href="#ArialMT-53"/>
       <use x="111.230469" xlink:href="#ArialMT-48"/>
       <use x="166.845703" xlink:href="#ArialMT-48"/>
       <use x="222.460938" xlink:href="#ArialMT-48"/>
      </g>
     </g>
    </g>
    <g id="text_17">
     <!-- followers_count -->
     <defs>
      <path d="M 42.09375 16.703125 
L 51.171875 15.578125 
Q 49.03125 7.625 43.21875 3.21875 
Q 37.40625 -1.171875 28.375 -1.171875 
Q 17 -1.171875 10.328125 5.828125 
Q 3.65625 12.84375 3.65625 25.484375 
Q 3.65625 38.578125 10.390625 45.796875 
Q 17.140625 53.03125 27.875 53.03125 
Q 38.28125 53.03125 44.875 45.953125 
Q 51.46875 38.875 51.46875 26.03125 
Q 51.46875 25.25 51.421875 23.6875 
L 12.75 23.6875 
Q 13.234375 15.140625 17.578125 10.59375 
Q 21.921875 6.0625 28.421875 6.0625 
Q 33.25 6.0625 36.671875 8.59375 
Q 40.09375 11.140625 42.09375 16.703125 
z
M 13.234375 30.90625 
L 42.1875 30.90625 
Q 41.609375 37.453125 38.875 40.71875 
Q 34.671875 45.796875 27.984375 45.796875 
Q 21.921875 45.796875 17.796875 41.75 
Q 13.671875 37.703125 13.234375 30.90625 
z
" id="ArialMT-101"/>
      <path d="M 6.5 0 
L 6.5 51.859375 
L 14.40625 51.859375 
L 14.40625 44 
Q 17.4375 49.515625 20 51.265625 
Q 22.5625 53.03125 25.640625 53.03125 
Q 30.078125 53.03125 34.671875 50.203125 
L 31.640625 42.046875 
Q 28.421875 43.953125 25.203125 43.953125 
Q 22.3125 43.953125 20.015625 42.21875 
Q 17.71875 40.484375 16.75 37.40625 
Q 15.28125 32.71875 15.28125 27.15625 
L 15.28125 0 
z
" id="ArialMT-114"/>
      <path d="M 3.078125 15.484375 
L 11.765625 16.84375 
Q 12.5 11.625 15.84375 8.84375 
Q 19.1875 6.0625 25.203125 6.0625 
Q 31.25 6.0625 34.171875 8.515625 
Q 37.109375 10.984375 37.109375 14.3125 
Q 37.109375 17.28125 34.515625 19 
Q 32.71875 20.171875 25.53125 21.96875 
Q 15.875 24.421875 12.140625 26.203125 
Q 8.40625 27.984375 6.46875 31.125 
Q 4.546875 34.28125 4.546875 38.09375 
Q 4.546875 41.546875 6.125 44.5 
Q 7.71875 47.46875 10.453125 49.421875 
Q 12.5 50.921875 16.03125 51.96875 
Q 19.578125 53.03125 23.640625 53.03125 
Q 29.734375 53.03125 34.34375 51.265625 
Q 38.96875 49.515625 41.15625 46.5 
Q 43.359375 43.5 44.1875 38.484375 
L 35.59375 37.3125 
Q 35.015625 41.3125 32.203125 43.546875 
Q 29.390625 45.796875 24.265625 45.796875 
Q 18.21875 45.796875 15.625 43.796875 
Q 13.03125 41.796875 13.03125 39.109375 
Q 13.03125 37.40625 14.109375 36.03125 
Q 15.1875 34.625 17.484375 33.6875 
Q 18.796875 33.203125 25.25 31.453125 
Q 34.578125 28.953125 38.25 27.359375 
Q 41.9375 25.78125 44.03125 22.75 
Q 46.140625 19.734375 46.140625 15.234375 
Q 46.140625 10.84375 43.578125 6.953125 
Q 41.015625 3.078125 36.171875 0.953125 
Q 31.34375 -1.171875 25.25 -1.171875 
Q 15.140625 -1.171875 9.84375 3.03125 
Q 4.546875 7.234375 3.078125 15.484375 
z
" id="ArialMT-115"/>
     </defs>
     <g style="fill:#262626;" transform="translate(13.818183 212.21974)rotate(-90)scale(0.12 -0.12)">
      <use xlink:href="#ArialMT-102"/>
      <use x="27.783203" xlink:href="#ArialMT-111"/>
      <use x="83.398438" xlink:href="#ArialMT-108"/>
      <use x="105.615234" xlink:href="#ArialMT-108"/>
      <use x="127.832031" xlink:href="#ArialMT-111"/>
      <use x="183.447266" xlink:href="#ArialMT-119"/>
      <use x="255.664062" xlink:href="#ArialMT-101"/>
      <use x="311.279297" xlink:href="#ArialMT-114"/>
      <use x="344.580078" xlink:href="#ArialMT-115"/>
      <use x="394.580078" xlink:href="#ArialMT-95"/>
      <use x="450.195312" xlink:href="#ArialMT-99"/>
      <use x="500.195312" xlink:href="#ArialMT-111"/>
      <use x="555.810547" xlink:href="#ArialMT-117"/>
      <use x="611.425781" xlink:href="#ArialMT-110"/>
      <use x="667.041016" xlink:href="#ArialMT-116"/>
     </g>
    </g>
   </g>
   <g id="PathCollection_1">
    <defs>
     <path d="M 0 3 
C 0.795609 3 1.55874 2.683901 2.12132 2.12132 
C 2.683901 1.55874 3 0.795609 3 0 
C 3 -0.795609 2.683901 -1.55874 2.12132 -2.12132 
C 1.55874 -2.683901 0.795609 -3 0 -3 
C -0.795609 -3 -1.55874 -2.683901 -2.12132 -2.12132 
C -2.683901 -1.55874 -3 -0.795609 -3 0 
C -3 0.795609 -2.683901 1.55874 -2.12132 2.12132 
C -1.55874 2.683901 -0.795609 3 0 3 
z
" id="mfbf0343b32" style="stroke:#dd8452;stroke-opacity:0.8;"/>
    </defs>
    <g clip-path="url(#p6716e80a5a)">
     <use style="fill:#dd8452;fill-opacity:0.8;stroke:#dd8452;stroke-opacity:0.8;" x="76.736645" xlink:href="#mfbf0343b32" y="307.337663"/>
     <use style="fill:#dd8452;fill-opacity:0.8;stroke:#dd8452;stroke-opacity:0.8;" x="83.261021" xlink:href="#mfbf0343b32" y="306.914512"/>
     <use style="fill:#dd8452;fill-opacity:0.8;stroke:#dd8452;stroke-opacity:0.8;" x="91.055242" xlink:href="#mfbf0343b32" y="305.255096"/>
     <use style="fill:#dd8452;fill-opacity:0.8;stroke:#dd8452;stroke-opacity:0.8;" x="85.012531" xlink:href="#mfbf0343b32" y="306.507955"/>
     <use style="fill:#dd8452;fill-opacity:0.8;stroke:#dd8452;stroke-opacity:0.8;" x="82.560417" xlink:href="#mfbf0343b32" y="306.665599"/>
     <use style="fill:#dd8452;fill-opacity:0.8;stroke:#dd8452;stroke-opacity:0.8;" x="86.720254" xlink:href="#mfbf0343b32" y="304.657706"/>
     <use style="fill:#dd8452;fill-opacity:0.8;stroke:#dd8452;stroke-opacity:0.8;" x="93.113267" xlink:href="#mfbf0343b32" y="306.043318"/>
     <use style="fill:#dd8452;fill-opacity:0.8;stroke:#dd8452;stroke-opacity:0.8;" x="111.372762" xlink:href="#mfbf0343b32" y="306.084804"/>
     <use style="fill:#dd8452;fill-opacity:0.8;stroke:#dd8452;stroke-opacity:0.8;" x="96.922802" xlink:href="#mfbf0343b32" y="306.117992"/>
     <use style="fill:#dd8452;fill-opacity:0.8;stroke:#dd8452;stroke-opacity:0.8;" x="123.808485" xlink:href="#mfbf0343b32" y="304.184773"/>
     <use style="fill:#dd8452;fill-opacity:0.8;stroke:#dd8452;stroke-opacity:0.8;" x="108.176255" xlink:href="#mfbf0343b32" y="305.47082"/>
     <use style="fill:#dd8452;fill-opacity:0.8;stroke:#dd8452;stroke-opacity:0.8;" x="95.609169" xlink:href="#mfbf0343b32" y="306.790056"/>
     <use style="fill:#dd8452;fill-opacity:0.8;stroke:#dd8452;stroke-opacity:0.8;" x="85.975862" xlink:href="#mfbf0343b32" y="305.910565"/>
     <use style="fill:#dd8452;fill-opacity:0.8;stroke:#dd8452;stroke-opacity:0.8;" x="100.031732" xlink:href="#mfbf0343b32" y="305.263393"/>
     <use style="fill:#dd8452;fill-opacity:0.8;stroke:#dd8452;stroke-opacity:0.8;" x="183.885289" xlink:href="#mfbf0343b32" y="305.66995"/>
     <use style="fill:#dd8452;fill-opacity:0.8;stroke:#dd8452;stroke-opacity:0.8;" x="130.595588" xlink:href="#mfbf0343b32" y="305.089154"/>
     <use style="fill:#dd8452;fill-opacity:0.8;stroke:#dd8452;stroke-opacity:0.8;" x="124.552877" xlink:href="#mfbf0343b32" y="303.39655"/>
     <use style="fill:#dd8452;fill-opacity:0.8;stroke:#dd8452;stroke-opacity:0.8;" x="98.192647" xlink:href="#mfbf0343b32" y="302.633219"/>
     <use style="fill:#dd8452;fill-opacity:0.8;stroke:#dd8452;stroke-opacity:0.8;" x="83.742686" xlink:href="#mfbf0343b32" y="306.790056"/>
     <use style="fill:#dd8452;fill-opacity:0.8;stroke:#dd8452;stroke-opacity:0.8;" x="152.533255" xlink:href="#mfbf0343b32" y="302.65811"/>
     <use style="fill:#dd8452;fill-opacity:0.8;stroke:#dd8452;stroke-opacity:0.8;" x="77.656188" xlink:href="#mfbf0343b32" y="307.229801"/>
     <use style="fill:#dd8452;fill-opacity:0.8;stroke:#dd8452;stroke-opacity:0.8;" x="103.140663" xlink:href="#mfbf0343b32" y="302.185177"/>
     <use style="fill:#dd8452;fill-opacity:0.8;stroke:#dd8452;stroke-opacity:0.8;" x="87.683585" xlink:href="#mfbf0343b32" y="305.811"/>
     <use style="fill:#dd8452;fill-opacity:0.8;stroke:#dd8452;stroke-opacity:0.8;" x="99.418704" xlink:href="#mfbf0343b32" y="304.309229"/>
     <use style="fill:#dd8452;fill-opacity:0.8;stroke:#dd8452;stroke-opacity:0.8;" x="92.281299" xlink:href="#mfbf0343b32" y="302.135394"/>
     <use style="fill:#dd8452;fill-opacity:0.8;stroke:#dd8452;stroke-opacity:0.8;" x="122.232126" xlink:href="#mfbf0343b32" y="288.752206"/>
     <use style="fill:#dd8452;fill-opacity:0.8;stroke:#dd8452;stroke-opacity:0.8;" x="87.902523" xlink:href="#mfbf0343b32" y="306.507955"/>
     <use style="fill:#dd8452;fill-opacity:0.8;stroke:#dd8452;stroke-opacity:0.8;" x="160.064749" xlink:href="#mfbf0343b32" y="299.920074"/>
     <use style="fill:#dd8452;fill-opacity:0.8;stroke:#dd8452;stroke-opacity:0.8;" x="149.643263" xlink:href="#mfbf0343b32" y="293.664076"/>
     <use style="fill:#dd8452;fill-opacity:0.8;stroke:#dd8452;stroke-opacity:0.8;" x="117.152746" xlink:href="#mfbf0343b32" y="303.977346"/>
     <use style="fill:#dd8452;fill-opacity:0.8;stroke:#dd8452;stroke-opacity:0.8;" x="85.932074" xlink:href="#mfbf0343b32" y="306.40839"/>
     <use style="fill:#dd8452;fill-opacity:0.8;stroke:#dd8452;stroke-opacity:0.8;" x="256.354029" xlink:href="#mfbf0343b32" y="202.686604"/>
     <use style="fill:#dd8452;fill-opacity:0.8;stroke:#dd8452;stroke-opacity:0.8;" x="130.113922" xlink:href="#mfbf0343b32" y="286.312864"/>
     <use style="fill:#dd8452;fill-opacity:0.8;stroke:#dd8452;stroke-opacity:0.8;" x="104.103994" xlink:href="#mfbf0343b32" y="306.035021"/>
     <use style="fill:#dd8452;fill-opacity:0.8;stroke:#dd8452;stroke-opacity:0.8;" x="140.622984" xlink:href="#mfbf0343b32" y="296.94972"/>
     <use style="fill:#dd8452;fill-opacity:0.8;stroke:#dd8452;stroke-opacity:0.8;" x="95.346442" xlink:href="#mfbf0343b32" y="305.819297"/>
     <use style="fill:#dd8452;fill-opacity:0.8;stroke:#dd8452;stroke-opacity:0.8;" x="135.937694" xlink:href="#mfbf0343b32" y="292.751398"/>
     <use style="fill:#dd8452;fill-opacity:0.8;stroke:#dd8452;stroke-opacity:0.8;" x="82.866931" xlink:href="#mfbf0343b32" y="300.948912"/>
     <use style="fill:#dd8452;fill-opacity:0.8;stroke:#dd8452;stroke-opacity:0.8;" x="125.86651" xlink:href="#mfbf0343b32" y="301.455034"/>
     <use style="fill:#dd8452;fill-opacity:0.8;stroke:#dd8452;stroke-opacity:0.8;" x="111.504125" xlink:href="#mfbf0343b32" y="291.730857"/>
     <use style="fill:#dd8452;fill-opacity:0.8;stroke:#dd8452;stroke-opacity:0.8;" x="117.152746" xlink:href="#mfbf0343b32" y="290.146115"/>
     <use style="fill:#dd8452;fill-opacity:0.8;stroke:#dd8452;stroke-opacity:0.8;" x="95.215079" xlink:href="#mfbf0343b32" y="286.379241"/>
     <use style="fill:#dd8452;fill-opacity:0.8;stroke:#dd8452;stroke-opacity:0.8;" x="111.066248" xlink:href="#mfbf0343b32" y="299.372467"/>
     <use style="fill:#dd8452;fill-opacity:0.8;stroke:#dd8452;stroke-opacity:0.8;" x="123.064093" xlink:href="#mfbf0343b32" y="281.533747"/>
     <use style="fill:#dd8452;fill-opacity:0.8;stroke:#dd8452;stroke-opacity:0.8;" x="114.350329" xlink:href="#mfbf0343b32" y="303.910969"/>
     <use style="fill:#dd8452;fill-opacity:0.8;stroke:#dd8452;stroke-opacity:0.8;" x="97.667194" xlink:href="#mfbf0343b32" y="304.234555"/>
     <use style="fill:#dd8452;fill-opacity:0.8;stroke:#dd8452;stroke-opacity:0.8;" x="91.887209" xlink:href="#mfbf0343b32" y="305.255096"/>
     <use style="fill:#dd8452;fill-opacity:0.8;stroke:#dd8452;stroke-opacity:0.8;" x="125.86651" xlink:href="#mfbf0343b32" y="284.08095"/>
     <use style="fill:#dd8452;fill-opacity:0.8;stroke:#dd8452;stroke-opacity:0.8;" x="83.786474" xlink:href="#mfbf0343b32" y="305.752921"/>
     <use style="fill:#dd8452;fill-opacity:0.8;stroke:#dd8452;stroke-opacity:0.8;" x="115.839113" xlink:href="#mfbf0343b32" y="299.098663"/>
     <use style="fill:#dd8452;fill-opacity:0.8;stroke:#dd8452;stroke-opacity:0.8;" x="88.471764" xlink:href="#mfbf0343b32" y="305.495711"/>
     <use style="fill:#dd8452;fill-opacity:0.8;stroke:#dd8452;stroke-opacity:0.8;" x="129.36953" xlink:href="#mfbf0343b32" y="304.798757"/>
     <use style="fill:#dd8452;fill-opacity:0.8;stroke:#dd8452;stroke-opacity:0.8;" x="130.595588" xlink:href="#mfbf0343b32" y="289.615102"/>
     <use style="fill:#dd8452;fill-opacity:0.8;stroke:#dd8452;stroke-opacity:0.8;" x="154.459916" xlink:href="#mfbf0343b32" y="301.446737"/>
     <use style="fill:#dd8452;fill-opacity:0.8;stroke:#dd8452;stroke-opacity:0.8;" x="245.582241" xlink:href="#mfbf0343b32" y="265.586761"/>
     <use style="fill:#dd8452;fill-opacity:0.8;stroke:#dd8452;stroke-opacity:0.8;" x="115.050934" xlink:href="#mfbf0343b32" y="277.069918"/>
     <use style="fill:#dd8452;fill-opacity:0.8;stroke:#dd8452;stroke-opacity:0.8;" x="76.605282" xlink:href="#mfbf0343b32" y="307.262989"/>
     <use style="fill:#dd8452;fill-opacity:0.8;stroke:#dd8452;stroke-opacity:0.8;" x="96.484924" xlink:href="#mfbf0343b32" y="298.177687"/>
     <use style="fill:#dd8452;fill-opacity:0.8;stroke:#dd8452;stroke-opacity:0.8;" x="193.956474" xlink:href="#mfbf0343b32" y="300.600435"/>
     <use style="fill:#dd8452;fill-opacity:0.8;stroke:#dd8452;stroke-opacity:0.8;" x="110.453219" xlink:href="#mfbf0343b32" y="301.878185"/>
     <use style="fill:#dd8452;fill-opacity:0.8;stroke:#dd8452;stroke-opacity:0.8;" x="105.986868" xlink:href="#mfbf0343b32" y="304.682597"/>
     <use style="fill:#dd8452;fill-opacity:0.8;stroke:#dd8452;stroke-opacity:0.8;" x="116.758656" xlink:href="#mfbf0343b32" y="300.38471"/>
     <use style="fill:#dd8452;fill-opacity:0.8;stroke:#dd8452;stroke-opacity:0.8;" x="157.875361" xlink:href="#mfbf0343b32" y="271.552361"/>
     <use style="fill:#dd8452;fill-opacity:0.8;stroke:#dd8452;stroke-opacity:0.8;" x="109.4461" xlink:href="#mfbf0343b32" y="300.534058"/>
     <use style="fill:#dd8452;fill-opacity:0.8;stroke:#dd8452;stroke-opacity:0.8;" x="125.384844" xlink:href="#mfbf0343b32" y="301.969453"/>
     <use style="fill:#dd8452;fill-opacity:0.8;stroke:#dd8452;stroke-opacity:0.8;" x="82.604205" xlink:href="#mfbf0343b32" y="304.898321"/>
     <use style="fill:#dd8452;fill-opacity:0.8;stroke:#dd8452;stroke-opacity:0.8;" x="111.679276" xlink:href="#mfbf0343b32" y="286.760907"/>
     <use style="fill:#dd8452;fill-opacity:0.8;stroke:#dd8452;stroke-opacity:0.8;" x="82.034964" xlink:href="#mfbf0343b32" y="303.346768"/>
     <use style="fill:#dd8452;fill-opacity:0.8;stroke:#dd8452;stroke-opacity:0.8;" x="301.805722" xlink:href="#mfbf0343b32" y="275.344126"/>
     <use style="fill:#dd8452;fill-opacity:0.8;stroke:#dd8452;stroke-opacity:0.8;" x="119.99895" xlink:href="#mfbf0343b32" y="293.589403"/>
     <use style="fill:#dd8452;fill-opacity:0.8;stroke:#dd8452;stroke-opacity:0.8;" x="125.559996" xlink:href="#mfbf0343b32" y="295.564108"/>
     <use style="fill:#dd8452;fill-opacity:0.8;stroke:#dd8452;stroke-opacity:0.8;" x="147.278724" xlink:href="#mfbf0343b32" y="288.636047"/>
     <use style="fill:#dd8452;fill-opacity:0.8;stroke:#dd8452;stroke-opacity:0.8;" x="102.133545" xlink:href="#mfbf0343b32" y="303.969049"/>
     <use style="fill:#dd8452;fill-opacity:0.8;stroke:#dd8452;stroke-opacity:0.8;" x="125.735147" xlink:href="#mfbf0343b32" y="283.690987"/>
     <use style="fill:#dd8452;fill-opacity:0.8;stroke:#dd8452;stroke-opacity:0.8;" x="176.572734" xlink:href="#mfbf0343b32" y="290.005065"/>
     <use style="fill:#dd8452;fill-opacity:0.8;stroke:#dd8452;stroke-opacity:0.8;" x="143.819491" xlink:href="#mfbf0343b32" y="290.220789"/>
     <use style="fill:#dd8452;fill-opacity:0.8;stroke:#dd8452;stroke-opacity:0.8;" x="103.40339" xlink:href="#mfbf0343b32" y="287.267028"/>
     <use style="fill:#dd8452;fill-opacity:0.8;stroke:#dd8452;stroke-opacity:0.8;" x="169.916995" xlink:href="#mfbf0343b32" y="132.609475"/>
     <use style="fill:#dd8452;fill-opacity:0.8;stroke:#dd8452;stroke-opacity:0.8;" x="165.31928" xlink:href="#mfbf0343b32" y="285.483156"/>
     <use style="fill:#dd8452;fill-opacity:0.8;stroke:#dd8452;stroke-opacity:0.8;" x="84.005413" xlink:href="#mfbf0343b32" y="302.840646"/>
     <use style="fill:#dd8452;fill-opacity:0.8;stroke:#dd8452;stroke-opacity:0.8;" x="271.986259" xlink:href="#mfbf0343b32" y="292.950528"/>
     <use style="fill:#dd8452;fill-opacity:0.8;stroke:#dd8452;stroke-opacity:0.8;" x="133.792094" xlink:href="#mfbf0343b32" y="301.065071"/>
     <use style="fill:#dd8452;fill-opacity:0.8;stroke:#dd8452;stroke-opacity:0.8;" x="78.488155" xlink:href="#mfbf0343b32" y="302.923617"/>
     <use style="fill:#dd8452;fill-opacity:0.8;stroke:#dd8452;stroke-opacity:0.8;" x="138.56496" xlink:href="#mfbf0343b32" y="299.613082"/>
     <use style="fill:#dd8452;fill-opacity:0.8;stroke:#dd8452;stroke-opacity:0.8;" x="101.476728" xlink:href="#mfbf0343b32" y="302.575139"/>
     <use style="fill:#dd8452;fill-opacity:0.8;stroke:#dd8452;stroke-opacity:0.8;" x="106.731259" xlink:href="#mfbf0343b32" y="298.16939"/>
     <use style="fill:#dd8452;fill-opacity:0.8;stroke:#dd8452;stroke-opacity:0.8;" x="128.01211" xlink:href="#mfbf0343b32" y="290.088035"/>
     <use style="fill:#dd8452;fill-opacity:0.8;stroke:#dd8452;stroke-opacity:0.8;" x="121.400158" xlink:href="#mfbf0343b32" y="290.826475"/>
     <use style="fill:#dd8452;fill-opacity:0.8;stroke:#dd8452;stroke-opacity:0.8;" x="101.25779" xlink:href="#mfbf0343b32" y="304.284338"/>
     <use style="fill:#dd8452;fill-opacity:0.8;stroke:#dd8452;stroke-opacity:0.8;" x="76.605282" xlink:href="#mfbf0343b32" y="307.304474"/>
     <use style="fill:#dd8452;fill-opacity:0.8;stroke:#dd8452;stroke-opacity:0.8;" x="177.010611" xlink:href="#mfbf0343b32" y="233.593224"/>
     <use style="fill:#dd8452;fill-opacity:0.8;stroke:#dd8452;stroke-opacity:0.8;" x="96.5725" xlink:href="#mfbf0343b32" y="303.296985"/>
     <use style="fill:#dd8452;fill-opacity:0.8;stroke:#dd8452;stroke-opacity:0.8;" x="125.822722" xlink:href="#mfbf0343b32" y="287.524238"/>
     <use style="fill:#dd8452;fill-opacity:0.8;stroke:#dd8452;stroke-opacity:0.8;" x="85.100107" xlink:href="#mfbf0343b32" y="305.802703"/>
     <use style="fill:#dd8452;fill-opacity:0.8;stroke:#dd8452;stroke-opacity:0.8;" x="108.701709" xlink:href="#mfbf0343b32" y="293.755344"/>
     <use style="fill:#dd8452;fill-opacity:0.8;stroke:#dd8452;stroke-opacity:0.8;" x="139.265564" xlink:href="#mfbf0343b32" y="301.745431"/>
     <use style="fill:#dd8452;fill-opacity:0.8;stroke:#dd8452;stroke-opacity:0.8;" x="168.822301" xlink:href="#mfbf0343b32" y="294.460596"/>
     <use style="fill:#dd8452;fill-opacity:0.8;stroke:#dd8452;stroke-opacity:0.8;" x="282.407746" xlink:href="#mfbf0343b32" y="282.438128"/>
     <use style="fill:#dd8452;fill-opacity:0.8;stroke:#dd8452;stroke-opacity:0.8;" x="209.282189" xlink:href="#mfbf0343b32" y="279.102703"/>
     <use style="fill:#dd8452;fill-opacity:0.8;stroke:#dd8452;stroke-opacity:0.8;" x="161.860047" xlink:href="#mfbf0343b32" y="276.132348"/>
     <use style="fill:#dd8452;fill-opacity:0.8;stroke:#dd8452;stroke-opacity:0.8;" x="206.611136" xlink:href="#mfbf0343b32" y="242.653634"/>
     <use style="fill:#dd8452;fill-opacity:0.8;stroke:#dd8452;stroke-opacity:0.8;" x="78.050278" xlink:href="#mfbf0343b32" y="307.097047"/>
     <use style="fill:#dd8452;fill-opacity:0.8;stroke:#dd8452;stroke-opacity:0.8;" x="123.151669" xlink:href="#mfbf0343b32" y="233.103696"/>
     <use style="fill:#dd8452;fill-opacity:0.8;stroke:#dd8452;stroke-opacity:0.8;" x="208.537797" xlink:href="#mfbf0343b32" y="264.068395"/>
     <use style="fill:#dd8452;fill-opacity:0.8;stroke:#dd8452;stroke-opacity:0.8;" x="111.241399" xlink:href="#mfbf0343b32" y="301.156339"/>
     <use style="fill:#dd8452;fill-opacity:0.8;stroke:#dd8452;stroke-opacity:0.8;" x="116.233203" xlink:href="#mfbf0343b32" y="283.159974"/>
     <use style="fill:#dd8452;fill-opacity:0.8;stroke:#dd8452;stroke-opacity:0.8;" x="91.580695" xlink:href="#mfbf0343b32" y="303.230609"/>
     <use style="fill:#dd8452;fill-opacity:0.8;stroke:#dd8452;stroke-opacity:0.8;" x="101.783243" xlink:href="#mfbf0343b32" y="291.905096"/>
     <use style="fill:#dd8452;fill-opacity:0.8;stroke:#dd8452;stroke-opacity:0.8;" x="160.152325" xlink:href="#mfbf0343b32" y="272.680763"/>
     <use style="fill:#dd8452;fill-opacity:0.8;stroke:#dd8452;stroke-opacity:0.8;" x="93.594932" xlink:href="#mfbf0343b32" y="305.288284"/>
     <use style="fill:#dd8452;fill-opacity:0.8;stroke:#dd8452;stroke-opacity:0.8;" x="132.522249" xlink:href="#mfbf0343b32" y="170.560314"/>
     <use style="fill:#dd8452;fill-opacity:0.8;stroke:#dd8452;stroke-opacity:0.8;" x="125.86651" xlink:href="#mfbf0343b32" y="299.928371"/>
     <use style="fill:#dd8452;fill-opacity:0.8;stroke:#dd8452;stroke-opacity:0.8;" x="109.270949" xlink:href="#mfbf0343b32" y="282.753417"/>
     <use style="fill:#dd8452;fill-opacity:0.8;stroke:#dd8452;stroke-opacity:0.8;" x="122.407277" xlink:href="#mfbf0343b32" y="272.398663"/>
     <use style="fill:#dd8452;fill-opacity:0.8;stroke:#dd8452;stroke-opacity:0.8;" x="115.357448" xlink:href="#mfbf0343b32" y="299.76243"/>
     <use style="fill:#dd8452;fill-opacity:0.8;stroke:#dd8452;stroke-opacity:0.8;" x="141.411164" xlink:href="#mfbf0343b32" y="286.802392"/>
     <use style="fill:#dd8452;fill-opacity:0.8;stroke:#dd8452;stroke-opacity:0.8;" x="93.419781" xlink:href="#mfbf0343b32" y="289.034306"/>
     <use style="fill:#dd8452;fill-opacity:0.8;stroke:#dd8452;stroke-opacity:0.8;" x="80.677543" xlink:href="#mfbf0343b32" y="305.006184"/>
     <use style="fill:#dd8452;fill-opacity:0.8;stroke:#dd8452;stroke-opacity:0.8;" x="116.189415" xlink:href="#mfbf0343b32" y="292.668427"/>
     <use style="fill:#dd8452;fill-opacity:0.8;stroke:#dd8452;stroke-opacity:0.8;" x="121.925612" xlink:href="#mfbf0343b32" y="137.463266"/>
     <use style="fill:#dd8452;fill-opacity:0.8;stroke:#dd8452;stroke-opacity:0.8;" x="156.080063" xlink:href="#mfbf0343b32" y="282.114542"/>
     <use style="fill:#dd8452;fill-opacity:0.8;stroke:#dd8452;stroke-opacity:0.8;" x="88.384189" xlink:href="#mfbf0343b32" y="306.665599"/>
     <use style="fill:#dd8452;fill-opacity:0.8;stroke:#dd8452;stroke-opacity:0.8;" x="103.79748" xlink:href="#mfbf0343b32" y="295.647078"/>
     <use style="fill:#dd8452;fill-opacity:0.8;stroke:#dd8452;stroke-opacity:0.8;" x="95.915683" xlink:href="#mfbf0343b32" y="304.765568"/>
     <use style="fill:#dd8452;fill-opacity:0.8;stroke:#dd8452;stroke-opacity:0.8;" x="87.596009" xlink:href="#mfbf0343b32" y="290.975823"/>
     <use style="fill:#dd8452;fill-opacity:0.8;stroke:#dd8452;stroke-opacity:0.8;" x="169.829419" xlink:href="#mfbf0343b32" y="222.732347"/>
     <use style="fill:#dd8452;fill-opacity:0.8;stroke:#dd8452;stroke-opacity:0.8;" x="117.721987" xlink:href="#mfbf0343b32" y="295.398166"/>
     <use style="fill:#dd8452;fill-opacity:0.8;stroke:#dd8452;stroke-opacity:0.8;" x="124.815604" xlink:href="#mfbf0343b32" y="303.85289"/>
     <use style="fill:#dd8452;fill-opacity:0.8;stroke:#dd8452;stroke-opacity:0.8;" x="124.333938" xlink:href="#mfbf0343b32" y="295.315195"/>
     <use style="fill:#dd8452;fill-opacity:0.8;stroke:#dd8452;stroke-opacity:0.8;" x="114.175178" xlink:href="#mfbf0343b32" y="301.811808"/>
     <use style="fill:#dd8452;fill-opacity:0.8;stroke:#dd8452;stroke-opacity:0.8;" x="155.729761" xlink:href="#mfbf0343b32" y="214.294218"/>
     <use style="fill:#dd8452;fill-opacity:0.8;stroke:#dd8452;stroke-opacity:0.8;" x="118.510166" xlink:href="#mfbf0343b32" y="296.875046"/>
     <use style="fill:#dd8452;fill-opacity:0.8;stroke:#dd8452;stroke-opacity:0.8;" x="107.037774" xlink:href="#mfbf0343b32" y="300.924021"/>
     <use style="fill:#dd8452;fill-opacity:0.8;stroke:#dd8452;stroke-opacity:0.8;" x="108.263831" xlink:href="#mfbf0343b32" y="300.276848"/>
     <use style="fill:#dd8452;fill-opacity:0.8;stroke:#dd8452;stroke-opacity:0.8;" x="116.846232" xlink:href="#mfbf0343b32" y="301.786917"/>
     <use style="fill:#dd8452;fill-opacity:0.8;stroke:#dd8452;stroke-opacity:0.8;" x="95.039928" xlink:href="#mfbf0343b32" y="305.445929"/>
     <use style="fill:#dd8452;fill-opacity:0.8;stroke:#dd8452;stroke-opacity:0.8;" x="188.132702" xlink:href="#mfbf0343b32" y="79.267553"/>
     <use style="fill:#dd8452;fill-opacity:0.8;stroke:#dd8452;stroke-opacity:0.8;" x="78.882245" xlink:href="#mfbf0343b32" y="307.180018"/>
     <use style="fill:#dd8452;fill-opacity:0.8;stroke:#dd8452;stroke-opacity:0.8;" x="95.521593" xlink:href="#mfbf0343b32" y="293.722156"/>
     <use style="fill:#dd8452;fill-opacity:0.8;stroke:#dd8452;stroke-opacity:0.8;" x="81.202996" xlink:href="#mfbf0343b32" y="306.325419"/>
     <use style="fill:#dd8452;fill-opacity:0.8;stroke:#dd8452;stroke-opacity:0.8;" x="159.45172" xlink:href="#mfbf0343b32" y="265.711217"/>
     <use style="fill:#dd8452;fill-opacity:0.8;stroke:#dd8452;stroke-opacity:0.8;" x="153.978251" xlink:href="#mfbf0343b32" y="287.739962"/>
     <use style="fill:#dd8452;fill-opacity:0.8;stroke:#dd8452;stroke-opacity:0.8;" x="104.191569" xlink:href="#mfbf0343b32" y="295.647078"/>
     <use style="fill:#dd8452;fill-opacity:0.8;stroke:#dd8452;stroke-opacity:0.8;" x="251.931466" xlink:href="#mfbf0343b32" y="226.125853"/>
     <use style="fill:#dd8452;fill-opacity:0.8;stroke:#dd8452;stroke-opacity:0.8;" x="120.611979" xlink:href="#mfbf0343b32" y="105.668859"/>
     <use style="fill:#dd8452;fill-opacity:0.8;stroke:#dd8452;stroke-opacity:0.8;" x="120.349252" xlink:href="#mfbf0343b32" y="304.234555"/>
     <use style="fill:#dd8452;fill-opacity:0.8;stroke:#dd8452;stroke-opacity:0.8;" x="86.98298" xlink:href="#mfbf0343b32" y="305.495711"/>
     <use style="fill:#dd8452;fill-opacity:0.8;stroke:#dd8452;stroke-opacity:0.8;" x="155.904912" xlink:href="#mfbf0343b32" y="299.413952"/>
     <use style="fill:#dd8452;fill-opacity:0.8;stroke:#dd8452;stroke-opacity:0.8;" x="95.740532" xlink:href="#mfbf0343b32" y="283.549937"/>
     <use style="fill:#dd8452;fill-opacity:0.8;stroke:#dd8452;stroke-opacity:0.8;" x="103.578541" xlink:href="#mfbf0343b32" y="302.160285"/>
     <use style="fill:#dd8452;fill-opacity:0.8;stroke:#dd8452;stroke-opacity:0.8;" x="139.791017" xlink:href="#mfbf0343b32" y="298.82486"/>
     <use style="fill:#dd8452;fill-opacity:0.8;stroke:#dd8452;stroke-opacity:0.8;" x="89.741609" xlink:href="#mfbf0343b32" y="295.81302"/>
     <use style="fill:#dd8452;fill-opacity:0.8;stroke:#dd8452;stroke-opacity:0.8;" x="100.644761" xlink:href="#mfbf0343b32" y="297.563704"/>
     <use style="fill:#dd8452;fill-opacity:0.8;stroke:#dd8452;stroke-opacity:0.8;" x="95.565381" xlink:href="#mfbf0343b32" y="286.63645"/>
     <use style="fill:#dd8452;fill-opacity:0.8;stroke:#dd8452;stroke-opacity:0.8;" x="130.332861" xlink:href="#mfbf0343b32" y="296.767184"/>
     <use style="fill:#dd8452;fill-opacity:0.8;stroke:#dd8452;stroke-opacity:0.8;" x="91.274181" xlink:href="#mfbf0343b32" y="224.99745"/>
     <use style="fill:#dd8452;fill-opacity:0.8;stroke:#dd8452;stroke-opacity:0.8;" x="111.02246" xlink:href="#mfbf0343b32" y="295.406463"/>
     <use style="fill:#dd8452;fill-opacity:0.8;stroke:#dd8452;stroke-opacity:0.8;" x="146.052666" xlink:href="#mfbf0343b32" y="141.130575"/>
     <use style="fill:#dd8452;fill-opacity:0.8;stroke:#dd8452;stroke-opacity:0.8;" x="148.811295" xlink:href="#mfbf0343b32" y="94.965627"/>
     <use style="fill:#dd8452;fill-opacity:0.8;stroke:#dd8452;stroke-opacity:0.8;" x="116.364566" xlink:href="#mfbf0343b32" y="289.747855"/>
     <use style="fill:#dd8452;fill-opacity:0.8;stroke:#dd8452;stroke-opacity:0.8;" x="108.001104" xlink:href="#mfbf0343b32" y="283.325916"/>
     <use style="fill:#dd8452;fill-opacity:0.8;stroke:#dd8452;stroke-opacity:0.8;" x="90.967666" xlink:href="#mfbf0343b32" y="299.837103"/>
     <use style="fill:#dd8452;fill-opacity:0.8;stroke:#dd8452;stroke-opacity:0.8;" x="111.197611" xlink:href="#mfbf0343b32" y="297.555407"/>
     <use style="fill:#dd8452;fill-opacity:0.8;stroke:#dd8452;stroke-opacity:0.8;" x="78.356792" xlink:href="#mfbf0343b32" y="306.690491"/>
     <use style="fill:#dd8452;fill-opacity:0.8;stroke:#dd8452;stroke-opacity:0.8;" x="91.361756" xlink:href="#mfbf0343b32" y="301.413548"/>
     <use style="fill:#dd8452;fill-opacity:0.8;stroke:#dd8452;stroke-opacity:0.8;" x="135.280878" xlink:href="#mfbf0343b32" y="275.086916"/>
     <use style="fill:#dd8452;fill-opacity:0.8;stroke:#dd8452;stroke-opacity:0.8;" x="213.266875" xlink:href="#mfbf0343b32" y="281.699688"/>
     <use style="fill:#dd8452;fill-opacity:0.8;stroke:#dd8452;stroke-opacity:0.8;" x="112.77397" xlink:href="#mfbf0343b32" y="287.97228"/>
     <use style="fill:#dd8452;fill-opacity:0.8;stroke:#dd8452;stroke-opacity:0.8;" x="83.129658" xlink:href="#mfbf0343b32" y="302.069018"/>
     <use style="fill:#dd8452;fill-opacity:0.8;stroke:#dd8452;stroke-opacity:0.8;" x="87.639797" xlink:href="#mfbf0343b32" y="298.725295"/>
     <use style="fill:#dd8452;fill-opacity:0.8;stroke:#dd8452;stroke-opacity:0.8;" x="108.789284" xlink:href="#mfbf0343b32" y="298.02834"/>
     <use style="fill:#dd8452;fill-opacity:0.8;stroke:#dd8452;stroke-opacity:0.8;" x="110.584582" xlink:href="#mfbf0343b32" y="298.634027"/>
     <use style="fill:#dd8452;fill-opacity:0.8;stroke:#dd8452;stroke-opacity:0.8;" x="86.41374" xlink:href="#mfbf0343b32" y="301.056774"/>
     <use style="fill:#dd8452;fill-opacity:0.8;stroke:#dd8452;stroke-opacity:0.8;" x="100.425822" xlink:href="#mfbf0343b32" y="306.599223"/>
     <use style="fill:#dd8452;fill-opacity:0.8;stroke:#dd8452;stroke-opacity:0.8;" x="144.651458" xlink:href="#mfbf0343b32" y="290.901149"/>
     <use style="fill:#dd8452;fill-opacity:0.8;stroke:#dd8452;stroke-opacity:0.8;" x="161.334594" xlink:href="#mfbf0343b32" y="272.390366"/>
     <use style="fill:#dd8452;fill-opacity:0.8;stroke:#dd8452;stroke-opacity:0.8;" x="80.721331" xlink:href="#mfbf0343b32" y="306.325419"/>
     <use style="fill:#dd8452;fill-opacity:0.8;stroke:#dd8452;stroke-opacity:0.8;" x="101.739455" xlink:href="#mfbf0343b32" y="262.765754"/>
     <use style="fill:#dd8452;fill-opacity:0.8;stroke:#dd8452;stroke-opacity:0.8;" x="111.635488" xlink:href="#mfbf0343b32" y="289.465754"/>
     <use style="fill:#dd8452;fill-opacity:0.8;stroke:#dd8452;stroke-opacity:0.8;" x="88.865854" xlink:href="#mfbf0343b32" y="303.379956"/>
     <use style="fill:#dd8452;fill-opacity:0.8;stroke:#dd8452;stroke-opacity:0.8;" x="94.777201" xlink:href="#mfbf0343b32" y="305.728029"/>
     <use style="fill:#dd8452;fill-opacity:0.8;stroke:#dd8452;stroke-opacity:0.8;" x="84.355715" xlink:href="#mfbf0343b32" y="304.085208"/>
     <use style="fill:#dd8452;fill-opacity:0.8;stroke:#dd8452;stroke-opacity:0.8;" x="123.677122" xlink:href="#mfbf0343b32" y="304.666003"/>
     <use style="fill:#dd8452;fill-opacity:0.8;stroke:#dd8452;stroke-opacity:0.8;" x="339.594558" xlink:href="#mfbf0343b32" y="210.983683"/>
     <use style="fill:#dd8452;fill-opacity:0.8;stroke:#dd8452;stroke-opacity:0.8;" x="294.799681" xlink:href="#mfbf0343b32" y="282.952547"/>
     <use style="fill:#dd8452;fill-opacity:0.8;stroke:#dd8452;stroke-opacity:0.8;" x="150.387654" xlink:href="#mfbf0343b32" y="295.21563"/>
     <use style="fill:#dd8452;fill-opacity:0.8;stroke:#dd8452;stroke-opacity:0.8;" x="80.458605" xlink:href="#mfbf0343b32" y="306.723679"/>
     <use style="fill:#dd8452;fill-opacity:0.8;stroke:#dd8452;stroke-opacity:0.8;" x="247.465114" xlink:href="#mfbf0343b32" y="192.066343"/>
    </g>
   </g>
   <g id="PolyCollection_1">
    <defs>
     <path d="M 76.605282 -57.397698 
L 76.605282 -50.996652 
L 79.261739 -51.921535 
L 81.918196 -52.852492 
L 84.574654 -53.782642 
L 87.231111 -54.736448 
L 89.887568 -55.661908 
L 92.544026 -56.528242 
L 95.200483 -57.371853 
L 97.85694 -58.139494 
L 100.513398 -58.88199 
L 103.169855 -59.505569 
L 105.826312 -60.071845 
L 108.48277 -60.631367 
L 111.139227 -61.133454 
L 113.795684 -61.688509 
L 116.452142 -62.182235 
L 119.108599 -62.638408 
L 121.765056 -63.088177 
L 124.421514 -63.540116 
L 127.077971 -64.012101 
L 129.734428 -64.445471 
L 132.390886 -64.891139 
L 135.047343 -65.336756 
L 137.7038 -65.754933 
L 140.360258 -66.177481 
L 143.016715 -66.646326 
L 145.673172 -67.074669 
L 148.32963 -67.507252 
L 150.986087 -67.932747 
L 153.642544 -68.33364 
L 156.299002 -68.724503 
L 158.955459 -69.07975 
L 161.611916 -69.433527 
L 164.268374 -69.855097 
L 166.924831 -70.277294 
L 169.581288 -70.675623 
L 172.237746 -71.066418 
L 174.894203 -71.457212 
L 177.55066 -71.848007 
L 180.207118 -72.263152 
L 182.863575 -72.678198 
L 185.520032 -73.097975 
L 188.17649 -73.517963 
L 190.832947 -73.936436 
L 193.489404 -74.312413 
L 196.145862 -74.68839 
L 198.802319 -75.072467 
L 201.458776 -75.486712 
L 204.115234 -75.902407 
L 206.771691 -76.318187 
L 209.428148 -76.744691 
L 212.084606 -77.180575 
L 214.741063 -77.616458 
L 217.39752 -78.052342 
L 220.053978 -78.488225 
L 222.710435 -78.924109 
L 225.366892 -79.349683 
L 228.02335 -79.744058 
L 230.679807 -80.138433 
L 233.336264 -80.532807 
L 235.992722 -80.927182 
L 238.649179 -81.321557 
L 241.305636 -81.71668 
L 243.962094 -82.131396 
L 246.618551 -82.546112 
L 249.275008 -82.960828 
L 251.931466 -83.375544 
L 254.587923 -83.79026 
L 257.24438 -84.204976 
L 259.900838 -84.619692 
L 262.557295 -85.021525 
L 265.213752 -85.408638 
L 267.87021 -85.79575 
L 270.526667 -86.182862 
L 273.183124 -86.569974 
L 275.839582 -86.957086 
L 278.496039 -87.344198 
L 281.152496 -87.73131 
L 283.808954 -88.118422 
L 286.465411 -88.505534 
L 289.121868 -88.882173 
L 291.778326 -89.25715 
L 294.434783 -89.632128 
L 297.09124 -90.007105 
L 299.747698 -90.382083 
L 302.404155 -90.773785 
L 305.060612 -91.167141 
L 307.71707 -91.560497 
L 310.373527 -91.953853 
L 313.029984 -92.347209 
L 315.686442 -92.740565 
L 318.342899 -93.132746 
L 320.999356 -93.514859 
L 323.655814 -93.896972 
L 326.312271 -94.279085 
L 328.968728 -94.661198 
L 331.625186 -95.057162 
L 334.281643 -95.461637 
L 336.9381 -95.85846 
L 339.594558 -96.245264 
L 339.594558 -145.487934 
L 339.594558 -145.487934 
L 336.9381 -144.541553 
L 334.281643 -143.595172 
L 331.625186 -142.64879 
L 328.968728 -141.702409 
L 326.312271 -140.756028 
L 323.655814 -139.809647 
L 320.999356 -138.863266 
L 318.342899 -137.916885 
L 315.686442 -136.970504 
L 313.029984 -136.024123 
L 310.373527 -135.077742 
L 307.71707 -134.131361 
L 305.060612 -133.18498 
L 302.404155 -132.238598 
L 299.747698 -131.292217 
L 297.09124 -130.342699 
L 294.434783 -129.386608 
L 291.778326 -128.430516 
L 289.121868 -127.474425 
L 286.465411 -126.518333 
L 283.808954 -125.562242 
L 281.152496 -124.60615 
L 278.496039 -123.649884 
L 275.839582 -122.693311 
L 273.183124 -121.736738 
L 270.526667 -120.780165 
L 267.87021 -119.823592 
L 265.213752 -118.867018 
L 262.557295 -117.910445 
L 259.900838 -116.953872 
L 257.24438 -115.992992 
L 254.587923 -115.027823 
L 251.931466 -114.079464 
L 249.275008 -113.12848 
L 246.618551 -112.175604 
L 243.962094 -111.239777 
L 241.305636 -110.293712 
L 238.649179 -109.347648 
L 235.992722 -108.401584 
L 233.336264 -107.45552 
L 230.679807 -106.509456 
L 228.02335 -105.563392 
L 225.366892 -104.617328 
L 222.710435 -103.671264 
L 220.053978 -102.724718 
L 217.39752 -101.778013 
L 214.741063 -100.831053 
L 212.084606 -99.884093 
L 209.428148 -98.937133 
L 206.771691 -97.990173 
L 204.115234 -97.043214 
L 201.458776 -96.096254 
L 198.802319 -95.149294 
L 196.145862 -94.202334 
L 193.489404 -93.255375 
L 190.832947 -92.308415 
L 188.17649 -91.361268 
L 185.520032 -90.403725 
L 182.863575 -89.424301 
L 180.207118 -88.509437 
L 177.55066 -87.557638 
L 174.894203 -86.627868 
L 172.237746 -85.681667 
L 169.581288 -84.734777 
L 166.924831 -83.787886 
L 164.268374 -82.833108 
L 161.611916 -81.885242 
L 158.955459 -80.948291 
L 156.299002 -80.022462 
L 153.642544 -79.073681 
L 150.986087 -78.116183 
L 148.32963 -77.181309 
L 145.673172 -76.269576 
L 143.016715 -75.388285 
L 140.360258 -74.524677 
L 137.7038 -73.585568 
L 135.047343 -72.642238 
L 132.390886 -71.686445 
L 129.734428 -70.798791 
L 127.077971 -69.875619 
L 124.421514 -68.957096 
L 121.765056 -68.021871 
L 119.108599 -67.116685 
L 116.452142 -66.273975 
L 113.795684 -65.461126 
L 111.139227 -64.59145 
L 108.48277 -63.814327 
L 105.826312 -63.040316 
L 103.169855 -62.267719 
L 100.513398 -61.639767 
L 97.85694 -61.070083 
L 95.200483 -60.597369 
L 92.544026 -60.125519 
L 89.887568 -59.686706 
L 87.231111 -59.169049 
L 84.574654 -58.725032 
L 81.918196 -58.278425 
L 79.261739 -57.837166 
L 76.605282 -57.397698 
z
" id="m22ef6a58bf" style="stroke:#ffffff;stroke-opacity:0.15;"/>
    </defs>
    <g clip-path="url(#p6716e80a5a)">
     <use style="fill:#dd8452;fill-opacity:0.15;stroke:#ffffff;stroke-opacity:0.15;" x="0" xlink:href="#m22ef6a58bf" y="360"/>
    </g>
   </g>
   <g id="PathCollection_2">
    <defs>
     <path d="M 0 3 
C 0.795609 3 1.55874 2.683901 2.12132 2.12132 
C 2.683901 1.55874 3 0.795609 3 0 
C 3 -0.795609 2.683901 -1.55874 2.12132 -2.12132 
C 1.55874 -2.683901 0.795609 -3 0 -3 
C -0.795609 -3 -1.55874 -2.683901 -2.12132 -2.12132 
C -2.683901 -1.55874 -3 -0.795609 -3 0 
C -3 0.795609 -2.683901 1.55874 -2.12132 2.12132 
C -1.55874 2.683901 -0.795609 3 0 3 
z
" id="mce28e473f0" style="stroke:#4c72b0;stroke-opacity:0.8;"/>
    </defs>
    <g clip-path="url(#p6716e80a5a)">
     <use style="fill:#4c72b0;fill-opacity:0.8;stroke:#4c72b0;stroke-opacity:0.8;" x="80.15209" xlink:href="#mce28e473f0" y="307.113642"/>
     <use style="fill:#4c72b0;fill-opacity:0.8;stroke:#4c72b0;stroke-opacity:0.8;" x="78.269217" xlink:href="#mce28e473f0" y="306.906215"/>
     <use style="fill:#4c72b0;fill-opacity:0.8;stroke:#4c72b0;stroke-opacity:0.8;" x="108.307619" xlink:href="#mce28e473f0" y="305.960348"/>
     <use style="fill:#4c72b0;fill-opacity:0.8;stroke:#4c72b0;stroke-opacity:0.8;" x="82.823143" xlink:href="#mce28e473f0" y="306.541143"/>
     <use style="fill:#4c72b0;fill-opacity:0.8;stroke:#4c72b0;stroke-opacity:0.8;" x="101.564304" xlink:href="#mce28e473f0" y="301.562896"/>
     <use style="fill:#4c72b0;fill-opacity:0.8;stroke:#4c72b0;stroke-opacity:0.8;" x="80.502392" xlink:href="#mce28e473f0" y="305.429335"/>
     <use style="fill:#4c72b0;fill-opacity:0.8;stroke:#4c72b0;stroke-opacity:0.8;" x="108.701709" xlink:href="#mce28e473f0" y="296.684213"/>
     <use style="fill:#4c72b0;fill-opacity:0.8;stroke:#4c72b0;stroke-opacity:0.8;" x="103.841267" xlink:href="#mce28e473f0" y="296.816966"/>
     <use style="fill:#4c72b0;fill-opacity:0.8;stroke:#4c72b0;stroke-opacity:0.8;" x="105.286263" xlink:href="#mce28e473f0" y="306.275637"/>
     <use style="fill:#4c72b0;fill-opacity:0.8;stroke:#4c72b0;stroke-opacity:0.8;" x="94.120385" xlink:href="#mce28e473f0" y="306.250745"/>
     <use style="fill:#4c72b0;fill-opacity:0.8;stroke:#4c72b0;stroke-opacity:0.8;" x="92.106148" xlink:href="#mce28e473f0" y="304.541547"/>
     <use style="fill:#4c72b0;fill-opacity:0.8;stroke:#4c72b0;stroke-opacity:0.8;" x="161.378382" xlink:href="#mce28e473f0" y="242.388128"/>
     <use style="fill:#4c72b0;fill-opacity:0.8;stroke:#4c72b0;stroke-opacity:0.8;" x="80.677543" xlink:href="#mce28e473f0" y="306.707085"/>
     <use style="fill:#4c72b0;fill-opacity:0.8;stroke:#4c72b0;stroke-opacity:0.8;" x="93.069479" xlink:href="#mce28e473f0" y="304.972995"/>
     <use style="fill:#4c72b0;fill-opacity:0.8;stroke:#4c72b0;stroke-opacity:0.8;" x="148.855083" xlink:href="#mce28e473f0" y="286.785798"/>
     <use style="fill:#4c72b0;fill-opacity:0.8;stroke:#4c72b0;stroke-opacity:0.8;" x="114.306542" xlink:href="#mce28e473f0" y="305.976942"/>
     <use style="fill:#4c72b0;fill-opacity:0.8;stroke:#4c72b0;stroke-opacity:0.8;" x="96.835226" xlink:href="#mce28e473f0" y="306.491361"/>
     <use style="fill:#4c72b0;fill-opacity:0.8;stroke:#4c72b0;stroke-opacity:0.8;" x="116.627293" xlink:href="#mce28e473f0" y="301.504816"/>
     <use style="fill:#4c72b0;fill-opacity:0.8;stroke:#4c72b0;stroke-opacity:0.8;" x="143.556764" xlink:href="#mce28e473f0" y="273.560254"/>
     <use style="fill:#4c72b0;fill-opacity:0.8;stroke:#4c72b0;stroke-opacity:0.8;" x="186.249828" xlink:href="#mce28e473f0" y="284.387942"/>
     <use style="fill:#4c72b0;fill-opacity:0.8;stroke:#4c72b0;stroke-opacity:0.8;" x="84.487078" xlink:href="#mce28e473f0" y="303.811404"/>
     <use style="fill:#4c72b0;fill-opacity:0.8;stroke:#4c72b0;stroke-opacity:0.8;" x="120.217889" xlink:href="#mce28e473f0" y="280.455127"/>
     <use style="fill:#4c72b0;fill-opacity:0.8;stroke:#4c72b0;stroke-opacity:0.8;" x="114.437905" xlink:href="#mce28e473f0" y="301.156339"/>
     <use style="fill:#4c72b0;fill-opacity:0.8;stroke:#4c72b0;stroke-opacity:0.8;" x="81.159209" xlink:href="#mce28e473f0" y="306.043318"/>
     <use style="fill:#4c72b0;fill-opacity:0.8;stroke:#4c72b0;stroke-opacity:0.8;" x="86.457527" xlink:href="#mce28e473f0" y="303.711839"/>
     <use style="fill:#4c72b0;fill-opacity:0.8;stroke:#4c72b0;stroke-opacity:0.8;" x="111.110035" xlink:href="#mce28e473f0" y="281.459073"/>
     <use style="fill:#4c72b0;fill-opacity:0.8;stroke:#4c72b0;stroke-opacity:0.8;" x="81.947388" xlink:href="#mce28e473f0" y="305.487414"/>
     <use style="fill:#4c72b0;fill-opacity:0.8;stroke:#4c72b0;stroke-opacity:0.8;" x="182.352718" xlink:href="#mce28e473f0" y="289.598508"/>
     <use style="fill:#4c72b0;fill-opacity:0.8;stroke:#4c72b0;stroke-opacity:0.8;" x="238.094534" xlink:href="#mce28e473f0" y="288.080142"/>
     <use style="fill:#4c72b0;fill-opacity:0.8;stroke:#4c72b0;stroke-opacity:0.8;" x="153.934463" xlink:href="#mce28e473f0" y="255.804505"/>
     <use style="fill:#4c72b0;fill-opacity:0.8;stroke:#4c72b0;stroke-opacity:0.8;" x="107.3005" xlink:href="#mce28e473f0" y="295.696861"/>
     <use style="fill:#4c72b0;fill-opacity:0.8;stroke:#4c72b0;stroke-opacity:0.8;" x="201.794483" xlink:href="#mce28e473f0" y="305.296581"/>
     <use style="fill:#4c72b0;fill-opacity:0.8;stroke:#4c72b0;stroke-opacity:0.8;" x="78.750882" xlink:href="#mce28e473f0" y="307.171721"/>
     <use style="fill:#4c72b0;fill-opacity:0.8;stroke:#4c72b0;stroke-opacity:0.8;" x="180.820146" xlink:href="#mce28e473f0" y="272.332286"/>
     <use style="fill:#4c72b0;fill-opacity:0.8;stroke:#4c72b0;stroke-opacity:0.8;" x="80.896482" xlink:href="#mce28e473f0" y="307.14683"/>
     <use style="fill:#4c72b0;fill-opacity:0.8;stroke:#4c72b0;stroke-opacity:0.8;" x="112.160941" xlink:href="#mce28e473f0" y="250.129303"/>
     <use style="fill:#4c72b0;fill-opacity:0.8;stroke:#4c72b0;stroke-opacity:0.8;" x="95.346442" xlink:href="#mce28e473f0" y="304.6743"/>
     <use style="fill:#4c72b0;fill-opacity:0.8;stroke:#4c72b0;stroke-opacity:0.8;" x="82.253903" xlink:href="#mce28e473f0" y="306.657302"/>
     <use style="fill:#4c72b0;fill-opacity:0.8;stroke:#4c72b0;stroke-opacity:0.8;" x="79.276335" xlink:href="#mce28e473f0" y="307.196612"/>
     <use style="fill:#4c72b0;fill-opacity:0.8;stroke:#4c72b0;stroke-opacity:0.8;" x="146.972209" xlink:href="#mce28e473f0" y="244.404318"/>
     <use style="fill:#4c72b0;fill-opacity:0.8;stroke:#4c72b0;stroke-opacity:0.8;" x="152.139165" xlink:href="#mce28e473f0" y="160.164074"/>
     <use style="fill:#4c72b0;fill-opacity:0.8;stroke:#4c72b0;stroke-opacity:0.8;" x="102.396271" xlink:href="#mce28e473f0" y="226.225418"/>
     <use style="fill:#4c72b0;fill-opacity:0.8;stroke:#4c72b0;stroke-opacity:0.8;" x="102.396271" xlink:href="#mce28e473f0" y="68.315409"/>
     <use style="fill:#4c72b0;fill-opacity:0.8;stroke:#4c72b0;stroke-opacity:0.8;" x="112.511244" xlink:href="#mce28e473f0" y="305.512305"/>
     <use style="fill:#4c72b0;fill-opacity:0.8;stroke:#4c72b0;stroke-opacity:0.8;" x="89.172368" xlink:href="#mce28e473f0" y="304.234555"/>
     <use style="fill:#4c72b0;fill-opacity:0.8;stroke:#4c72b0;stroke-opacity:0.8;" x="109.270949" xlink:href="#mce28e473f0" y="291.556618"/>
     <use style="fill:#4c72b0;fill-opacity:0.8;stroke:#4c72b0;stroke-opacity:0.8;" x="97.316891" xlink:href="#mce28e473f0" y="304.715786"/>
     <use style="fill:#4c72b0;fill-opacity:0.8;stroke:#4c72b0;stroke-opacity:0.8;" x="127.574232" xlink:href="#mce28e473f0" y="299.123554"/>
     <use style="fill:#4c72b0;fill-opacity:0.8;stroke:#4c72b0;stroke-opacity:0.8;" x="118.422591" xlink:href="#mce28e473f0" y="289.075792"/>
     <use style="fill:#4c72b0;fill-opacity:0.8;stroke:#4c72b0;stroke-opacity:0.8;" x="186.074677" xlink:href="#mce28e473f0" y="267.395524"/>
     <use style="fill:#4c72b0;fill-opacity:0.8;stroke:#4c72b0;stroke-opacity:0.8;" x="172.719411" xlink:href="#mce28e473f0" y="139.272029"/>
     <use style="fill:#4c72b0;fill-opacity:0.8;stroke:#4c72b0;stroke-opacity:0.8;" x="83.567535" xlink:href="#mce28e473f0" y="301.496519"/>
     <use style="fill:#4c72b0;fill-opacity:0.8;stroke:#4c72b0;stroke-opacity:0.8;" x="141.849042" xlink:href="#mce28e473f0" y="238.911652"/>
     <use style="fill:#4c72b0;fill-opacity:0.8;stroke:#4c72b0;stroke-opacity:0.8;" x="107.519439" xlink:href="#mce28e473f0" y="296.003853"/>
     <use style="fill:#4c72b0;fill-opacity:0.8;stroke:#4c72b0;stroke-opacity:0.8;" x="100.294459" xlink:href="#mce28e473f0" y="245.25062"/>
     <use style="fill:#4c72b0;fill-opacity:0.8;stroke:#4c72b0;stroke-opacity:0.8;" x="118.553954" xlink:href="#mce28e473f0" y="247.565505"/>
     <use style="fill:#4c72b0;fill-opacity:0.8;stroke:#4c72b0;stroke-opacity:0.8;" x="77.21831" xlink:href="#mce28e473f0" y="307.163424"/>
     <use style="fill:#4c72b0;fill-opacity:0.8;stroke:#4c72b0;stroke-opacity:0.8;" x="147.103573" xlink:href="#mce28e473f0" y="279.882628"/>
     <use style="fill:#4c72b0;fill-opacity:0.8;stroke:#4c72b0;stroke-opacity:0.8;" x="169.829419" xlink:href="#mce28e473f0" y="236.347854"/>
     <use style="fill:#4c72b0;fill-opacity:0.8;stroke:#4c72b0;stroke-opacity:0.8;" x="105.330051" xlink:href="#mce28e473f0" y="302.400901"/>
     <use style="fill:#4c72b0;fill-opacity:0.8;stroke:#4c72b0;stroke-opacity:0.8;" x="182.440293" xlink:href="#mce28e473f0" y="284.977035"/>
     <use style="fill:#4c72b0;fill-opacity:0.8;stroke:#4c72b0;stroke-opacity:0.8;" x="95.302655" xlink:href="#mce28e473f0" y="286.470509"/>
     <use style="fill:#4c72b0;fill-opacity:0.8;stroke:#4c72b0;stroke-opacity:0.8;" x="153.978251" xlink:href="#mce28e473f0" y="227.793566"/>
     <use style="fill:#4c72b0;fill-opacity:0.8;stroke:#4c72b0;stroke-opacity:0.8;" x="93.551144" xlink:href="#mce28e473f0" y="222.64108"/>
     <use style="fill:#4c72b0;fill-opacity:0.8;stroke:#4c72b0;stroke-opacity:0.8;" x="117.196534" xlink:href="#mce28e473f0" y="301.903076"/>
     <use style="fill:#4c72b0;fill-opacity:0.8;stroke:#4c72b0;stroke-opacity:0.8;" x="96.397349" xlink:href="#mce28e473f0" y="303.214014"/>
     <use style="fill:#4c72b0;fill-opacity:0.8;stroke:#4c72b0;stroke-opacity:0.8;" x="208.756736" xlink:href="#mce28e473f0" y="30.240113"/>
     <use style="fill:#4c72b0;fill-opacity:0.8;stroke:#4c72b0;stroke-opacity:0.8;" x="151.83265" xlink:href="#mce28e473f0" y="226.499221"/>
     <use style="fill:#4c72b0;fill-opacity:0.8;stroke:#4c72b0;stroke-opacity:0.8;" x="219.747463" xlink:href="#mce28e473f0" y="250.112708"/>
     <use style="fill:#4c72b0;fill-opacity:0.8;stroke:#4c72b0;stroke-opacity:0.8;" x="96.003259" xlink:href="#mce28e473f0" y="302.284742"/>
     <use style="fill:#4c72b0;fill-opacity:0.8;stroke:#4c72b0;stroke-opacity:0.8;" x="100.557186" xlink:href="#mce28e473f0" y="304.757271"/>
     <use style="fill:#4c72b0;fill-opacity:0.8;stroke:#4c72b0;stroke-opacity:0.8;" x="113.386999" xlink:href="#mce28e473f0" y="299.911777"/>
    </g>
   </g>
   <g id="PolyCollection_2">
    <defs>
     <path d="M 77.21831 -60.734047 
L 77.21831 -46.733376 
L 78.843323 -47.809456 
L 80.468335 -48.920359 
L 82.093347 -50.130414 
L 83.71836 -51.324743 
L 85.343372 -52.497883 
L 86.968385 -53.614928 
L 88.593397 -54.642021 
L 90.218409 -55.586442 
L 91.843422 -56.310049 
L 93.468434 -57.062319 
L 95.093446 -57.737822 
L 96.718459 -58.328879 
L 98.343471 -58.9102 
L 99.968483 -59.452963 
L 101.593496 -59.944462 
L 103.218508 -60.453947 
L 104.843521 -61.026452 
L 106.468533 -61.559098 
L 108.093545 -62.053644 
L 109.718558 -62.500541 
L 111.34357 -62.980462 
L 112.968582 -63.428073 
L 114.593595 -63.884966 
L 116.218607 -64.34075 
L 117.843619 -64.797488 
L 119.468632 -65.296029 
L 121.093644 -65.792461 
L 122.718657 -66.240383 
L 124.343669 -66.622839 
L 125.968681 -67.027327 
L 127.593694 -67.353422 
L 129.218706 -67.748564 
L 130.843718 -68.173072 
L 132.468731 -68.598658 
L 134.093743 -69.024244 
L 135.718755 -69.402156 
L 137.343768 -69.834982 
L 138.96878 -70.239599 
L 140.593793 -70.622858 
L 142.218805 -71.009095 
L 143.843817 -71.3417 
L 145.46883 -71.608275 
L 147.093842 -72.008162 
L 148.718854 -72.415342 
L 150.343867 -72.8248 
L 151.968879 -73.235349 
L 153.593891 -73.645898 
L 155.218904 -74.056447 
L 156.843916 -74.466996 
L 158.468928 -74.869898 
L 160.093941 -75.257434 
L 161.718953 -75.644971 
L 163.343966 -76.032508 
L 164.968978 -76.439353 
L 166.59399 -76.80586 
L 168.219003 -77.191532 
L 169.844015 -77.577203 
L 171.469027 -77.962875 
L 173.09404 -78.321836 
L 174.719052 -78.601949 
L 176.344064 -78.949471 
L 177.969077 -79.33213 
L 179.594089 -79.738102 
L 181.219102 -80.156674 
L 182.844114 -80.542322 
L 184.469126 -80.911467 
L 186.094139 -81.280611 
L 187.719151 -81.649755 
L 189.344163 -82.05212 
L 190.969176 -82.460521 
L 192.594188 -82.869286 
L 194.2192 -83.278699 
L 195.844213 -83.688111 
L 197.469225 -84.097523 
L 199.094238 -84.506936 
L 200.71925 -84.916348 
L 202.344262 -85.305725 
L 203.969275 -85.692729 
L 205.594287 -86.040523 
L 207.219299 -86.443265 
L 208.844312 -86.84852 
L 210.469324 -87.232872 
L 212.094336 -87.617706 
L 213.719349 -88.004782 
L 215.344361 -88.391858 
L 216.969373 -88.778934 
L 218.594386 -89.166009 
L 220.219398 -89.553085 
L 221.844411 -89.940161 
L 223.469423 -90.327237 
L 225.094435 -90.714312 
L 226.719448 -91.101388 
L 228.34446 -91.488464 
L 229.969472 -91.87554 
L 231.594485 -92.262615 
L 233.219497 -92.642234 
L 234.844509 -93.029324 
L 236.469522 -93.427619 
L 238.094534 -93.841213 
L 238.094534 -171.811872 
L 238.094534 -171.811872 
L 236.469522 -170.542199 
L 234.844509 -169.272525 
L 233.219497 -168.002851 
L 231.594485 -166.733177 
L 229.969472 -165.463504 
L 228.34446 -164.19383 
L 226.719448 -162.924156 
L 225.094435 -161.665026 
L 223.469423 -160.439345 
L 221.844411 -159.213664 
L 220.219398 -157.987983 
L 218.594386 -156.762302 
L 216.969373 -155.536621 
L 215.344361 -154.31094 
L 213.719349 -153.085259 
L 212.094336 -151.859578 
L 210.469324 -150.633897 
L 208.844312 -149.400936 
L 207.219299 -148.140541 
L 205.594287 -146.880145 
L 203.969275 -145.619749 
L 202.344262 -144.359354 
L 200.71925 -143.105227 
L 199.094238 -141.875635 
L 197.469225 -140.626681 
L 195.844213 -139.318325 
L 194.2192 -138.052526 
L 192.594188 -136.792061 
L 190.969176 -135.531597 
L 189.344163 -134.269849 
L 187.719151 -133.008099 
L 186.094139 -131.746348 
L 184.469126 -130.484597 
L 182.844114 -129.222847 
L 181.219102 -128.015848 
L 179.594089 -126.784534 
L 177.969077 -125.507481 
L 176.344064 -124.230428 
L 174.719052 -122.953375 
L 173.09404 -121.676322 
L 171.469027 -120.400862 
L 169.844015 -119.141023 
L 168.219003 -117.881185 
L 166.59399 -116.621346 
L 164.968978 -115.392101 
L 163.343966 -114.165732 
L 161.718953 -112.938742 
L 160.093941 -111.711753 
L 158.468928 -110.484763 
L 156.843916 -109.367043 
L 155.218904 -108.186162 
L 153.593891 -106.887351 
L 151.968879 -105.593207 
L 150.343867 -104.367957 
L 148.718854 -103.141 
L 147.093842 -101.914043 
L 145.46883 -100.687086 
L 143.843817 -99.46013 
L 142.218805 -98.232218 
L 140.593793 -97.089699 
L 138.96878 -95.779259 
L 137.343768 -94.56754 
L 135.718755 -93.333388 
L 134.093743 -92.105152 
L 132.468731 -90.880144 
L 130.843718 -89.803604 
L 129.218706 -88.70614 
L 127.593694 -87.510319 
L 125.968681 -86.233235 
L 124.343669 -85.180165 
L 122.718657 -83.924931 
L 121.093644 -82.998441 
L 119.468632 -82.09819 
L 117.843619 -81.045358 
L 116.218607 -79.916724 
L 114.593595 -78.721278 
L 112.968582 -77.749108 
L 111.34357 -76.595182 
L 109.718558 -75.560852 
L 108.093545 -74.439309 
L 106.468533 -73.706915 
L 104.843521 -72.821644 
L 103.218508 -72.067626 
L 101.593496 -71.259797 
L 99.968483 -70.330008 
L 98.343471 -69.525152 
L 96.718459 -68.720297 
L 95.093446 -67.962685 
L 93.468434 -67.160526 
L 91.843422 -66.627346 
L 90.218409 -65.824112 
L 88.593397 -64.942953 
L 86.968385 -64.334852 
L 85.343372 -63.660504 
L 83.71836 -63.032439 
L 82.093347 -62.748514 
L 80.468335 -62.12592 
L 78.843323 -61.401478 
L 77.21831 -60.734047 
z
" id="m56a61f35cb" style="stroke:#ffffff;stroke-opacity:0.15;"/>
    </defs>
    <g clip-path="url(#p6716e80a5a)">
     <use style="fill:#4c72b0;fill-opacity:0.15;stroke:#ffffff;stroke-opacity:0.15;" x="0" xlink:href="#m56a61f35cb" y="360"/>
    </g>
   </g>
   <g id="line2d_16">
    <path clip-path="url(#p6716e80a5a)" d="M 76.605282 305.877794 
L 79.261739 305.216108 
L 81.918196 304.554422 
L 84.574654 303.892735 
L 87.231111 303.231049 
L 89.887568 302.569363 
L 92.544026 301.907676 
L 95.200483 301.24599 
L 97.85694 300.584304 
L 100.513398 299.922617 
L 103.169855 299.260931 
L 105.826312 298.599245 
L 108.48277 297.937558 
L 111.139227 297.275872 
L 113.795684 296.614186 
L 116.452142 295.952499 
L 119.108599 295.290813 
L 121.765056 294.629126 
L 124.421514 293.96744 
L 127.077971 293.305754 
L 129.734428 292.644067 
L 132.390886 291.982381 
L 135.047343 291.320695 
L 137.7038 290.659008 
L 140.360258 289.997322 
L 143.016715 289.335636 
L 145.673172 288.673949 
L 148.32963 288.012263 
L 150.986087 287.350577 
L 153.642544 286.68889 
L 156.299002 286.027204 
L 158.955459 285.365518 
L 161.611916 284.703831 
L 164.268374 284.042145 
L 166.924831 283.380459 
L 169.581288 282.718772 
L 172.237746 282.057086 
L 174.894203 281.395399 
L 177.55066 280.733713 
L 180.207118 280.072027 
L 182.863575 279.41034 
L 185.520032 278.748654 
L 188.17649 278.086968 
L 190.832947 277.425281 
L 193.489404 276.763595 
L 196.145862 276.101909 
L 198.802319 275.440222 
L 201.458776 274.778536 
L 204.115234 274.11685 
L 206.771691 273.455163 
L 209.428148 272.793477 
L 212.084606 272.131791 
L 214.741063 271.470104 
L 217.39752 270.808418 
L 220.053978 270.146732 
L 222.710435 269.485045 
L 225.366892 268.823359 
L 228.02335 268.161672 
L 230.679807 267.499986 
L 233.336264 266.8383 
L 235.992722 266.176613 
L 238.649179 265.514927 
L 241.305636 264.853241 
L 243.962094 264.191554 
L 246.618551 263.529868 
L 249.275008 262.868182 
L 251.931466 262.206495 
L 254.587923 261.544809 
L 257.24438 260.883123 
L 259.900838 260.221436 
L 262.557295 259.55975 
L 265.213752 258.898064 
L 267.87021 258.236377 
L 270.526667 257.574691 
L 273.183124 256.913005 
L 275.839582 256.251318 
L 278.496039 255.589632 
L 281.152496 254.927945 
L 283.808954 254.266259 
L 286.465411 253.604573 
L 289.121868 252.942886 
L 291.778326 252.2812 
L 294.434783 251.619514 
L 297.09124 250.957827 
L 299.747698 250.296141 
L 302.404155 249.634455 
L 305.060612 248.972768 
L 307.71707 248.311082 
L 310.373527 247.649396 
L 313.029984 246.987709 
L 315.686442 246.326023 
L 318.342899 245.664337 
L 320.999356 245.00265 
L 323.655814 244.340964 
L 326.312271 243.679278 
L 328.968728 243.017591 
L 331.625186 242.355905 
L 334.281643 241.694218 
L 336.9381 241.032532 
L 339.594558 240.370846 
" style="fill:none;stroke:#dd8452;stroke-linecap:round;stroke-width:2.25;"/>
   </g>
   <g id="line2d_17">
    <path clip-path="url(#p6716e80a5a)" d="M 77.21831 306.723471 
L 78.843323 306.06349 
L 80.468335 305.403509 
L 82.093347 304.743527 
L 83.71836 304.083546 
L 85.343372 303.423565 
L 86.968385 302.763584 
L 88.593397 302.103603 
L 90.218409 301.443621 
L 91.843422 300.78364 
L 93.468434 300.123659 
L 95.093446 299.463678 
L 96.718459 298.803697 
L 98.343471 298.143715 
L 99.968483 297.483734 
L 101.593496 296.823753 
L 103.218508 296.163772 
L 104.843521 295.503791 
L 106.468533 294.84381 
L 108.093545 294.183828 
L 109.718558 293.523847 
L 111.34357 292.863866 
L 112.968582 292.203885 
L 114.593595 291.543904 
L 116.218607 290.883922 
L 117.843619 290.223941 
L 119.468632 289.56396 
L 121.093644 288.903979 
L 122.718657 288.243998 
L 124.343669 287.584016 
L 125.968681 286.924035 
L 127.593694 286.264054 
L 129.218706 285.604073 
L 130.843718 284.944092 
L 132.468731 284.28411 
L 134.093743 283.624129 
L 135.718755 282.964148 
L 137.343768 282.304167 
L 138.96878 281.644186 
L 140.593793 280.984205 
L 142.218805 280.324223 
L 143.843817 279.664242 
L 145.46883 279.004261 
L 147.093842 278.34428 
L 148.718854 277.684299 
L 150.343867 277.024317 
L 151.968879 276.364336 
L 153.593891 275.704355 
L 155.218904 275.044374 
L 156.843916 274.384393 
L 158.468928 273.724411 
L 160.093941 273.06443 
L 161.718953 272.404449 
L 163.343966 271.744468 
L 164.968978 271.084487 
L 166.59399 270.424505 
L 168.219003 269.764524 
L 169.844015 269.104543 
L 171.469027 268.444562 
L 173.09404 267.784581 
L 174.719052 267.1246 
L 176.344064 266.464618 
L 177.969077 265.804637 
L 179.594089 265.144656 
L 181.219102 264.484675 
L 182.844114 263.824694 
L 184.469126 263.164712 
L 186.094139 262.504731 
L 187.719151 261.84475 
L 189.344163 261.184769 
L 190.969176 260.524788 
L 192.594188 259.864806 
L 194.2192 259.204825 
L 195.844213 258.544844 
L 197.469225 257.884863 
L 199.094238 257.224882 
L 200.71925 256.5649 
L 202.344262 255.904919 
L 203.969275 255.244938 
L 205.594287 254.584957 
L 207.219299 253.924976 
L 208.844312 253.264995 
L 210.469324 252.605013 
L 212.094336 251.945032 
L 213.719349 251.285051 
L 215.344361 250.62507 
L 216.969373 249.965089 
L 218.594386 249.305107 
L 220.219398 248.645126 
L 221.844411 247.985145 
L 223.469423 247.325164 
L 225.094435 246.665183 
L 226.719448 246.005201 
L 228.34446 245.34522 
L 229.969472 244.685239 
L 231.594485 244.025258 
L 233.219497 243.365277 
L 234.844509 242.705295 
L 236.469522 242.045314 
L 238.094534 241.385333 
" style="fill:none;stroke:#4c72b0;stroke-linecap:round;stroke-width:2.25;"/>
   </g>
   <g id="patch_3">
    <path d="M 60.28834 327.54 
L 60.28834 13.52573 
" style="fill:none;stroke:#cccccc;stroke-linecap:square;stroke-linejoin:miter;stroke-width:1.25;"/>
   </g>
   <g id="patch_4">
    <path d="M 60.28834 327.54 
L 355.9115 327.54 
" style="fill:none;stroke:#cccccc;stroke-linecap:square;stroke-linejoin:miter;stroke-width:1.25;"/>
   </g>
  </g>
  <g id="legend_1">
   <g id="text_18">
    <!-- gender -->
    <defs>
     <path d="M 40.234375 0 
L 40.234375 6.546875 
Q 35.296875 -1.171875 25.734375 -1.171875 
Q 19.53125 -1.171875 14.328125 2.25 
Q 9.125 5.671875 6.265625 11.796875 
Q 3.421875 17.921875 3.421875 25.875 
Q 3.421875 33.640625 6 39.96875 
Q 8.59375 46.296875 13.765625 49.65625 
Q 18.953125 53.03125 25.34375 53.03125 
Q 30.03125 53.03125 33.6875 51.046875 
Q 37.359375 49.078125 39.65625 45.90625 
L 39.65625 71.578125 
L 48.390625 71.578125 
L 48.390625 0 
z
M 12.453125 25.875 
Q 12.453125 15.921875 16.640625 10.984375 
Q 20.84375 6.0625 26.5625 6.0625 
Q 32.328125 6.0625 36.34375 10.765625 
Q 40.375 15.484375 40.375 25.140625 
Q 40.375 35.796875 36.265625 40.765625 
Q 32.171875 45.75 26.171875 45.75 
Q 20.3125 45.75 16.375 40.96875 
Q 12.453125 36.1875 12.453125 25.875 
z
" id="ArialMT-100"/>
    </defs>
    <g style="fill:#262626;" transform="translate(360.288047 167.472031)scale(0.12 -0.12)">
     <use xlink:href="#ArialMT-103"/>
     <use x="55.615234" xlink:href="#ArialMT-101"/>
     <use x="111.230469" xlink:href="#ArialMT-110"/>
     <use x="166.845703" xlink:href="#ArialMT-100"/>
     <use x="222.460938" xlink:href="#ArialMT-101"/>
     <use x="278.076172" xlink:href="#ArialMT-114"/>
    </g>
   </g>
   <g id="PathCollection_3">
    <g>
     <use style="fill:#dd8452;fill-opacity:0.8;stroke:#dd8452;stroke-opacity:0.8;" x="369.987344" xlink:href="#mfbf0343b32" y="180.48375"/>
    </g>
   </g>
   <g id="text_19">
    <!-- f -->
    <g style="fill:#262626;" transform="translate(389.787344 183.37125)scale(0.11 -0.11)">
     <use xlink:href="#ArialMT-102"/>
    </g>
   </g>
   <g id="PathCollection_4">
    <g>
     <use style="fill:#4c72b0;fill-opacity:0.8;stroke:#4c72b0;stroke-opacity:0.8;" x="369.987344" xlink:href="#mce28e473f0" y="196.043594"/>
    </g>
   </g>
   <g id="text_20">
    <!-- m -->
    <defs>
     <path d="M 6.59375 0 
L 6.59375 51.859375 
L 14.453125 51.859375 
L 14.453125 44.578125 
Q 16.890625 48.390625 20.9375 50.703125 
Q 25 53.03125 30.171875 53.03125 
Q 35.9375 53.03125 39.625 50.640625 
Q 43.3125 48.25 44.828125 43.953125 
Q 50.984375 53.03125 60.84375 53.03125 
Q 68.5625 53.03125 72.703125 48.75 
Q 76.859375 44.484375 76.859375 35.59375 
L 76.859375 0 
L 68.109375 0 
L 68.109375 32.671875 
Q 68.109375 37.9375 67.25 40.25 
Q 66.40625 42.578125 64.15625 43.984375 
Q 61.921875 45.40625 58.890625 45.40625 
Q 53.421875 45.40625 49.796875 41.765625 
Q 46.1875 38.140625 46.1875 30.125 
L 46.1875 0 
L 37.40625 0 
L 37.40625 33.6875 
Q 37.40625 39.546875 35.25 42.46875 
Q 33.109375 45.40625 28.21875 45.40625 
Q 24.515625 45.40625 21.359375 43.453125 
Q 18.21875 41.5 16.796875 37.734375 
Q 15.375 33.984375 15.375 26.90625 
L 15.375 0 
z
" id="ArialMT-109"/>
    </defs>
    <g style="fill:#262626;" transform="translate(389.787344 198.931094)scale(0.11 -0.11)">
     <use xlink:href="#ArialMT-109"/>
    </g>
   </g>
  </g>
 </g>
 <defs>
  <clipPath id="p6716e80a5a">
   <rect height="314.01427" width="295.62316" x="60.28834" y="13.52573"/>
  </clipPath>
 </defs>
</svg>
